<?xml version="1.0" encoding="UTF-8"?>
<svg id="Layer_1" data-name="Layer 1" xmlns="http://www.w3.org/2000/svg" viewBox="0 0 270 186">
  <ellipse cx="135" cy="161.69" rx="74.41" ry="6.01" fill="#ffe6f0" opacity=".8"/>
  <path d="M154.12,148.67l-86.49-11.15c-.68-.09-1.06-.65-1.05-1.22,0-.39,.04-3.14,.04-3.14l45.73-26.14c2.29-1.31,5.26-1.81,7.87-1.48l85.39,11.02c.51,.07,.95,.4,1.16,.88l.14,.32s-.07,2.3-.04,2.83c.02,.42-.17,.85-.6,1.1l-44.58,25.49c-2.29,1.31-4.95,1.84-7.56,1.5Z" fill="#363636"/>
  <path d="M78.28,135.81l-10.33-1.33c-1.14-.15-1.44-1.66-.44-2.24l44.34-25.33c2.29-1.31,4.95-1.84,7.56-1.5l86.18,11.13c1.14,.15,1.44,1.66,.44,2.24l-44.34,25.33c-2.29,1.31-4.95,1.84-7.56,1.5l-75.85-9.8Z" fill="#fff"/>
  <path d="M171,131.55l-74.73-9.72c-1.03-.13-1.3-1.5-.4-2.02l17.57-9.93c2.07-1.18,4.47-1.66,6.83-1.35l74.73,9.72c1.03,.13,1.3,1.5,.4,2.02l-17.57,9.93c-2.07,1.18-4.47,1.66-6.83,1.35Z" fill="#d6d6d6"/>
  <path d="M155.65,145.96c-.52,0-1.04-.03-1.56-.1l-50.2-6.55c-.14-.02-.24-.15-.22-.29,.02-.14,.15-.24,.29-.22l50.2,6.55c2.54,.33,5.17-.2,7.4-1.47,.12-.07,.28-.03,.35,.1,.07,.12,.03,.28-.1,.35-1.87,1.07-4.02,1.63-6.17,1.63Z" fill="#363636"/>
  <path d="M187.67,129.5c-.09,0-.18-.05-.22-.13-.07-.12-.03-.28,.1-.35l18.36-10.46c.43-.25,.52-.68,.46-1-.06-.32-.31-.69-.81-.75l-21.75-2.81c-.14-.02-.24-.15-.22-.29,.02-.14,.15-.24,.29-.22l21.75,2.81c.63,.08,1.12,.54,1.25,1.16,.12,.63-.15,1.24-.71,1.55l-18.36,10.46s-.08,.03-.13,.03Z" fill="#363636"/>
  <path d="M100.82,113.47c-.09,0-.18-.05-.22-.13-.07-.12-.03-.28,.1-.35l11.03-6.3c2.33-1.33,5.07-1.87,7.72-1.53l43.1,5.56c.14,.02,.24,.15,.22,.29s-.15,.24-.29,.22l-43.1-5.56c-2.55-.33-5.17,.2-7.4,1.47l-11.03,6.3s-.08,.03-.13,.03Z" fill="#363636"/>
  <path d="M205.76,113.86l-84.34-11.73c-2.12-.27-3.7-2.07-3.7-4.21l-1.16-58.83s1.92-1.39,3.01-1.92c.55-.27,1.19-.39,1.86-.3l84.09,10.72c2.12,.27,3.7,2.07,3.7,4.21v57.78c0,1.03-.47,1.95-1.2,2.55-.67,.55-2.26,1.73-2.26,1.73Z" fill="#363636"/>
  <path d="M203.18,114.64l-84.09-10.72c-2.12-.27-3.7-2.07-3.7-4.21V41.93c0-1.99,1.74-3.52,3.71-3.27l84.09,10.72c2.12,.27,3.7,2.07,3.7,4.21v57.78c0,1.99-1.74,3.52-3.71,3.27Z" fill="#909090"/>
  <path d="M201.4,112.26l-80.3-10.24c-1.54-.2-2.69-1.51-2.69-3.06V43.22c0-1.33,1.16-2.35,2.48-2.18l80.3,10.24c1.54,.2,2.69,1.51,2.69,3.06v55.74c0,1.33-1.16,2.35-2.48,2.18Z" fill="#fff"/>
  <path d="M203.81,57.86v-3.53c0-1.55-1.12-2.86-2.66-3.06l-80.28-10.24c-1.32-.17-2.47,.86-2.47,2.18v3.99l85.41,10.65Z" fill="#f0f0f0"/>
  <g>
    <path d="M124.04,44.51c-.05,.74-.67,1.3-1.37,1.25-.71-.05-1.24-.69-1.19-1.43,.05-.74,.67-1.3,1.37-1.25s1.24,.69,1.19,1.43Z" fill="#FF2059"/>
    <path d="M127.91,45.19c-.05,.74-.67,1.3-1.37,1.25-.71-.05-1.24-.69-1.19-1.43,.05-.74,.67-1.3,1.37-1.25s1.24,.69,1.19,1.43Z" fill="#FF2059"/>
    <path d="M131.77,45.93c-.05,.74-.67,1.3-1.37,1.25-.71-.05-1.24-.69-1.19-1.43,.05-.74,.67-1.3,1.37-1.25s1.24,.69,1.19,1.43Z" fill="#FF2059"/>
  </g>
  <path d="M120.29,97.77l.09-45.84c0-1.37,1.2-2.42,2.56-2.25l75.99,9.76c.79,.1,1.38,.77,1.38,1.57l-.11,46.64c0,.95-.84,1.68-1.78,1.56l-76.75-9.86c-.8-.1-1.39-.79-1.38-1.59Z" fill="#ffe6f0"/>
  <path d="M201.58,98.97l-37.88-4.56c-1.31-.16-2.37-1.37-2.36-2.7l.29-63.61c0-1.33,1.07-2.28,2.38-2.13l37.88,4.56c1.31,.16,2.37,1.37,2.36,2.7l-.29,63.61c0,1.33-1.07,2.28-2.38,2.13Z" fill="#fff"/>
  <g>
    <polygon points="201.14 39.23 169.74 35.45 169.76 33.09 201.15 36.87 201.14 39.23" fill="#ffe6f0"/>
    <polygon points="192.92 42.89 169.72 40.1 169.73 37.74 192.93 40.53 192.92 42.89" fill="#ffe6f0"/>
  </g>
  <g>
    <polygon points="201.08 51.8 169.69 48.02 169.7 45.66 201.09 49.44 201.08 51.8" fill="#FF2059"/>
    <polygon points="192.86 55.46 169.67 52.67 169.68 50.31 192.87 53.1 192.86 55.46" fill="#FF2059"/>
  </g>
  <g>
    <polygon points="201.02 64.38 169.63 60.59 169.64 58.23 201.03 62.02 201.02 64.38" fill="#ffd7e5"/>
    <polygon points="192.8 68.03 169.61 65.24 169.62 62.88 192.81 65.67 192.8 68.03" fill="#ffd7e5"/>
  </g>
  <g>
    <polygon points="200.96 76.95 169.57 73.17 169.58 70.81 200.97 74.59 200.96 76.95" fill="#ffd7e5"/>
    <polygon points="192.74 80.61 169.55 77.81 169.56 75.45 192.75 78.25 192.74 80.61" fill="#ffd7e5"/>
  </g>
  <g>
    <polygon points="200.96 87.92 169.57 84.14 169.58 81.78 200.97 85.56 200.96 87.92" fill="#ffd7e5"/>
    <polygon points="192.74 91.58 169.55 88.78 169.56 86.42 192.75 89.22 192.74 91.58" fill="#ffd7e5"/>
  </g>
  <polygon points="167.75 36.36 164.36 35.95 164.38 32.5 167.77 32.91 167.75 36.36" fill="#ffe6f0"/>
  <polygon points="167.53 48.74 164.14 48.33 164.15 44.88 167.54 45.29 167.53 48.74" fill="#FF2059"/>
  <polygon points="167.64 61.27 164.25 60.86 164.27 57.42 167.66 57.83 167.64 61.27" fill="#ffd7e5"/>
  <polygon points="167.67 73.94 164.28 73.53 164.29 70.09 167.68 70.49 167.67 73.94" fill="#ffd7e5"/>
  <polygon points="167.53 84.95 164.14 84.54 164.16 81.1 167.55 81.51 167.53 84.95" fill="#ccdbf0"/>
  <path d="M203.87,107.27h0c-.14,0-.26-.12-.26-.26l.38-73.78c0-1.2-.95-2.3-2.13-2.44l-37.88-4.56c-.56-.07-1.08,.09-1.47,.43-.4,.35-.62,.86-.62,1.44l-.32,44.62c0,.14-.12,.26-.26,.26h0c-.14,0-.26-.12-.26-.26l.32-44.62c0-.72,.29-1.37,.8-1.82,.51-.45,1.17-.65,1.88-.56l37.88,4.56c1.43,.17,2.6,1.5,2.59,2.95l-.38,73.78c0,.14-.12,.26-.26,.26Z" fill="#363636"/>
  <path d="M183.56,146.28s2.16,2.87,2.01,4.76l.04,.73,4.51-4.11-.63-.26c-1-.68-2.05-1.09-2.63-2.15l-3.3,1.03Z" fill="#909090"/>
  <path d="M184.79,150.1l.07,.89c.14,1.76-.15,3.53-.85,5.15l-.54,1.25c-.05,.12-.04,.26,.03,.36l.04,.06c.39,.62,2.13,1.15,4.32-.34,1.36-.92,4.11-3.47,5.99-7.94,.12-.28,.04-.61-.19-.8-.85-.72-2.96-2.35-4.61-2.54-.18-.02-.35,.12-.35,.3l-.02,1.77c0,.79-.66,1.43-1.45,1.42l-2.03-.03c-.24,0-.43,.2-.41,.44Z" fill="#fff"/>
  <path d="M185.13,158.69c-.26,0-.48-.03-.65-.06-.53-.11-.96-.36-1.16-.68l-.04-.06c-.12-.18-.13-.41-.05-.6l.54-1.25c.68-1.58,.96-3.32,.83-5.03l-.07-.89c-.01-.19,.05-.37,.18-.51,.13-.13,.3-.21,.49-.21h0l2.03,.03c.32,0,.61-.11,.84-.34,.23-.22,.35-.52,.35-.83l.02-1.77c0-.16,.07-.31,.19-.42,.12-.11,.28-.16,.44-.14,1.72,.19,3.89,1.88,4.75,2.6,.32,.27,.43,.71,.27,1.1-2.21,5.23-5.45,7.62-6.08,8.05-1.19,.81-2.18,1-2.87,1Zm-.08-8.61l.07,.89c.14,1.8-.16,3.62-.87,5.28l-.54,1.25s-.01,.09,.01,.12l.04,.06c.1,.15,.37,.35,.83,.45,.53,.11,1.64,.14,3.13-.86,.61-.41,3.75-2.73,5.9-7.82,.08-.18,.03-.38-.12-.51-.82-.69-2.89-2.3-4.47-2.48-.02,0-.04,0-.04,.01-.01,.01-.02,.03-.02,.03l-.02,1.77c0,.45-.18,.88-.51,1.2-.32,.32-.75,.49-1.21,.48l-2.03-.03c-.06,0-.09,.03-.11,.05-.02,.02-.04,.06-.04,.11Z" fill="#363636"/>
  <path d="M183.7,157.19c-.1,0-.2-.06-.24-.16-.06-.13,0-.28,.13-.34l.28-.12c1.41-.61,2.52-1.79,3.05-3.23l.19-.51c.08-.22,.28-.37,.52-.39,.24-.01,.46,.11,.56,.32l.24,.48c.03,.05,.07,.07,.1,.07,.02,0,.07,0,.11-.04,1.31-1.33,2.31-2.89,2.97-4.64l.38-1.01c.05-.13,.2-.2,.33-.15,.13,.05,.2,.2,.15,.33l-.38,1.01c-.69,1.81-1.73,3.43-3.09,4.82-.15,.15-.36,.22-.56,.19-.21-.03-.38-.16-.48-.35l-.24-.48s-.05-.04-.07-.04c-.02,0-.05,.01-.07,.05l-.19,.51c-.58,1.57-1.79,2.86-3.33,3.53l-.28,.12s-.07,.02-.1,.02Z" fill="#363636"/>
  <path d="M167.11,154.34s.25,2.82-.92,4.16l-.36,.58,5.49-.29-.27-.6c-.47-1.07-.83-2.79-.74-3.91l-3.2,.07Z" fill="#909090"/>
  <path d="M166.36,156.68l-.55,.57c-1.09,1.12-2.44,1.97-3.93,2.45l-1.14,.37c-.11,.04-.19,.12-.23,.23l-.02,.06c-.18,.62,.48,2.09,2.76,2.68,1.37,.35,4.54,.68,8.46-.55,.46-.15,.77-.59,.75-1.08-.05-1.12-.25-3.13-1.01-4.2-.09-.13-.27-.15-.4-.04l-1.19,1.03c-.53,.46-1.34,.4-1.8-.14l-1.17-1.37c-.14-.16-.39-.17-.53-.02Z" fill="#fff"/>
  <path d="M166.23,163.62c-1.63,0-2.72-.24-3.05-.33-1.71-.44-2.43-1.32-2.71-1.81-.24-.43-.33-.86-.23-1.19l.02-.06c.06-.19,.2-.34,.39-.41l1.15-.37c1.44-.47,2.77-1.3,3.83-2.39l.55-.57c.12-.12,.29-.19,.46-.19,.17,0,.34,.08,.45,.22l1.17,1.37c.18,.21,.42,.33,.69,.35,.27,.02,.53-.07,.74-.24l1.19-1.03c.11-.1,.27-.15,.41-.13,.15,.02,.28,.1,.36,.22,.8,1.13,1,3.2,1.05,4.34,.03,.61-.35,1.15-.93,1.34-2.18,.69-4.09,.88-5.55,.88Zm.39-6.79s-.05,0-.07,.03l-.55,.57c-1.12,1.15-2.51,2.02-4.04,2.52l-1.14,.37s-.05,.03-.06,.06l-.02,.06c-.04,.15-.02,.44,.18,.79,.24,.41,.86,1.17,2.39,1.56,.6,.16,3.83,.86,8.32-.55,.35-.11,.58-.45,.57-.82-.05-1.08-.24-3.04-.96-4.06l-1.2,1.03c-.31,.27-.7,.4-1.12,.37-.41-.03-.78-.22-1.05-.53l-1.17-1.37s-.06-.04-.08-.04h0Zm-.26-.15h0Z" fill="#363636"/>
  <path d="M167.17,161.62c-.23,0-.47,0-.7-.02-.19-.01-.37-.11-.47-.28-.1-.16-.12-.37-.05-.55l.18-.44s0-.02,0-.04c-.02-.02-.03-.01-.04,0l-.45,.17c-1.39,.54-2.97,.48-4.32-.15l-.25-.12c-.13-.06-.18-.21-.12-.34,.06-.13,.21-.18,.34-.12l.25,.12c1.23,.58,2.65,.63,3.92,.14l.45-.17c.21-.08,.44-.03,.59,.13,.16,.16,.2,.39,.12,.6l-.18,.44s0,.06,0,.08c0,.01,.03,.04,.07,.04,1.65,.09,3.27-.16,4.82-.73l.9-.34c.13-.05,.28,.02,.33,.15,.05,.13-.02,.28-.15,.33l-.9,.34c-1.4,.52-2.85,.79-4.33,.79Z" fill="#363636"/>
  <path d="M176.97,108.12s2.22,7.33-1.56,12.54c-5.09,7.01-2.18,23.19-4.73,34.07-.05,.21-.24,.35-.45,.35l-3.09-.03c-.21,0-.38-.14-.44-.34-.73-2.71-5.6-21.08-5.44-24.74,.04-.84,.14-1.81,.29-2.83,.71-4.96,2.21-9.77,4.39-14.29l3.39-7.04,7.64,2.31Z" fill="#363636"/>
  <path d="M179.36,107.29s2.79,5.18,1.55,10.63c-1.23,5.45,.62,9.97,1.93,12.1,1.29,2.1,3.66,7.41,4.49,15.29,.02,.19-.05,.38-.19,.52-.44,.42-1.51,1.26-3.14,1.33-.19,0-.37-.07-.5-.21-1.28-1.46-8.67-10.02-11.29-16.82-2.88-7.47-3.42-19.87-3.42-19.87,0,0,7.16,.76,10.56-2.96Z" fill="#363636"/>
  <path d="M172.58,132.42h-.02c-.14-.01-.25-.13-.24-.28,.32-4.42,.89-8.89,2.88-11.63,1.4-1.92,2.12-4.36,2.16-7.25,0-.14,.12-.26,.26-.26h0c.14,0,.26,.12,.26,.26-.04,3-.8,5.54-2.26,7.55-1.91,2.64-2.47,7.02-2.78,11.37,0,.14-.12,.24-.26,.24Z" fill="#ffe6f0"/>
  <g>
    <path d="M153.11,74.95s-.24-1.1,.14-1.83c.36-.67,1.14-2.24,.74-3.48-.52-1.61-2.05-2.75-2.38-2.49-.3,.24,1.03,2.83,.33,4.05-.15,.26-.48,.35-.75,.22-.32-.16-.78-.51-1.2-1.26-.11-.19-.38-.2-.5-.01-.16,.26-.29,.69-.21,1.37,.11,.87,.58,1.69,.98,2.08,.43,.42,.61,1.75,.61,1.75l2.24-.42Z" fill="#fff"/>
    <path d="M150.66,75.67l-.04-.27c-.06-.48-.26-1.34-.53-1.6-.42-.41-.93-1.29-1.05-2.23-.08-.63,0-1.14,.24-1.54,.1-.17,.28-.26,.47-.26,.2,0,.38,.11,.47,.28,.39,.7,.81,1.01,1.09,1.15,.15,.07,.33,.02,.41-.12,.39-.68,.03-1.96-.2-2.81-.21-.75-.31-1.12-.07-1.32,.09-.07,.25-.14,.51-.06,.64,.19,1.81,1.25,2.27,2.67,.46,1.41-.46,3.12-.76,3.68-.28,.52-.18,1.37-.12,1.65l.06,.26-2.77,.51Zm-.91-5.39s-.02,0-.02,0c-.12,.2-.25,.58-.17,1.21,.1,.79,.53,1.56,.9,1.93,.37,.36,.56,1.19,.64,1.63l1.73-.32c-.05-.4-.1-1.16,.21-1.74,.74-1.38,.98-2.49,.72-3.28-.42-1.31-1.51-2.21-1.91-2.33,.02,.17,.11,.49,.18,.75,.27,.99,.65,2.34,.15,3.2-.22,.38-.69,.52-1.09,.32-.35-.17-.86-.55-1.31-1.36,0-.01-.02-.02-.03-.02Z"/>
  </g>
  <path d="M180.59,100.02c-.07-5.4-1.25-8.96-3.18-11.28-1.47-1.77-3.58-2.89-5.85-3.23-2.19-.32-5.92-.73-7.24,.03-.93,.53-.37,.79-.63,1.57-.74,1.88-.7,3.59-.41,4.92,.29,1.31,.95,2.51,1.83,3.52,1.26,1.43,.85,5.02-1.18,12.64,0,0,8.8,4.54,17.64,1.75,0,0-.91-4.28-.99-9.92Z" fill="#FF2059"/>
  <path d="M175.5,111.09c-6.4,0-11.61-2.64-11.68-2.68-.11-.06-.16-.18-.13-.3,2.06-7.73,2.39-11.09,1.23-12.4-.95-1.08-1.61-2.33-1.89-3.63-.38-1.71-.24-3.42,.42-5.07,.08-.22,.06-.4,.05-.57-.02-.42,.01-.74,.69-1.13,1.33-.76,4.76-.45,7.41-.06,2.39,.35,4.53,1.53,6.01,3.32,2.11,2.54,3.17,6.28,3.24,11.44,.07,5.54,.97,9.82,.98,9.87,.03,.13-.05,.26-.17,.3-2.09,.66-4.18,.91-6.16,.91Zm-11.25-3.04c1.3,.62,9.18,4.08,17.04,1.71-.19-.97-.88-4.88-.95-9.73-.07-5.04-1.09-8.67-3.12-11.12-1.4-1.69-3.42-2.8-5.69-3.14-3.57-.53-6.15-.53-7.08,0-.45,.26-.45,.37-.43,.65,.01,.19,.03,.45-.09,.78-.62,1.57-.75,3.18-.4,4.78,.27,1.21,.88,2.39,1.78,3.4,1.3,1.47,1.02,4.79-1.06,12.67Z" fill="#363636"/>
  <path d="M167.24,85.11c-5.22,.31-8.22-2.37-10.49-5.08-1.24-1.49-2-2.6-2.79-4.85-.13-.36-.49-.58-.87-.52l-2.32,.36c-.41,.06-.7,.43-.66,.84,.23,3.16,2,15.59,15.26,17.32,0,0,4.3-5.58,1.88-8.07Z" fill="#FF2059"/>
  <path d="M164.81,93.36s-.03,0-.04,0c-5.51-.86-9.63-3.66-12.24-8.33-2.09-3.74-2.58-7.64-2.69-9.15-.04-.54,.35-1.03,.88-1.11l2.32-.36c.5-.08,.98,.21,1.15,.69,.76,2.17,1.49,3.26,2.75,4.77,2.21,2.64,5.15,5.29,10.28,4.99,.14,0,.26,.1,.27,.24,0,.14-.1,.26-.24,.27-5.36,.31-8.42-2.44-10.7-5.18-1.3-1.55-2.05-2.68-2.84-4.93-.08-.24-.33-.39-.58-.35l-2.32,.36c-.28,.04-.47,.29-.45,.56,.26,3.5,2.07,15.06,14.49,17.01,.14,.02,.24,.15,.22,.3-.02,.13-.13,.22-.26,.22Z" fill="#363636"/>
  <path d="M148.73,86.85l-.45-1.48c-.13-.66,1.21-2.09,.33-2.48-.64-.29-.57,.72-1.48,.88-.47,.09-.99-.83-1.08-1.26-.28-1.49-.92-2.03-1.49-1.83-.57,.2-1.31,2.51-.3,4.14,1.01,1.63,3.06,2.99,3.06,2.99l1.41-.95Z" fill="#fff"/>
  <path d="M147.32,88.06c-.05,0-.1-.01-.14-.04-.09-.06-2.1-1.42-3.13-3.07-.72-1.16-.61-2.62-.3-3.52,.11-.32,.35-.86,.73-1,.27-.09,.54-.07,.8,.08,.49,.28,.84,.95,1.03,1.95,.08,.41,.54,1.1,.78,1.05,.34-.06,.5-.27,.67-.5,.18-.24,.45-.6,.96-.37,.2,.09,.34,.23,.4,.41,.15,.41-.08,.91-.31,1.4-.15,.32-.31,.67-.28,.85l.44,1.47c.03,.11,0,.23-.1,.29l-1.41,.95s-.09,.04-.14,.04Zm-2.53-7.17s-.09,0-.14,.03c-.06,.02-.25,.22-.41,.68-.28,.79-.38,2.07,.25,3.07,.82,1.32,2.36,2.48,2.84,2.81l1.1-.74-.39-1.3v-.02c-.08-.34,.11-.75,.31-1.18,.16-.35,.37-.79,.29-1-.01-.03-.04-.08-.13-.12-.12-.05-.14-.06-.34,.21-.19,.25-.45,.6-.99,.69-.69,.13-1.28-.98-1.38-1.47-.16-.82-.44-1.4-.78-1.6-.08-.04-.15-.07-.23-.07Z" fill="#363636"/>
  <path d="M148.61,85.98l-2.03,1.22c-.28,.17-.42,.5-.34,.81,.59,2.45,5.81,10.41,22.75,10.3,3.11-.02,4.36-4.11,3.16-6.98-.66-1.58-2.33-2.47-4.01-2.17-3.97,.71-13.52,3.05-18.56-3.01-.24-.29-.65-.36-.97-.17Z" fill="#FF2059"/>
  <path d="M168.63,98.57c-7.17,0-12.98-1.42-17.29-4.23-3.6-2.35-5.06-5.04-5.35-6.26-.1-.43,.08-.87,.46-1.1l2.03-1.22c.43-.26,.98-.16,1.3,.23,4.59,5.52,12.92,3.94,17.4,3.09,.33-.06,.63-.12,.91-.17,.66-.12,1.35-.07,1.98,.15,.13,.05,.21,.19,.16,.33-.05,.13-.19,.21-.33,.16-.55-.19-1.15-.24-1.72-.13-.28,.05-.58,.11-.9,.17-4.26,.81-13.12,2.49-17.9-3.27-.16-.19-.43-.24-.64-.11l-2.03,1.22c-.18,.11-.27,.32-.22,.53,.64,2.63,6.07,10.1,22.15,10.1,.11,0,.23,0,.34,0,.33,0,.65-.05,.95-.16,.13-.05,.28,.03,.33,.16,.05,.13-.03,.28-.16,.33-.35,.12-.72,.18-1.11,.18-.12,0-.24,0-.36,0Z" fill="#363636"/>
  <path d="M166.17,76.85c-.18-.6-.27-1.22-.22-1.84,.11-1.3,.7-3.18,3.01-4.32,3.84-1.89,7.17,2.68,8.64,3.35,1.86,.85,5.49-.2,6.75,.19,1.16,.36,5.69,1.03,5.86,6.81,.02,.64-.04,1.28-.13,1.91-.11,.8-.73,2.98,1.71,5.26,3.27,3.05,5.71,11.04-.35,14.39-1.45,.8-2.68,.38-4.05-.28-.25-.12-.51-.26-.78-.42-.78-.47-1.53-1.7-2.55-1.67-2.98,.11-11.89,2.59-9.7-7.77,.62-2.91-.94-6.3-2.04-6.96-.89-.54-6.17-.05-6.52-.38-2.17-2.02-1.11-4.56-.09-5.97,.75-1.04,.61-1.78,.46-2.31Z" fill="#363636"/>
  <path d="M173.3,78.32c-.14,.03-.27-.06-.28-.2-.06-.67-.51-1.81-1.25-2.24-.95-.55-2.23-.6-2.72,.1-.43,.61-.34,1.09-1.36,1.73-.1,.06-.08,.22,0,.31l.35,.54c.08,.11,.08,.38,.06,.51-.08,.39-.25,1.2-.18,1.37,.21,.47,1.61,.84,1.61,.84l-.14,3.62c-.04,.49-.26,.58-.26,.58l-.82,.75s-.03,.89,3.18,1.4c2.41,.38,2.26-.04,2.26-.04,0,0-2.05-2.15-1.18-6.82,.02-.1,.09-.19,.19-.22,.38-.13,1.41-.55,1.48-1.28,.07-.77-.44-1.05-.91-.94Z" fill="#fff"/>
  <path d="M173.04,88.05c-.36,0-.88-.05-1.62-.16-3.27-.52-3.41-1.48-3.4-1.66,0-.07,.03-.14,.08-.18l.82-.75s.04-.03,.06-.04c.01-.01,.1-.1,.12-.37l.13-3.41c-.45-.14-1.37-.47-1.58-.93-.08-.18-.05-.5,.15-1.44l.02-.08c.02-.08,0-.26-.02-.31l-.35-.54c-.08-.11-.12-.26-.09-.4,.02-.11,.08-.21,.18-.27,.64-.41,.79-.72,.97-1.09,.09-.18,.18-.37,.32-.58,.61-.85,2.06-.75,3.06-.18,.83,.48,1.3,1.68,1.38,2.4,.32-.07,.63,0,.86,.2,.26,.22,.38,.58,.34,1.02-.07,.82-1.07,1.29-1.65,1.5-.01,0-.02,.01-.02,.03-.83,4.47,1.09,6.58,1.11,6.6,.02,.03,.04,.06,.06,.09,.03,.08,.03,.21-.07,.32-.1,.11-.29,.23-.86,.23Zm-4.46-1.74c.14,.21,.71,.72,2.92,1.07,1.08,.17,1.6,.17,1.83,.15-.51-.7-1.77-2.89-1.04-6.8,.04-.19,.17-.35,.36-.42,.29-.1,1.26-.49,1.31-1.06,.02-.27-.03-.47-.16-.58-.11-.09-.27-.12-.43-.08-.14,.03-.29,0-.4-.08-.11-.08-.19-.21-.2-.35-.06-.61-.48-1.66-1.12-2.04-.91-.52-2-.51-2.38,.03-.12,.17-.2,.33-.28,.5-.19,.39-.38,.79-1.08,1.26l.35,.53c.14,.19,.12,.56,.09,.7l-.02,.08c-.05,.24-.2,.96-.18,1.14,.12,.21,.83,.52,1.43,.69,.12,.03,.2,.14,.19,.26l-.14,3.62c-.05,.51-.26,.71-.37,.78l-.67,.61Zm-.05-.09h0Zm.47-.97h0Zm0,0h0Zm4.29-6.92h0Z" fill="#363636"/>
  <g>
    <path d="M124.39,162.41s-.07,0-.1,0c-.39-.03-.75-.21-1.01-.5-.26-.3-.39-.68-.36-1.07,.06-.81,.76-1.43,1.58-1.37,.81,.06,1.43,.76,1.37,1.58-.05,.78-.7,1.37-1.47,1.37Zm0-2.44c-.23,0-.45,.08-.63,.24-.19,.17-.31,.4-.33,.66-.02,.26,.06,.5,.23,.7,.17,.19,.4,.31,.66,.33,.26,.02,.5-.06,.7-.23,.19-.17,.31-.4,.33-.66,.04-.53-.36-.99-.89-1.02-.02,0-.05,0-.07,0Z"/>
    <path d="M127.8,160.96c-.14,0-.26-.11-.26-.25,0-.14,.11-.26,.25-.26,5.67-.11,11.12-1.44,16.19-3.96,.13-.06,.28-.01,.35,.12,.06,.13,.01,.28-.12,.35-5.14,2.56-10.66,3.91-16.41,4.02h0Z"/>
    <path d="M121.74,158.49c-5.25,0-9.02-.58-9.1-.6-.14-.02-.24-.16-.21-.3,.02-.14,.16-.24,.3-.21,.16,.03,16.56,2.56,28.54-3.06,.13-.06,.28,0,.34,.12,.06,.13,0,.28-.12,.34-6.36,2.98-13.95,3.7-19.74,3.7Z"/>
  </g>
  <g>
    <path d="M155.95,30.9s-.06,0-.08-.01c-2.45-.82-5.01-1.51-7.61-2.03-10.09-2.04-20.6-1.66-30.38,1.08-.14,.04-.28-.04-.32-.18-.04-.14,.04-.28,.18-.32,9.86-2.76,20.45-3.14,30.62-1.09,2.62,.53,5.2,1.22,7.67,2.05,.14,.05,.21,.19,.16,.33-.04,.11-.14,.18-.25,.18Z" fill="#363636"/>
    <path d="M111.34,27.59c-.11,0-.21-.07-.25-.18-.04-.14,.03-.28,.17-.32,12.65-4.04,26.89-4.49,40.11-1.28,.14,.03,.22,.17,.19,.31-.03,.14-.17,.22-.31,.19-13.13-3.19-27.27-2.73-39.83,1.27-.03,0-.05,.01-.08,.01Z" fill="#363636"/>
  </g>
  <g>
    <path d="M152.65,51.67l-15.19-1.35c-.92-.08-1.66,.54-1.66,1.4v23.27c0,1.05,.92,1.98,2.05,2.08l15.47,1.38c1.2,.11,2.17-.71,2.17-1.82v-21.55l-2.83-3.39Z" fill="#FF2059"/>
    <path d="M153.51,78.7c-.08,0-.15,0-.23-.01l-15.47-1.38c-1.26-.11-2.28-1.16-2.28-2.34v-23.27c0-.46,.19-.89,.53-1.2,.37-.34,.88-.5,1.42-.45l15.3,1.36,2.96,3.55v21.64c0,.58-.23,1.12-.66,1.51-.41,.38-.97,.58-1.56,.58Zm-16.21-28.14c-.34,0-.66,.12-.89,.33-.23,.21-.36,.5-.36,.82v23.27c0,.92,.81,1.74,1.81,1.82l15.47,1.38c.53,.05,1.04-.11,1.4-.44,.32-.29,.49-.69,.49-1.13v-21.46l-2.7-3.24-15.08-1.34s-.09,0-.13,0Z" fill="#fff"/>
    <path d="M152.65,51.67l-.04,2.69c0,.28,.21,.54,.5,.58l2.28,.19c.09,0,.14-.1,.08-.17l-2.82-3.29Z" fill="#fff"/>
    <g>
      <path d="M144.7,74.63s5.97-3.48,3.85-4.6c-1.75-.93-2.45,5.27-1.5,5.33,.95,.06,2.31-1.81,2.94-1.69,.63,.13,1.26,2.26,2.41,1.11" fill="none" stroke="#fff" stroke-linecap="round" stroke-linejoin="round" stroke-width=".37"/>
      <g>
        <path d="M152.66,68.36h-.03l-13.65-1.37c-.14-.01-.25-.14-.23-.28,.01-.14,.14-.25,.28-.23l13.65,1.37c.14,.01,.25,.14,.23,.28-.01,.13-.13,.23-.26,.23Z" fill="#fff"/>
        <path d="M152.66,64.86h-.03l-13.65-1.37c-.14-.01-.25-.14-.23-.28,.01-.14,.14-.25,.28-.23l13.65,1.37c.14,.01,.25,.14,.23,.28-.01,.13-.13,.23-.26,.23Z" fill="#fff"/>
        <path d="M152.95,61.52h-.03l-6.19-.62c-.14-.01-.25-.14-.23-.28,.01-.14,.14-.25,.28-.23l6.19,.62c.14,.01,.25,.14,.23,.28-.01,.13-.13,.23-.26,.23Z" fill="#fff"/>
        <path d="M152.95,58.31h-.03l-6.19-.62c-.14-.01-.25-.14-.23-.28,.01-.14,.14-.25,.28-.23l6.19,.62c.14,.01,.25,.14,.23,.28-.01,.13-.13,.23-.26,.23Z" fill="#fff"/>
        <path d="M144.49,60.81h-.03l-5.17-.52c-.13-.01-.23-.12-.23-.26v-3.65c0-.07,.03-.14,.09-.19,.05-.05,.13-.07,.2-.07l5.17,.52c.13,.01,.23,.12,.23,.26v3.65c0,.07-.03,.14-.08,.19-.05,.04-.11,.07-.17,.07Zm-4.91-1.01l4.65,.47v-3.13l-4.65-.47v3.13Z" fill="#fff"/>
      </g>
    </g>
  </g>
  <g>
    <path d="M112.8,71.3l-16.8-2.87c-.43-.07-.77-.48-.77-.91v-22.25c0-.43,.35-.72,.77-.65l16.8,2.87c.43,.07,.77,.48,.77,.91v22.25c0,.43-.35,.72-.77,.65Z" fill="#fff"/>
    <path d="M109.86,55.86l-9.98-1.71c-.23-.04-.42-.26-.42-.5h0c0-.24,.19-.39,.42-.35l9.98,1.71c.23,.04,.42,.26,.42,.5h0c0,.24-.19,.39-.42,.35Z" fill="#ffe6f0"/>
    <path d="M111.61,61.13l-11.94-2.04c-.23-.04-.42-.26-.42-.5h0c0-.24,.19-.39,.42-.35l11.94,2.04c.23,.04,.42,.26,.42,.5h0c0,.24-.19,.39-.42,.35Z" fill="#ffe6f0"/>
    <path d="M98.1,58.37c0,.29-.23,.48-.51,.43-.28-.05-.51-.32-.51-.6s.23-.48,.51-.43,.51,.32,.51,.6Z" fill="#ffe6f0"/>
    <path d="M111.66,59.31l-11.94-2.04c-.23-.04-.42-.26-.42-.5h0c0-.24,.19-.39,.42-.35l11.94,2.04c.23,.04,.42,.26,.42,.5h0c0,.24-.19,.39-.42,.35Z" fill="#ffe6f0"/>
    <path d="M98.15,56.54c0,.29-.23,.48-.51,.43-.28-.05-.51-.32-.51-.6s.23-.48,.51-.43c.28,.05,.51,.32,.51,.6Z" fill="#ffe6f0"/>
    <path d="M111.58,63.06l-11.94-2.04c-.23-.04-.42-.26-.42-.5h0c0-.24,.19-.39,.42-.35l11.94,2.04c.23,.04,.42,.26,.42,.5h0c0,.24-.19,.39-.42,.35Z" fill="#ffe6f0"/>
    <path d="M98.07,60.3c0,.29-.23,.48-.51,.43-.28-.05-.51-.32-.51-.6s.23-.48,.51-.43c.28,.05,.51,.32,.51,.6Z" fill="#ffe6f0"/>
    <path d="M111.55,64.96l-11.94-2.04c-.23-.04-.42-.26-.42-.5h0c0-.24,.19-.39,.42-.35l11.94,2.04c.23,.04,.42,.26,.42,.5h0c0,.24-.19,.39-.42,.35Z" fill="#ffe6f0"/>
    <path d="M98.04,62.2c0,.29-.23,.48-.51,.43-.28-.05-.51-.32-.51-.6s.23-.48,.51-.43c.28,.05,.51,.32,.51,.6Z" fill="#ffe6f0"/>
    <path d="M111.51,66.99l-11.94-2.04c-.23-.04-.42-.26-.42-.5h0c0-.24,.19-.39,.42-.35l11.94,2.04c.23,.04,.42,.26,.42,.5h0c0,.24-.19,.39-.42,.35Z" fill="#ffe6f0"/>
    <path d="M98,64.23c0,.29-.23,.48-.51,.43-.28-.05-.51-.32-.51-.6s.23-.48,.51-.43c.28,.05,.51,.32,.51,.6Z" fill="#ffe6f0"/>
    <path d="M111.48,68.92l-11.94-2.04c-.23-.04-.42-.26-.42-.5h0c0-.24,.19-.39,.42-.35l11.94,2.04c.23,.04,.42,.26,.42,.5h0c0,.24-.19,.39-.42,.35Z" fill="#ffe6f0"/>
    <path d="M97.97,66.16c0,.29-.23,.48-.51,.43-.28-.05-.51-.32-.51-.6s.23-.48,.51-.43c.28,.05,.51,.32,.51,.6Z" fill="#ffe6f0"/>
    <path d="M101.95,49.69c0-1.53,1.23-2.57,2.75-2.31,1.52,.26,2.75,1.71,2.75,3.25s-1.23,2.57-2.75,2.31c-1.52-.26-2.75-1.71-2.75-3.25h0Z" fill="#fff"/>
    <path d="M102.76,51.85c.5,.56,1.16,.96,1.9,1.09,.73,.13,1.4-.05,1.9-.44-.57-.28-1.22-.49-1.9-.6-.68-.12-1.32-.13-1.9-.04h0Z" fill="#FF2059"/>
    <path d="M105.19,49.17h-.03c-.06,.04-.11,.09-.16,.13-.17,.13-.38,.2-.59,.24-.13,.02-.53-.03-.62,.04-.09,.07-.03,.4-.03,.54,0,.3,.14,.59,.35,.8v.8c0,.31,.25,.61,.56,.67,.31,.05,.56-.16,.56-.47v-.77c.23-.13,.38-.38,.38-.69v-.55c0-.21-.15-.81-.43-.71Z" fill="#fff"/>
    <path d="M105.12,53.06c-.89,0-1.83-.43-2.5-1.24-.59-.7-.88-1.58-.81-2.42,.06-.67,.36-1.26,.84-1.65,1.07-.88,2.78-.64,3.9,.55,.03,.04,.03,.09,0,.13-.04,.03-.09,.03-.13,0-1.05-1.12-2.66-1.36-3.65-.54-.45,.37-.72,.91-.78,1.53-.07,.79,.21,1.62,.76,2.28,1.04,1.24,2.74,1.55,3.78,.68,.55-.45,.83-1.16,.79-1.95,0-.05,.03-.09,.08-.1,.05,0,.09,.03,.1,.08,.05,.84-.26,1.61-.85,2.1-.44,.36-.97,.53-1.53,.53Z" fill="#363636"/>
    <path d="M104.77,52.47s-.07,0-.11,0c-.35-.06-.64-.4-.64-.75v-.8s.04-.09,.09-.09,.09,.04,.09,.09v.8c0,.27,.22,.53,.49,.58,.12,.02,.24,0,.33-.08,.09-.07,.13-.18,.13-.3v-.76s.04-.09,.09-.09,.09,.04,.09,.09v.76c0,.18-.07,.34-.2,.44-.1,.08-.23,.13-.36,.13Z" fill="#363636"/>
    <path d="M105.91,49.4c-.02-.19-.04-.39-.16-.55-.04-.06-.1-.11-.15-.15-.14-.09-.3-.14-.46-.14-.07,0-.15,0-.23-.01-.07-.01-.13-.05-.19-.07-.64-.25-1.5,.16-1.24,.93l.27,.79c.08,1.72,1.85,1.73,1.88,.3l.14-.46c.03-.1,.06-.2,.08-.3,.02-.1,.07-.22,.06-.34Z" fill="#363636"/>
    <path d="M104.69,51.01c.42,.07,.75-.18,.75-.55v-.4c0-.36-.33-.71-.73-.78l-.78-.13v1.06c0,.28,.18,.54,.44,.7l.31,.11Z" fill="#fff"/>
    <path d="M104.83,51.11c-.05,0-.1,0-.15-.01h-.02l-.31-.12h-.01c-.3-.18-.49-.48-.49-.78v-1.06s.01-.05,.03-.07c.02-.02,.05-.02,.07-.02l.78,.13c.44,.08,.8,.47,.8,.87v.4c0,.19-.08,.37-.22,.49-.13,.11-.3,.17-.48,.17Zm-.12-.19c.19,.03,.36-.01,.48-.11,.1-.09,.16-.21,.16-.35v-.4c0-.32-.29-.63-.65-.69l-.67-.11v.95c0,.23,.15,.47,.39,.61l.3,.11Z" fill="#363636"/>
    <path d="M101.46,69.45h-.02l-5.46-.93c-.47-.08-.85-.53-.85-1v-22.25c0-.24,.09-.44,.26-.58,.17-.14,.39-.2,.62-.16l16.8,2.87c.47,.08,.85,.53,.85,1v6.56s-.04,.09-.09,.09-.09-.04-.09-.09v-6.56c0-.39-.31-.76-.7-.83l-16.8-2.87c-.18-.03-.35,.01-.48,.12-.12,.11-.19,.26-.19,.44v22.25c0,.39,.31,.76,.7,.83l5.46,.93s.08,.05,.07,.1c0,.04-.05,.07-.09,.07Z" fill="#363636"/>
    <path d="M132.45,74.78l-16.8-2.87c-.43-.07-.77-.48-.77-.91v-22.25c0-.43,.35-.72,.77-.65l16.8,2.87c.43,.07,.77,.48,.77,.91v22.25c0,.43-.35,.72-.77,.65Z" fill="#fff"/>
    <path d="M129.52,59.34l-9.98-1.71c-.23-.04-.42-.26-.42-.5h0c0-.24,.19-.39,.42-.35l9.98,1.71c.23,.04,.42,.26,.42,.5h0c0,.24-.19,.39-.42,.35Z" fill="#ffe6f0"/>
    <path d="M131.27,64.61l-11.94-2.04c-.23-.04-.42-.26-.42-.5h0c0-.24,.19-.39,.42-.35l11.94,2.04c.23,.04,.42,.26,.42,.5h0c0,.24-.19,.39-.42,.35Z" fill="#ffe6f0"/>
    <path d="M117.76,61.85c0,.29-.23,.48-.51,.43-.28-.05-.51-.32-.51-.6s.23-.48,.51-.43c.28,.05,.51,.32,.51,.6Z" fill="#caddff"/>
    <path d="M131.31,62.79l-11.94-2.04c-.23-.04-.42-.26-.42-.5h0c0-.24,.19-.39,.42-.35l11.94,2.04c.23,.04,.42,.26,.42,.5h0c0,.24-.19,.39-.42,.35Z" fill="#ffe6f0"/>
    <path d="M117.8,60.02c0,.29-.23,.48-.51,.43-.28-.05-.51-.32-.51-.6s.23-.48,.51-.43c.28,.05,.51,.32,.51,.6Z" fill="#caddff"/>
    <path d="M131.23,66.54l-11.94-2.04c-.23-.04-.42-.26-.42-.5h0c0-.24,.19-.39,.42-.35l11.94,2.04c.23,.04,.42,.26,.42,.5h0c0,.24-.19,.39-.42,.35Z" fill="#ffe6f0"/>
    <path d="M117.72,63.78c0,.29-.23,.48-.51,.43-.28-.05-.51-.32-.51-.6s.23-.48,.51-.43c.28,.05,.51,.32,.51,.6Z" fill="#caddff"/>
    <path d="M131.2,68.44l-11.94-2.04c-.23-.04-.42-.26-.42-.5h0c0-.24,.19-.39,.42-.35l11.94,2.04c.23,.04,.42,.26,.42,.5h0c0,.24-.19,.39-.42,.35Z" fill="#ffe6f0"/>
    <path d="M117.69,65.68c0,.29-.23,.48-.51,.43-.28-.05-.51-.32-.51-.6s.23-.48,.51-.43c.28,.05,.51,.32,.51,.6Z" fill="#caddff"/>
    <path d="M131.17,70.47l-11.94-2.04c-.23-.04-.42-.26-.42-.5h0c0-.24,.19-.39,.42-.35l11.94,2.04c.23,.04,.42,.26,.42,.5h0c0,.24-.19,.39-.42,.35Z" fill="#ffe6f0"/>
    <path d="M117.66,67.7c0,.29-.23,.48-.51,.43-.28-.05-.51-.32-.51-.6s.23-.48,.51-.43c.28,.05,.51,.32,.51,.6Z" fill="#caddff"/>
    <path d="M131.14,72.4l-11.94-2.04c-.23-.04-.42-.26-.42-.5h0c0-.24,.19-.39,.42-.35l11.94,2.04c.23,.04,.42,.26,.42,.5h0c0,.24-.19,.39-.42,.35Z" fill="#ffe6f0"/>
    <path d="M117.63,69.64c0,.29-.23,.48-.51,.43-.28-.05-.51-.32-.51-.6s.23-.48,.51-.43c.28,.05,.51,.32,.51,.6Z" fill="#caddff"/>
    <path d="M121.34,53.09c0-1.53,1.23-2.56,2.74-2.3,1.51,.26,2.74,1.71,2.74,3.24s-1.23,2.56-2.74,2.3c-1.51-.26-2.74-1.71-2.74-3.24h0Z" fill="#fff"/>
    <path d="M124.55,56.46c-.16,0-.32-.01-.48-.04-1.55-.27-2.82-1.76-2.82-3.33,0-.34,.06-.66,.17-.95,.02-.05,.07-.07,.12-.05,.05,.02,.07,.07,.05,.12-.11,.27-.16,.57-.16,.89,0,1.49,1.2,2.9,2.67,3.15,.71,.12,1.37-.04,1.87-.46,.49-.42,.77-1.04,.77-1.75,0-1.49-1.2-2.9-2.67-3.15-.79-.14-1.54,.09-2.04,.62-.03,.04-.09,.04-.13,0-.04-.03-.04-.09,0-.13,.54-.58,1.35-.82,2.2-.68,1.55,.27,2.82,1.76,2.82,3.33,0,.76-.3,1.43-.83,1.89-.42,.36-.96,.54-1.54,.54Z" fill="#363636"/>
    <path d="M122.2,55.25c.49,.55,1.15,.95,1.88,1.08s1.39-.05,1.88-.43c-.57-.27-1.21-.48-1.88-.6-.67-.12-1.31-.12-1.88-.04h0Z" fill="#99b9ff"/>
    <path d="M124.1,55.77h0c-.24-.04-.43-.27-.43-.51v-2.23l.87,.15v2.23c0,.24-.19,.4-.43,.36h0Z" fill="#fff"/>
    <path d="M125.78,54.2c-.05-.7,.25-1.08-.43-1.98-.7-.93-1.3-.49-1.3-.49,0,0-.5-.51-1.16,.26-.58,.68,.16,1.5-.09,1.94-.25,.44-1.1,.56-1.1,.56,0,0,.27,.6,.61,.9l3.58,.61s.74-.69,.74-.92c0,0-.79-.18-.85-.88Z" fill="#363636"/>
    <path d="M122.2,55.25c.49,.55,1.15,.95,1.88,1.08s1.39-.05,1.88-.43c-.57-.27-1.21-.48-1.88-.6-.67-.12-1.31-.12-1.88-.04Z" fill="#FF2059"/>
    <path d="M124.54,56.46c-.16,0-.31-.01-.48-.04-.72-.12-1.41-.52-1.93-1.11l-.11-.13,.17-.02c.6-.08,1.24-.07,1.91,.04,.67,.11,1.31,.32,1.9,.61l.13,.06-.11,.09c-.41,.32-.93,.49-1.48,.49Zm-2.15-1.14c.48,.49,1.08,.81,1.71,.92,.62,.11,1.22-.01,1.69-.33-.54-.25-1.12-.42-1.72-.53-.59-.1-1.15-.12-1.68-.06Z" fill="#363636"/>
    <path d="M124.14,52.38h-.03l-.88,.74v.49c0,.33,.18,.64,.44,.84v.8c0,.24,.19,.47,.43,.51,.24,.04,.43-.12,.43-.36v-.79c.27-.1,.46-.37,.46-.7v-.52c0-.48-.38-.93-.85-1.01Z" fill="#fff"/>
    <path d="M124.17,55.86s-.06,0-.09,0c-.28-.05-.51-.32-.51-.6v-.78s.04-.09,.09-.09,.09,.04,.09,.09v.78c0,.2,.16,.39,.36,.42,.09,.02,.17,0,.23-.06,.06-.05,.09-.13,.09-.22v-.76s.04-.09,.09-.09,.09,.04,.09,.09v.76c0,.14-.06,.27-.16,.36-.08,.07-.18,.1-.29,.1Z" fill="#363636"/>
    <path d="M124.26,54.75c-.05,0-.11,0-.16-.01-.05,0-.08-.06-.07-.1,0-.05,.05-.08,.1-.07,.21,.04,.41-.01,.55-.14,.14-.12,.22-.31,.22-.52v-.52c0-.42-.32-.82-.74-.91l-.85,.7v.43c0,.32,.19,.64,.47,.82,.04,.03,.05,.08,.03,.12-.03,.04-.08,.05-.12,.03-.34-.21-.56-.6-.56-.98v-.48s.01-.05,.03-.07l.91-.75s.05-.02,.07-.02h.04c.5,.11,.89,.59,.89,1.09v.52c0,.26-.1,.5-.29,.65-.15,.12-.33,.19-.53,.19Z" fill="#363636"/>
    <path d="M132.58,74.88s-.1,0-.15-.01l-9.1-1.55s-.08-.06-.07-.1c0-.05,.05-.08,.1-.07l9.1,1.55c.18,.03,.35-.01,.48-.12,.12-.11,.19-.26,.19-.44v-22.25c0-.39-.31-.76-.7-.83l-16.8-2.87c-.18-.03-.35,.01-.48,.12-.12,.11-.19,.26-.19,.44v7.06s-.04,.09-.09,.09-.09-.04-.09-.09v-7.06c0-.24,.09-.44,.26-.58,.17-.14,.39-.2,.62-.16l16.8,2.87c.47,.08,.85,.53,.85,1v22.25c0,.24-.09,.44-.26,.58-.13,.11-.3,.17-.48,.17Z" fill="#363636"/>
    <path d="M121.5,81.56l-16.8-2.87c-.43-.07-.77-.48-.77-.91v-22.25c0-.43,.35-.72,.77-.65l16.8,2.87c.43,.07,.77,.48,.77,.91v22.25c0,.43-.35,.72-.77,.65Z" fill="#fff"/>
    <path d="M118.56,66.12l-9.98-1.71c-.23-.04-.42-.26-.42-.5h0c0-.24,.19-.39,.42-.35l9.98,1.71c.23,.04,.42,.26,.42,.5h0c0,.24-.19,.39-.42,.35Z" fill="#ffe6f0"/>
    <path d="M120.31,71.39l-11.94-2.04c-.23-.04-.42-.26-.42-.5h0c0-.24,.19-.39,.42-.35l11.94,2.04c.23,.04,.42,.26,.42,.5h0c0,.24-.19,.39-.42,.35Z" fill="#ffe6f0"/>
    <path d="M106.8,68.63c0,.29-.23,.48-.51,.43-.28-.05-.51-.32-.51-.6s.23-.48,.51-.43c.28,.05,.51,.32,.51,.6Z" fill="#ffe6f0"/>
    <path d="M120.36,69.57l-11.94-2.04c-.23-.04-.42-.26-.42-.5h0c0-.24,.19-.39,.42-.35l11.94,2.04c.23,.04,.42,.26,.42,.5h0c0,.24-.19,.39-.42,.35Z" fill="#ffe6f0"/>
    <path d="M106.84,66.81c0,.29-.23,.48-.51,.43-.28-.05-.51-.32-.51-.6s.23-.48,.51-.43c.28,.05,.51,.32,.51,.6Z" fill="#ffe6f0"/>
    <path d="M120.28,73.33l-11.94-2.04c-.23-.04-.42-.26-.42-.5h0c0-.24,.19-.39,.42-.35l11.94,2.04c.23,.04,.42,.26,.42,.5h0c0,.24-.19,.39-.42,.35Z" fill="#ffe6f0"/>
    <path d="M106.77,70.56c0,.29-.23,.48-.51,.43-.28-.05-.51-.32-.51-.6s.23-.48,.51-.43c.28,.05,.51,.32,.51,.6Z" fill="#ffe6f0"/>
    <path d="M120.25,75.22l-11.94-2.04c-.23-.04-.42-.26-.42-.5h0c0-.24,.19-.39,.42-.35l11.94,2.04c.23,.04,.42,.26,.42,.5h0c0,.24-.19,.39-.42,.35Z" fill="#ffe6f0"/>
    <path d="M106.74,72.46c0,.29-.23,.48-.51,.43-.28-.05-.51-.32-.51-.6s.23-.48,.51-.43c.28,.05,.51,.32,.51,.6Z" fill="#ffe6f0"/>
    <path d="M120.21,77.25l-11.94-2.04c-.23-.04-.42-.26-.42-.5h0c0-.24,.19-.39,.42-.35l11.94,2.04c.23,.04,.42,.26,.42,.5h0c0,.24-.19,.39-.42,.35Z" fill="#ffe6f0"/>
    <path d="M106.7,74.49c0,.29-.23,.48-.51,.43-.28-.05-.51-.32-.51-.6s.23-.48,.51-.43c.28,.05,.51,.32,.51,.6Z" fill="#ffe6f0"/>
    <path d="M120.18,79.19l-11.94-2.04c-.23-.04-.42-.26-.42-.5h0c0-.24,.19-.39,.42-.35l11.94,2.04c.23,.04,.42,.26,.42,.5h0c0,.24-.19,.39-.42,.35Z" fill="#ffe6f0"/>
    <path d="M106.67,76.42c0,.29-.23,.48-.51,.43-.28-.05-.51-.32-.51-.6s.23-.48,.51-.43c.28,.05,.51,.32,.51,.6Z" fill="#ffe6f0"/>
    <path d="M110.59,59.87c0-1.5,1.2-2.51,2.69-2.26,1.49,.25,2.69,1.68,2.69,3.18s-1.2,2.51-2.69,2.26c-1.49-.25-2.69-1.68-2.69-3.18h0Z" fill="#fff"/>
    <path d="M111.38,61.98c.48,.54,1.14,.94,1.86,1.06s1.37-.05,1.86-.43c-.56-.27-1.19-.48-1.86-.59s-1.3-.12-1.86-.04h0Z" fill="#FF2059"/>
    <path d="M114.1,58.88c-.12-.1-.26-.17-.41-.19l-.85-.15c-.19-.03-.37,0-.51,.12l-.05,.04c-.22,.17-.3,.48-.2,.78l.28,.83,1.8,.3,.25-.82c.1-.31-.03-.68-.31-.91Z" fill="#363636"/>
    <path d="M113.67,59.16h0l-1.32,.63v.49c0,.29,.14,.58,.35,.78v.78c0,.31,.25,.6,.55,.65,.3,.05,.55-.16,.55-.46v-.76c.23-.13,.37-.37,.37-.68v-.54c0-.35-.21-.7-.5-.89Z" fill="#fff"/>
    <path d="M113.35,62.59s-.07,0-.11,0c-.35-.06-.63-.39-.63-.74v-.76h.18v.76c0,.27,.21,.52,.48,.56,.12,.02,.23,0,.32-.08,.08-.07,.13-.18,.13-.3v-.74h.18v.74c0,.18-.07,.33-.19,.43-.1,.08-.22,.13-.36,.13Z" fill="#363636"/>
    <path d="M113.42,61.46c-.06,0-.11,0-.17-.01-.05,0-.08-.06-.07-.1,0-.05,.06-.08,.1-.07,.22,.04,.42-.01,.57-.14,.15-.13,.23-.32,.23-.53v-.54c0-.45-.36-.87-.81-.95l-.84-.14v1.32c0,.33,.19,.66,.49,.85,.04,.03,.05,.08,.03,.12-.03,.04-.08,.05-.12,.03-.35-.22-.58-.62-.58-1v-1.43s.01-.05,.03-.07c.02-.02,.05-.02,.07-.02l.94,.16c.53,.09,.96,.6,.96,1.13v.54c0,.27-.11,.51-.3,.67-.15,.13-.34,.2-.55,.2Z" fill="#363636"/>
    <path d="M113.69,63.17c-.88,0-1.82-.44-2.48-1.25-1.01-1.24-1.03-2.94-.03-3.86,.04-.03,.09-.03,.13,0,.03,.04,.03,.09,0,.13-.92,.86-.9,2.45,.05,3.62,1,1.23,2.66,1.55,3.7,.72,.44-.35,.72-.88,.79-1.48,.08-.76-.18-1.58-.72-2.24-.53-.64-1.26-1.07-2.02-1.16-.05,0-.08-.05-.08-.1,0-.05,.05-.08,.1-.08,.8,.1,1.58,.55,2.14,1.23,.57,.7,.84,1.56,.76,2.37-.07,.65-.37,1.22-.85,1.6-.42,.34-.94,.5-1.47,.5Z" fill="#363636"/>
    <path d="M121.63,81.66s-.1,0-.15-.01l-16.8-2.87c-.47-.08-.85-.53-.85-1v-6.43s.04-.09,.09-.09,.09,.04,.09,.09v6.43c0,.39,.31,.76,.7,.83l16.8,2.87c.18,.03,.35-.01,.48-.12,.12-.11,.19-.26,.19-.44v-22.25c0-.39-.31-.76-.7-.83l-16.8-2.87c-.18-.03-.35,.01-.48,.12-.12,.11-.19,.26-.19,.44v11.19s-.04,.09-.09,.09-.09-.04-.09-.09v-11.19c0-.24,.09-.44,.26-.58,.17-.14,.39-.2,.62-.16l16.8,2.87c.47,.08,.85,.53,.85,1v22.25c0,.24-.09,.44-.26,.58-.13,.11-.3,.17-.48,.17Z" fill="#363636"/>
  </g>
  <path d="M77.41,81.58c-4.83,1.36-11.06,6.59-11.06,16.09,0,6.84,10.07,12.63,10.07,12.63l1.66-4.08s-5.55-4.11-5.29-8.91c.21-3.85,6.42-5.05,6.42-5.05l-1.81-10.68Z" fill="#FF2059"/>
  <rect x="79.45" y="155.52" width="3.47" height="4.08" transform="translate(162.37 315.13) rotate(180)" fill="#909090"/>
  <rect x="89.12" y="155.22" width="3.47" height="4.08" transform="translate(143.15 331.19) rotate(-166.72)" fill="#909090"/>
  <path d="M76.58,104.92s-1.04,8.2-.24,11.39c.8,3.18,2.66,32.61,2.66,40.58h4.68l2.11-37.61,6.53,13.65c.47,1.11,.6,2.33,.35,3.51l-3.86,20.45,4.38,.3,7.32-22.46c.33-1.11,.35-2.29,.07-3.42l-5.94-23.76-18.07-2.63Z" fill="#363636"/>
  <path d="M85.57,118.7c-.08,0-.15-.03-.2-.1l-2.42-3.02c-.09-.11-.07-.27,.04-.36,.11-.09,.27-.07,.36,.04l2.42,3.02c.09,.11,.07,.27-.04,.36-.05,.04-.1,.06-.16,.06Z" fill="#ccdbf0"/>
  <path d="M79.22,158.7h4.08l.6,3.08c.12,.59-.31,1.15-.89,1.15h-3.51c-.57,0-1-.56-.89-1.15l.6-3.08Z" fill="#fff"/>
  <path d="M83.02,163.18h-3.51c-.34,0-.66-.15-.88-.42-.24-.29-.33-.67-.26-1.04l.6-3.08c.02-.12,.13-.21,.25-.21h4.08c.12,0,.23,.09,.25,.21l.6,3.08c.07,.37-.02,.75-.26,1.04-.22,.27-.54,.42-.88,.42Zm-3.58-4.23l-.56,2.87c-.04,.22,.01,.44,.15,.61,.12,.15,.3,.23,.48,.23h3.51c.19,0,.36-.08,.48-.23,.14-.17,.19-.39,.15-.61l-.56-2.87h-3.65Z" fill="#363636"/>
  <path d="M83.45,162.2h-4.23c-.14,0-.26-.12-.26-.26s.12-.26,.26-.26h4.23c.14,0,.26,.12,.26,.26s-.12,.26-.26,.26Z" fill="#363636"/>
  <path d="M88.59,157.79l-1.12,3.71c-.19,.64,.2,1.33,.78,1.35l7.67,.26c.47,.02,.66-.72,.26-1.02-1.25-.94-2.91-2.24-3.37-2.86-1.06-1.43-2.11-.18-2.11-.18,0,0-.76-1.25-2.11-1.25Z" fill="#fff"/>
  <path d="M95.93,163.36h-.02l-7.67-.26c-.32-.01-.62-.18-.82-.46-.25-.34-.32-.8-.19-1.22l1.12-3.71c.03-.11,.13-.18,.25-.18,1.1,0,1.83,.72,2.15,1.12,.22-.18,.58-.39,1.02-.38,.47,.02,.89,.28,1.27,.79,.34,.46,1.51,1.46,3.31,2.81,.29,.22,.4,.61,.27,.98-.11,.31-.37,.51-.67,.51Zm-7.16-5.3l-1.06,3.51c-.08,.26-.03,.56,.12,.77,.11,.15,.26,.24,.42,.25l7.67,.26c.12,0,.17-.11,.19-.16,.04-.12,.03-.3-.09-.39-1.89-1.42-3.04-2.4-3.42-2.91-.28-.37-.57-.57-.87-.58-.47-.02-.84,.41-.84,.42-.05,.06-.14,.1-.22,.09-.08,0-.16-.05-.2-.12,0-.01-.63-1.01-1.7-1.12Z" fill="#363636"/>
  <path d="M95.08,161.94l-6.95-.3,6.95,.3Z" fill="#fff"/>
  <path d="M95.08,162.2h-.01l-6.95-.3c-.14,0-.25-.13-.25-.27,0-.14,.13-.25,.27-.25l6.95,.3c.14,0,.25,.13,.25,.27,0,.14-.12,.25-.26,.25Z" fill="#363636"/>
  <path d="M84.51,79.47l-3.78,2.57,10.4-.5-3-1.92-.4-1.86c.53-.08,1.26-.13,1.5-.42,.41-.51,.23-2.28,.23-2.28l.45-.35s.08-.07,.1-.12c.01-.05,0-.11-.02-.15-.38-.61-.74-.81-.91-1.43-.17-.61-.09-.52-.75-1.84h-3.96l-.02,2.96s-.61-.39-.99,.14c-.28,.39,.34,1.67,.84,1.67l.32,3.54Z" fill="#fff"/>
  <path d="M80.73,82.29c-.11,0-.21-.07-.25-.18-.04-.11,0-.23,.1-.3l3.65-2.48-.29-3.2c-.36-.15-.61-.6-.69-.75-.21-.41-.35-.96-.12-1.28,.27-.38,.64-.43,.94-.36l.02-2.59c0-.14,.12-.26,.26-.26h3.96c.1,0,.19,.06,.23,.15,.56,1.13,.6,1.25,.71,1.67,.02,.06,.03,.13,.06,.21,.09,.34,.24,.52,.46,.78,.13,.16,.28,.34,.43,.58,.07,.11,.09,.24,.05,.36-.03,.11-.1,.21-.2,.27l-.32,.25c.04,.5,.11,1.83-.29,2.33-.26,.32-.83,.4-1.39,.48l.32,1.48,2.91,1.86c.09,.06,.14,.18,.11,.28-.03,.11-.13,.19-.24,.19l-10.4,.5h-.01Zm3.14-8.06c-.11,0-.23,.04-.32,.17-.05,.06-.03,.36,.16,.74,.19,.37,.4,.52,.47,.52,.13,0,.25,.1,.26,.23l.32,3.54c0,.09-.03,.18-.11,.24l-3.02,2.05,8.67-.42-2.31-1.48c-.06-.04-.1-.1-.11-.16l-.4-1.86c-.02-.07,0-.14,.04-.2,.04-.06,.1-.1,.17-.11,.08-.01,.16-.02,.25-.03,.38-.05,.95-.13,1.08-.29,.24-.3,.24-1.4,.17-2.1,0-.09,.03-.18,.1-.23l.43-.34c-.12-.18-.24-.33-.35-.47-.22-.27-.43-.53-.56-.97-.02-.08-.04-.16-.06-.22-.09-.36-.12-.45-.61-1.43h-3.54l-.02,2.7c0,.09-.05,.18-.14,.23-.08,.04-.18,.04-.26-.01-.04-.02-.17-.1-.32-.1Z" fill="#363636"/>
  <path d="M83.99,77.25c.8,.27,1.58-.36,1.72-.47,.55-.44,1.01-1.22,.78-1.57-.12-.19-.34-.09-.63-.31-.42-.33-.54-1.06-.31-1.25,.19-.16,.48,.15,.78,0,.37-.18,.18-.75,.47-1.25,.47-.82,1.57-.33,2.41-1.2,.55-.57,.79-1.52,.48-2.06-.09-.16-.23-.3-.43-.41-1.33-.73-1.53,.27-2.82,.28-2.66,.02-3.97,.56-4.45,1.66-.33,.75,.07,1.94,.27,2.52,.06,.19,.2,.56,.31,1.1,.12,.59,.09,.74,.16,1.1,.05,.25,.31,1.57,1.25,1.88Z" fill="#363636"/>
  <path d="M95.08,80.98s-9.06-2.57-17.67,.6c-.66,3.82-1.12,7.11-1.44,9.72-.56,4.6-.21,3.13-.91,9.84-.43,4.17-.55,4.55-.15,5.29,2,3.7,10.05,3.5,13.14,2.72,.22-.06,1.13-.3,2.61-.67,1.7-.43,3.1-.77,4.03-.99,.5-.23,1.19-.63,1.66-1.36,1.06-1.63,.35-3.73,0-5.14-.91-3.61,.28-3.69,0-10.27-.1-2.3-.39-5.65-1.28-9.74Z" fill="#FF2059"/>
  <g>
    <path d="M115.29,77.82l1.05-4.52,2.92-2.59s1.66,.03-1.06,2.87c0,0,1.3,2.54,.46,3.55-.24,.29-1.64,2.11-1.64,2.11l-1.72-1.42Z" fill="#fff"/>
    <path d="M117.01,79.49c-.06,0-.12-.02-.16-.06l-1.72-1.42c-.08-.06-.11-.16-.09-.26l1.05-4.52c.01-.05,.04-.1,.08-.14l2.92-2.59s.11-.07,.18-.07c.19,0,.55,.1,.7,.44,.23,.55-.24,1.45-1.45,2.73,.3,.63,1.17,2.68,.35,3.67-.24,.29-1.62,2.08-1.64,2.1-.04,.06-.11,.09-.18,.1h-.03Zm-1.43-1.77l1.39,1.15c.38-.49,1.29-1.67,1.49-1.91,.6-.72-.15-2.6-.49-3.27-.05-.1-.03-.22,.04-.3,1.61-1.68,1.51-2.22,1.47-2.31-.03-.06-.09-.1-.15-.11l-2.76,2.45-.99,4.29Z"/>
  </g>
  <path d="M118.04,79.01l-3.17-2.11s-3.32,7.4-8.46,8.16c-5.14,.76-7.55-4.23-14.2-4.68l-.15,9.21s6.5,5.74,12.24,5.44c5.74-.3,11.78-10.27,13.75-16.01Z" fill="#FF2059"/>
  <path d="M78.5,109.21s-.02,0-.04,0c-.05,0-4.57-.71-3.98-4.92,.02-.14,.15-.24,.29-.22,.14,.02,.24,.15,.22,.29-.52,3.7,3.38,4.32,3.55,4.34,.14,.02,.24,.15,.22,.29-.02,.13-.13,.22-.26,.22Z" fill="#363636"/>
  <path d="M89,105.68c-.07,0-.13-.03-.18-.08-.1-.1-.1-.27,0-.37,3.48-3.43,4.22-8.8,4.22-8.85,.02-.14,.15-.24,.29-.22,.14,.02,.24,.15,.22,.29-.03,.23-.77,5.6-4.37,9.15-.05,.05-.12,.07-.18,.07Z" fill="#363636"/>
  <path d="M76.43,110.56s-.09-.01-.13-.03c-.42-.24-10.2-5.95-10.2-12.86,0-4.32,1.3-8.21,3.77-11.26,1.98-2.45,4.7-4.3,7.46-5.08,5.72-2.11,11.69-1.67,14.81-1.21,.03,0,.06-.01,.09-.01,3.31,.23,5.61,1.56,7.64,2.75,2.13,1.24,3.97,2.31,6.51,1.94,4.94-.73,8.23-7.93,8.26-8.01,.03-.07,.09-.12,.16-.14,.07-.02,.15,0,.21,.03l.24,.16,.83-3.61c.01-.05,.04-.1,.08-.14l2.92-2.59s.11-.07,.18-.07c.19,0,.55,.1,.7,.44,.23,.55-.24,1.45-1.45,2.73,.3,.63,1.17,2.68,.35,3.67-.1,.13-.45,.57-1,1.28l.34,.23c.1,.07,.14,.19,.1,.3-1.88,5.49-7.9,15.87-13.98,16.19-2.23,.12-4.8-.62-7.64-2.2-.02,1.68-.15,2.78-.25,3.68-.17,1.43-.27,2.3,.2,4.16,.03,.13,.07,.27,.11,.42,.37,1.42,.88,3.36-.14,4.92-.4,.61-1,1.1-1.77,1.45-.01,0-.03,.01-.05,.02-1.33,.32-2.68,.65-4.03,.99-1.1,.28-1.88,.48-2.3,.59-.15,.04-.25,.07-.31,.08-2.05,.52-6.39,.8-9.66-.2-.07-.01-.55-.09-1.17-.33l-.62,1.53c-.03,.07-.08,.12-.16,.15-.03,0-.06,.01-.08,.01Zm10.54-30.3c-2.84,0-6.19,.36-9.46,1.56h-.02c-5.23,1.48-10.87,7.06-10.87,15.84,0,6.01,8.14,11.3,9.69,12.26l.61-1.49c.03-.06,.08-.12,.14-.14,.06-.03,.14-.02,.2,0,.6,.27,1.13,.37,1.26,.39,.02,0,.05,0,.07,.01,3.18,.98,7.42,.71,9.42,.2,.06-.01,.16-.04,.31-.08,.42-.11,1.21-.31,2.3-.59,1.34-.34,2.69-.67,4.01-.99,.67-.31,1.19-.73,1.53-1.26,.9-1.37,.42-3.18,.08-4.51-.04-.15-.08-.29-.11-.43-.49-1.96-.38-2.91-.21-4.35,.11-.96,.25-2.16,.25-4.06,0-.09,.05-.18,.13-.22,.08-.05,.18-.05,.26,0,2.91,1.67,5.52,2.46,7.74,2.35,5.26-.28,11.24-9.36,13.45-15.65l-.4-.27c-.06-.04-.1-.1-.11-.17-.01-.07,0-.14,.05-.2,.67-.86,1.06-1.37,1.18-1.52,.6-.72-.15-2.6-.49-3.27-.05-.1-.03-.22,.04-.3,1.61-1.68,1.51-2.22,1.47-2.31-.03-.06-.09-.1-.15-.11l-2.76,2.45-.9,3.89c-.02,.08-.08,.15-.16,.18-.08,.03-.17,.02-.24-.03l-.3-.2c-.67,1.38-3.82,7.34-8.53,8.03-2.72,.4-4.72-.77-6.84-2-1.96-1.14-4.17-2.43-7.3-2.67-.04,.02-.09,.02-.13,.01-1.29-.2-3.11-.39-5.21-.39Zm-12.09,22.97c-.08,0-.16-.04-.21-.1-1.51-2.01-2.23-3.97-2.12-5.83,.09-1.59,1.12-2.93,3.06-3.99,.08-.05,.19-.04,.27,.01,.08,.05,.12,.15,.11,.24-.08,.77-.11,1.3-.15,1.9-.07,1.05-.16,2.36-.5,5.71-.06,.56-.11,1.05-.16,1.49l-.04,.34c-.01,.11-.09,.19-.19,.22-.02,0-.05,0-.07,0Zm.54-9.22c-1.5,.92-2.29,2.03-2.36,3.31-.09,1.57,.46,3.23,1.63,4.95,.04-.35,.08-.73,.12-1.15,.35-3.34,.43-4.64,.5-5.69,.03-.47,.06-.89,.11-1.42Zm-2.62,3.3h0Z" fill="#363636"/>
</svg>