<?xml version="1.0" encoding="UTF-8"?><svg id="Layer_1" xmlns="http://www.w3.org/2000/svg" viewBox="0 0 270 186"><ellipse cx="124.27" cy="154.37" rx="40.71" ry="5.68" fill="#ffe6f0" opacity=".8"/><path d="M156.25,125.46c-2.1-1.71-4.3-3.31-6.56-4.84-4.58-3.09-9.4-5.86-14.28-8.54-2.57-1.41-5.23-2.69-7.86-4-2.64-1.32-5.3-2.63-7.95-3.93-2.42-1.19-4.85-2.39-7.27-3.59-5.5-18.59-11.47-39.67-10.29-39.67l90.18-2.55c2.12,0,3.55,1.73,3.17,3.85l-10.93,62.31c-.37,2.12-2.4,3.85-4.53,3.85h-20.07c-1.18-1-2.44-1.92-3.64-2.9Z" fill="#ed2a5b"/><path d="M99.48,58.56h90.89c2.01,0,3.35,1.63,3,3.63l-10.93,62.31c-.35,2.01-2.26,3.63-4.27,3.63H87.28c-2.01,0-3.35-1.63-3-3.63l10.93-62.31c.35-2.01,2.26-3.63,4.27-3.63Z" fill="#fff"/><g><path d="M183.04,122.09s-.02,0-.03,0c-.11-.02-.18-.12-.16-.23l10.32-59.7c.16-.92-.05-1.79-.59-2.43-.53-.63-1.32-.97-2.22-.97l-2.9-.19c-.11,0-.19-.1-.18-.21,0-.11,.1-.19,.21-.18l2.88,.19h0c1,0,1.9,.4,2.5,1.11,.62,.73,.85,1.71,.67,2.75l-10.32,59.7c-.02,.1-.1,.16-.19,.16Z" fill="#363636"/><path d="M119.12,58.79c-.11,0-.2-.09-.2-.2s.09-.2,.2-.2h42.39c.11,0,.2,.08,.2,.19s-.09,.2-.2,.2h-42.39Z" fill="#363636"/><path d="M84.87,121.97s-.02,0-.03,0c-.11-.02-.18-.12-.16-.23l8.76-50.49c.02-.11,.12-.18,.23-.16,.11,.02,.18,.12,.16,.23l-8.76,50.49c-.02,.09-.1,.16-.19,.16Z" fill="#363636"/></g><path d="M72.93,128.18h105.7c1.41,0,2.55,1.16,2.55,2.66s-1.15,2.66-2.55,2.66H72.93c-1.41,0-2.55-1.16-2.55-2.66s1.14-2.66,2.55-2.66Z" fill="#909090"/><path d="M101.72,60.97h85.89c1.9,0,3.16,1.51,2.83,3.38l-10.33,58.01c-.33,1.87-2.14,3.38-4.03,3.38H90.19c-1.9,0-3.16-1.51-2.83-3.38l10.33-58.01c.33-1.87,2.14-3.38,4.03-3.38Z" fill="#ffd7e5"/><path d="M149.1,133.72c-.11,0-.19-.09-.2-.19,0-.11,.09-.2,.19-.2l6.3-.02h23.23c1.32,0,2.36-1.08,2.36-2.46s-1.04-2.46-2.36-2.46h-23.22l-10.62-.07c-.11,0-.19-.09-.19-.2,0-.11,.08-.2,.2-.19l10.62,.07h23.22c1.54,0,2.75,1.25,2.75,2.86s-1.21,2.86-2.75,2.86h-23.22l-6.3,.02h0Z" fill="#363636"/><path d="M107.18,133.69h-34.25c-1.54,0-2.75-1.25-2.75-2.86s1.21-2.86,2.75-2.86h30.8c.11,0,.2,.09,.2,.2s-.09,.2-.2,.2h-30.8c-1.32,0-2.36,1.08-2.36,2.46s1.04,2.46,2.36,2.46h34.25c.11,0,.2,.09,.2,.2s-.09,.2-.2,.2Z" fill="#363636"/><path d="M97.55,126.09l15.48-87.84c.2-1.13,1.24-2.02,2.38-2.02h66.26c1.25,0,2.12,1.05,1.9,2.29l-15.29,87.36-70.74,.2Z" fill="#fff"/><path d="M175.78,57.94h-61.64c-.11,0-.2-.09-.2-.2s.09-.2,.2-.2h61.64c.11,0,.2,.09,.2,.2s-.09,.2-.2,.2Z" fill="#ed2a5b"/><path d="M118.21,71.32h-5.33c-.38,0-.71-.14-.93-.41-.22-.26-.3-.62-.24-1l.96-5.29c.15-.82,.98-1.52,1.81-1.52h5.33c.38,0,.71,.14,.93,.41,.22,.26,.3,.62,.24,1l-.96,5.29c-.15,.82-.98,1.52-1.81,1.52Zm-3.73-7.82c-.65,0-1.31,.56-1.43,1.2l-.96,5.29c-.05,.26,0,.5,.15,.68,.14,.17,.37,.27,.63,.27h5.33c.65,0,1.31-.56,1.43-1.2l.96-5.29c.05-.26,0-.5-.15-.68-.14-.17-.37-.27-.63-.27h-5.33Z" fill="#363636"/><path d="M116.45,69.91h0c-.33,0-.62-.17-.78-.45l-.03-.05-1.35-3.6c-.14-.37,.05-.78,.42-.92,.37-.14,.78,.05,.92,.42l.98,2.6,.88-1.37c.21-.33,.66-.43,.99-.22,.33,.21,.43,.66,.22,.99l-1.34,2.09c-.19,.31-.53,.51-.89,.51Z" fill="#ed2a5b"/><path d="M114.71,93.15h-5.33c-.67,0-1.09-.51-.97-1.17l.96-5.29c.13-.73,.88-1.36,1.62-1.36h5.33c.67,0,1.09,.51,.97,1.17l-.96,5.29c-.13,.73-.88,1.36-1.62,1.36Z" fill="#ffe6f0"/><path d="M116.18,82.25h-5.33c-.38,0-.71-.14-.93-.41-.22-.26-.3-.62-.24-1l.96-5.29c.15-.82,.98-1.52,1.81-1.52h5.33c.38,0,.71,.14,.93,.41,.22,.26,.3,.62,.24,1l-.96,5.29c-.15,.82-.98,1.52-1.81,1.52Zm-3.73-7.82c-.65,0-1.31,.56-1.43,1.2l-.96,5.29c-.05,.26,0,.5,.15,.68,.14,.17,.37,.27,.63,.27h5.33c.65,0,1.31-.56,1.43-1.2l.96-5.29c.05-.26,0-.5-.15-.68-.14-.17-.37-.27-.63-.27h-5.33Z" fill="#363636"/><path d="M114.43,80.83h0c-.33,0-.62-.17-.78-.45l-.03-.05-1.35-3.6c-.14-.37,.05-.78,.42-.92,.37-.14,.78,.05,.92,.42l.98,2.6,.88-1.37c.21-.33,.66-.43,.99-.22,.33,.21,.43,.66,.22,.99l-1.34,2.09c-.19,.31-.53,.51-.89,.51Z" fill="#ed2a5b"/><g><path d="M178.16,46.45c-.09,.49-.54,.86-1.03,.86h-25.18c-.54,0-.92-.46-.83-1,.09-.49,.54-.86,1.03-.86h25.18c.54,0,.92,.46,.83,1Z" fill="#ffe6f0"/><path d="M177.56,49.81c-.09,.49-.54,.86-1.03,.86h-25.18c-.54,0-.92-.46-.83-1,.09-.49,.54-.86,1.03-.86h25.18c.54,0,.92,.46,.83,1Z" fill="#ffe6f0"/><path d="M178.76,43.09c-.09,.49-.54,.86-1.03,.86h-25.18c-.54,0-.92-.46-.83-1,.09-.49,.54-.86,1.03-.86h25.18c.54,0,.92,.46,.83,1Z" fill="#ffe6f0"/></g><g><path d="M106.34,109.61c-.11,.6,.52,1.06,1.45,1.06h56.97c1.03,0,2.01-.56,2.13-1.22,.11-.6-.52-1.06-1.45-1.06h-56.97c-1.03,0-2.01,.56-2.13,1.22Z" fill="#ffe6f0"/><path d="M105.53,113.72c-.11,.6,.52,1.06,1.45,1.06h56.97c1.03,0,2.01-.56,2.13-1.22,.11-.6-.52-1.06-1.45-1.06h-56.97c-1.03,0-2.01,.56-2.13,1.22Z" fill="#ffe6f0"/><path d="M104.71,117.82c-.11,.6,.52,1.06,1.45,1.06h56.97c1.03,0,2.01-.56,2.13-1.22,.11-.6-.52-1.06-1.45-1.06h-56.97c-1.03,0-2.01,.56-2.13,1.22Z" fill="#ffe6f0"/></g><path d="M134.21,71.32h-7.53c-.38,0-.71-.14-.93-.41-.22-.26-.3-.62-.24-1l.96-5.29c.15-.82,.98-1.52,1.81-1.52h22.28c.11,0,.2,.09,.2,.2s-.09,.2-.2,.2h-22.28c-.65,0-1.31,.56-1.43,1.2l-.96,5.29c-.05,.26,0,.5,.15,.68,.14,.17,.37,.27,.63,.27h7.53c.11,0,.2,.09,.2,.2s-.09,.2-.2,.2Z" fill="#ed2a5b"/><path d="M150.47,71.32h-8.88c-.11,0-.2-.09-.2-.2s.09-.2,.2-.2h8.88c.11,0,.2,.09,.2,.2s-.09,.2-.2,.2Z" fill="#ed2a5b"/><path d="M172.36,71.32h-17.4c-.11-.01-.2-.1-.2-.21,0-.11,.09-.2,.2-.2h17.4c.65,.01,1.31-.55,1.43-1.19l.96-5.29c.05-.26,0-.5-.15-.68-.14-.17-.37-.27-.63-.27h-9.89c-.11,0-.2-.09-.2-.2s.09-.2,.2-.2h9.89c.38,0,.71,.14,.93,.41,.22,.26,.3,.62,.24,1l-.96,5.29c-.15,.82-.98,1.52-1.81,1.52Z" fill="#ed2a5b"/><path d="M129.57,67.32c-.11,.6,.27,1.06,.88,1.06h39.55c.67,0,1.34-.56,1.46-1.22,.11-.6-.27-1.06-.88-1.06h-39.55c-.67,0-1.34,.56-1.46,1.22Z" fill="#ffe6f0"/><path d="M135.56,82.44h-10.85c-.38,0-.71-.14-.93-.41-.22-.26-.3-.62-.24-1l.96-5.29c.15-.82,.98-1.52,1.81-1.52h9.18c.11,0,.2,.09,.2,.2s-.09,.2-.2,.2h-9.18c-.65,0-1.31,.56-1.43,1.2l-.96,5.29c-.05,.26,0,.5,.15,.68,.14,.17,.37,.27,.63,.27h10.85c.11,0,.2,.09,.2,.2s-.09,.2-.2,.2Z" fill="#99b9ff"/><path d="M170.39,82.44h-13.18c-.11,0-.2-.09-.2-.2s.09-.2,.2-.2h13.18c.65,0,1.31-.56,1.43-1.2l.96-5.29c.05-.26,0-.5-.15-.68-.14-.17-.37-.27-.63-.27l-33.89,.19c-.11,0-.2-.09-.2-.19,0-.11,.09-.2,.19-.2l33.89-.19c.38,0,.71,.14,.93,.41,.22,.26,.3,.62,.24,1l-.96,5.29c-.15,.82-.98,1.52-1.81,1.52Z" fill="#ed2a5b"/><path d="M127.35,78.45c-.11,.6,.27,1.06,.88,1.06h39.55c.67,0,1.34-.56,1.46-1.22,.11-.6-.27-1.06-.88-1.06h-39.55c-.67,0-1.34,.56-1.46,1.22Z" fill="#ffe6f0"/><path d="M140.52,93.56h-17.79c-.38,0-.71-.14-.93-.41-.22-.26-.3-.62-.24-1l.96-5.29c.15-.82,.98-1.52,1.81-1.52l29.24-.06h0c.11,0,.2,.09,.2,.19,0,.11-.09,.2-.19,.2l-29.24,.06c-.65,0-1.31,.56-1.43,1.2l-.96,5.29c-.05,.26,0,.5,.15,.68,.14,.17,.37,.27,.63,.27h17.79c.11,0,.2,.09,.2,.2s-.09,.2-.2,.2Z" fill="#ffe6f0"/><path d="M168.41,93.56h-13.81c-.11,0-.2-.09-.2-.2s.09-.2,.2-.2h13.81c.65,0,1.31-.56,1.43-1.2l.96-5.29c.05-.26,0-.5-.15-.68-.14-.17-.37-.27-.63-.27h-14.13c-.11,0-.2-.09-.2-.2s.09-.2,.2-.2h14.13c.38,0,.71,.14,.93,.41,.22,.26,.3,.62,.24,1l-.96,5.29c-.15,.82-.98,1.52-1.81,1.52Z" fill="#ed2a5b"/><path d="M125.14,89.58c-.11,.6,.27,1.06,.88,1.06h39.55c.67,0,1.34-.56,1.46-1.22,.11-.6-.27-1.06-.88-1.06h-39.55c-.67,0-1.34,.56-1.46,1.22Z" fill="#ffe6f0"/><path d="M120.88,104.43c-.38,0-.71-.14-.93-.41-.22-.26-.3-.62-.24-1l.96-5.29c.15-.82,.98-1.52,1.81-1.52h19.28c.11,0,.2,.09,.2,.2s-.09,.2-.2,.2h-19.28c-.65,0-1.31,.56-1.43,1.2l-.96,5.29c-.05,.26,0,.5,.15,.68,.14,.17,.37,.27,.63,.27l26.27-.08h0c.11,0,.19,.09,.2,.19,0,.11-.09,.2-.19,.2l-26.27,.08Z" fill="#ffe6f0"/><path d="M166.56,104.43l-9.57-.02c-.11,0-.2-.09-.19-.2,0-.11,.09-.19,.2-.19h0l9.57,.02c.65,0,1.31-.56,1.43-1.2l.96-5.29c.05-.26,0-.5-.15-.68-.14-.17-.37-.27-.63-.27l-23.57,.06c-.11,0-.2-.09-.2-.19,0-.11,.09-.2,.19-.2l23.57-.06c.38,0,.71,.14,.93,.41,.22,.26,.3,.62,.24,1l-.96,5.29c-.15,.82-.98,1.52-1.81,1.52Z" fill="#ed2a5b"/><path d="M123.29,100.45c-.11,.6,.27,1.06,.88,1.06h39.55c.67,0,1.34-.56,1.46-1.22,.11-.6-.27-1.06-.88-1.06h-39.55c-.67,0-1.34,.56-1.46,1.22Z" fill="#ffe6f0"/><path d="M104.64,86.43s-.02,0-.03,0c-.11-.02-.18-.12-.16-.23l8.4-47.98c.21-1.22,1.34-2.18,2.57-2.18h66.26c.66,0,1.24,.26,1.64,.74,.4,.48,.57,1.12,.45,1.78l-1.23,7c-.02,.11-.12,.18-.23,.16-.11-.02-.18-.12-.16-.23l1.23-7c.1-.55-.03-1.06-.37-1.46-.33-.39-.8-.6-1.34-.6H115.41c-1.04,0-2.01,.81-2.19,1.85l-8.4,47.98c-.02,.09-.1,.16-.19,.16Z" fill="#363636"/><path d="M114.58,128.86c-2.71,3.75-6.14,15.12-7.68,22.65,12.47,3.74,23.49,3.01,33.38,2.23,.82-.06,1.42-.78,1.35-1.6-.88-9.46-2.47-18.12-2.47-18.12l-24.58-5.16Z" fill="#363636"/><g><path d="M142.56,101.71s6.05,4.07,8.88,3.31c3.98-1.08,5.73-11.22,5.91-12.12,.17-.9,.94-5.47,1.73-7.17,.75-1.6,1.2-3.24,1.44-4.25,.14-.61,.56-.9,.97-.84,.36,.05,.6,.34,.4,1.24-.23,1.05-.44,2.1-.63,3-.06,.28-.17,.55,.02,.35,.46-.47,1.07-.92,1.54-.75,.89,.32,1.84,3.32,.88,5.69-.95,2.37-2.48,2.11-2.74,3.22-.26,1.12-1.64,15.29-2.74,17.88-1.58,3.73-16.77,1.01-16.77,1.01l1.11-10.56Z" fill="#fff"/><path d="M151.4,113.43c-4.54,0-9.63-.9-9.99-.96l-.18-.03,1.16-11.07,.27,.18c.05,.04,5.05,3.37,7.97,3.37,.27,0,.52-.03,.75-.09,3.46-.94,5.27-9.31,5.74-11.85l.02-.12c.02-.1,.05-.25,.08-.44,.26-1.43,.95-5.25,1.67-6.78,.72-1.54,1.18-3.14,1.43-4.21,.16-.66,.65-1.07,1.19-.99,.22,.03,.38,.13,.49,.29,.17,.25,.19,.64,.07,1.19-.15,.66-.28,1.31-.41,1.94-.07,.32-.13,.62-.19,.91,.55-.46,1.02-.63,1.41-.49,.41,.15,.71,.66,.89,1.06,.54,1.21,.78,3.19,.11,4.88-.57,1.42-1.36,1.95-1.94,2.33-.41,.27-.7,.46-.79,.86-.07,.31-.25,1.77-.47,3.61-.56,4.65-1.49,12.43-2.28,14.3-.68,1.61-3.69,2.09-6.99,2.09Zm-9.75-1.32c.8,.14,4.14,.68,7.59,.86,5.14,.28,8.17-.34,8.78-1.78,.77-1.82,1.7-9.56,2.25-14.19,.23-1.93,.4-3.32,.48-3.66,.13-.55,.51-.8,.96-1.1,.56-.37,1.27-.84,1.79-2.15,.63-1.58,.39-3.48-.1-4.58-.2-.46-.45-.78-.67-.86-.3-.11-.77,.14-1.33,.71-.05,.05-.18,.19-.34,.1-.15-.09-.11-.25-.06-.45,.01-.06,.03-.12,.04-.18,.07-.33,.14-.69,.22-1.05,.13-.63,.27-1.29,.41-1.95,.12-.54,.06-.78,0-.88-.03-.04-.08-.1-.23-.12-.34-.05-.64,.23-.75,.69-.26,1.09-.72,2.71-1.46,4.28-.69,1.49-1.38,5.26-1.64,6.68-.03,.19-.06,.34-.08,.44l-.02,.12c-.62,3.33-2.44,11.19-6.02,12.16-.26,.07-.54,.1-.84,.1-2.69,0-6.83-2.55-7.93-3.26l-1.06,10.06Z"/></g><g><path d="M106.77,106.53l-4.32,10.08c-.06,.15-.14,.29-.21,.43-1.38,2.78,.09,6.17,3.11,7.04l13.03,3.73,.34-5.53-6.98-2.18c-1.35-.42-1.96-1.99-1.24-3.21l1.21-2.06-4.95-8.29Z" fill="#fff"/><path d="M118.57,128.06l-13.27-3.8c-1.49-.43-2.7-1.48-3.33-2.9-.63-1.42-.59-3.03,.1-4.41l.02-.05c.06-.13,.12-.25,.18-.38l4.47-10.43,5.2,8.72-1.27,2.16c-.31,.53-.36,1.16-.14,1.74,.22,.57,.68,1.01,1.27,1.19l7.13,2.23-.37,5.92Zm-11.76-21.1l-4.17,9.72c-.06,.14-.12,.27-.19,.4l-.02,.05c-.64,1.28-.67,2.77-.09,4.08,.58,1.31,1.7,2.29,3.08,2.68l12.8,3.67,.32-5.13-6.83-2.14c-.7-.22-1.25-.74-1.52-1.42-.26-.68-.2-1.44,.17-2.07l1.15-1.96-4.69-7.86Z"/></g><path d="M117.08,96.2c7.3-3.26,21.4-2.58,31.3,8.04,1.16,1.25-2.2,10.67-5.19,10.02-2.22-.48-4.1-1.02-4.76-.28-.18,.2-.22,.44-.24,.58-.84,5.33,.8,12,.8,12,.98,3.99,2.03,8.31,.53,11.58-4.07,8.86-24.87,6.08-29.73,3.4-2-1.1,.1-4.13,1.57-14.01,1.1-7.36,1.74-13.46,.38-11.11-.67,1.15-7.64-5.79-6.91-7.86,1.6-4.55,4.4-8.84,12.28-12.35Z" fill="#ed2a5b"/><path d="M124.4,144.35c-6.14,0-12.3-1.3-14.74-2.64-1.37-.75-1.01-2.29-.22-5.65,.48-2.03,1.13-4.81,1.69-8.56,1.39-9.34,1.21-11.09,1.03-11.38-.04,.04-.14,.13-.29,.4-.11,.19-.36,.36-.97,.08-.99-.45-2.68-1.96-4.12-3.66-.99-1.17-2.58-3.3-2.18-4.45,1.43-4.07,4.02-8.73,12.38-12.47l.08,.18-.08-.18c3.96-1.77,9.49-2.21,14.79-1.2,4.49,.86,11.03,3.17,16.73,9.28,.83,.89-.28,4.84-1.76,7.45-1.2,2.11-2.48,3.13-3.62,2.89-.27-.06-.54-.12-.79-.18-1.76-.39-3.27-.73-3.78-.17-.15,.16-.18,.36-.2,.48-.82,5.23,.78,11.86,.79,11.92,.96,3.92,2.05,8.37,.51,11.71-1.02,2.22-3.13,3.88-6.27,4.91-2.65,.87-5.82,1.22-9,1.22Zm-12.22-28.65s.07,0,.11,.02c.33,.12,.95,.33-.77,11.83-.56,3.77-1.22,6.56-1.7,8.59-.77,3.26-1.09,4.61,.03,5.22,3.64,2,15.75,3.92,23.42,1.39,3.03-1,5.06-2.58,6.04-4.71,1.48-3.22,.45-7.41-.54-11.46-.02-.07-1.63-6.77-.8-12.08,.02-.14,.07-.43,.29-.68,.66-.74,2.21-.39,4.16,.05,.26,.06,.52,.12,.79,.18,.94,.2,2.1-.78,3.19-2.7,1.6-2.81,2.39-6.38,1.82-7-5.62-6.03-12.08-8.31-16.52-9.16-5.23-1-10.67-.57-14.56,1.17-8.23,3.67-10.77,8.25-12.18,12.24-.54,1.53,4.11,6.71,6.09,7.62,.28,.13,.44,.13,.47,.08,.17-.29,.39-.61,.65-.61Z"/><g><path d="M135.14,79.41c.67,.15,1.11,1.43,1.29,2.09,.58,2.17,0,7.47-1.55,7.99-1.54,.51-1.48-.22-2.61,.58-.9,.64-.92,1.63-1.12,3.78-.01,.14,2.83,.61,2.89,.73,.14,.28-1.16,4.04-6.54,3.96-5.1-.07-6.18-3.4-6.22-3.64-.03-.14,3.75-.83,3.8-.98,.68-1.9,.98-5.12,.98-5.12,0,0,2.08-10.95,9.08-9.41Z" fill="#fff"/><path d="M127.65,98.75c-.05,0-.11,0-.16,0-5.45-.08-6.41-3.76-6.41-3.79-.04-.23,.19-.29,.75-.43,.37-.09,.86-.2,1.35-.31,.65-.14,1.51-.33,1.74-.42,.65-1.87,.94-4.97,.95-5v-.02c.05-.26,1.25-6.38,4.89-8.78,1.33-.88,2.82-1.14,4.43-.79,.8,.18,1.27,1.62,1.43,2.23,.58,2.16,.06,7.65-1.68,8.23-.74,.24-1.13,.22-1.45,.2-.35-.02-.56-.04-1.11,.36-.75,.54-.83,1.36-.99,3.15-.01,.12-.02,.24-.03,.36,.25,.08,.92,.22,1.38,.31,1.33,.28,1.42,.31,1.48,.43,.12,.23-.13,.85-.44,1.35-.54,.88-2.22,2.9-6.12,2.9Zm-6.14-3.73c.24,.64,1.52,3.28,5.99,3.34,2.91,.04,4.54-1.06,5.39-1.99,.67-.73,.92-1.41,.96-1.65-.22-.06-.77-.18-1.2-.27-1.63-.34-1.72-.37-1.7-.61,.02-.17,.03-.33,.04-.49,.17-1.86,.25-2.79,1.15-3.44,.67-.48,.99-.46,1.36-.43,.3,.02,.63,.04,1.3-.18,1.42-.47,2-5.6,1.43-7.75-.22-.83-.66-1.85-1.14-1.95-1.5-.33-2.89-.08-4.13,.73-3.44,2.27-4.67,8.26-4.72,8.52-.02,.23-.32,3.28-.99,5.16-.05,.15-.06,.17-2,.6-.62,.14-1.43,.31-1.75,.41Zm3.44-1.23h0Z"/></g><path d="M132.85,85.19h0c-.97-.02-1.63-1.01-1.85-1.97-.2-.86-.03-1.57,.42-1.8,1.03-.52,1.95,1.01,1.99,1.08,.05,.09,.02,.21-.07,.27-.09,.05-.21,.02-.27-.07,0-.01-.77-1.29-1.47-.93-.27,.14-.36,.71-.21,1.36,.19,.82,.71,1.65,1.48,1.66,.11,0,.19,.09,.19,.2,0,.11-.09,.19-.2,.19Z"/><path d="M137.36,77.02c.46,1.52-1.07,2.04-2.21,3.15-1.17,1.14-1.19,2.59-1.89,2.63-.09,0-.42-.34-.6-.78-.3-.74-2.29-.76-1.11,1.91,1.85,4.2,6.67,14.38,4.68,22.07-1.59,6.16-4.33,9.23-17.33,9.49-10.88,.22-15.91-12.43-14.95-17.5,2.14-11.29,13.92,.7,14.64-14.92,.51-10.95,10.12-16.88,17.29-8.84,.73,.81,1.18,1.84,1.47,2.8Z" fill="#363636"/><path d="M181.61,71.51h-20.15c-.58,0-.97-.47-.86-1.04l3.42-19.23c.1-.58,.65-1.04,1.23-1.04h20.15c.58,0,.97,.47,.86,1.04l-3.42,19.23c-.1,.58-.65,1.04-1.23,1.04Z" fill="#fff"/><path d="M185.79,53.89h-22.24l.47-2.65c.1-.58,.65-1.04,1.23-1.04h20.15c.58,0,.97,.47,.86,1.04l-.47,2.65Z" fill="#ffd7e5"/><path d="M181.61,71.71h-20.15c-.34,0-.63-.13-.83-.37-.2-.24-.28-.56-.22-.9l3.42-19.23c.12-.66,.76-1.2,1.43-1.2h20.15c.34,0,.63,.13,.83,.37,.2,.24,.28,.56,.22,.9l-3.42,19.23c-.12,.66-.76,1.2-1.43,1.2Zm-16.35-21.32c-.49,0-.96,.39-1.04,.88l-3.42,19.23c-.04,.22,0,.43,.14,.58,.13,.15,.32,.23,.53,.23h20.15c.49,0,.96-.39,1.04-.88l3.42-19.23c.04-.22,0-.43-.14-.58-.13-.15-.32-.23-.53-.23h-20.15Z"/><path d="M166.99,64.43h-2.46c-.32,0-.53-.26-.47-.57l.44-2.47c.06-.32,.36-.57,.68-.57h2.46c.32,0,.53,.26,.47,.57l-.44,2.47c-.06,.31-.36,.57-.68,.57Z" fill="#ffe6f0"/><path d="M171.68,64.43h-2.46c-.32,0-.53-.26-.47-.57l.44-2.47c.06-.32,.36-.57,.68-.57h2.46c.32,0,.53,.26,.47,.57l-.44,2.47c-.06,.31-.36,.57-.68,.57Z" fill="#ffe6f0"/><path d="M176.37,64.43h-2.46c-.32,0-.53-.26-.47-.57l.44-2.47c.06-.32,.36-.57,.68-.57h2.46c.32,0,.53,.26,.47,.57l-.44,2.47c-.06,.31-.36,.57-.68,.57Z" fill="#ed2a5b"/><path d="M181.06,64.43h-2.46c-.32,0-.53-.26-.47-.57l.44-2.47c.06-.32,.36-.57,.68-.57h2.46c.32,0,.53,.26,.47,.57l-.44,2.47c-.06,.31-.36,.57-.68,.57Z" fill="#ffa9c2"/><path d="M166.16,69.1h-2.46c-.32,0-.53-.26-.47-.57l.44-2.47c.06-.31,.36-.57,.68-.57h2.46c.32,0,.53,.26,.47,.57l-.44,2.47c-.06,.31-.36,.57-.68,.57Z" fill="#ffbdd6"/><path d="M170.85,69.1h-2.46c-.32,0-.53-.26-.47-.57l.44-2.47c.06-.31,.36-.57,.68-.57h2.46c.32,0,.53,.26,.47,.57l-.44,2.47c-.06,.31-.36,.57-.68,.57Z" fill="#ffbdd6"/><path d="M175.54,69.1h-2.46c-.32,0-.53-.26-.47-.57l.44-2.47c.06-.31,.36-.57,.68-.57h2.46c.32,0,.53,.26,.47,.57l-.44,2.47c-.06,.31-.36,.57-.68,.57Z" fill="#ffbdd6"/><path d="M167.82,59.75h-2.46c-.32,0-.53-.26-.47-.57l.44-2.47c.06-.32,.36-.57,.68-.57h2.46c.32,0,.53,.26,.47,.57l-.44,2.47c-.06,.31-.36,.57-.68,.57Z" fill="#ffd7e5"/><path d="M172.51,59.75h-2.46c-.32,0-.53-.26-.47-.57l.44-2.47c.06-.32,.36-.57,.68-.57h2.46c.32,0,.53,.26,.47,.57l-.44,2.47c-.06,.31-.36,.57-.68,.57Z" fill="#ffd7e5"/><path d="M177.21,59.75h-2.46c-.32,0-.53-.26-.47-.57l.44-2.47c.06-.32,.36-.57,.68-.57h2.46c.32,0,.53,.26,.47,.57l-.44,2.47c-.06,.31-.36,.57-.68,.57Z" fill="#ffd7e5"/><path d="M181.9,59.75h-2.46c-.32,0-.53-.26-.47-.57l.44-2.47c.06-.32,.36-.57,.68-.57h2.46c.32,0,.53,.26,.47,.57l-.44,2.47c-.06,.31-.36,.57-.68,.57Z" fill="#ffa9c2"/><g><path d="M166.9,52.38h0c-.54,0-1.01-.21-1.33-.6-.33-.39-.46-.92-.36-1.47,.19-1.1,1.24-1.99,2.34-1.99,.05,0,.09,0,.13,0,.11,0,.19,.1,.18,.21,0,.11-.1,.19-.21,.18-.03,0-.07,0-.1,0-.91,0-1.79,.75-1.95,1.67-.08,.44,.02,.85,.27,1.15,.25,.29,.61,.46,1.04,.46,.11,0,.2,.09,.19,.2,0,.11-.09,.19-.2,.19Z"/><path d="M169.66,52.38h0c-.54,0-1.01-.21-1.33-.6-.33-.39-.46-.92-.36-1.47,.19-1.1,1.24-1.99,2.34-1.99,.05,0,.09,0,.13,0,.11,0,.19,.1,.18,.21,0,.11-.1,.19-.21,.18-.03,0-.07,0-.1,0-.91,0-1.79,.75-1.95,1.67-.08,.44,.02,.85,.27,1.15,.25,.29,.61,.46,1.04,.46,.11,0,.2,.09,.19,.2,0,.11-.09,.19-.2,.19Z"/><path d="M172.43,52.39h0c-.54,0-1.01-.21-1.33-.6-.33-.39-.46-.92-.36-1.47,.19-1.1,1.24-1.99,2.34-1.99,.04,0,.09,0,.13,0,.11,0,.19,.1,.18,.21,0,.11-.1,.19-.21,.18-.03,0-.06,0-.1,0-.91,0-1.79,.75-1.95,1.67-.08,.44,.02,.85,.27,1.15,.25,.29,.61,.46,1.04,.46,.11,0,.2,.09,.19,.2,0,.11-.09,.19-.2,.19Z"/><path d="M175.19,52.4h0c-.54,0-1.01-.21-1.33-.6-.33-.39-.46-.92-.36-1.47,.19-1.1,1.24-1.99,2.34-1.99,.04,0,.09,0,.13,0,.11,0,.19,.1,.18,.21,0,.11-.09,.19-.21,.18-.03,0-.07,0-.1,0-.91,0-1.79,.75-1.95,1.67-.08,.44,.02,.85,.27,1.15,.25,.29,.61,.46,1.04,.46,.11,0,.2,.09,.19,.2,0,.11-.09,.19-.2,.19Z"/><path d="M177.95,52.41h0c-.54,0-1.01-.21-1.33-.6-.33-.39-.46-.92-.36-1.47,.19-1.1,1.24-1.99,2.34-1.99,.04,0,.09,0,.13,0,.11,0,.19,.1,.18,.21,0,.11-.1,.19-.21,.18-.03,0-.07,0-.1,0-.91,0-1.79,.75-1.95,1.67-.08,.44,.02,.85,.27,1.15,.25,.29,.61,.46,1.04,.46,.11,0,.2,.09,.19,.2,0,.11-.09,.19-.2,.19Z"/><path d="M180.71,52.41h0c-.54,0-1.01-.21-1.33-.6-.33-.39-.46-.92-.36-1.47,.19-1.1,1.24-1.99,2.34-1.99,.04,0,.09,0,.13,0,.11,0,.19,.1,.18,.21,0,.11-.1,.19-.21,.18-.03,0-.07,0-.1,0-.91,0-1.79,.75-1.95,1.67-.08,.44,.02,.85,.27,1.15,.25,.29,.61,.46,1.04,.46,.11,0,.2,.09,.19,.2,0,.11-.09,.19-.2,.19Z"/><path d="M183.32,52.42h0c-.54,0-1.01-.21-1.33-.6-.33-.39-.46-.92-.36-1.47,.19-1.1,1.24-1.99,2.34-1.99h0c.71,0,1.31,.38,1.58,.99,.04,.1,0,.21-.1,.26-.1,.04-.21,0-.26-.1-.21-.47-.66-.76-1.22-.76h0c-.91,0-1.79,.75-1.95,1.67-.08,.44,.02,.85,.27,1.15,.25,.29,.61,.46,1.04,.46,.11,0,.2,.09,.19,.2,0,.11-.09,.19-.2,.19Z"/></g><g><circle cx="96.83" cy="53.63" r="2.68" fill="#ed2a5b"/><path d="M92.04,50.31c-.34,0-.68-.14-.93-.43-.44-.51-.38-1.28,.14-1.71,1.67-1.42,3.56-2.17,5.48-2.17s3.82,.75,5.48,2.17c.51,.44,.57,1.2,.14,1.71-.44,.51-1.2,.57-1.71,.14-1.24-1.06-2.55-1.59-3.9-1.59s-2.67,.54-3.9,1.59c-.23,.2-.51,.29-.79,.29Z" fill="#ed2a5b"/><path d="M104.24,45.93c-.28,0-.56-.09-.78-.29-2.12-1.79-4.38-2.69-6.72-2.69s-4.61,.91-6.72,2.69c-.51,.43-1.28,.37-1.71-.14-.43-.51-.37-1.28,.14-1.71,2.53-2.14,5.4-3.27,8.29-3.27s5.76,1.13,8.29,3.27c.51,.43,.58,1.2,.14,1.71-.24,.28-.58,.43-.93,.43Z" fill="#ed2a5b"/><path d="M107.06,41.54c-.28,0-.56-.1-.79-.29-2.99-2.57-6.2-3.88-9.53-3.88s-6.54,1.3-9.53,3.88c-.51,.44-1.28,.38-1.71-.13-.44-.51-.38-1.28,.13-1.71,1.67-1.43,3.44-2.54,5.26-3.29,1.9-.78,3.87-1.18,5.85-1.18s3.95,.4,5.85,1.18c1.83,.75,3.6,1.86,5.26,3.29,.51,.44,.57,1.21,.13,1.71-.24,.28-.58,.42-.92,.42Z" fill="#ed2a5b"/></g><g><path d="M120.2,48.75h-2.42l-.67,1.42h-1.96l4.01-7.58h1.68l1.4,7.58h-1.85l-.18-1.42Zm-1.75-1.41h1.57l-.33-2.61-1.24,2.61Z" fill="#262626"/><path d="M129.87,42.59l-.84,4.95c-.12,.86-.47,1.53-1.06,2.02s-1.32,.73-2.21,.72c-.55-.01-1.03-.13-1.44-.36s-.71-.55-.9-.96-.26-.89-.2-1.42l.84-4.95h1.79l-.84,4.96c-.02,.17-.02,.34-.01,.49,.02,.26,.1,.46,.24,.6,.14,.14,.35,.22,.61,.23,.76,.02,1.22-.42,1.38-1.33l.84-4.95h1.78Z" fill="#262626"/><path d="M129.68,50.17l1.31-7.58h2.23c.66,0,1.23,.18,1.72,.52s.84,.82,1.04,1.41c.18,.52,.23,1.09,.16,1.7l-.04,.32c-.09,.68-.32,1.3-.68,1.85s-.82,.98-1.38,1.3-1.17,.47-1.82,.48h-2.55Zm2.85-6.17l-.83,4.76h.52c.61,0,1.1-.23,1.47-.7s.59-1.19,.66-2.17v-.17c.03-.56-.05-.98-.25-1.26s-.49-.44-.89-.45h-.68Z" fill="#262626"/><path d="M138.32,50.17h-1.78l1.32-7.58h1.78l-1.31,7.58Z" fill="#262626"/><path d="M146.44,44h-2.21l-1.07,6.17h-1.79l1.07-6.17h-2.17l.25-1.41h6.15l-.24,1.41Z" fill="#262626"/></g></svg>