<?xml version="1.0" encoding="UTF-8"?>
<svg id="Layer_1" data-name="Layer 1" xmlns="http://www.w3.org/2000/svg" xmlns:xlink="http://www.w3.org/1999/xlink" viewBox="0 0 270 186">
  <defs>
    <clipPath id="clippath">
      <path d="M205.84,56.57c.12,1.56-11.48,3.87-11.71,5.35-.62,3.96-3.16,7.93-6.42,10.45-2.78,2.15-6.01,3.81-9.86,4.08-10,.7-18.76-6.16-19.5-15.66-.04-.48-23.91-13.77-24.03-14.23-8.95-32.76,32.3-19.06,41.79-19.73,10-.7,28.98,20.22,29.73,29.72Z" fill="none"/>
    </clipPath>
  </defs>
  <path d="M178.37,157.29c-.07,0-.13-.03-.18-.08-.1-.1-.1-.27,0-.37l21.25-21.25c.1-.1,.27-.1,.37,0,.1,.1,.1,.27,0,.37l-21.25,21.25c-.05,.05-.12,.08-.18,.08Z" fill="#363636"/>
  <circle cx="120.29" cy="74.97" r="23.3" fill="#fff"/>
  <circle cx="121.29" cy="74.28" r="22.61" transform="translate(37.26 189.03) rotate(-85.27)" fill="#fff"/>
  <path d="M121.29,97.15c-12.61,0-22.87-10.26-22.87-22.87s10.26-22.87,22.87-22.87,22.87,10.26,22.87,22.87-10.26,22.87-22.87,22.87Zm0-45.21c-12.32,0-22.35,10.02-22.35,22.35s10.02,22.35,22.35,22.35,22.35-10.02,22.35-22.35-10.02-22.35-22.35-22.35Z" fill="#363636"/>
  <path d="M121.34,95.02c-5.93,0-11.59-2.56-15.51-7.01-.1-.11-.08-.27,.02-.37,.11-.1,.27-.08,.37,.02,3.83,4.34,9.34,6.83,15.12,6.83,3.67,0,7.26-1,10.38-2.88,.12-.07,.28-.03,.36,.09,.07,.12,.03,.28-.09,.36-3.21,1.93-6.89,2.96-10.65,2.96Z" fill="#363636"/>
  <path d="M135.1,89.68c-.07,0-.14-.03-.19-.08-.1-.11-.09-.27,.02-.37,2.39-2.18,4.24-4.94,5.34-7.96,.05-.14,.2-.21,.34-.16,.14,.05,.21,.2,.16,.33-1.13,3.1-3.03,5.93-5.48,8.17-.05,.05-.11,.07-.18,.07Z" fill="#363636"/>
  <path d="M137.98,62.82c-.08,0-.16-.04-.21-.11-3.78-5.32-9.92-8.49-16.43-8.49-4.53,0-8.81,1.47-12.37,4.25-.11,.09-.28,.07-.37-.05-.09-.11-.07-.28,.05-.37,3.66-2.85,8.04-4.36,12.69-4.36,6.68,0,12.98,3.26,16.86,8.71,.08,.12,.06,.28-.06,.36-.05,.03-.1,.05-.15,.05Z" fill="#363636"/>
  <path d="M101.79,80.48c-.11,0-.22-.07-.25-.19-.57-1.92-.86-3.91-.86-5.93,0-3.06,.65-6.01,1.95-8.77,.06-.13,.22-.19,.35-.13,.13,.06,.19,.22,.13,.35-1.26,2.68-1.9,5.56-1.9,8.54,0,1.97,.28,3.92,.84,5.78,.04,.14-.04,.28-.18,.33-.02,0-.05,.01-.08,.01Z" fill="#363636"/>
  <g>
    <path d="M105.75,79.22v-.61c0-2.56,1.02-3.04,3.9-4.81,1.29-.8,1.77-1.2,1.77-1.93,0-.86-.64-1.29-2.24-1.29-.86,0-1.9,.16-2.94,.4l-.38-1.85c1.18-.37,2.6-.54,3.59-.54,2.8,0,4.27,1.26,4.27,3.2,0,1.49-.91,2.35-2.6,3.45-1.33,.86-2.52,1.5-2.67,2h5.32v2h-8.02Z" fill="#ed2a5b"/>
    <path d="M122.12,76.95v2.27h-2.2v-2.27h-5.38v-2.01l5.11-6.2h2.48v6.33h1.52v1.89h-1.52Zm-2.2-5.72l-3.2,3.83h3.2v-3.83Z" fill="#ed2a5b"/>
    <path d="M125.27,79.64h-1.72l3.57-11.35h1.72l-3.58,11.35Z" fill="#ed2a5b"/>
    <path d="M136.83,70.04l-3.91,9.16h-2.56l3.91-8.59h-4.98v-1.87h7.53v1.29Z" fill="#ed2a5b"/>
  </g>
  <path d="M76.18,90.95l-1.7,1.01,.67,2.06c-.35,.31-.67,.64-.96,.99l-2.07-.61-.97,1.73,1.61,1.44c-.15,.44-.26,.88-.34,1.34l-2.1,.51,.03,1.98,2.11,.44c.09,.45,.21,.89,.38,1.33l-1.57,1.49,1.01,1.7,2.06-.67c.31,.35,.64,.67,.99,.96l-.61,2.07,1.73,.97,1.44-1.61c.44,.15,.88,.26,1.34,.34l.51,2.1,1.98-.03,.44-2.11c.45-.09,.89-.21,1.33-.38l1.49,1.57,1.7-1.01-.67-2.06c.35-.31,.67-.64,.96-.99l2.07,.61,.97-1.73-1.61-1.44c.15-.44,.26-.88,.34-1.34l2.1-.51-.03-1.98-2.11-.44c-.09-.45-.21-.89-.38-1.33l1.57-1.49-1.01-1.7-2.06,.67c-.31-.35-.64-.67-.99-.96l.61-2.07-1.73-.97-1.44,1.61c-.44-.15-.88-.26-1.34-.34l-.51-2.1-1.98,.03-.44,2.11c-.45,.09-.89,.21-1.33,.38l-1.49-1.57Zm8.78,6.69c1.44,2.42,.65,5.55-1.77,6.99-2.42,1.44-5.55,.65-6.99-1.77s-.65-5.55,1.77-6.99c2.42-1.44,5.55-.65,6.99,1.77Z" fill="#ffbdd6"/>
  <path d="M75.94,91.9l-1.7,1.01,.67,2.06c-.35,.31-.67,.64-.96,.99l-2.07-.61-.97,1.73,1.61,1.44c-.15,.44-.26,.88-.34,1.34l-2.1,.51,.03,1.98,2.11,.44c.09,.45,.21,.89,.38,1.33l-1.57,1.49,1.01,1.7,2.06-.67c.31,.35,.64,.67,.99,.96l-.61,2.07,1.73,.97,1.44-1.61c.44,.15,.88,.26,1.34,.34l.51,2.1,1.98-.03,.44-2.11c.45-.09,.89-.21,1.33-.38l1.49,1.57,1.7-1.01-.67-2.06c.35-.31,.67-.64,.96-.99l2.07,.61,.97-1.73-1.61-1.44c.15-.44,.26-.88,.34-1.34l2.1-.51-.03-1.98-2.11-.44c-.09-.45-.21-.89-.38-1.33l1.57-1.49-1.01-1.7-2.06,.67c-.31-.35-.64-.67-.99-.96l.61-2.07-1.73-.97-1.44,1.61c-.44-.15-.88-.26-1.34-.34l-.51-2.1-1.98,.03-.44,2.11c-.45,.09-.89,.21-1.33,.38l-1.49-1.57Zm8.78,6.69c1.44,2.42,.65,5.55-1.77,6.99-2.42,1.44-5.55,.65-6.99-1.77-1.44-2.42-.65-5.55,1.77-6.99,2.42-1.44,5.55-.65,6.99,1.77Z" fill="#ed2a5b"/>
  <circle cx="79.98" cy="74.71" r="9.48" transform="translate(-14.69 19.8) rotate(-12.93)" fill="#fff"/>
  <path d="M79.97,84.46c-1.81,0-3.58-.51-5.15-1.49-4.55-2.85-5.94-8.88-3.08-13.43,2.85-4.55,8.88-5.94,13.43-3.08,2.21,1.38,3.74,3.54,4.32,6.08,.58,2.54,.14,5.15-1.24,7.35-1.38,2.21-3.54,3.74-6.08,4.32-.73,.17-1.47,.25-2.2,.25Zm-7.8-14.64c-2.7,4.31-1.39,10.01,2.92,12.71,2.09,1.31,4.56,1.72,6.96,1.17,2.4-.55,4.44-2,5.75-4.09,1.31-2.09,1.72-4.56,1.17-6.96-.55-2.4-2-4.44-4.09-5.75-4.31-2.7-10.01-1.39-12.71,2.92Z" fill="#363636"/>
  <rect x="74.44" y="70.81" width="10.96" height="8.11" rx=".88" ry=".88" transform="translate(51.94 -31.01) rotate(32.07)" fill="#ffd7e5"/>
  <path d="M82.13,81.14c-.21,0-.42-.06-.6-.17l-7.79-4.88c-.53-.33-.7-1.04-.36-1.58l3.37-5.38c.16-.26,.42-.44,.71-.51,.3-.07,.6-.02,.86,.15l7.79,4.88c.53,.33,.7,1.04,.36,1.58l-3.37,5.38c-.22,.35-.59,.54-.97,.54Zm-.33-.62c.29,.18,.67,.09,.86-.2l3.37-5.38c.18-.29,.09-.67-.2-.86l-7.79-4.88c-.14-.09-.31-.12-.47-.08-.16,.04-.3,.13-.39,.28l-3.37,5.38c-.18,.29-.09,.67,.2,.86l7.79,4.88Z" fill="#363636"/>
  <path d="M79.76,75.45c-.1,0-.19-.06-.24-.15l-1.76-3.82c-.06-.13,0-.29,.13-.35,.13-.06,.29,0,.35,.13l1.76,3.82c.06,.13,0,.29-.13,.35-.04,.02-.07,.02-.11,.02Z" fill="#363636"/>
  <path d="M79.78,75.47c-.14,0-.26-.11-.26-.26,0-.14,.11-.26,.26-.27l4.21-.09c.14,0,.26,.11,.27,.26,0,.14-.11,.26-.26,.27l-4.21,.09h0Z" fill="#363636"/>
  <circle cx="105.43" cy="35.01" r="9.48" transform="translate(11.21 93.87) rotate(-50.36)" fill="#fff"/>
  <path d="M105.43,44.76c-4.97,0-9.22-3.79-9.69-8.83-.5-5.35,3.44-10.11,8.79-10.61,5.35-.5,10.11,3.44,10.61,8.79,.5,5.35-3.44,10.11-8.79,10.61-.31,.03-.61,.04-.92,.04Zm-9.17-8.88c.48,5.06,4.98,8.8,10.04,8.32,5.06-.47,8.8-4.98,8.32-10.04-.48-5.06-4.98-8.8-10.04-8.32-5.06,.47-8.8,4.98-8.32,10.04Z" fill="#363636"/>
  <path d="M109.37,38.77l-1.26-1.56c-.1-.13-.33-.23-.49-.23h-.21c-.19,0-.38,.05-.55,.13-.5,.2-1.3,.21-2.34-1.6-1.04-1.8-.65-2.49-.22-2.82,.18-.14,.33-.33,.45-.53l.05-.08c.09-.14,.11-.39,.05-.54l-.72-1.87c-.06-.16-.24-.26-.41-.23l-.46,.09c-.39,.07-.75,.27-1.01,.57-1.1,1.28-.91,3.85,.56,6.4,1.48,2.56,3.62,4,5.28,3.68,.38-.07,.73-.28,.98-.58l.31-.37c.11-.13,.11-.34,0-.46Z" fill="#ffd7e5"/>
  <path d="M107.6,40.48c-1.7,0-3.66-1.48-5.03-3.86-1.51-2.62-1.72-5.31-.53-6.7,.29-.34,.7-.57,1.16-.66l.46-.09c.29-.05,.59,.12,.7,.39l.72,1.87c.09,.23,.06,.56-.07,.77l-.05,.08c-.15,.24-.32,.44-.52,.6-.2,.15-.79,.62,.29,2.49,1.08,1.88,1.79,1.59,2.02,1.49,.22-.09,.44-.14,.65-.14h.21c.25,0,.55,.13,.7,.32l1.26,1.56c.18,.23,.18,.58-.01,.8l-.31,.37c-.3,.35-.7,.58-1.13,.67-.17,.03-.34,.05-.52,.05Zm-3.83-10.79h-.01l-.46,.09c-.34,.06-.65,.23-.86,.48-1.03,1.21-.79,3.72,.59,6.1,1.26,2.19,3.09,3.6,4.58,3.6,.14,0,.28-.01,.42-.04,.32-.06,.61-.24,.83-.49l.31-.37s.03-.1,0-.13h0l-1.26-1.56c-.05-.07-.2-.13-.29-.13h-.21c-.14,0-.3,.04-.46,.11-.91,.37-1.79-.19-2.67-1.71-.88-1.52-.93-2.56-.16-3.16,.15-.11,.28-.27,.39-.45l.05-.08c.04-.07,.06-.23,.03-.31l-.72-1.87s-.06-.07-.1-.07Z" fill="#363636"/>
  <ellipse cx="85.24" cy="50.54" rx="9.75" ry="9.86" fill="#ed2a5b"/>
  <g>
    <path d="M80.87,54.49c-.13,0-.23-.09-.26-.22l-1.54-8.56-1.23-.06c-.14,0-.26-.13-.25-.27,0-.14,.12-.26,.27-.25l1.44,.07c.12,0,.22,.09,.24,.21l1.54,8.55,8.68-.2,2.34-5.8c.05-.13,.21-.2,.34-.14,.13,.05,.2,.21,.14,.34l-2.4,5.96c-.04,.1-.13,.16-.24,.16l-9.07,.21h0Z" fill="#fff"/>
    <path d="M79.9,48.47c-.14,0-.26-.12-.26-.26,0-.14,.11-.26,.26-.26l12.44-.14h0c.14,0,.26,.12,.26,.26,0,.14-.11,.26-.26,.26l-12.44,.14h0Z" fill="#fff"/>
    <path d="M80.26,50.66c-.14,0-.26-.11-.26-.26,0-.14,.11-.26,.26-.26l10.87-.14c.15,0,.26,.11,.26,.26,0,.14-.11,.26-.26,.26l-10.87,.14h0Z" fill="#fff"/>
    <path d="M80.61,52.58c-.14,0-.26-.11-.26-.26,0-.14,.11-.26,.26-.26l9.83-.14c.14,0,.26,.11,.26,.26,0,.14-.11,.26-.26,.26l-9.83,.14h0Z" fill="#fff"/>
    <path d="M83.66,56.07c0,.45-.4,.82-.89,.82s-.89-.37-.89-.82,.4-.82,.89-.82,.89,.37,.89,.82Z" fill="#fff"/>
    <path d="M89.34,56.07c0,.45-.4,.82-.89,.82s-.89-.37-.89-.82,.4-.82,.89-.82,.89,.37,.89,.82Z" fill="#fff"/>
    <path d="M83.61,53.95c-.13,0-.24-.09-.26-.23l-.75-5.48c-.02-.14,.08-.27,.22-.29,.14-.02,.27,.08,.29,.22l.75,5.48c.02,.14-.08,.27-.22,.29-.01,0-.02,0-.04,0Z" fill="#fff"/>
    <path d="M86.81,54.22h-.01c-.14,0-.25-.13-.25-.28l.31-5.68c0-.14,.13-.25,.28-.25,.14,0,.25,.13,.25,.28l-.31,5.68c0,.14-.12,.25-.26,.25Z" fill="#fff"/>
  </g>
  <g>
    <path d="M101.2,117.05s-4.35-4.02-5.94-4.96c-1.6-.94-3.58-4.77,1.78-7.12,1.74-.76,2.08-2.87,5.43-3.23,3.35-.36,6.13,1.34,6.49,3.45,.36,2.11-1.64,3.94-3.14,4.18-1.5,.24-4.61,7.68-4.61,7.68Z"/>
    <g>
      <path d="M108.76,112.09l.47-.67-1.84-2.36-1.26-3.1c-3.57-.24-5,.73-5.05,3.47-.03,1.76-.95,1.8-.95,1.8,0,0-1.36-1.46-2.06,.27-.7,1.73,2.22,2.94,2.22,2.94,.38,.8,.29,1.74-.24,2.46l-5.19,7.06s9.74,2.58,9.84,1.04c.03-.44-.12-.81-.35-1.12-1.12-1.53,.91-5.66,.91-5.66l3.25-1.31c.6-.24,.91-.89,.73-1.51l-.64-2.21c-.11-.37-.04-.78,.18-1.09Z" fill="#fff"/>
      <path d="M103.3,125.74c-2.66,0-7.82-1.34-8.52-1.53-.08-.02-.15-.08-.18-.17-.03-.08-.02-.17,.04-.24l5.19-7.06c.45-.61,.54-1.41,.25-2.1-.54-.24-2.98-1.46-2.26-3.23,.24-.58,.57-.91,1-.99,.59-.11,1.15,.32,1.38,.53,.19-.08,.59-.37,.61-1.52,.02-1.29,.35-2.22,1.01-2.82,.83-.76,2.2-1.05,4.32-.91,.1,0,.19,.07,.22,.16l1.25,3.06,1.82,2.33c.07,.09,.07,.22,0,.31l-.47,.67c-.18,.26-.23,.57-.14,.87l.64,2.21c.22,.75-.16,1.53-.89,1.83l-3.16,1.27c-.56,1.18-1.71,4.18-.89,5.3,.29,.4,.43,.83,.4,1.29,0,.13-.06,.31-.27,.46-.26,.18-.75,.26-1.37,.26Zm-8.02-1.94c3.23,.83,8.26,1.84,9.09,1.25,.05-.04,.05-.06,.05-.07,.02-.33-.08-.65-.3-.94-1.2-1.64,.8-5.76,.88-5.93,.03-.06,.08-.1,.14-.13l3.25-1.31c.47-.19,.72-.7,.58-1.2l-.64-2.21c-.13-.45-.05-.93,.21-1.32h0l.36-.52-1.72-2.21s-.03-.04-.04-.06l-1.2-2.95c-1.87-.11-3.07,.14-3.76,.78-.56,.51-.82,1.29-.84,2.45-.03,1.98-1.16,2.05-1.2,2.05-.08,0-.15-.03-.2-.08-.15-.16-.62-.56-1.01-.48-.24,.05-.45,.27-.61,.68-.6,1.48,2.05,2.59,2.07,2.6,.06,.02,.11,.07,.14,.13,.42,.89,.32,1.93-.26,2.72l-4.96,6.75Z"/>
    </g>
    <path d="M100.37,108.92l2.47,3.34c1.05,1.42,2.97,1.87,4.54,1.07l1.34-.68,2.48,4.56c.27,.65-.08,1.39-.75,1.6l-3.6,1.49c-1.03,.33-2.16,.05-2.92-.72l-3.87-3.92s1.47-1.36,.05-4.43c-1.42-3.07,.26-2.31,.26-2.31Z"/>
  </g>
  <path d="M141.96,119.02l-7.05,1.03s-2.86,10.99-10.04,11.35c-3.45,.17-6.07-.9-7.85-2.06-2.7-1.76-5.78-2.85-8.99-3.11l-12.9-1.06c-7.13-.59-13.92,3.12-17.28,9.44-3.58,6.76-8.02,15.77-10.86,23.79-.52,1.48,.57,3.03,2.13,3.03h34.23l7.53-18.86c3.75,1.6,9.54,3.01,17.66,2.26,17.17-1.58,13.41-25.81,13.41-25.81Z" fill="#ed2a5b"/>
  <path d="M103.36,161.69h-34.23c-.83,0-1.58-.39-2.06-1.07-.48-.68-.6-1.52-.32-2.31,2.91-8.22,7.52-17.5,10.87-23.83,3.4-6.42,10.28-10.18,17.53-9.58l12.9,1.06c3.2,.26,6.35,1.35,9.11,3.15,2.27,1.48,4.86,2.16,7.69,2.02,6.91-.35,9.77-11.05,9.8-11.16,.03-.1,.11-.18,.21-.19l7.05-1.03c.14-.02,.27,.08,.3,.22,.02,.13,2.01,13.46-3.87,21-2.35,3.01-5.63,4.73-9.77,5.11-8.25,.76-14.06-.74-17.54-2.18l-7.43,18.61c-.04,.1-.14,.16-.24,.16Zm-9.71-36.33c-6.49,0-12.49,3.57-15.56,9.37-3.35,6.31-7.95,15.56-10.84,23.75-.22,.63-.13,1.3,.25,1.84,.38,.54,.98,.85,1.64,.85h34.05l7.47-18.7c.03-.07,.08-.12,.14-.14,.06-.03,.14-.03,.2,0,3.4,1.45,9.19,3.01,17.53,2.24,3.99-.37,7.15-2.02,9.41-4.91,5.3-6.79,4.04-18.47,3.8-20.34l-6.63,.97c-.18,.64-.92,3.04-2.31,5.44-2.16,3.73-4.9,5.79-7.92,5.94-2.94,.15-5.64-.56-8-2.11-2.69-1.75-5.75-2.82-8.87-3.07l-12.9-1.06c-.49-.04-.98-.06-1.46-.06Z" fill="#363636"/>
  <path d="M112.3,146.32c-5.33-1.77-8.21-10.06-8.21-10.06l-15.7,3.16s10.88,17.37,18.38,18.96c4.67,.99,14.07-3.42,20.48-6.88-.82-1.82-2-4.43-2.88-6.35-4.69,1.14-9.65,1.96-12.07,1.16Z" fill="#ed2a5b"/>
  <path d="M108.26,158.79c-.56,0-1.07-.05-1.54-.15-7.52-1.59-18.1-18.36-18.55-19.08-.08-.12-.04-.28,.08-.36,.12-.08,.28-.04,.36,.08,.11,.17,10.91,17.29,18.22,18.84,3.49,.74,10.62-1.65,20.09-6.74-1.13-2.5-2.03-4.49-2.69-5.93-5.9,1.42-9.93,1.79-12,1.11-5.39-1.79-8.26-9.87-8.38-10.22-.05-.14,.02-.29,.16-.33,.14-.05,.29,.02,.33,.16,.03,.08,2.9,8.19,8.05,9.89,1.97,.65,6.09,.25,11.92-1.17,.12-.03,.25,.03,.3,.15,.68,1.49,1.65,3.63,2.88,6.35,.06,.12,0,.27-.11,.34-6.16,3.32-14.17,7.06-19.12,7.06Z"/>
  <g>
    <path d="M144.3,146.99l-7.27-4.04c-1.12-.62-2.45-.76-3.67-.36-2.03,.65-5.43,1.7-9,2.57,.88,1.92,2.06,4.53,2.88,6.35,3.88-2.09,6.67-3.84,6.67-3.84l4.69,2.47s-.26,4.12,.67,4.23,1.28-3.69,1.28-3.69c0,0,.8,4.72,2.18,3.69l.53-5.7s.92,2.52,1.45,2.63l.53,.1-.94-4.41Z" fill="#fff"/>
    <path d="M142.35,154.78c-.12,0-.22-.03-.3-.06-.67-.27-1.15-1.53-1.43-2.57-.17,.91-.45,1.97-.89,2.33-.19,.15-.36,.16-.48,.15-1.02-.12-.99-2.95-.91-4.34l-4.41-2.32c-.59,.37-3.18,1.95-6.55,3.77-.06,.03-.14,.04-.21,.02-.07-.02-.12-.07-.15-.14-1.23-2.72-2.2-4.85-2.88-6.35-.03-.07-.03-.15,0-.22,.03-.07,.1-.12,.17-.14,3.48-.85,6.81-1.86,8.98-2.56,1.28-.41,2.7-.28,3.88,.38l7.27,4.04c.07,.04,.11,.1,.13,.17l.94,4.41c.02,.09,0,.18-.07,.24-.06,.06-.15,.09-.24,.07l-.53-.1c-.41-.08-.87-.93-1.24-1.77l-.43,4.61c0,.07-.04,.14-.1,.19-.2,.15-.39,.2-.55,.2Zm-1.79-4.36c.13,0,.24,.09,.26,.22,.21,1.25,.79,3.34,1.43,3.6,.06,.02,.14,.04,.25-.02l.52-5.57c.01-.12,.11-.22,.23-.23,.12-.02,.24,.05,.28,.17,.45,1.24,1.03,2.37,1.26,2.46l.13,.03-.84-3.9-7.16-3.98c-1.06-.59-2.32-.71-3.47-.34-2.12,.68-5.32,1.66-8.71,2.5,.65,1.43,1.54,3.38,2.64,5.8,3.7-2.01,6.38-3.68,6.41-3.7,.08-.05,.18-.05,.26,0l4.69,2.47c.09,.05,.15,.14,.14,.25-.13,2.03,.08,3.91,.44,3.96,.01,0,.04,0,.09-.04,.46-.37,.8-2.29,.9-3.41,.01-.13,.12-.23,.25-.24h.01Z"/>
  </g>
  <path d="M107.26,126.82l.32-1.94c.11-.65-.31-1.27-.96-1.4-3.21-.68-12.1-2.6-13.26-3.42-1.42-1-11.68,8.67-10.14,8.41,11.45-1.89,24.04-1.65,24.04-1.65Z" fill="#ed2a5b"/>
  <path d="M83.17,128.73c-.22,0-.31-.15-.33-.2-.08-.17-.21-.46,1.65-2.36,1.08-1.1,2.51-2.41,3.83-3.51,4.23-3.51,4.96-2.99,5.2-2.83,.76,.54,5.69,1.8,13.17,3.38,.78,.16,1.29,.91,1.16,1.7l-.32,1.94c-.02,.13-.13,.22-.26,.22-.13,0-12.69-.22-23.99,1.64-.03,0-.07,0-.1,0Zm9.92-8.49c-.1,0-.27,.03-.54,.14-2.56,1.05-8.23,6.44-9.1,7.78,10.45-1.69,21.86-1.63,23.6-1.61l.28-1.72c.08-.51-.25-1-.75-1.1-3.62-.76-12.18-2.63-13.36-3.46,0,0-.04-.02-.12-.02Z" fill="#363636"/>
  <g>
    <path d="M138.42,107.41c.2-.39,1.18-1.56,1.62-1.89l4.71-4.38s.61,2.11-.13,3.36c1.45,.05,2.59,.29,2.59,.29,0,0,2.15-1.9,2.69-2.22,.54-.33,1.24-.85,1.96-.84,.72,0,1.44,.56,1.44,.56l-4.14,5.25-7.53,2.07,.42,11.42-7.16-.98,3.52-12.64Z" fill="#fff"/>
    <path d="M142.06,121.29s-.02,0-.04,0l-7.16-.98c-.07-.01-.14-.05-.18-.12-.04-.06-.05-.14-.03-.21l3.52-12.64s.01-.03,.02-.05c.21-.42,1.2-1.6,1.69-1.98l4.7-4.37c.07-.06,.16-.08,.25-.06,.09,.02,.16,.09,.18,.18,.02,.08,.53,1.87,.02,3.19,1.01,.06,1.81,.2,2.11,.26,.43-.38,2.14-1.87,2.63-2.17,.07-.04,.15-.09,.23-.14,.52-.33,1.16-.73,1.84-.73h.02c.8,.01,1.56,.59,1.6,.62,.06,.04,.09,.11,.1,.17,0,.07-.01,.14-.05,.19l-4.14,5.25s-.08,.08-.14,.09l-7.33,2.02,.41,11.21c0,.08-.03,.15-.09,.2-.05,.04-.11,.07-.18,.07Zm-6.82-1.46l6.55,.9-.41-11.11c0-.12,.07-.23,.19-.26l7.45-2.05,3.91-4.96c-.25-.15-.66-.36-1.06-.36-.54,0-1.12,.36-1.58,.65-.08,.05-.16,.1-.24,.15-.42,.26-2.06,1.67-2.65,2.2-.06,.05-.15,.08-.23,.06-.01,0-1.14-.24-2.55-.29-.09,0-.18-.05-.22-.14-.04-.08-.04-.18,0-.26,.48-.81,.33-2.07,.2-2.73l-4.38,4.08-.02,.02c-.41,.3-1.33,1.4-1.54,1.78l-3.43,12.32Z"/>
  </g>
  <path d="M103.54,118.32c-1.43,0-2.78-.81-3.43-2.16l-.73-1.51c-.06-.13,0-.29,.12-.35,.13-.06,.29,0,.35,.12l.73,1.51c.7,1.45,2.33,2.18,3.88,1.73l3.56-1.03c.14-.04,.28,.04,.32,.18,.04,.14-.04,.28-.18,.32l-3.56,1.03c-.36,.1-.72,.15-1.07,.15Z" fill="#ed2a5b"/>
  <path d="M99.36,111.01c-.13,0-.24-.1-.26-.23-.03-.23-.63-5.64,1.82-8.08,.92-.92,2.15-1.29,3.66-1.11,.14,.02,.25,.15,.23,.29-.02,.14-.15,.25-.29,.23-1.34-.16-2.42,.16-3.22,.96-2.27,2.26-1.68,7.6-1.67,7.65,.02,.14-.09,.27-.23,.29h-.03Z" fill="#ed2a5b"/>
  <path d="M109.44,116.87c.07-.53-.32-1.02-.86-1.09-.54-.07-1.03,.31-1.1,.84-.07,.53,.32,1.02,.86,1.09,.54,.07,1.03-.31,1.1-.84Z" fill="#ed2a5b"/>
  <path d="M102.31,113.02c.19-1.49-.77-2.84-2.13-3.01-.15-.02-.71-.03-.85-.02-1.19,.08-1.8,1.08-1.96,2.41-.18,1.43,.36,2.77,1.64,3.02,.05,.01,.43,.04,.49,.04,1.5,0,2.63-.95,2.82-2.44Z" fill="#ffe6f0"/>
  <path d="M101.72,112.97c.16-1.49-.82-2.82-2.19-2.97s-2.61,.95-2.77,2.44c-.16,1.49,.82,2.82,2.19,2.97,1.37,.15,2.61-.95,2.77-2.44Z" fill="#ed2a5b"/>
  <rect x="62.97" y="160.92" width="108.15" height="7.47" rx="1.39" ry="1.39" fill="#ffd7e5"/>
  <path d="M165.5,158.99h-21.02l25.19-23.96c.79-.75,1.82-1.2,2.73-1.2h17.06c1.08,0,1.28,1.16,.34,2.05l-24.3,23.12Z" fill="#262626"/>
  <path d="M176.7,142.23c-1.1,1.05-2.91,1.9-4.04,1.9s-1.15-.85-.05-1.9c1.1-1.05,2.91-1.9,4.04-1.9s1.15,.85,.05,1.9Z" fill="#fff"/>
  <path d="M119.5,158.79h46.48v.57c0,1.1-.9,2-2,2h-42.48c-1.1,0-2-.9-2-2v-.57h0Z" fill="#262626"/>
  <path d="M164.6,159.28h-21.33c-.14,0-.26-.12-.26-.26s.12-.26,.26-.26h21.33c.14,0,.26,.12,.26,.26s-.12,.26-.26,.26Z" fill="#fff"/>
  <path d="M200.92,60.75l6.11-1.86-.52-5.56-6.35-.81c-.36-1.24-.83-2.46-1.41-3.65l4.31-4.52-3.38-4.57-5.94,2.32c-.98-.93-2.03-1.76-3.13-2.5l1.36-5.96-5.33-2.35-3.92,4.83c-1.32-.33-2.67-.55-4.03-.67l-1.96-5.81-5.85,.49-.85,6.04c-1.31,.34-2.59,.79-3.84,1.34l-4.75-4.1-4.81,3.21,2.44,5.64c-.97,.93-1.86,1.93-2.63,2.98l-6.27-1.29-2.48,5.07,5.08,3.73c-.35,1.26-.58,2.54-.71,3.83l-6.11,1.86,.52,5.56,6.35,.81c.36,1.24,.83,2.46,1.41,3.65l-4.31,4.52,3.38,4.57,5.94-2.32c.98,.93,2.03,1.76,3.13,2.5l-1.36,5.96,5.33,2.36,3.92-4.83c1.32,.33,2.67,.55,4.03,.67l1.96,5.81,5.85-.49,.85-6.04c1.31-.34,2.59-.79,3.84-1.34l4.75,4.1,4.81-3.21-2.44-5.64c.97-.93,1.85-1.93,2.63-2.98l6.27,1.29,2.48-5.07-5.08-3.73c.35-1.26,.58-2.54,.71-3.83Zm-23.13,15.28c-9.84,.69-18.42-6.33-19.15-15.69-.73-9.36,6.66-17.51,16.5-18.2,9.84-.69,18.42,6.33,19.15,15.69,.73,9.36-6.66,17.51-16.5,18.2Z" fill="#d6d6d6"/>
  <path d="M173.84,115.06c-.77,0-1.39-.64-1.39-1.41l.08-9.62c0-.77,.64-1.39,1.41-1.39l26.52,.23c.77,0,1.39,.64,1.39,1.41l-.08,9.62c0,.77-.64,1.39-1.41,1.39l-5.12-.04-1.8,3.25-1.84-3.29-17.76-.16Z" fill="#fff"/>
  <path d="M193.42,118.87c-.1,0-.18-.05-.23-.14l-1.75-3.26-17.61-.15c-.91,0-1.65-.76-1.64-1.67l.08-9.62c0-.91,.75-1.64,1.66-1.64h.01l26.52,.23c.44,0,.86,.18,1.17,.5,.31,.32,.48,.73,.48,1.18l-.08,9.62c0,.44-.18,.86-.5,1.17-.32,.31-.74,.48-1.18,.48l-5.07-.04-1.63,3.22c-.04,.09-.13,.14-.23,.14h0Zm-19.48-15.97c-.62,0-1.13,.5-1.14,1.13l-.08,9.62c0,.63,.5,1.14,1.13,1.15l17.76,.16c.1,0,.18,.05,.23,.14l1.58,2.95,1.48-2.92c.04-.09,.13-.15,.24-.14l5.23,.05h.01c.3,0,.58-.12,.8-.33,.22-.21,.34-.5,.34-.8l.08-9.62c0-.3-.11-.59-.33-.81-.21-.22-.5-.34-.8-.34l-26.52-.23h-.01Z" fill="#363636"/>
  <g>
    <path d="M197.42,110.68l-21.07-.18,21.07,.18Z" fill="#363636"/>
    <path d="M197.42,110.95h0l-21.07-.18c-.14,0-.26-.12-.26-.26,0-.14,.12-.26,.26-.26h0l21.07,.18c.14,0,.26,.12,.26,.26,0,.14-.12,.26-.26,.26Z" fill="#363636"/>
  </g>
  <g>
    <path d="M180.78,107.72l-4.41-.04,4.41,.04Z" fill="#363636"/>
    <path d="M180.78,107.98h0l-4.41-.04c-.14,0-.26-.12-.26-.26,0-.14,.12-.26,.26-.26l4.41,.04c.14,0,.26,.12,.26,.26,0,.14-.12,.26-.26,.26Z" fill="#363636"/>
  </g>
  <g>
    <path d="M197.45,107.87l-13.85-.12,13.85,.12Z" fill="#363636"/>
    <path d="M197.45,108.13h0l-13.85-.12c-.14,0-.26-.12-.26-.26,0-.14,.12-.26,.26-.26l13.85,.12c.14,0,.26,.12,.26,.26,0,.14-.12,.26-.26,.26Z" fill="#363636"/>
  </g>
  <path d="M187.82,105.13c.77,0,1.4-.62,1.4-1.39l.04-9.62c0-.77-.62-1.4-1.39-1.4l-26.52-.11c-.77,0-1.4,.62-1.4,1.39l-.04,9.62c0,.77,.62,1.4,1.39,1.4l5.31,.02,1.44,2.64,1.84-2.63,17.93,.07Z" fill="#fff"/>
  <path d="M168.05,107.95h-.02c-.09,0-.17-.06-.21-.13l-1.45-2.51-5.08-.02c-.91,0-1.66-.75-1.65-1.67l.04-9.62c0-.91,.75-1.65,1.66-1.65h0l26.52,.11c.91,0,1.66,.75,1.65,1.67l-.04,9.62c0,.44-.18,.86-.49,1.17-.31,.31-.73,.48-1.17,.48h0l-17.63-.07-1.93,2.53c-.05,.07-.13,.1-.21,.1Zm-6.71-15.08c-.62,0-1.13,.51-1.14,1.13l-.04,9.62c0,.63,.51,1.14,1.13,1.14l5.23,.02c.09,0,.18,.05,.23,.13l1.33,2.3,1.77-2.32c.05-.07,.13-.1,.21-.1l17.76,.07h0c.3,0,.59-.12,.8-.33,.22-.21,.33-.5,.34-.8l.04-9.62c0-.63-.51-1.14-1.13-1.14l-26.52-.11h0Z" fill="#363636"/>
  <g>
    <path d="M164.29,100.45l21.08,.08-21.08-.08Z" fill="#363636"/>
    <path d="M185.36,100.8h0l-21.08-.08c-.14,0-.26-.12-.26-.26,0-.14,.12-.26,.26-.26h0l21.08,.08c.14,0,.26,.12,.26,.26,0,.14-.12,.26-.26,.26Z" fill="#363636"/>
  </g>
  <g>
    <path d="M180.97,97.71l4.41,.02-4.41-.02Z" fill="#363636"/>
    <path d="M185.38,97.98h0l-4.41-.02c-.14,0-.26-.12-.26-.26,0-.14,.12-.26,.26-.26h0l4.41,.02c.14,0,.26,.12,.26,.26,0,.14-.12,.26-.26,.26Z" fill="#363636"/>
  </g>
  <g>
    <path d="M164.3,97.64l13.85,.06-13.85-.06Z" fill="#363636"/>
    <path d="M178.15,97.96h0l-13.85-.06c-.14,0-.26-.12-.26-.26,0-.14,.11-.26,.26-.26l13.85,.06c.14,0,.26,.12,.26,.26,0,.14-.12,.26-.26,.26Z" fill="#363636"/>
  </g>
  <g>
    <g>
      <path d="M173.47,39.37s.72,.65,2.09,.31l-2.09-.31Z" fill="#fff"/>
      <path d="M174.78,40.04c-.95,0-1.46-.45-1.49-.47-.11-.1-.12-.26-.02-.37,.1-.11,.26-.12,.37-.02,.03,.03,.65,.55,1.85,.25,.14-.04,.28,.05,.32,.19,.04,.14-.05,.28-.19,.32-.31,.08-.59,.11-.84,.11Z"/>
    </g>
    <path d="M147.44,36.88c.14-.04,.23-.16,.22-.29-.07-.7-.39-2.8-1.71-3.68-1.6-1.06-3.08-3.66-3.98-3.34s1.3,2.52,1.09,2.8c-.21,.28-1.92-1.09-2.49-1.92s-1.31-2.49-2.03-2.38c-.99,.15-1.1,1.6,.44,4.32,1.47,2.59,5.76,3.01,6.22,4.77,.04,.15,.2,.24,.36,.2l1.88-.49Z" fill="#fff"/>
    <path d="M145.49,37.64c-.25,0-.47-.16-.53-.4-.19-.72-1.22-1.22-2.4-1.81-1.4-.69-2.99-1.47-3.8-2.9-1.08-1.91-1.45-3.33-1.06-4.12,.16-.33,.44-.53,.81-.58,.73-.11,1.31,.87,1.87,1.81,.15,.25,.29,.49,.42,.68,.39,.57,1.3,1.34,1.83,1.68-.08-.13-.18-.26-.26-.38-.58-.84-.98-1.47-.84-1.92,.04-.12,.13-.28,.36-.36,.68-.25,1.41,.56,2.33,1.58,.58,.64,1.23,1.36,1.88,1.79,1.39,.92,1.74,3.01,1.82,3.87,.03,.26-.15,.5-.41,.57l-1.88,.49s-.1,.02-.14,.02Zm-6.88-9.31s-.02,0-.03,0c-.2,.03-.34,.13-.42,.3-.29,.6,.1,1.96,1.05,3.64,.73,1.29,2.24,2.04,3.57,2.69,1.3,.64,2.42,1.19,2.68,2.14,0,0,.02,.02,.04,.01l1.88-.49s.02-.01,.02-.01c-.06-.61-.36-2.66-1.59-3.49-.7-.47-1.38-1.22-1.98-1.87-.66-.73-1.42-1.56-1.77-1.44-.03,.01-.04,.02-.04,.03-.08,.24,.47,1.04,.77,1.46,.45,.65,.67,.97,.48,1.22-.04,.05-.13,.15-.31,.14-.59-.01-2.11-1.35-2.6-2.07-.14-.2-.28-.45-.44-.71-.37-.63-.93-1.56-1.31-1.56Z" fill="#363636"/>
    <g clip-path="url(#clippath)">
      <path d="M168.25,43.34s2.12-.4,2.46-4.64c.34-4.23,.19-7.92,4.5-9.37,4.31-1.45,8.64,.67,8.82,4.73,.18,4.07,3.33,6.14,6.26,7.74,3.78,2.07,3.56,2.63,5.52,6.92,2.1,4.6-2.8,14.1-16.94,6.45l-10.62-11.83Z" fill="#363636"/>
      <path d="M197.17,78.98c.13-.03,.27,.03,.33,.14,.29,.53,1.08,1.83,2.2,2.25,.79,.3,1.5,.48,2.49,1.26s2.76,2.83,2.45,3.39c-.36,.66-1.74,.11-2.81-.41s-2.19-1.87-3.19-1.94c-1-.07,1.27,2.05,1,2.43-.27,.38-1.38-.08-2.15-1.1-.3-.4-2.21-4.02-2.79-5.12-.08-.16,.01-.35,.19-.4l2.27-.5Z" fill="#fff"/>
      <g>
        <g>
          <g>
            <g>
              <path d="M180.4,121.72s-.89,3.45-1.97,4.56-5.52,3.46-5.41,5.66c.12,2.56,1.72,2.92,5.83,1.71,2.97-.88,5.32-2.81,6.14-3.88,.72-.94,.22-1.66-.05-2.69-.34-1.26-.48-2.55-.58-3.84l-.16-2.11-3.78,.59Z" fill="#fff"/>
              <path d="M175.33,134.58c-.71,0-1.24-.14-1.64-.43-.58-.41-.89-1.13-.94-2.2-.08-1.74,2.29-3.46,4.03-4.71,.63-.46,1.18-.85,1.46-1.14,1.02-1.05,1.9-4.41,1.91-4.45l.04-.17,4.23-.66,.19,2.39c.09,1.15,.23,2.5,.57,3.8,.05,.2,.12,.39,.18,.57,.25,.76,.49,1.48-.17,2.34-.8,1.05-3.22,3.06-6.27,3.97-1.54,.46-2.7,.68-3.59,.68Zm5.28-12.63c-.2,.72-1.01,3.5-1.99,4.51-.31,.32-.88,.73-1.53,1.2-1.64,1.19-3.88,2.81-3.81,4.27,.04,.91,.27,1.48,.72,1.8,.75,.53,2.22,.43,4.78-.33,2.93-.87,5.24-2.78,6-3.78,.49-.64,.33-1.13,.09-1.86-.06-.19-.13-.39-.19-.6-.36-1.34-.5-2.72-.59-3.89l-.14-1.83-3.34,.52Z"/>
            </g>
            <path d="M173.26,133.25c-.13,0-.24-.09-.26-.23-.02-.14,.08-.27,.22-.29l1.48-.21c3.72-.52,7.1-2.3,9.52-5.01,.32-.36,.5-.59,.5-.59,.09-.11,.25-.13,.37-.05,.11,.09,.13,.25,.05,.37,0,0-.19,.24-.53,.62-2.5,2.8-5.99,4.64-9.84,5.17l-1.48,.21s-.02,0-.04,0Z"/>
            <path d="M181.81,127.2h-.02c-.09,0-2.14-.2-3.04-1.16-.1-.11-.09-.27,.01-.37,.11-.1,.27-.09,.37,.01,.76,.81,2.68,.99,2.7,.99,.14,.01,.25,.14,.24,.28-.01,.14-.13,.24-.26,.24Z"/>
            <path d="M180.13,128.46s-.02,0-.03,0c-.08-.01-2.05-.27-2.76-1.24-.09-.12-.06-.28,.06-.37,.12-.09,.28-.06,.37,.06,.48,.65,1.9,.97,2.4,1.03,.14,.02,.24,.15,.23,.29-.02,.13-.13,.23-.26,.23Z"/>
            <path d="M178.31,129.68s-.05,0-.07,0c-.07-.02-1.71-.48-2.29-1.45-.07-.12-.03-.28,.09-.36,.12-.07,.28-.03,.36,.09,.48,.8,1.97,1.22,1.98,1.22,.14,.04,.22,.18,.18,.32-.03,.12-.14,.19-.25,.19Z"/>
          </g>
          <g>
            <g>
              <path d="M188.67,112.8c.14,0,2.14-.34,3.29-.53,.45-.07,.88,.21,.96,.63l.38,1.99c.14,.7,.34,1.39,.6,2.06,.48,1.21,1.21,3.31,.98,4.31-.25,1.07-1.16,2.59-1.78,3.47-.28,.4-.8,.59-1.3,.47-.89-.21-2.31-.65-3.18-1.36-1.34-1.1-.17-3.46-.17-3.46l.21-7.58Z" fill="#fff"/>
              <path d="M192.11,125.49c-.12,0-.24-.01-.36-.04-1.01-.24-2.4-.69-3.28-1.41-1.38-1.13-.44-3.34-.26-3.73l.21-7.76,.24-.02s.41-.05,3.27-.53c.59-.1,1.15,.28,1.26,.84l.38,1.99c.13,.67,.33,1.35,.59,2.01,.58,1.47,1.22,3.45,.99,4.47-.25,1.07-1.14,2.59-1.82,3.56-.28,.39-.74,.62-1.22,.62Zm-3.18-12.47l-.21,7.42-.03,.05s-1.06,2.19,.1,3.14c.85,.7,2.29,1.12,3.07,1.31,.39,.09,.8-.05,1.02-.37,.71-1.01,1.52-2.45,1.74-3.38,.16-.68-.19-2.2-.96-4.16-.27-.69-.48-1.4-.62-2.11l-.38-1.99c-.06-.29-.35-.48-.66-.43-1.97,.33-2.76,.46-3.08,.5Zm-.46,7.35h0Z"/>
            </g>
            <path d="M191.25,125.23s-.1-.01-.14-.04c-.12-.08-.16-.24-.08-.36,2.1-3.31,1.9-4.05,1.41-5.84-.11-.39-.23-.83-.34-1.35-.29-1.35-1.14-5.06-1.15-5.1-.03-.14,.06-.28,.2-.31,.14-.03,.28,.06,.31,.2,0,.04,.86,3.75,1.15,5.11,.11,.5,.23,.94,.33,1.32,.51,1.84,.76,2.76-1.47,6.26-.05,.08-.13,.12-.22,.12Z"/>
            <path d="M191.13,119.46h-.02l-2.29-.16c-.14,0-.25-.13-.24-.28,0-.14,.14-.25,.28-.24l2.29,.16c.14,0,.25,.13,.24,.28,0,.14-.12,.24-.26,.24Z"/>
            <path d="M191.02,121.03h-.02l-2.29-.16c-.14,0-.25-.13-.24-.28,0-.14,.14-.25,.28-.24l2.29,.16c.14,0,.25,.13,.24,.28,0,.14-.12,.24-.26,.24Z"/>
          </g>
          <g>
            <path d="M188.62,121.83c-1.25,.96-3.97,2.27-8.78,1.26l-1.38-45.49,8.73-2.23s2.04,11.19,1.66,22.62c-.34,10.44,.3,19.27,.54,22.07,.06,.68-.23,1.34-.79,1.77Z"/>
            <path d="M186.7,74.07l-21.12,2.63,2.44,21.99c.28,2.57,1.32,5.01,2.98,7.05,2.67,3.27,6.89,8.07,10.07,9.83,5.02,2.79,5.62-41.5,5.62-41.5Z"/>
            <path d="M179.28,115.02c-.14,0-.26-.11-.26-.25l-.41-14.33c0-.14,.11-.26,.25-.27,.15,0,.26,.11,.27,.25l.41,14.33c0,.14-.11,.26-.25,.27h0Z" fill="#caddff"/>
          </g>
        </g>
        <path d="M173.29,42.69c-1.92-.27-3.87-.29-5.8-.06-2.2,.27-4.98,.79-6.74,1.79-3.31,1.87-4.8,3.98-6.87,3.34-1.74-.54-4.58-8.45-5.45-10.98-.15-.43-.63-.67-1.09-.55l-2.09,.55c-.44,.12-.71,.52-.64,.95,.57,3.4,3.08,17.32,6.37,18.09,3.75,.88,12.58-4.31,12.58-4.31,0,0,1.27,17.25-.41,26.51,0,0,3.77-.28,6.3,.51,13.47,4.23,18.51-2.26,18.51-2.26-.36-3.52-1.36-5.88-4.34-9.63-1.63-2.05-2.32-5.49,.33-8.83,0,0,8.66,20.19,10.16,22.53,.1,.16,4.37-1.06,4.37-1.16,.12-7.47-6.31-20.93-7.35-24.23-.32-1-.71-1.98-1.21-2.91-1.55-2.91-4.89-7.61-10.49-8.48l-6.13-.87Z" fill="#ed2a5b"/>
      </g>
      <g>
        <path d="M204.01,86.59c-.65,0-1.52-.37-2.29-.74-.45-.22-.9-.57-1.34-.91-.59-.46-1.19-.93-1.7-1,.1,.22,.38,.61,.57,.86,.5,.69,.83,1.14,.61,1.46-.08,.11-.23,.24-.52,.24h-.01c-.6,0-1.46-.56-2.04-1.34-.31-.41-2.07-3.74-2.81-5.16-.08-.15-.08-.32-.01-.47,.07-.16,.21-.27,.38-.31l2.27-.51c.25-.06,.5,.06,.62,.27,.28,.51,1.04,1.74,2.06,2.14,.13,.05,.25,.09,.37,.14,.65,.24,1.32,.48,2.19,1.16,.75,.58,2.99,2.87,2.52,3.72-.17,.32-.48,.44-.86,.44Zm-5.41-3.18s.04,0,.07,0c.68,.05,1.37,.59,2.04,1.11,.41,.32,.84,.66,1.24,.85,1.89,.92,2.35,.72,2.46,.52,.14-.33-1.22-2.16-2.39-3.06-.8-.62-1.41-.84-2.05-1.08-.13-.05-.25-.09-.38-.14-1.19-.46-2.03-1.81-2.33-2.37,0,0-.02-.02-.04-.01h0l-2.27,.51s-.02,.01-.02,.01c1.19,2.26,2.53,4.78,2.77,5.09,.59,.79,1.31,1.13,1.63,1.13,.02,0,.04,0,.06,0-.07-.19-.37-.6-.56-.86-.54-.73-.83-1.16-.65-1.48,.06-.1,.17-.21,.42-.21Z" fill="#363636"/>
        <path d="M194.15,80.6c-.19,0-.23-.06-.28-.13-1.4-2.18-8.73-19.19-10-22.16-2.29,3.18-1.49,6.36-.06,8.16,2.96,3.71,4.02,6.09,4.4,9.76,0,.07-.01,.13-.05,.19-.05,.07-1.34,1.69-4.32,2.8-2.73,1.01-7.45,1.75-14.48-.45-2.45-.77-6.16-.5-6.2-.5-.08,0-.16-.03-.21-.09-.05-.06-.08-.14-.06-.22,1.51-8.32,.61-23.34,.44-26.02-1.57,.89-7.72,4.24-11.39,4.24-.37,0-.71-.03-1.02-.11-1.52-.36-2.96-3.05-4.4-8.24-1.11-4.02-1.89-8.37-2.17-10.06-.09-.56,.26-1.09,.83-1.24l2.09-.55c.59-.16,1.21,.16,1.4,.72,2.17,6.34,4.2,10.49,5.28,10.82,1.27,.39,2.32-.36,3.9-1.49,.78-.56,1.67-1.2,2.77-1.82,1.84-1.04,4.73-1.57,6.84-1.82,1.94-.24,3.92-.22,5.87,.06l6.13,.87c5.77,.89,9.17,5.78,10.69,8.61,.48,.9,.88,1.87,1.22,2.95,.24,.77,.78,2.1,1.47,3.79,2.24,5.52,5.99,14.76,5.89,20.52,0,.22,0,.26-1.89,.8-1.69,.48-2.37,.63-2.68,.63Zm-10.22-23.07s.02,0,.03,0c.09,.01,.17,.07,.21,.16,.09,.2,8.42,19.62,10.07,22.38,.61-.08,3.32-.83,3.96-1.07,.02-5.67-3.65-14.72-5.86-20.16-.69-1.7-1.23-3.04-1.48-3.83-.33-1.06-.72-1.99-1.19-2.86-1.47-2.75-4.76-7.49-10.3-8.34l-6.13-.87c-1.91-.27-3.84-.29-5.73-.06-2.06,.25-4.88,.76-6.65,1.76-1.07,.61-1.95,1.24-2.72,1.79-1.65,1.18-2.84,2.04-4.36,1.57-1.75-.54-4.27-7.22-5.62-11.15-.1-.3-.45-.47-.77-.39l-2.09,.55c-.31,.08-.5,.36-.45,.65,1.32,7.89,3.72,17.31,6.17,17.88,3.6,.84,12.3-4.23,12.39-4.28,.08-.05,.17-.05,.25,0,.08,.04,.13,.12,.14,.21,.01,.17,1.22,16.99-.36,26.24,.99-.05,3.93-.13,6.06,.54,6.87,2.15,11.46,1.45,14.1,.47,2.49-.92,3.77-2.24,4.06-2.57-.37-3.5-1.42-5.8-4.27-9.38-1.6-2.01-2.48-5.62,.33-9.16,.05-.06,.13-.1,.2-.1Z" fill="#363636"/>
        <path d="M172.4,75.23c-.09,0-.17-.04-.22-.12l-4.74-7.75c-.08-.12-.04-.28,.09-.36,.12-.08,.28-.04,.36,.09l4.74,7.75c.08,.12,.04,.28-.09,.36-.04,.03-.09,.04-.14,.04Z" fill="#363636"/>
        <path d="M168.82,74.16c-.09,0-.18-.05-.23-.14l-1.67-3.16c-.07-.13-.02-.29,.11-.35s.29-.02,.35,.11l1.67,3.16c.07,.13,.02,.29-.11,.35-.04,.02-.08,.03-.12,.03Z" fill="#363636"/>
      </g>
      <path d="M173.57,39.45c-1.42-.79-.29-6.19,1.17-7.08,1.47-.89,4.75-.26,4.75-.26-.9,3.81,1.31,4.58,1.61,4.56,.3-.02,1.25-.03,.75,1.21-.5,1.25-1.9,.69-1.9,.69-.25,.25-.74,.54-1.34,.8-.58,2.15,.36,3.74,1.14,4.62,.39,.45,.2,1.13-.39,1.31-.93,.28-2.37,.51-4.24,.18-1.42-.25-2.39-.67-3.04-1.07-.53-.33-.51-1.1,.04-1.39,1.51-.79,2.38-3.05,1.44-3.57Z" fill="#fff"/>
      <path d="M176.92,45.9c-.56,0-1.17-.05-1.84-.17-1.26-.22-2.31-.59-3.14-1.1-.33-.21-.52-.56-.51-.95,.01-.38,.23-.72,.57-.9,1-.52,1.68-1.73,1.69-2.52,0-.29-.08-.49-.25-.58-.5-.28-.77-.97-.79-2.02-.04-1.94,.83-4.83,1.95-5.51,1.54-.93,4.79-.32,4.93-.3l.27,.05-.06,.27c-.46,1.96-.06,3.02,.36,3.56,.42,.54,.92,.68,.99,.68,.6-.04,.88,.17,1.02,.35,.21,.28,.2,.69-.01,1.22-.44,1.08-1.47,1.07-2.08,.89-.27,.22-.69,.47-1.18,.69-.47,1.93,.34,3.38,1.11,4.26,.24,.28,.33,.65,.23,.99-.1,.35-.38,.63-.74,.74-.6,.18-1.45,.35-2.52,.35Zm-3.23-6.68c.34,.19,.53,.56,.52,1.05-.01,.94-.77,2.35-1.97,2.98-.18,.09-.29,.26-.29,.45,0,.2,.09,.38,.26,.48,.77,.48,1.76,.82,2.95,1.03,1.85,.33,3.26,.08,4.11-.17,.19-.06,.33-.2,.38-.38,.05-.18,0-.36-.12-.51-.87-.99-1.79-2.64-1.19-4.86l.03-.12,.12-.05c.56-.24,1.04-.52,1.26-.75l.12-.12,.16,.06c.12,.05,1.17,.43,1.56-.54,.14-.34,.16-.59,.07-.72-.08-.11-.28-.16-.56-.14-.27,.02-.88-.22-1.35-.78-.52-.61-1.02-1.76-.59-3.83-.79-.12-3.16-.41-4.3,.27-.86,.52-1.74,3.12-1.7,5.05,.01,.83,.2,1.4,.52,1.57Z" fill="#363636"/>
    </g>
  </g>
</svg>