<?xml version="1.0" encoding="UTF-8"?>
<svg id="Layer_1" data-name="Layer 1" xmlns="http://www.w3.org/2000/svg" viewBox="0 0 270 186">
  <ellipse cx="133.98" cy="153.09" rx="38.19" ry="5.79" fill="#ffe6f0" opacity=".8"/>
  <g>
    <g>
      <polygon points="177.3 56.85 162.47 54.74 162.47 51.73 177.3 53.84 177.3 56.85" fill="#e2e2e2"/>
      <polygon points="177.25 61.77 162.42 59.67 162.42 56.66 177.25 58.76 177.25 61.77" fill="#e2e2e2"/>
      <polygon points="177.16 66.64 162.33 64.54 162.33 61.38 177.16 63.49 177.16 66.64" fill="#e2e2e2"/>
    </g>
    <path d="M159.61,147.52c-.12-.17-.12-.4,0-.57,.16-.24,.25-.5,.25-.77,0-1.25-1.94-2.27-4.34-2.27s-4.34,1.02-4.34,2.27c0,.27,.09,.53,.25,.77,.12,.17,.12,.4,0,.57-.16,.24-.25,.5-.25,.77,0,.59,.44,1.14,1.15,1.54-.02,.07-.02,.14-.02,.21,0,.93,1.44,1.68,3.21,1.68s3.21-.75,3.21-1.68c0-.07,0-.14-.02-.21,.72-.4,1.15-.95,1.15-1.54,0-.27-.09-.53-.25-.77Z" fill="#ffbdd6"/>
    <path d="M155.53,151.93c-1.92,0-3.43-.83-3.43-1.9,0-.03,0-.06,0-.1-.73-.45-1.13-1.03-1.13-1.65,0-.31,.1-.61,.29-.89,.07-.1,.07-.23,0-.33-.19-.28-.29-.58-.29-.89,0-1.39,2-2.49,4.55-2.49s4.55,1.09,4.55,2.49c0,.31-.1,.61-.29,.89-.07,.1-.07,.23,0,.33,.19,.28,.29,.58,.29,.89,0,.62-.4,1.2-1.13,1.65,0,.03,0,.06,0,.1,0,1.06-1.5,1.9-3.43,1.9Zm0-7.8c-2.23,0-4.12,.94-4.12,2.05,0,.22,.07,.44,.22,.65,.17,.25,.17,.57,0,.82-.14,.21-.22,.43-.22,.65,0,.49,.37,.97,1.04,1.35l.14,.08-.04,.16c-.01,.06-.02,.11-.02,.16,0,.79,1.37,1.46,2.99,1.46s2.99-.67,2.99-1.46c0-.05,0-.1-.02-.16l-.04-.16,.14-.08c.67-.38,1.04-.86,1.04-1.35,0-.22-.07-.44-.22-.65-.17-.25-.17-.57,0-.82,.14-.21,.22-.43,.22-.65,0-1.11-1.89-2.05-4.12-2.05Z" fill="#363636"/>
    <path d="M167.31,128.78c0-6.43-5.35-11.91-11.78-11.91-6.42,0-11.71,5.34-11.75,11.75-.02,3.27,1.55,6.31,3.7,8.43,1.55,1.53,2.68,3.44,3.23,5.55l.03,.1c.53,2.05,2.38,3.48,4.5,3.48h.87c2.12,0,3.97-1.43,4.5-3.48l.02-.06c.54-2.1,1.63-4.02,3.18-5.53,2.17-2.11,3.51-5.07,3.51-8.33Z" fill="#fff"/>
    <path d="M156.1,146.4h-.87c-2.21,0-4.15-1.5-4.71-3.64l-.03-.1c-.53-2.04-1.63-3.92-3.17-5.45-2.41-2.39-3.79-5.52-3.77-8.59,.02-3.17,1.28-6.16,3.55-8.43,2.27-2.28,5.26-3.53,8.42-3.53,6.5,0,12,5.55,12,12.13,0,3.22-1.27,6.24-3.58,8.49-1.5,1.46-2.58,3.34-3.12,5.43l-.02,.06c-.56,2.14-2.49,3.64-4.71,3.64Zm-.57-29.32c-6.32,0-11.49,5.18-11.54,11.54-.02,2.95,1.31,5.97,3.64,8.28,1.6,1.58,2.74,3.54,3.29,5.65l.03,.1c.51,1.95,2.27,3.32,4.29,3.32h.87c2.02,0,3.78-1.36,4.29-3.32l.02-.06c.56-2.17,1.68-4.12,3.24-5.63,2.22-2.17,3.45-5.07,3.45-8.18,0-6.34-5.3-11.7-11.56-11.7Z" fill="#363636"/>
    <path d="M156.19,144.73h0c-.12,0-.21-.1-.21-.22,.03-6.26,3.68-13.33,4.41-14.69,.44-.81,.6-1.47,.51-2.02-.14-.82-.56-1.35-1.25-1.57-.5-.16-1.27-.17-1.93,.21,.83,.84,1.39,2.24,1.05,3.45-.13,.47-.51,.8-1.01,.88-.58,.1-1.18-.16-1.52-.65-.3-.42-.65-1.38,.3-3.07,.14-.25,.31-.46,.5-.64-.03-.02-.06-.04-.09-.06-.49-.31-1.3-.53-2.09-.24-.23,.09-.45,.21-.65,.38,.89,.61,1.34,2.25,1.15,3.17-.14,.69-.54,1.18-1.1,1.35-.48,.14-1,.01-1.35-.34-.49-.5-.61-1.33-.32-2.28,.24-.78,.55-1.35,.88-1.76-1.34-.38-2.27,.26-2.53,.89-.29,.73-.19,1.59,.28,2.26,1.07,1.53,3.58,6.01,3.7,14.44,0,.12-.09,.22-.21,.22-.12,0-.22-.09-.22-.21-.12-8.31-2.58-12.7-3.62-14.2-.56-.8-.68-1.79-.33-2.67,.39-.96,1.7-1.61,3.25-1.07,.32-.3,.64-.47,.92-.58,.94-.35,1.9-.09,2.47,.28,.07,.05,.14,.1,.21,.15,.8-.52,1.78-.51,2.4-.32,1.07,.34,1.43,1.23,1.54,1.91,.11,.66-.06,1.39-.56,2.3-.72,1.34-4.34,8.32-4.36,14.48,0,.12-.1,.21-.22,.21Zm-2.31-17.93c-.37,.42-.68,1-.9,1.72-.24,.8-.16,1.47,.21,1.85,.25,.25,.59,.34,.92,.24,.41-.12,.7-.5,.81-1.03,.16-.79-.26-2.34-1.05-2.78Zm3.49-.11c-.17,.15-.33,.34-.46,.57-.84,1.48-.56,2.27-.33,2.61,.25,.36,.68,.54,1.1,.47,.34-.06,.58-.27,.67-.58,.31-1.08-.22-2.34-.99-3.07Z" fill="#363636"/>
    <path d="M160.92,136.3c-.07,0-.14-.04-.18-.1-.06-.1-.03-.23,.07-.3,2.08-1.31,3.58-3.44,4.11-5.84,.03-.12,.14-.19,.26-.16,.12,.03,.19,.14,.16,.26-.56,2.51-2.13,4.74-4.31,6.11-.04,.02-.08,.03-.11,.03Z" fill="#363636"/>
    <path d="M148.26,134.95c-.06,0-.12-.02-.16-.07-1.58-1.77-2.44-4.06-2.44-6.43,0-3.7,2.06-7.03,5.38-8.67,.11-.05,.24,0,.29,.1,.05,.11,0,.24-.1,.29-3.17,1.57-5.14,4.75-5.14,8.29,0,2.27,.83,4.45,2.33,6.14,.08,.09,.07,.22-.02,.3-.04,.04-.09,.05-.14,.05Z" fill="#363636"/>
    <path d="M156.27,147.61c-.1,0-.19-.07-.21-.18-.02-.12,.06-.23,.18-.25,.39-.07,.78-.15,1.14-.26,.11-.03,.23,.03,.27,.15,.03,.11-.03,.23-.15,.27-.38,.11-.78,.2-1.18,.27-.01,0-.02,0-.04,0Z" fill="#363636"/>
    <path d="M154.44,149.84c-.12,0-.21-.1-.22-.21,0-.12,.09-.22,.21-.22,.89,0,2.2-.13,3.37-.68,.11-.05,.24,0,.29,.1,.05,.11,0,.24-.1,.29-1.24,.58-2.62,.71-3.55,.72h0Z" fill="#363636"/>
    <path d="M151.83,41.96l-51.21-6.65c-2-.26-3.62,1.15-3.62,3.15v56.5c0,2,1.62,3.83,3.62,4.09l51.21,6.65c2,.26,3.62-1.15,3.62-3.15V46.05c0-2-1.62-3.83-3.62-4.09Z" fill="#fff"/>
    <g>
      <path d="M152.61,48.22h-.03l-52.74-6.85c-.12-.02-.2-.12-.19-.24,.02-.12,.12-.2,.24-.19l52.74,6.85c.12,.02,.2,.12,.19,.24-.01,.11-.11,.19-.21,.19Z" fill="#ed2a5b"/>
      <g>
        <path d="M101.73,38.24c0,.51-.42,.87-.93,.81-.51-.07-.93-.54-.93-1.05s.42-.87,.93-.81c.51,.07,.93,.54,.93,1.05Z" fill="#ed2a5b"/>
        <path d="M105.44,38.72c0,.51-.42,.87-.93,.81-.51-.07-.93-.54-.93-1.05s.42-.87,.93-.81c.51,.07,.93,.54,.93,1.05Z" fill="#ed2a5b"/>
        <path d="M109.15,39.2c0,.51-.42,.87-.93,.81-.51-.07-.93-.54-.93-1.05s.42-.87,.93-.81c.51,.07,.93,.54,.93,1.05Z" fill="#ed2a5b"/>
      </g>
      <path d="M152.61,45.06h-.03l-5.23-.68c-.12-.02-.2-.12-.19-.24,.02-.12,.12-.2,.24-.19l5.23,.68c.12,.02,.2,.12,.19,.24-.01,.11-.11,.19-.21,.19Z" fill="#ed2a5b"/>
      <path d="M145.04,44.08h-.03l-21.65-2.81c-.12-.02-.2-.12-.19-.24,.02-.12,.12-.2,.24-.19l21.65,2.81c.12,.02,.2,.12,.19,.24-.01,.11-.11,.19-.21,.19Z" fill="#ed2a5b"/>
      <path d="M117.7,40.53h-.03l-4.61-.6c-.12-.02-.2-.12-.19-.24,.02-.12,.12-.2,.24-.19l4.61,.6c.12,.02,.2,.12,.19,.24-.01,.11-.11,.19-.21,.19Z" fill="#ed2a5b"/>
    </g>
    <path d="M97.03,64.26c-.12,0-.22-.1-.22-.22l-.03-25.59c0-1.02,.4-1.94,1.12-2.57,.73-.64,1.7-.92,2.74-.79l51.21,6.65c2.1,.27,3.81,2.2,3.81,4.3v12.97c0,.12-.1,.22-.22,.22s-.22-.1-.22-.22v-12.97c0-1.89-1.54-3.63-3.43-3.87l-51.21-6.65c-.91-.12-1.76,.12-2.4,.68-.63,.55-.98,1.35-.98,2.25l.03,25.59c0,.12-.1,.22-.22,.22h0Z" fill="#363636"/>
    <path d="M152.3,105.94c-.17,0-.33-.01-.5-.03l-4.28-.56c-.12-.02-.2-.12-.19-.24,.02-.12,.12-.2,.24-.19l4.28,.56c.91,.12,1.76-.12,2.4-.68,.63-.55,.98-1.35,.98-2.25v-3.19c0-.12,.1-.22,.22-.22s.22,.1,.22,.22v3.19c0,1.02-.4,1.94-1.12,2.57-.61,.54-1.39,.82-2.24,.82Z" fill="#363636"/>
    <path d="M116.52,69.18c1.61-2.6,4.59-4.2,8.06-4.1l.24-13.7c-9.97-1.26-18.77,3.21-22.78,11l14.47,6.81Z" fill="#ffe6f0"/>
    <path d="M115.84,54.15c-.09,0-.18-.06-.21-.16-.03-.11,.04-.23,.15-.26,2.25-.62,4.62-.88,7.05-.77,.12,0,.21,.11,.21,.22,0,.12-.1,.21-.22,.21-2.38-.1-4.71,.15-6.92,.76-.02,0-.04,0-.06,0Z" fill="#363636"/>
    <path d="M107.89,58.42c-.06,0-.12-.02-.16-.07-.08-.09-.07-.22,.02-.3,1.7-1.52,3.67-2.72,5.86-3.59,.11-.04,.24,.01,.28,.12,.04,.11-.01,.24-.12,.28-2.14,.85-4.07,2.03-5.74,3.51-.04,.04-.09,.05-.14,.05Z" fill="#363636"/>
    <path d="M135.75,77.77c-.82,4.41-4.93,7.42-9.96,6.92-1.5-.15-2.94-.59-4.24-1.27l-7.86,11.15c3.65,2.12,7.78,3.47,12.1,3.78,12.56,.91,22.43-7.26,23.52-18.49l-13.56-2.09Z" fill="#ffd7e5"/>
    <path d="M125.68,96.58h-.02c-.47-.03-.96-.08-1.43-.15-2.65-.34-5.23-1.1-7.67-2.24-.11-.05-.15-.18-.1-.29,.05-.11,.18-.15,.29-.1,2.41,1.12,4.94,1.87,7.55,2.2,.47,.06,.94,.11,1.41,.14,.12,0,.21,.11,.2,.23,0,.11-.1,.2-.21,.2Z" fill="#fff"/>
    <path d="M130.64,96.42c-.11,0-.2-.08-.21-.18-.02-.12,.07-.23,.18-.24,8.24-1.18,14.61-6.89,16.22-14.56,.02-.12,.14-.19,.25-.17,.12,.02,.19,.14,.17,.25-1.65,7.85-8.15,13.7-16.58,14.9-.01,0-.02,0-.03,0Z" fill="#fff"/>
    <path d="M111.23,92.96l7.93-11.18c-2.37-2.07-3.9-5-3.9-8.1,0-.75,.09-1.47,.26-2.15l-14.53-6.76c-.78,2.19-1.2,4.57-1.2,7.09,0,8.35,4.58,16.13,11.44,21.09Z" fill="#f0f0f0"/>
    <path d="M129.09,65.14c4.59,1.28,8.11,5.29,8.53,9.74l22.17,3.52v-.03c0-16.27-12.96-31.87-30.31-35.91l-.4,22.68Z" fill="#ffbdd6"/>
    <path d="M108.88,68.93l-28.49-3.7c-1.4-.18-2.54,.81-2.54,2.21v37.86c0,1.4,1.14,2.69,2.54,2.87l28.49,3.7c1.4,.18,2.54-.81,2.54-2.21v-37.86c0-1.4-1.14-2.69-2.54-2.87Z" fill="#fff"/>
    <path d="M109.21,112.11c-.12,0-.24,0-.36-.02l-28.49-3.7c-1.51-.2-2.73-1.58-2.73-3.09v-37.86c0-.74,.29-1.4,.81-1.86,.53-.46,1.23-.67,1.98-.57l28.49,3.7c1.51,.2,2.73,1.58,2.73,3.09v37.86c0,.74-.29,1.4-.81,1.86-.44,.39-1,.59-1.61,.59Zm-29.16-46.69c-.5,0-.97,.17-1.33,.49-.43,.38-.66,.92-.66,1.53v37.86c0,1.3,1.06,2.49,2.35,2.66l28.49,3.7c.62,.08,1.2-.08,1.64-.47,.43-.38,.66-.92,.66-1.53v-37.86c0-1.3-1.06-2.49-2.35-2.66l-28.49-3.7c-.1-.01-.2-.02-.3-.02Z" fill="#363636"/>
    <g>
      <polygon points="89.15 102.67 81.84 101.72 81.84 77.69 89.15 78.64 89.15 102.67" fill="#ffbdd6"/>
      <polygon points="98.29 103.86 90.98 102.91 90.98 72.24 98.29 73.2 98.29 103.86" fill="#ffbdd6"/>
      <polygon points="107.43 105.05 100.12 104.1 100.12 89.77 107.43 90.72 107.43 105.05" fill="#ffbdd6"/>
    </g>
    <g>
      <path d="M83.23,92.47c-.12,0-.22-.1-.22-.22v-15.2c0-.06,.03-.12,.07-.16,.05-.04,.11-.06,.17-.05l7.31,.95c.11,.01,.19,.11,.19,.21v6.88c0,.12-.1,.22-.22,.22s-.22-.1-.22-.22v-6.69l-6.88-.89v14.95c0,.12-.1,.22-.22,.22Z" fill="#363636"/>
      <path d="M99.68,99.8c-.12,0-.22-.1-.22-.22v-26.83l-6.88-.89v21.65c0,.12-.1,.22-.22,.22s-.22-.1-.22-.22v-21.89c0-.06,.03-.12,.07-.16s.11-.06,.17-.05l7.31,.95c.11,.01,.19,.11,.19,.21v27.02c0,.12-.1,.22-.22,.22Z" fill="#363636"/>
      <path d="M101.5,101.12c-.12,0-.22-.1-.22-.22v-11.76c0-.06,.03-.12,.07-.16,.05-.04,.11-.06,.17-.05l7.31,.95c.11,.01,.19,.11,.19,.21v8.27c0,.12-.1,.22-.22,.22s-.22-.1-.22-.22v-8.08l-6.88-.89v11.52c0,.12-.1,.22-.22,.22Z" fill="#363636"/>
    </g>
    <path d="M110.41,139.43l-20.22-3.23c-.64-.1-1.17-.74-1.17-1.42v-20.11c0-.68,.52-1.15,1.17-1.05l20.22,3.23c.64,.1,1.17,.74,1.17,1.42v20.11c0,.68-.52,1.15-1.17,1.05Z" fill="#fff"/>
    <path d="M110.58,139.66c-.07,0-.14,0-.21-.02l-20.22-3.23c-.74-.12-1.35-.85-1.35-1.63v-20.11c0-.4,.16-.76,.44-1,.27-.23,.61-.32,.98-.26l20.22,3.23c.74,.12,1.35,.85,1.35,1.63v20.11c0,.4-.16,.76-.44,1-.21,.18-.48,.28-.77,.28Zm-.14-.44c.24,.04,.46-.02,.63-.16,.18-.16,.28-.4,.28-.67v-20.11c0-.58-.44-1.12-.98-1.21l-20.22-3.23c-.24-.04-.46,.02-.63,.16-.18,.16-.28,.4-.28,.67v20.11c0,.58,.44,1.12,.98,1.21l20.22,3.23Z" fill="#363636"/>
    <polygon points="94.4 135.16 92.38 134.84 92.38 120.32 94.4 120.65 94.4 135.16" fill="#ed2a5b"/>
    <polygon points="94.4 135.16 92.38 134.84 92.38 125.47 94.4 125.8 94.4 135.16" fill="#ffd7e5"/>
    <polygon points="98.19 135.77 96.17 135.44 96.17 123.07 98.19 123.39 98.19 135.77" fill="#ed2a5b"/>
    <polygon points="98.19 135.77 96.17 135.44 96.17 128.35 98.19 128.68 98.19 135.77" fill="#ffd7e5"/>
    <polygon points="101.72 136.4 99.7 136.08 99.7 124.84 101.72 125.16 101.72 136.4" fill="#ed2a5b"/>
    <polygon points="101.72 136.4 99.7 136.08 99.7 130.86 101.72 131.18 101.72 136.4" fill="#ffd7e5"/>
    <polygon points="105.35 137.11 103.33 136.79 103.33 122.27 105.35 122.6 105.35 137.11" fill="#ed2a5b"/>
    <polygon points="105.35 137.11 103.33 136.79 103.33 124.68 105.35 125.01 105.35 137.11" fill="#ffd7e5"/>
    <polygon points="109.02 137.63 107 137.31 107 123.8 109.02 124.12 109.02 137.63" fill="#ed2a5b"/>
    <polygon points="109.02 137.63 107 137.31 107 128.41 109.02 128.74 109.02 137.63" fill="#ffd7e5"/>
    <path d="M110.28,138.03s-.02,0-.03,0l-19.58-3.13c-.4-.06-.71-.44-.71-.86l.08-17.15c0-.12,.1-.21,.22-.21h0c.12,0,.21,.1,.21,.22l-.08,17.15c0,.2,.16,.4,.35,.43l19.58,3.13c.12,.02,.2,.13,.18,.25-.02,.11-.11,.18-.21,.18Z" fill="#ed2a5b"/>
    <g>
      <polygon points="98.39 117.54 92.31 116.57 92.31 115.43 98.39 116.4 98.39 117.54" fill="#e2e2e2"/>
      <polygon points="98.41 119.28 92.34 118.31 92.34 117.17 98.41 118.14 98.41 119.28" fill="#e2e2e2"/>
    </g>
    <path d="M190.52,120.1l-27.7-4.85c-.67-.12-1.15-.69-1.15-1.37v-44.3c0-.86,.78-1.52,1.63-1.37l27.7,4.85c.67,.12,1.15,.69,1.15,1.37v44.3c0,.86-.78,1.52-1.63,1.37Z" fill="#fff"/>
    <ellipse cx="176.47" cy="88.82" rx="11.51" ry="13.22" transform="translate(-12.71 145.77) rotate(-43.47)" fill="#ffbdd6"/>
    <path d="M176.69,88.87l7.87,10.34c3-2.22,4.67-6.03,4.09-10.36-.37-2.75-1.59-5.29-3.35-7.35l-8.61,7.37Z" fill="#ffe6f0"/>
    <path d="M177.44,76.68l-.75,12.18,8.61-7.37c-2.05-2.4-4.83-4.14-7.86-4.82Z" fill="#ed2a5b"/>
    <ellipse cx="176.47" cy="88.82" rx="3.51" ry="4.03" transform="translate(-12.71 145.77) rotate(-43.47)" fill="#fff"/>
    <polygon points="188.8 108.47 164.75 105.15 164.75 102.52 188.8 105.83 188.8 108.47" fill="#ffe6f0"/>
    <polygon points="188.85 113.37 164.8 110.05 164.8 107.42 188.85 110.73 188.85 113.37" fill="#ffe6f0"/>
    <path d="M190.76,120.33c-.09,0-.19,0-.28-.02l-27.7-4.85c-.77-.13-1.33-.8-1.33-1.58l-.05-16.96c0-.12,.1-.22,.21-.22h0c.12,0,.21,.1,.22,.21l.05,16.96c0,.57,.41,1.06,.97,1.16l27.7,4.85c.34,.06,.69-.03,.96-.26,.27-.22,.42-.55,.42-.9v-44.3c0-.57-.41-1.06-.97-1.16l-27.7-4.85c-.34-.06-.69,.03-.96,.26-.27,.22-.42,.55-.42,.9v15.15c0,.12-.1,.22-.22,.22s-.22-.1-.22-.22v-15.15c0-.48,.21-.92,.57-1.23,.36-.31,.84-.43,1.31-.35l27.7,4.85c.77,.13,1.33,.8,1.33,1.58v44.3c0,.48-.21,.92-.57,1.23-.29,.25-.66,.38-1.03,.38Z" fill="#363636"/>
    <path d="M136.3,72.63c.71-.04,1.55,.15,3.23,.53,1.51,.34,1.93,.57,2.12,.97,.31,.65-.15,1.45-.29,1.69-.77,1.36-2.19,1.53-3.12,2.15-3.02,2-1.48,5.41-3.98,7.54-2.38,2.03-4.61-.35-8.9,1.58-3.38,1.52-3.06,3.48-5.81,4.34-3.36,1.05-8.63-.36-10.77-4.59-2.03-4.02-.63-9.39,2.12-10.77,2.49-1.25,4.42,1.51,7.75,.22,3.28-1.27,3.54-4.8,6.1-4.76,.61,.01,.48,.21,4.52,1.67,1.87,.68,2.09,.7,2.3,.72,2.01,.13,2.43-1.16,4.74-1.28Z" fill="#363636"/>
    <path d="M143.51,93.28c1.44,8.79,1.6,8.92,1.8,9.85,0,0,.57,2.59,.73,5.08,.14,2.16-.27,15.17-6.99,18.03-2.43,1.03-3.13-.87-8.3-.66-5.3,.21-6.37,2.1-8.68,1.44-5-1.43-6.63-12.16-6.36-18.79,.22-5.4,2.91-10.5,8.29-20.7,.82-1.55,2.13-3.93,4.24-4.23,.97-.14,1.35,.01,5.24,1.08,4.23,1.16,5.3-.07,7.11,1.07,1.87,1.18,2.2,3.43,2.92,7.83Z" fill="#ed2a5b"/>
    <path d="M123.03,127.37c-.32,0-.66-.04-1.02-.15-2.91-.83-4.49-4.59-5.31-7.59-.91-3.37-1.36-7.64-1.21-11.41,.23-5.45,2.93-10.57,8.31-20.79,.74-1.4,2.11-4.01,4.4-4.34,.92-.13,1.31-.03,4.32,.81l1.01,.28c2.11,.58,3.4,.55,4.44,.53,.99-.02,1.78-.04,2.73,.56,1.92,1.21,2.27,3.38,2.98,7.7l.04,.27c1.19,7.32,1.51,8.61,1.69,9.39,.04,.16,.07,.29,.1,.45,0,.02,.57,2.63,.73,5.12,.08,1.27-.04,5.09-.93,8.82-1.18,4.94-3.32,8.2-6.19,9.42-1.29,.55-2.13,.31-3.29-.02-1.14-.32-2.55-.73-5.09-.63-2.68,.11-4.24,.64-5.49,1.06-.83,.28-1.51,.51-2.24,.51Zm5.74-43.89c-.17,0-.33,.02-.51,.04-2.07,.3-3.38,2.78-4.08,4.11-5.35,10.16-8.04,15.25-8.26,20.6-.29,6.89,1.45,17.21,6.2,18.57,1.06,.3,1.84,.04,3-.36,1.21-.41,2.86-.98,5.61-1.09,2.6-.1,4.11,.33,5.22,.64,1.11,.32,1.85,.53,3,.04,3.46-1.48,5.14-5.78,5.94-9.13,.88-3.68,1-7.44,.92-8.69-.16-2.45-.72-5.03-.72-5.05-.03-.15-.06-.28-.1-.44-.19-.78-.5-2.09-1.7-9.42l-.04-.27c-.68-4.2-1.03-6.3-2.78-7.41-.84-.53-1.5-.52-2.49-.5-1.01,.02-2.39,.05-4.56-.55l-1.01-.28c-2.3-.63-3.03-.84-3.64-.84Z" fill="#363636"/>
    <polygon points="135.8 144.21 135.8 148.46 133.75 148.33 133.35 144.21 135.8 144.21" fill="#fff"/>
    <path d="M135.8,148.67h-.01l-2.05-.13c-.11,0-.19-.09-.2-.19l-.4-4.13c0-.06,.01-.12,.05-.17,.04-.05,.1-.07,.16-.07h2.45c.12,0,.22,.1,.22,.22v4.25c0,.06-.02,.12-.07,.16-.04,.04-.09,.06-.15,.06Zm-1.85-.54l1.63,.1v-3.81h-2l.36,3.71Z" fill="#363636"/>
    <path d="M133.44,153.76c.83,.09,2.2,.15,3.79-.13,.52-.09,.85-.61,.71-1.12-.4-1.42-1.19-4.06-1.81-5.32l-.38,.69-.3-.73c-.05-.09-.14-.14-.24-.15l-.78-.07c-.16-.02-.36,.15-.39,.31l-.52,.65-.3-.77-.56,5.67c-.05,.48,.3,.92,.79,.97Z" fill="#fff"/>
    <path d="M134.87,154.05c-.57,0-1.06-.03-1.45-.08-.6-.06-1.04-.61-.98-1.21l.56-5.67c0-.1,.09-.18,.19-.19,.1-.01,.19,.04,.23,.14l.16,.42,.25-.32c.08-.25,.35-.45,.61-.42l.78,.07c.17,.02,.32,.11,.41,.26,0,0,.01,.02,.01,.03l.13,.31,.16-.3c.04-.07,.11-.11,.19-.11,.08,0,.15,.05,.19,.12,.67,1.34,1.5,4.2,1.83,5.36,.08,.3,.04,.62-.13,.89-.17,.26-.44,.45-.75,.5-.88,.15-1.7,.2-2.4,.2Zm-1.52-6.04l-.47,4.8c-.04,.37,.23,.7,.6,.74,.84,.09,2.18,.14,3.73-.12,.19-.03,.36-.14,.46-.31,.1-.16,.13-.36,.08-.54-.3-1.05-1.01-3.49-1.62-4.9l-.17,.32c-.04,.07-.12,.12-.2,.11-.08,0-.16-.06-.19-.13l-.29-.71s-.04-.04-.07-.04l-.78-.07s-.15,.07-.16,.13c0,.04-.02,.07-.04,.1l-.52,.65c-.05,.06-.12,.09-.2,.08-.06,0-.1-.04-.14-.08Z" fill="#363636"/>
    <path d="M135.42,153.09c-1.2,0-2.12-.23-2.18-.24-.12-.03-.19-.15-.16-.26,.03-.12,.15-.19,.26-.16,.02,0,2.06,.5,3.97,0,.11-.03,.23,.04,.26,.15,.03,.12-.04,.23-.15,.26-.69,.18-1.38,.24-2,.24Z" fill="#363636"/>
    <path d="M136.12,150.88h-1.87c-.12,0-.22-.1-.22-.22s.1-.22,.22-.22h1.87c.12,0,.22,.1,.22,.22s-.1,.22-.22,.22Z" fill="#363636"/>
    <g>
      <polygon points="120.74 141.95 120.14 147.08 118.22 147.02 118.22 141.95 120.74 141.95" fill="#fff"/>
      <path d="M120.14,147.3h0l-1.92-.07c-.12,0-.21-.1-.21-.22v-5.06c0-.12,.1-.22,.22-.22h2.52c.06,0,.12,.03,.16,.07s.06,.11,.05,.17l-.61,5.13c-.01,.11-.1,.19-.21,.19Zm-1.7-.49l1.51,.05,.55-4.69h-2.07v4.64Z"/>
    </g>
    <path d="M120.6,145.86s.25,2.28,.17,3.19c-.05,.66-.95,2.64-1.46,3.71-.21,.44-.61,.72-1.05,.74-.54,.02-1.29,.05-1.89,.05-.83,0-1.4-.94-1.1-1.82,.27-.81,.71-1.83,1.39-2.91,.51-.82,1.27-3.03,1.27-3.03h1.56l.31,1.3,.81-1.22Z" fill="#fff"/>
    <path d="M116.37,153.77c-.43,0-.82-.21-1.09-.58-.31-.43-.39-1-.22-1.53,.35-1.02,.82-2.02,1.41-2.96,.5-.79,1.24-2.97,1.24-2.99,.03-.09,.11-.15,.2-.15h1.56c.1,0,.19,.07,.21,.17l.19,.81,.53-.81c.05-.08,.14-.11,.23-.09,.09,.02,.15,.1,.16,.19,.01,.09,.25,2.31,.17,3.23-.05,.65-.84,2.42-1.48,3.78-.24,.51-.71,.84-1.23,.87-.53,.02-1.29,.05-1.9,.05h0Zm1.71-7.77c-.18,.51-.79,2.22-1.24,2.93-.57,.91-1.04,1.88-1.37,2.87-.13,.39-.07,.82,.16,1.14,.19,.26,.45,.4,.74,.4h0c.6,0,1.36-.03,1.88-.05,.36-.02,.69-.25,.86-.62,.88-1.86,1.4-3.18,1.44-3.63,.05-.6-.04-1.81-.11-2.55l-.47,.72c-.05,.07-.13,.11-.22,.09-.08-.02-.15-.08-.17-.16l-.27-1.13h-1.24Z" fill="#363636"/>
    <path d="M117.56,152.79h-1.78c-.12,0-.22-.1-.22-.22,0-.12,.1-.22,.22-.22h1.78c.54,0,1.03-.31,1.28-.82,.85-1.7,.89-1.74,.94-1.78,.09-.08,.23-.06,.3,.03,.07,.08,.06,.2,0,.28-.03,.05-.18,.3-.85,1.67-.32,.65-.96,1.06-1.67,1.06Zm2.49-2.7h0Z" fill="#363636"/>
    <path d="M118.31,150.94h-1.71c-.12,0-.22-.1-.22-.22s.1-.22,.22-.22h1.71c.12,0,.22,.1,.22,.22s-.1,.22-.22,.22Z" fill="#363636"/>
    <path d="M139.08,101.69s-.2,15.65-.86,25.84c-.66,10.19-1.95,17.98-1.95,17.98,0,0-2.23,.8-3.7,.38,0,0-1.21-8.94-1.49-11.96-.28-3.02,.46-4.52,.52-6.99,.06-2.47-1.07-13.39-1.07-13.39,0,0-8.41,24.68-9.38,30.13,0,0-2.04,.35-3.47-.44,0,0-.04-9.7,.16-11.2,.38-2.78,2.55-5.51,2.94-8.46,.39-2.95,.62-10.36,1.69-14.8,1.07-4.44,3.18-9.43,3.18-9.43l13.44,2.35Z" fill="#363636"/>
    <path d="M124.75,107.56c-.08,0-.17-.05-.2-.13-.05-.11,0-.24,.12-.28,2.7-1.11,3.5-3.75,3.51-3.77,.03-.11,.15-.18,.27-.15,.11,.03,.18,.15,.15,.27-.03,.12-.87,2.87-3.76,4.05-.03,.01-.05,.02-.08,.02Z" fill="#fff"/>
    <path d="M122.21,114.85h-.03c-.12-.02-.2-.13-.19-.24,.97-7.46,3.89-12.45,3.91-12.5,.06-.1,.19-.14,.29-.08,.1,.06,.14,.19,.08,.29-.03,.05-2.9,4.97-3.86,12.34-.01,.11-.11,.19-.21,.19Z" fill="#fff"/>
    <g>
      <path d="M165.19,85.33l-3.67,1.52-1.34,2.88c-.8,.53-1.6,.97-2.39,1.32,.14,.31,.29,.62,.42,.93,.22,.51,.43,1.02,.64,1.53,1.6-1.59,2.22-3.09,2.22-3.09,2.26-.13,2.32-1.88,2.21-2.33-.11-.45,.09-.97,1.13-1.65,1.14-.75,.77-1.12,.77-1.12Z" fill="#fff"/>
      <path d="M158.85,93.73s-.03,0-.04,0c-.07-.01-.13-.06-.16-.13-.19-.46-.41-1-.64-1.53-.14-.31-.28-.63-.42-.92-.02-.05-.03-.11,0-.17,.02-.05,.06-.1,.11-.12,.79-.35,1.57-.77,2.31-1.27l1.31-2.83s.06-.09,.11-.11l3.67-1.52c.08-.03,.17-.01,.24,.05,.02,.02,.14,.15,.11,.38-.04,.33-.35,.69-.92,1.07-1.07,.71-1.11,1.15-1.04,1.42,.09,.35,.06,1.07-.37,1.66-.4,.54-1.04,.85-1.9,.93-.18,.4-.84,1.67-2.21,3.04-.04,.04-.1,.06-.15,.06Zm-.78-2.57c.11,.24,.23,.49,.33,.74,.18,.42,.36,.84,.52,1.23,1.38-1.45,1.94-2.77,1.95-2.79,.03-.08,.1-.13,.19-.13,.79-.05,1.37-.3,1.71-.76,.38-.52,.34-1.13,.3-1.3-.16-.63,.23-1.23,1.22-1.88,.41-.27,.6-.48,.68-.62l-3.29,1.37-1.3,2.8s-.04,.07-.08,.09c-.72,.48-1.47,.9-2.23,1.25Zm2.11-1.43h0Z"/>
    </g>
    <path d="M140.61,84.39s-5.02-.72-9.96-.86c0,0-6.2,16.17-6.2,17.26,0,1.09,2.65,2.49,6.2,1.6,3.55-.89,8.06-.98,10.6-.39,3.8,.89-.64-17.61-.64-17.61Z" fill="#fff"/>
    <path d="M128.42,102.89c-1.61,0-2.83-.47-3.51-.99-.44-.34-.68-.73-.68-1.11,0-1.1,5.58-15.68,6.21-17.34,.03-.09,.12-.14,.21-.14,4.9,.14,9.94,.86,9.99,.86,.09,.01,.16,.08,.18,.16,.15,.63,3.65,15.36,1.44,17.59-.28,.28-.65,.38-1.06,.28-2.65-.62-7.16-.45-10.5,.39-.82,.21-1.59,.29-2.28,.29Zm2.38-19.14c-2.49,6.49-6.13,16.28-6.13,17.04,0,.24,.19,.52,.51,.77,.96,.75,3,1.23,5.42,.62,3.4-.85,8-1.02,10.7-.39,.27,.06,.48,.01,.66-.17,1.68-1.69-.49-12.73-1.52-17.04-.85-.12-5.28-.7-9.64-.84Z" fill="#363636"/>
    <path d="M159.2,89.81l2.32,1.47s-2.44,5.64-7.75,7.37c-5.31,1.72-10.33-3.16-10.33-3.16v5.36s-2.76-.06-2.76-.19-.47-16.68-.47-16.68c0,0,2.07,.03,3,1.35,.92,1.31,4.42,6.75,8.44,6.81,4.02,.07,7.57-2.33,7.57-2.33Z" fill="#ed2a5b"/>
    <path d="M143.44,101.06h0c-2.99-.06-2.99-.17-2.99-.41,0-.2-.46-16.51-.47-16.67,0-.06,.02-.12,.06-.16,.04-.04,.09-.07,.16-.06,.09,0,2.19,.05,3.17,1.44,.06,.08,.12,.17,.19,.28,1.09,1.58,4.4,6.38,8.07,6.44,3.9,.06,7.41-2.27,7.44-2.29,.07-.05,.16-.05,.24,0l2.32,1.47c.09,.06,.12,.17,.08,.27-.02,.06-2.54,5.75-7.88,7.49-4.55,1.48-8.91-1.81-10.18-2.89v4.88c0,.06-.01,.11-.06,.15-.04,.04-.09,.06-.15,.06Zm-2.56-.41h0Zm0-.15c.35,.05,1.37,.1,2.35,.13v-5.14c-.01-.09,.04-.16,.12-.2,.08-.03,.17-.02,.23,.04,.05,.05,4.99,4.77,10.12,3.11,4.65-1.51,7.09-6.14,7.54-7.08l-2.04-1.29c-.66,.42-3.89,2.35-7.57,2.29-3.89-.06-7.3-5-8.42-6.63-.07-.11-.14-.2-.19-.28-.68-.97-2.06-1.19-2.6-1.24,.06,1.98,.41,14.74,.46,16.29Z" fill="#363636"/>
    <g>
      <path d="M146.43,88.74l-9.13-.94c-.31,0-.6,.26-.65,.57l-2.2,13.6c-.05,.32,.16,.57,.46,.57l9.68-.47c.31,0,.63,.22,.68-.1l2.2-13.6c.05-.32-.74,.37-1.04,.37Z" fill="#262626"/>
      <path d="M134.93,102.77c-.22,0-.4-.08-.53-.23-.13-.16-.19-.37-.15-.59l2.2-13.6c.07-.42,.45-.75,.86-.75h.02l9.11,.94c.09,0,.33-.15,.46-.22,.31-.18,.51-.3,.68-.18,.04,.03,.14,.11,.11,.29l-2.2,13.6c-.02,.13-.08,.23-.17,.29-.15,.1-.33,.06-.49,.03-.08-.02-.16-.04-.24-.04l-9.67,.47h0Zm2.37-14.75c-.2,0-.39,.18-.43,.39l-2.2,13.6c-.02,.1,0,.18,.06,.24,.05,.05,.11,.08,.19,.08l9.67-.47h0c.13,0,.24,.02,.34,.05,.04,0,.1,.02,.14,.03l2.16-13.32s-.07,.04-.11,.06c-.29,.17-.5,.28-.68,.28h-.02l-9.11-.94Z" fill="#262626"/>
    </g>
    <path d="M147.32,87.8h-9.71c-.31,0-.6,.26-.65,.57l-2.2,13.6c-.05,.32,.16,.57,.46,.57h9.71c.31,0,.6-.26,.65-.57l2.2-13.6c.05-.32-.16-.57-.46-.57Z" fill="#fff"/>
    <path d="M144.93,102.77h-9.71c-.21,0-.39-.08-.52-.23-.13-.16-.19-.37-.15-.59l2.2-13.6c.07-.42,.45-.75,.86-.75h9.71c.21,0,.39,.08,.52,.23,.13,.16,.19,.37,.15,.59l-2.2,13.6c-.07,.42-.45,.75-.86,.75Zm-7.32-14.75c-.2,0-.4,.18-.44,.39l-2.2,13.6c-.02,.1,0,.18,.06,.24,.05,.05,.11,.08,.19,.08h9.71c.2,0,.4-.18,.44-.39l2.2-13.6c.02-.1,0-.18-.06-.24-.05-.05-.11-.08-.19-.08h-9.71Z" fill="#363636"/>
    <path d="M135.45,93.96l.1,1.28,3.89-.71s.09,.13,.14,.34c.07,.28,.08,.7-.28,1.14-.17,.21-.84,.22-.79,.64,.05,.37-1.47,.65-2.79,.9-1.47,.27-1.35-1.82-.98-2.9,.28-.84,.7-.69,.7-.69Z" fill="#fff"/>
    <path d="M135.48,97.79c-.41,0-.66-.18-.81-.35-.58-.67-.4-2.07-.13-2.85,.14-.4,.33-.67,.57-.78,.21-.1,.38-.05,.41-.04,.08,.03,.13,.1,.14,.18l.09,1.04,3.65-.66c.08-.02,.17,.02,.22,.09,.01,.02,.11,.17,.18,.4,.08,.32,.1,.82-.32,1.33-.1,.12-.26,.19-.42,.25-.27,.1-.34,.15-.33,.23,.06,.52-.85,.74-2.96,1.13-.1,.02-.2,.03-.29,.03Zm-.23-3.57c-.09,.07-.2,.21-.3,.51-.28,.82-.34,1.99,.05,2.43,.16,.18,.38,.24,.69,.18,.85-.16,2.41-.45,2.61-.69-.03-.41,.36-.56,.6-.65,.08-.03,.21-.08,.24-.11,.24-.3,.32-.62,.24-.95-.02-.06-.03-.11-.05-.15l-3.73,.68c-.06,.01-.12,0-.17-.04-.05-.04-.08-.09-.08-.15l-.09-1.05Zm.13-.04h0Z" fill="#363636"/>
    <path d="M134.56,96.88h0c-.22-.34-.62-.52-1.02-.45-1.18,.18-3.67,.47-5.01-.11-3.12-1.37-1.67-5.62-1.14-8.01,0-.04,.02-.08,.03-.13,.24-1.02-.98-1.74-1.72-1-.65,.64-1.29,1.44-1.82,2.42-1.94,3.56-3.02,10.41,3.48,11.85,3.3,.73,6.07-2.05,7.14-3.34,.29-.35,.32-.85,.07-1.23Z" fill="#ed2a5b" stroke="#ed2a5b" stroke-miterlimit="10" stroke-width=".4"/>
    <path d="M124.03,99.95s-.1-.02-.14-.05c-2.11-1.78-1.98-5.47-1.97-5.63,0-.12,.1-.21,.22-.21,.12,0,.21,.11,.21,.22,0,.04-.13,3.64,1.82,5.28,.09,.08,.1,.21,.03,.3-.04,.05-.1,.08-.16,.08Z" fill="#363636"/>
    <path d="M136.02,77.56c.1,.06,.22,.02,.26-.09,.2-.5,.53-1.45,1.19-1.61,.85-.2,2.22-.45,2.34,.22,.1,.59-.02,1.6,.6,2.33,.06,.07,0,.18-.07,.24l-.39,.33c-.08,.06-.15,.27-.16,.37-.03,.32-.07,1-.18,1.08-.21,.17-1.29,.1-1.29,.1l-.86,2.95c-.03,.11,.03,.23,.15,.26l1.02,.35s-.82,1.15-3.39,.98c-1.64-.11-2.84-1.27-2.84-1.27,0,0,3.19-.45,3.62-4.22,0-.08-.03-.16-.09-.21-.25-.19-.94-.75-.82-1.32,.13-.61,.58-.7,.91-.5Z" fill="#fff"/>
    <path d="M135.76,85.32c-.17,0-.34,0-.53-.02-1.7-.11-2.92-1.28-2.97-1.33-.06-.06-.08-.14-.06-.22,.03-.08,.09-.14,.17-.15,.12-.02,3.03-.48,3.43-4.03,0,0,0-.01,0-.02-.39-.3-1.04-.89-.9-1.54,.07-.34,.25-.59,.5-.7,.22-.1,.47-.08,.7,.04l.04-.1c.23-.57,.57-1.43,1.28-1.6,1.21-.28,1.93-.29,2.31-.04,.16,.1,.25,.25,.29,.43,.03,.16,.04,.34,.05,.53,.04,.54,.08,1.2,.5,1.7,.06,.07,.08,.16,.07,.25-.01,.11-.08,.22-.17,.3l-.38,.32s-.08,.16-.09,.23c0,.05,0,.11-.02,.17-.06,.7-.1,.95-.25,1.06-.22,.17-.86,.18-1.26,.16l-.81,2.79,1.03,.34c.06,.02,.11,.07,.14,.14,.02,.06,0,.14-.03,.19-.03,.05-.8,1.09-3.05,1.09Zm-2.89-1.39c.45,.33,1.33,.88,2.39,.95,1.69,.11,2.59-.37,2.97-.67l-.68-.23c-.11-.03-.2-.1-.25-.2-.06-.1-.07-.22-.04-.33l.86-2.95c.03-.1,.12-.16,.22-.15,.48,.03,.98,0,1.12-.05,.05-.14,.09-.58,.1-.77,0-.06,.01-.12,.02-.17,.01-.11,.09-.41,.25-.53l.37-.31c-.46-.59-.51-1.31-.55-1.89-.01-.18-.02-.35-.05-.49-.01-.06-.04-.11-.1-.15-.27-.18-.93-.14-1.98,.1-.49,.11-.8,.88-.98,1.34-.02,.05-.04,.1-.06,.14-.04,.11-.13,.19-.24,.23-.11,.04-.23,.02-.33-.04-.11-.07-.24-.08-.34-.04-.12,.05-.21,.19-.25,.4-.09,.44,.54,.96,.74,1.11,.13,.1,.2,.25,.18,.41-.35,3.03-2.44,4.01-3.37,4.3Zm6.57-3.62h0Zm-3.31-2.93h0Z" fill="#363636"/>
    <g>
      <path d="M182.92,47.09s-.08-.01-.12-.04c-4.58-3-9.69-5.16-15.19-6.42-.12-.03-.19-.14-.16-.26,.03-.12,.14-.19,.26-.16,5.55,1.27,10.71,3.45,15.33,6.48,.1,.07,.13,.2,.06,.3-.04,.06-.11,.1-.18,.1Z" fill="#363636"/>
      <path d="M165.13,40.13s-.02,0-.04,0c-.74-.13-1.5-.25-2.25-.34-.12-.02-.2-.12-.19-.24,.02-.12,.12-.2,.24-.19,.76,.1,1.52,.21,2.27,.35,.12,.02,.2,.13,.17,.25-.02,.1-.11,.18-.21,.18Z" fill="#363636"/>
      <path d="M178.3,47.67s-.07,0-.1-.03c-5.88-3.15-12.4-4.86-19.38-5.1-.12,0-.21-.1-.21-.22s.11-.21,.22-.21c7.05,.24,13.63,1.98,19.57,5.15,.1,.06,.14,.19,.09,.29-.04,.07-.11,.11-.19,.11Z" fill="#363636"/>
    </g>
    <g>
      <path d="M167.21,149.41c-.07,0-.15-.04-.19-.11-.06-.1-.03-.23,.08-.29,7.96-4.71,14.51-11.12,18.96-18.53,.06-.1,.19-.14,.3-.07,.1,.06,.14,.19,.07,.3-4.48,7.48-11.09,13.94-19.11,18.68-.03,.02-.07,.03-.11,.03Z" fill="#363636"/>
      <path d="M166.95,145.61c-.07,0-.14-.04-.19-.11-.06-.1-.03-.23,.07-.3,5.39-3.21,10.03-7.2,13.78-11.86,.07-.09,.21-.11,.3-.03,.09,.07,.11,.21,.03,.3-3.78,4.7-8.46,8.72-13.9,11.96-.03,.02-.07,.03-.11,.03Z" fill="#363636"/>
    </g>
    <path d="M107.52,149.12s-.05,0-.08-.02c-5.05-2.08-9.71-4.99-13.84-8.64-.09-.08-.1-.21-.02-.3,.08-.09,.21-.1,.3-.02,4.09,3.62,8.7,6.5,13.71,8.57,.11,.05,.16,.17,.12,.28-.03,.08-.11,.13-.2,.13Z" fill="#363636"/>
  </g>
</svg>