<?xml version="1.0" encoding="UTF-8"?>
<svg id="Layer_1" data-name="Layer 1" xmlns="http://www.w3.org/2000/svg" viewBox="0 0 270 186">
  <ellipse cx="139.9" cy="153.59" rx="60.7" ry="5.28" fill="#ffe6f0" opacity=".8"/>
  <path d="M151.06,122.46h0c-.61-.03-1.22-.09-1.82-.18-.08-.01-.14-.09-.12-.17,.01-.08,.09-.14,.17-.12,.59,.09,1.18,.15,1.78,.18,.08,0,.15,.07,.14,.16,0,.08-.07,.14-.15,.14Zm1.81-.03c-.08,0-.14-.06-.15-.14,0-.08,.06-.16,.14-.16,.59-.05,1.19-.13,1.77-.24,.08-.02,.16,.04,.18,.12,.02,.08-.04,.16-.12,.18-.59,.12-1.2,.2-1.81,.25h-.01Zm-5.37-.54s-.03,0-.04,0c-.58-.17-1.16-.37-1.72-.61-.08-.03-.11-.12-.08-.2,.03-.08,.12-.11,.2-.08,.55,.23,1.11,.43,1.69,.6,.08,.02,.13,.11,.1,.19-.02,.07-.08,.11-.14,.11Zm8.91-.16c-.06,0-.12-.04-.14-.1-.03-.08,.02-.16,.1-.19,.56-.19,1.12-.41,1.66-.66,.08-.04,.17,0,.2,.07,.04,.08,0,.17-.07,.2-.55,.26-1.12,.48-1.7,.67-.02,0-.03,0-.05,0Zm-12.23-1.24s-.05,0-.07-.02c-.53-.3-1.04-.64-1.52-1-.07-.05-.08-.14-.03-.21,.05-.07,.14-.08,.21-.03,.48,.36,.98,.69,1.49,.98,.07,.04,.1,.13,.06,.21-.03,.05-.08,.08-.13,.08Zm15.5-.29c-.05,0-.1-.03-.13-.07-.04-.07-.02-.16,.05-.21,.5-.31,.99-.66,1.46-1.04,.06-.05,.16-.04,.21,.02,.05,.06,.04,.16-.02,.21-.47,.38-.97,.74-1.49,1.06-.02,.02-.05,.02-.08,.02Zm-18.39-1.87s-.07-.01-.1-.04c-.44-.42-.86-.87-1.25-1.33-.05-.06-.04-.16,.02-.21,.06-.05,.16-.04,.21,.02,.38,.46,.79,.9,1.22,1.31,.06,.06,.06,.15,0,.21-.03,.03-.07,.05-.11,.05Zm21.2-.39s-.08-.01-.11-.04c-.06-.06-.06-.15,0-.21,.42-.43,.81-.88,1.17-1.35,.05-.07,.15-.08,.21-.03,.07,.05,.08,.15,.03,.21-.37,.48-.77,.95-1.2,1.38-.03,.03-.07,.05-.11,.05Zm-23.5-2.39s-.1-.02-.13-.07c-.33-.51-.63-1.05-.89-1.59-.04-.07,0-.17,.07-.2,.08-.04,.17,0,.2,.07,.26,.53,.55,1.06,.88,1.56,.05,.07,.02,.16-.05,.21-.03,.02-.05,.02-.08,.02Zm25.69-.47s-.05,0-.08-.02c-.07-.04-.1-.13-.05-.21,.3-.51,.58-1.05,.82-1.59,.03-.08,.12-.11,.2-.08,.08,.03,.11,.12,.08,.2-.24,.55-.53,1.1-.83,1.62-.03,.05-.08,.07-.13,.07Zm-27.27-2.77c-.06,0-.12-.04-.14-.1-.2-.57-.36-1.17-.49-1.76-.02-.08,.03-.16,.12-.18,.08-.02,.16,.03,.18,.12,.12,.58,.29,1.16,.48,1.72,.03,.08-.01,.16-.09,.19-.02,0-.03,0-.05,0Zm28.72-.53s-.03,0-.04,0c-.08-.02-.12-.11-.1-.19,.17-.57,.31-1.15,.42-1.74,.01-.08,.09-.14,.17-.12,.08,.01,.14,.09,.12,.17-.11,.6-.25,1.19-.42,1.78-.02,.07-.08,.11-.14,.11Zm-29.48-3c-.08,0-.14-.06-.15-.14-.04-.46-.06-.93-.06-1.4,0-.14,0-.28,0-.42,0-.08,.08-.15,.15-.15,.08,0,.15,.07,.15,.15,0,.14,0,.28,0,.41,0,.46,.02,.92,.06,1.37,0,.08-.05,.16-.14,.16h-.01Zm30.11-.55h0c-.08,0-.15-.08-.14-.16,.01-.27,.02-.55,.02-.83,0-.6-.04-1.2-.11-1.79,0-.08,.05-.16,.13-.17,.08,0,.16,.05,.17,.13,.07,.6,.11,1.21,.11,1.82,0,.28,0,.56-.02,.84,0,.08-.07,.14-.15,.14Zm-30.01-3.05h-.02c-.08-.01-.14-.09-.13-.17,.09-.6,.21-1.2,.37-1.79,.02-.08,.1-.13,.19-.11,.08,.02,.13,.1,.11,.19-.16,.57-.28,1.16-.37,1.75-.01,.07-.08,.13-.15,.13Zm29.6-1.36c-.07,0-.13-.05-.15-.12-.14-.58-.32-1.15-.53-1.71-.03-.08,.01-.16,.09-.19,.08-.03,.16,.01,.19,.09,.21,.57,.39,1.16,.54,1.75,.02,.08-.03,.16-.11,.18-.01,0-.02,0-.04,0Zm-28.65-2.12s-.04,0-.06-.01c-.08-.03-.11-.12-.08-.2,.23-.56,.49-1.11,.79-1.64,.04-.07,.13-.1,.21-.06,.07,.04,.1,.13,.06,.2-.29,.52-.55,1.06-.77,1.61-.02,.06-.08,.09-.14,.09Zm27.38-1.26c-.05,0-.11-.03-.13-.08-.27-.53-.58-1.04-.92-1.54-.05-.07-.03-.16,.04-.21,.07-.05,.16-.03,.21,.04,.34,.5,.66,1.03,.94,1.57,.04,.07,0,.16-.06,.2-.02,.01-.05,.02-.07,.02Zm-25.63-1.89s-.06,0-.09-.03c-.07-.05-.08-.14-.03-.21,.36-.49,.75-.97,1.16-1.41,.06-.06,.15-.06,.21,0,.06,.06,.06,.15,0,.21-.4,.44-.79,.9-1.13,1.38-.03,.04-.08,.06-.12,.06Zm23.59-1.09s-.08-.02-.11-.05c-.39-.45-.81-.88-1.26-1.27-.06-.06-.07-.15-.01-.21,.06-.06,.15-.07,.21-.01,.45,.41,.88,.84,1.28,1.3,.05,.06,.05,.16-.01,.21-.03,.03-.06,.04-.1,.04Zm-21.14-1.56s-.08-.02-.11-.05c-.05-.06-.05-.16,.02-.21,.46-.39,.95-.76,1.46-1.1,.07-.05,.16-.03,.21,.04,.05,.07,.03,.16-.04,.21-.5,.33-.98,.69-1.43,1.08-.03,.02-.06,.04-.1,.04Zm18.46-.85s-.06,0-.09-.03c-.49-.34-1-.66-1.52-.94-.07-.04-.1-.13-.06-.2,.04-.07,.13-.1,.2-.06,.53,.29,1.06,.61,1.55,.96,.07,.05,.08,.14,.04,.21-.03,.04-.08,.06-.12,.06Zm-15.45-1.14c-.06,0-.11-.03-.13-.08-.04-.07,0-.16,.07-.2,.54-.27,1.11-.52,1.68-.72,.08-.03,.16,.01,.19,.09,.03,.08-.01,.16-.09,.19-.56,.2-1.11,.44-1.64,.71-.02,.01-.04,.02-.07,.02Zm12.28-.57s-.04,0-.06-.01c-.55-.22-1.13-.4-1.7-.55-.08-.02-.13-.1-.11-.18,.02-.08,.1-.13,.18-.11,.59,.15,1.17,.34,1.74,.56,.08,.03,.12,.12,.09,.2-.02,.06-.08,.1-.14,.1Zm-8.88-.66c-.07,0-.13-.05-.15-.12-.02-.08,.03-.16,.11-.18,.59-.14,1.2-.24,1.8-.3,.08,0,.16,.05,.17,.13,0,.08-.05,.16-.13,.17-.59,.06-1.19,.16-1.76,.29-.01,0-.02,0-.03,0Zm5.39-.25h-.02c-.59-.08-1.19-.12-1.78-.13-.08,0-.15-.07-.15-.15,0-.08,.07-.15,.15-.15,.61,0,1.22,.05,1.82,.13,.08,.01,.14,.09,.13,.17-.01,.08-.07,.13-.15,.13Z" fill="#8abae7"/>
  <path d="M96.76,87.42c-.15,0-.29,0-.44,0-.08,0-.15-.07-.15-.16,0-.08,.07-.15,.15-.15h0c.59,.02,1.2,0,1.79-.06,.09,0,.16,.05,.17,.13,0,.08-.05,.16-.13,.17-.46,.05-.93,.07-1.39,.07Zm-2.23-.18h-.02c-.6-.1-1.2-.24-1.78-.42-.08-.02-.12-.11-.1-.19,.02-.08,.11-.12,.19-.1,.57,.17,1.16,.31,1.74,.41,.08,.01,.14,.09,.12,.17-.01,.07-.08,.13-.15,.13Zm5.39-.19c-.07,0-.13-.05-.15-.12-.02-.08,.03-.16,.11-.18,.33-.08,.67-.17,.99-.28,.24-.08,.48-.16,.72-.25,.08-.03,.16,0,.19,.09,.03,.08,0,.16-.09,.19-.24,.09-.49,.18-.73,.26-.33,.11-.67,.2-1.01,.28-.01,0-.02,0-.04,0Zm-8.84-.85s-.04,0-.06-.01c-.55-.25-1.1-.53-1.62-.85-.07-.04-.09-.14-.05-.21,.04-.07,.14-.09,.21-.05,.51,.31,1.04,.59,1.58,.83,.08,.03,.11,.12,.08,.2-.03,.06-.08,.09-.14,.09Zm12.21-.44c-.05,0-.11-.03-.13-.08-.04-.07-.01-.16,.06-.2,.52-.28,1.03-.6,1.51-.96,.07-.05,.16-.03,.21,.03,.05,.07,.03,.16-.03,.21-.49,.36-1.01,.69-1.54,.98-.02,.01-.05,.02-.07,.02Zm-15.29-1.44s-.07-.01-.09-.03c-.47-.38-.93-.79-1.36-1.22-.06-.06-.06-.15,0-.21,.06-.06,.15-.06,.21,0,.42,.42,.86,.83,1.33,1.2,.07,.05,.08,.15,.02,.21-.03,.04-.07,.06-.12,.06Zm18.2-.69s-.08-.02-.11-.05c-.06-.06-.06-.16,0-.21,.43-.41,.83-.85,1.21-1.32,.05-.06,.15-.08,.21-.02,.06,.05,.08,.15,.02,.21-.38,.47-.8,.93-1.24,1.35-.03,.03-.07,.04-.1,.04Zm-20.73-1.88s-.09-.02-.12-.06c-.37-.48-.71-.99-1.02-1.51-.04-.07-.02-.16,.05-.21,.07-.04,.16-.02,.21,.05,.3,.51,.64,1.01,1,1.48,.05,.07,.04,.16-.03,.21-.03,.02-.06,.03-.09,.03Zm22.99-.92s-.05,0-.08-.02c-.07-.04-.09-.14-.05-.21,.31-.51,.59-1.04,.84-1.58,.03-.08,.12-.11,.2-.08,.08,.03,.11,.12,.08,.2-.25,.55-.54,1.1-.85,1.61-.03,.05-.08,.07-.13,.07Zm-24.82-2.19c-.06,0-.11-.03-.14-.09-.21-.47-.39-.96-.55-1.45-.03-.09-.05-.17-.08-.26-.02-.08,.02-.16,.1-.19,.08-.02,.16,.02,.19,.1,.03,.08,.05,.17,.08,.25,.15,.48,.34,.96,.54,1.43,.03,.08,0,.17-.08,.2-.02,0-.04,.01-.06,.01Zm26.31-1.1s-.03,0-.04,0c-.08-.02-.12-.11-.1-.19,.18-.57,.32-1.15,.42-1.74,.01-.08,.09-.14,.17-.12,.08,.01,.14,.09,.12,.17-.11,.6-.25,1.2-.43,1.78-.02,.06-.08,.11-.14,.11Zm-27.35-2.35c-.07,0-.14-.05-.15-.12-.1-.6-.17-1.21-.2-1.81,0-.08,.06-.15,.14-.16,.08,0,.15,.06,.16,.14,.03,.59,.1,1.19,.2,1.78,.01,.08-.04,.16-.12,.17h-.03Zm27.98-1.2h0c-.08,0-.15-.08-.14-.16,.01-.26,.02-.52,.02-.77,0-.34-.01-.68-.04-1.02,0-.08,.06-.16,.14-.16,.08,0,.15,.06,.16,.14,.02,.34,.04,.69,.04,1.04,0,.26,0,.53-.02,.79,0,.08-.07,.14-.15,.14Zm-28.16-2.4h-.01c-.08,0-.15-.08-.14-.16,.04-.61,.12-1.22,.24-1.81,.02-.08,.09-.13,.18-.12,.08,.02,.13,.1,.12,.18-.11,.58-.19,1.18-.24,1.77,0,.08-.07,.14-.15,.14Zm27.91-1.2c-.07,0-.13-.05-.15-.12-.11-.58-.26-1.16-.44-1.73-.03-.08,.02-.16,.1-.19,.08-.03,.16,.02,.19,.1,.19,.58,.34,1.18,.45,1.77,.02,.08-.04,.16-.12,.18,0,0-.02,0-.03,0Zm-27.21-2.34s-.03,0-.05,0c-.08-.03-.12-.11-.1-.19,.19-.58,.42-1.15,.68-1.7,.04-.08,.13-.11,.2-.07,.08,.04,.11,.13,.07,.2-.25,.54-.48,1.1-.66,1.66-.02,.06-.08,.1-.14,.1Zm26.33-.6c-.06,0-.12-.04-.14-.09-.23-.55-.49-1.09-.78-1.61-.04-.07-.02-.16,.06-.21,.07-.04,.16-.02,.21,.06,.3,.53,.57,1.08,.8,1.64,.03,.08,0,.17-.08,.2-.02,0-.04,.01-.06,.01Zm-24.78-2.66s-.06,0-.08-.02c-.07-.04-.09-.14-.05-.21,.33-.51,.69-1.01,1.08-1.47,.05-.06,.15-.07,.21-.02,.06,.05,.07,.15,.02,.21-.38,.45-.74,.94-1.06,1.44-.03,.04-.08,.07-.13,.07Zm23.01-.48s-.09-.02-.12-.06c-.35-.48-.74-.94-1.15-1.37-.06-.06-.05-.16,0-.21,.06-.06,.16-.05,.21,0,.42,.44,.81,.91,1.17,1.4,.05,.07,.04,.16-.03,.21-.03,.02-.06,.03-.09,.03Zm-20.69-2.28s-.08-.02-.11-.05c-.06-.06-.05-.16,0-.21,.45-.41,.93-.8,1.42-1.14,.07-.05,.16-.03,.21,.04,.05,.07,.03,.16-.04,.21-.49,.34-.95,.72-1.39,1.12-.03,.03-.07,.04-.1,.04Zm18.21-.34s-.07-.01-.1-.03c-.46-.38-.95-.73-1.45-1.05-.07-.04-.09-.14-.05-.21,.04-.07,.14-.09,.21-.05,.51,.32,1.01,.68,1.48,1.07,.06,.05,.07,.15,.02,.21-.03,.04-.07,.05-.12,.05Zm-15.26-1.73c-.05,0-.11-.03-.13-.08-.04-.07,0-.16,.06-.2,.54-.28,1.1-.52,1.67-.73,.08-.03,.16,.01,.19,.09,.03,.08-.01,.16-.09,.19-.56,.2-1.11,.44-1.64,.71-.02,.01-.05,.02-.07,.02Zm12.22-.2s-.04,0-.06-.01c-.54-.25-1.1-.47-1.66-.66-.08-.03-.12-.11-.1-.19,.03-.08,.11-.12,.19-.1,.58,.19,1.15,.41,1.7,.67,.08,.04,.11,.13,.07,.2-.03,.05-.08,.09-.14,.09Zm-8.82-1.02c-.07,0-.13-.05-.15-.12-.02-.08,.03-.16,.12-.18,.59-.13,1.2-.22,1.81-.27,.08,0,.16,.05,.16,.14,0,.08-.06,.16-.14,.16-.59,.05-1.19,.14-1.77,.26-.01,0-.02,0-.03,0Zm5.39-.08s-.02,0-.03,0c-.59-.11-1.18-.18-1.78-.21-.08,0-.15-.08-.14-.16,0-.08,.07-.15,.16-.14,.61,.03,1.22,.1,1.81,.21,.08,.02,.14,.09,.12,.18-.01,.07-.08,.12-.15,.12Z" fill="#363636"/>
  <rect x="161.44" y="51.22" width="8.24" height="8.24" fill="#fff"/>
  <circle cx="153.61" cy="105.54" r="1.37" fill="#ed2a5b"/>
  <path d="M154.97,107.69c-.84,0-1.52-.68-1.52-1.52s.68-1.52,1.52-1.52,1.52,.68,1.52,1.52-.68,1.52-1.52,1.52Zm0-2.73c-.67,0-1.22,.55-1.22,1.22s.55,1.22,1.22,1.22,1.22-.55,1.22-1.22-.55-1.22-1.22-1.22Z"/>
  <path d="M157.7,110.6c0-.75-.61-1.37-1.37-1.37s-1.37,.61-1.37,1.37,.61,1.37,1.37,1.37,1.37-.61,1.37-1.37Z" fill="#fff"/>
  <circle cx="82.42" cy="71.29" r="1.37" fill="#363636"/>
  <path d="M78.96,37.55c-11.61,1.34-9.21,16.14-9.21,16.14l23.03-5.11s-2.42-12.35-13.82-11.03Z" fill="#ffe6f0"/>
  <path d="M69.75,53.84s-.06,0-.08-.03c-.03-.02-.06-.06-.06-.1-.01-.08-1.21-7.77,2.41-12.57,1.62-2.14,3.95-3.4,6.93-3.74h0c5.97-.69,9.45,2.38,11.33,5.08,2.02,2.91,2.65,6.03,2.66,6.07,.02,.08-.04,.16-.12,.18l-23.03,5.11s-.02,0-.03,0Zm10.9-16.24c-.54,0-1.1,.03-1.67,.1-2.9,.34-5.16,1.55-6.73,3.63-3.26,4.31-2.52,11.06-2.37,12.18l22.72-5.04c-.15-.64-.84-3.31-2.58-5.82-2.33-3.35-5.48-5.05-9.37-5.05Zm-1.69-.05h0Z" fill="#363636"/>
  <path d="M144.45,37.55c22.23,4.23,10.17,35.09,4.75,56.56-6.17,24.41,1.99,60.62,25.06,60.62h-61.41c-23.06,0-31.23-36.21-25.06-60.62,5.42-21.46,13.67-56.56-8.83-56.56,0,0,36.3-5.55,65.49,0Z" fill="#fff"/>
  <path d="M174.25,154.88h-61.41c-6.79,0-12.6-3.05-17.28-9.06-4.53-5.82-7.79-14.41-9.17-24.18-1.32-9.36-.88-19.16,1.25-27.57,3.62-14.34,10.37-41.03,2.09-51.66-2.43-3.13-6.06-4.71-10.77-4.71-.08,0-.14-.06-.15-.14,0-.08,.05-.15,.13-.16,.09-.01,9.23-1.4,21.82-2.08,11.62-.63,28.64-.79,43.73,2.08,4.73,.9,8.21,3.09,10.34,6.51,5.8,9.33,1.07,26.39-3.11,41.44-.85,3.08-1.66,5.99-2.37,8.78-2.12,8.38-2.56,18.12-1.24,27.45,1.37,9.72,4.61,18.26,9.11,24.03,4.62,5.93,10.36,8.94,17.05,8.94,.08,0,.15,.07,.15,.15s-.07,.15-.15,.15ZM80.63,37.47c4.01,.34,7.14,1.94,9.34,4.76,3.59,4.61,4.76,12.34,3.59,23.63-.98,9.43-3.42,19.54-5.63,28.28-2.12,8.38-2.56,18.12-1.24,27.45,1.37,9.72,4.61,18.26,9.11,24.03,4.62,5.93,10.36,8.94,17.05,8.94h57.81c-5.26-.9-9.85-3.84-13.68-8.76-4.53-5.82-7.79-14.41-9.17-24.18-1.32-9.36-.88-19.16,1.25-27.57,.71-2.8,1.51-5.71,2.37-8.79,4.16-15,8.87-31.99,3.14-41.21-2.11-3.4-5.43-5.48-10.14-6.38-15.06-2.87-32.05-2.71-43.65-2.08-9.46,.52-16.96,1.43-20.14,1.85Z" fill="#363636"/>
  <rect x="112.27" y="55.78" width="27.34" height="7.97" rx="3.95" ry="3.95" fill="#ffd7e5"/>
  <circle cx="106.58" cy="76.39" r="5.7" transform="translate(-9.57 15.52) rotate(-7.97)" fill="#ed2a5b"/>
  <rect x="121.48" y="72.76" width="24.35" height="7.26" rx="3.6" ry="3.6" fill="#ffbdd6"/>
  <path d="M120.73,133.04h-14.19c-1.66,0-3.01-1.35-3.01-3.01h0c0-1.66,1.35-3.01,3.01-3.01h14.19c1.66,0,3.01,1.35,3.01,3.01h0c0,1.66-1.35,3.01-3.01,3.01Z" fill="#ffbdd6"/>
  <path d="M146.93,148.07h-21.8c-2.56,0-4.63-2.07-4.63-4.63h0c0-2.56,2.07-4.63,4.63-4.63h21.8c2.56,0,4.63,2.07,4.63,4.63h0c0,2.56-2.07,4.63-4.63,4.63Z" fill="#ffd7e5"/>
  <path d="M148.43,143.58h-22.21c-.08,0-.15-.07-.15-.15s.07-.15,.15-.15h22.21c.08,0,.15,.07,.15,.15s-.07,.15-.15,.15Z" fill="#fff"/>
  <polygon points="108.57 89.04 95.66 96.06 108.57 103.08 121.48 96.06 108.57 89.04" fill="#ffe6f0"/>
  <ellipse cx="101.73" cy="115.93" rx="9.1" ry="5.33" fill="#ffd7e5"/>
  <g>
    <path d="M142.55,115.16l-2.3,2.97c-5.01-4.85-10.55-9.13-16.5-12.77,.77-.99,1.53-1.98,2.3-2.97,5.01,4.85,10.55,9.13,16.5,12.77Z" fill="#ed2a5b"/>
    <path d="M129.06,120.04c-1.05-.68-2.1-1.36-3.16-2.04,4.41-5.41,8.21-11.29,11.33-17.52l3.16,2.04c-4.41,5.41-8.21,11.29-11.33,17.52Z" fill="#ed2a5b"/>
  </g>
  <g>
    <path d="M105.8,77.68c-.58,0-1.16-.22-1.6-.66-.88-.88-.88-2.31,0-3.19,.88-.88,2.31-.88,3.19,0h0c.88,.88,.88,2.31,0,3.19-.44,.44-1.02,.66-1.6,.66Zm0-4.21c-.5,0-1,.19-1.38,.57-.76,.76-.76,2,0,2.77,.76,.76,2,.76,2.77,0,.76-.76,.76-2,0-2.77h0c-.38-.38-.88-.57-1.38-.57Z" fill="#fff"/>
    <path d="M109.46,79.23s-.08-.01-.11-.04l-2.17-2.17c-.06-.06-.06-.15,0-.21,.06-.06,.15-.06,.21,0l2.17,2.17c.06,.06,.06,.15,0,.21-.03,.03-.07,.04-.11,.04Z" fill="#fff"/>
  </g>
  <path d="M127.84,59.91h-10.54c-.08,0-.15-.07-.15-.15s.07-.15,.15-.15h10.54c.08,0,.15,.07,.15,.15s-.07,.15-.15,.15Z" fill="#363636"/>
  <path d="M134.39,59.91h-4.08c-.08,0-.15-.07-.15-.15s.07-.15,.15-.15h4.08c.08,0,.15,.07,.15,.15s-.07,.15-.15,.15Z" fill="#363636"/>
  <path d="M134.07,76.54h-8.13c-.08,0-.15-.07-.15-.15s.07-.15,.15-.15h8.13c.08,0,.15,.07,.15,.15s-.07,.15-.15,.15Z" fill="#363636"/>
  <path d="M142.61,76.54h-7.02c-.08,0-.15-.07-.15-.15s.07-.15,.15-.15h7.02c.08,0,.15,.07,.15,.15s-.07,.15-.15,.15Z" fill="#363636"/>
  <g>
    <path d="M110.7,94.18h-4.25c-.08,0-.15-.07-.15-.15s.07-.15,.15-.15h4.25c.08,0,.15,.07,.15,.15s-.07,.15-.15,.15Z" fill="#363636"/>
    <path d="M114.26,96.2h-11.39c-.08,0-.15-.07-.15-.15s.07-.15,.15-.15h11.39c.08,0,.15,.07,.15,.15s-.07,.15-.15,.15Z" fill="#363636"/>
    <path d="M110.34,98.23h-3.54c-.08,0-.15-.07-.15-.15s.07-.15,.15-.15h3.54c.08,0,.15,.07,.15,.15s-.07,.15-.15,.15Z" fill="#363636"/>
  </g>
  <g>
    <path d="M105.4,115.32h-7.35c-.08,0-.15-.07-.15-.15s.07-.15,.15-.15h7.35c.08,0,.15,.07,.15,.15s-.07,.15-.15,.15Z" fill="#363636"/>
    <path d="M106.48,116.84h-9.5c-.08,0-.15-.07-.15-.15s.07-.15,.15-.15h9.5c.08,0,.15,.07,.15,.15s-.07,.15-.15,.15Z" fill="#363636"/>
  </g>
  <path d="M120.02,130.18h-12.72c-.08,0-.15-.07-.15-.15s.07-.15,.15-.15h12.72c.08,0,.15,.07,.15,.15s-.07,.15-.15,.15Z" fill="#fff"/>
  <g>
    <path d="M127.84,63.75l6.55,9.24-6.55-9.24Z" fill="#363636"/>
    <path d="M134.39,73.14s-.09-.02-.12-.06l-6.55-9.24c-.05-.07-.03-.16,.04-.21,.07-.05,.16-.03,.21,.04l6.55,9.24c.05,.07,.03,.16-.04,.21-.03,.02-.06,.03-.09,.03Z" fill="#363636"/>
  </g>
  <g>
    <path d="M116.26,63.75l-5.86,8.42,5.86-8.42Z" fill="#363636"/>
    <path d="M110.4,72.32s-.06,0-.09-.03c-.07-.05-.09-.14-.04-.21l5.86-8.42c.05-.07,.14-.09,.21-.04,.07,.05,.09,.14,.04,.21l-5.86,8.42s-.08,.06-.12,.06Z" fill="#363636"/>
  </g>
  <g>
    <path d="M125.11,80.02l-10.84,12.11,10.84-12.11Z" fill="#363636"/>
    <path d="M114.26,92.29s-.07-.01-.1-.04c-.06-.06-.07-.15-.01-.21l10.84-12.11c.06-.06,.15-.07,.21-.01,.06,.06,.07,.15,.01,.21l-10.84,12.11s-.07,.05-.11,.05Z" fill="#363636"/>
  </g>
  <g>
    <path d="M134.99,80.64s-.02,0-.04,0c-.08-.02-.13-.1-.11-.18,.07-.29,.15-.58,.23-.88,.02-.08,.1-.13,.18-.11,.08,.02,.13,.1,.11,.18-.08,.29-.15,.58-.23,.87-.02,.07-.08,.11-.15,.11Z" fill="#363636"/>
    <path d="M132.97,99.7c-.06,0-.12-.04-.14-.1-.21-.55-.38-1.11-.51-1.68-.02-.08,.03-.16,.11-.18,.08-.02,.16,.03,.18,.12,.12,.56,.29,1.11,.49,1.64,.03,.08,0,.16-.09,.19-.02,0-.04,.01-.05,.01Zm-.74-3.38c-.08,0-.15-.06-.15-.14-.01-.23-.02-.46-.02-.69,0-.36,.02-.72,.05-1.07,0-.08,.08-.14,.16-.14,.08,0,.14,.08,.14,.16-.03,.34-.05,.7-.05,1.04,0,.22,0,.45,.02,.67,0,.08-.06,.15-.14,.16h0Zm.34-3.44s-.03,0-.04,0c-.08-.02-.13-.1-.11-.18,.15-.56,.34-1.12,.58-1.66,.03-.08,.12-.11,.2-.08,.08,.03,.11,.12,.08,.2-.23,.52-.42,1.07-.57,1.62-.02,.07-.08,.11-.15,.11Zm6.87-1.15c-.58,0-1.18-.12-1.75-.35-.08-.03-.11-.12-.08-.2,.03-.08,.12-.11,.2-.08,.53,.21,1.09,.32,1.63,.32h0v.3h0Zm1.68-.39c-.05,0-.11-.03-.13-.08-.04-.07,0-.16,.06-.2l.05-.03c.45-.24,.84-.62,1.13-1.1,.04-.07,.14-.09,.21-.05,.07,.04,.09,.14,.05,.21-.32,.52-.75,.94-1.24,1.21l-.06,.03s-.05,.02-.07,.02Zm-4.83-.86s-.07-.01-.1-.04c-.06-.06-.12-.12-.18-.18-.35-.36-.65-.77-.91-1.22-.04-.07-.02-.16,.06-.21,.07-.04,.16-.01,.21,.06,.24,.43,.53,.82,.86,1.16,.06,.06,.11,.11,.17,.17,.06,.06,.07,.15,0,.21-.03,.03-.07,.05-.11,.05Zm-2.32-.76s-.06,0-.08-.02c-.07-.04-.09-.14-.05-.21,.32-.5,.67-.97,1.06-1.41,.06-.06,.15-.07,.21-.01,.06,.06,.07,.15,.01,.21-.38,.43-.72,.89-1.03,1.37-.03,.05-.08,.07-.13,.07Zm8.9-1.21h0c-.08,0-.15-.07-.14-.16,0-.04,0-.09,0-.13,0-.54-.14-1.03-.42-1.43-.05-.07-.03-.16,.04-.21,.07-.05,.16-.03,.21,.04,.31,.45,.47,1.01,.47,1.6,0,.05,0,.09,0,.14,0,.08-.07,.14-.15,.14Zm-8.29-1c-.07,0-.13-.04-.15-.11-.15-.55-.24-1.14-.28-1.74,0-.08,.06-.15,.14-.16,.09,0,.15,.06,.16,.14,.04,.58,.13,1.15,.27,1.68,.02,.08-.03,.16-.11,.18-.01,0-.03,0-.04,0Zm1.68-.39s-.09-.02-.12-.06c-.05-.06-.04-.16,.02-.21h.02c.49-.41,.98-.74,1.45-.98,.07-.04,.17,0,.2,.07,.04,.07,0,.16-.07,.2-.46,.23-.93,.54-1.4,.93h-.02s-.06,.05-.1,.05Zm4.8-1.29s-.03,0-.05,0c-.5-.18-1.08-.25-1.64-.18-.08,.01-.16-.05-.17-.13,0-.08,.05-.16,.13-.17,.6-.07,1.24,0,1.78,.2,.08,.03,.12,.12,.09,.19-.02,.06-.08,.1-.14,.1Zm-6.72-1.77h-.01c-.08,0-.14-.08-.14-.17,.05-.54,.14-1.1,.26-1.73,.02-.08,.1-.13,.18-.12,.08,.02,.13,.1,.12,.18-.12,.62-.21,1.17-.26,1.7,0,.08-.07,.14-.15,.14Z" fill="#363636"/>
    <path d="M134.21,102.04s-.09-.02-.12-.06c-.17-.25-.34-.51-.49-.77-.04-.07-.02-.16,.05-.21,.07-.04,.16-.02,.21,.05,.15,.26,.31,.51,.48,.75,.05,.07,.03,.16-.04,.21-.03,.02-.06,.03-.09,.03Z" fill="#363636"/>
  </g>
  <g>
    <path d="M134.25,116.98s-.07-.01-.1-.04c-.22-.2-.45-.38-.69-.55-.07-.05-.09-.14-.04-.21,.05-.07,.14-.09,.21-.04,.25,.17,.5,.36,.73,.57,.06,.06,.07,.15,.01,.21-.03,.03-.07,.05-.11,.05Z" fill="#363636"/>
    <path d="M135.22,135.52s-.06,0-.08-.03c-.07-.05-.09-.14-.04-.21,.31-.47,.59-.97,.81-1.49,.03-.08,.12-.11,.2-.08,.08,.03,.11,.12,.08,.2-.23,.54-.52,1.06-.84,1.54-.03,.04-.08,.07-.13,.07Zm1.36-3.17s-.02,0-.03,0c-.08-.02-.13-.1-.11-.18,.13-.56,.2-1.13,.22-1.69,0-.08,.07-.15,.16-.14,.08,0,.15,.07,.14,.16-.02,.58-.1,1.17-.23,1.74-.02,.07-.08,.12-.15,.12Zm.12-3.44c-.07,0-.14-.05-.15-.13-.07-.43-.17-.86-.31-1.27-.04-.13-.09-.25-.13-.37-.03-.08,0-.16,.09-.19,.08-.03,.16,0,.19,.09,.05,.13,.1,.26,.14,.39,.14,.42,.25,.87,.32,1.31,.01,.08-.04,.16-.13,.17h-.02Zm-4.36-.65c-.07,0-.14-.05-.15-.13-.01-.08,.05-.16,.13-.17,.5-.07,1.04-.29,1.53-.61,.07-.05,.16-.03,.21,.04,.05,.07,.03,.16-.04,.21-.53,.35-1.11,.59-1.66,.66h-.02Zm-1.62-.42s-.07-.01-.1-.04c-.04-.03-.08-.07-.12-.11-.34-.35-.53-.84-.53-1.38,0-.07,0-.13,0-.2,0-.08,.08-.15,.16-.14,.08,0,.14,.08,.14,.16,0,.06,0,.12,0,.18,0,.46,.16,.87,.44,1.16,.03,.03,.07,.06,.1,.09,.06,.05,.07,.15,.01,.21-.03,.03-.07,.05-.11,.05Zm4.45-1.43s-.06,0-.09-.03c-.07-.05-.08-.14-.03-.21,.11-.15,.22-.3,.32-.46-.02-.01-.04-.02-.05-.04-.29-.39-.63-.7-.99-.95-.08-.05-.16-.1-.25-.15-.07-.04-.1-.13-.06-.2,.04-.07,.13-.1,.2-.06,.09,.05,.19,.11,.27,.16,.38,.25,.73,.58,1.04,.98,.14-.24,.26-.49,.37-.74,.03-.08,.12-.11,.2-.08,.08,.03,.11,.12,.08,.2-.23,.55-.53,1.06-.88,1.53-.03,.04-.07,.06-.12,.06Zm-4.29-1.65s-.08-.02-.11-.05c-.05-.06-.05-.16,.01-.21,.06-.05,.12-.1,.18-.14,.43-.3,.95-.46,1.51-.48,.08,0,.15,.06,.15,.15,0,.08-.06,.15-.15,.15-.51,.01-.97,.16-1.35,.42-.05,.04-.1,.08-.15,.12-.03,.03-.06,.04-.1,.04Zm5.62-1.51h-.02c-.08-.01-.14-.09-.13-.17,.06-.35,.08-.7,.08-1.05,0-.21-.01-.43-.03-.64,0-.08,.05-.16,.14-.16,.08,0,.16,.05,.16,.14,.02,.22,.03,.44,.03,.66,0,.37-.03,.74-.09,1.1-.01,.07-.08,.13-.15,.13Zm-.33-3.41c-.06,0-.12-.04-.14-.1-.19-.53-.45-1.04-.77-1.51-.05-.07-.03-.16,.04-.21,.07-.05,.16-.03,.21,.04,.33,.49,.6,1.02,.8,1.57,.03,.08-.01,.16-.09,.19-.02,0-.03,0-.05,0Z" fill="#363636"/>
    <path d="M133.43,137.46s-.09-.02-.12-.06c-.05-.07-.04-.16,.03-.21,.23-.18,.45-.38,.67-.59,.06-.06,.15-.06,.21,0,.06,.06,.06,.15,0,.21-.22,.22-.45,.42-.69,.61-.03,.02-.06,.03-.09,.03Z" fill="#363636"/>
  </g>
  <g>
    <path d="M103.79,100.48l-2.07,10.13,2.07-10.13Z" fill="#363636"/>
    <path d="M101.73,110.75s-.02,0-.03,0c-.08-.02-.13-.1-.12-.18l2.07-10.13c.02-.08,.1-.13,.18-.12,.08,.02,.13,.1,.12,.18l-2.07,10.13c-.01,.07-.08,.12-.15,.12Z" fill="#363636"/>
  </g>
  <path d="M115.67,126.58s-.08-.02-.11-.05c-1.74-2.04-2.02-5.21-.67-7.53,.54-.92,1.28-1.62,2.1-1.99,.02-.09,.05-.19,.07-.29,.91-3.42,3.86-6.17,7.33-6.85,.08-.02,.16,.04,.18,.12,.02,.08-.04,.16-.12,.18-3.36,.66-6.21,3.33-7.09,6.63l-.02,.07c.09-.03,.19-.06,.28-.08,1.27-.3,2.63,.25,3.16,1.29,.29,.57,.29,1.31-.02,1.94-.27,.56-.73,.94-1.27,1.04-1.07,.21-2.03-.6-2.4-1.46-.26-.63-.32-1.36-.18-2.22-.68,.36-1.3,.98-1.76,1.77-1.29,2.21-1.03,5.23,.64,7.18,.05,.06,.05,.16-.02,.21-.03,.02-.06,.04-.1,.04Zm1.58-9.35c-.18,.89-.14,1.64,.12,2.26,.32,.77,1.18,1.45,2.06,1.28,.44-.09,.83-.41,1.06-.88,.26-.54,.27-1.18,.02-1.67-.47-.92-1.69-1.41-2.82-1.14-.15,.03-.29,.08-.43,.14Z" fill="#363636"/>
  <g>
    <path d="M103.05,41.97l.87,4.42c.16,.71,.06,1.27-.29,1.68-.35,.42-.88,.62-1.6,.61-.66-.01-1.26-.21-1.78-.6s-.88-.89-1.08-1.52l-.05-.17-.87-4.42h1.12l.87,4.43c.1,.42,.28,.75,.55,.98,.26,.24,.59,.36,.96,.37,.41,.01,.71-.1,.9-.33,.19-.23,.24-.57,.15-1l-.87-4.45h1.12Z" fill="#262626"/>
    <path d="M108.57,46.84c-.09-.44-.45-.76-1.07-.97l-.42-.14c-.77-.24-1.36-.52-1.77-.85-.41-.33-.68-.71-.81-1.14-.11-.38-.11-.71,.02-.99,.13-.29,.35-.51,.67-.66,.32-.15,.7-.23,1.13-.22,.41,0,.81,.1,1.2,.27,.38,.17,.72,.41,1,.71,.28,.3,.49,.65,.62,1.04h-1.12c-.11-.35-.28-.62-.52-.81-.24-.19-.54-.29-.9-.3-.36,0-.62,.08-.81,.25-.18,.17-.24,.41-.17,.7,.08,.38,.45,.69,1.1,.91l.39,.12c.78,.25,1.37,.54,1.77,.87,.4,.33,.66,.73,.8,1.19,.11,.37,.1,.7-.01,.97-.11,.28-.33,.49-.66,.64-.32,.15-.72,.22-1.18,.22-.43,0-.86-.09-1.28-.27-.42-.18-.78-.43-1.08-.74-.3-.32-.52-.68-.65-1.08h1.12c.11,.38,.31,.67,.59,.87,.28,.2,.62,.31,1.01,.31,.37,0,.64-.07,.83-.23,.18-.16,.25-.39,.19-.69Z" fill="#262626"/>
    <path d="M114.22,45.63h-2.63l.39,2.03h3.08l.18,.92h-4.2l-1.28-6.61h4.17l.18,.93h-3.05l.35,1.82h2.64l.17,.91Z" fill="#262626"/>
    <path d="M118.08,46.04h-1.26l.49,2.54h-1.12l-1.27-6.61h2.09c.72,0,1.33,.18,1.84,.52,.51,.35,.85,.83,1.02,1.44,.12,.43,.12,.8-.02,1.11-.14,.31-.4,.56-.79,.74l1.98,2.73,.02,.07h-1.19l-1.78-2.54Zm-1.45-.93h1.09c.39,0,.68-.09,.87-.3,.19-.2,.24-.48,.16-.83-.08-.34-.24-.6-.47-.79-.23-.18-.52-.28-.87-.29h-1.2l.43,2.21Z" fill="#262626"/>
    <path d="M128.95,47.72c-.13,.31-.38,.55-.76,.71-.38,.16-.85,.24-1.39,.23-.44,0-.86-.1-1.26-.29-.4-.19-.77-.47-1.1-.84-.33-.37-.59-.79-.79-1.26-.15-.36-.29-.83-.4-1.39-.11-.56-.12-1.06-.03-1.5,.09-.44,.27-.78,.53-1.03,.36-.34,.86-.5,1.48-.49,.67,.01,1.25,.2,1.76,.57,.51,.37,.91,.89,1.2,1.55h-1.09c-.35-.78-.87-1.18-1.57-1.2-.52-.02-.88,.17-1.07,.54-.19,.38-.22,.92-.08,1.63,.08,.41,.17,.75,.26,1.01,.18,.54,.43,.97,.77,1.28,.33,.31,.7,.47,1.12,.48,.53,.01,.92-.12,1.16-.39l-.23-1.29h-1.33l-.16-.87h2.43l.54,2.53Z" fill="#262626"/>
    <path d="M133.75,41.97l.87,4.42c.16,.71,.06,1.27-.29,1.68-.35,.42-.88,.62-1.6,.61-.66-.01-1.26-.21-1.78-.6-.52-.39-.88-.89-1.08-1.52l-.05-.17-.87-4.42h1.12l.87,4.43c.1,.42,.28,.75,.55,.98,.26,.24,.59,.36,.96,.37,.41,.01,.71-.1,.9-.33,.19-.23,.24-.57,.15-1l-.87-4.45h1.12Z" fill="#262626"/>
    <path d="M137.43,48.58h-1.12l-1.27-6.61h1.12l1.27,6.61Z" fill="#262626"/>
    <path d="M138.84,48.58l-1.28-6.61h1.79c.55,0,1.08,.14,1.57,.42,.5,.27,.92,.65,1.28,1.13,.36,.48,.6,1.01,.75,1.6l.08,.36c.13,.61,.13,1.15,0,1.62-.14,.47-.4,.84-.8,1.1-.39,.26-.89,.39-1.47,.39h-1.92Zm.02-5.68l.92,4.77h.66c.6,0,1.03-.19,1.28-.57,.26-.38,.32-.9,.18-1.57-.09-.46-.21-.86-.35-1.2-.19-.44-.44-.78-.76-1.03-.32-.25-.68-.38-1.09-.39h-.84Z" fill="#262626"/>
    <path d="M147.96,45.63h-2.63l.39,2.03h3.08l.18,.92h-4.2l-1.28-6.61h4.17l.18,.93h-3.05l.35,1.82h2.64l.17,.91Z" fill="#262626"/>
  </g>
  <g>
    <g>
      <path d="M181.64,146.56c.95,3.48,4.56,3.86,4.56,6.39-4.9,1.58-6.26-1.14-9.3-2.34l-.51-4.05h5.25Z" fill="#fff"/>
      <path d="M183.46,153.58c-1.85,0-3.08-.78-4.36-1.6-.7-.44-1.42-.9-2.27-1.24-.05-.02-.09-.07-.09-.12l-.51-4.05s0-.09,.04-.12c.03-.03,.07-.05,.11-.05h5.25c.07,0,.13,.05,.15,.11,.47,1.72,1.62,2.67,2.63,3.51,.99,.82,1.93,1.6,1.93,2.92,0,.07-.04,.12-.1,.14-1.08,.35-1.98,.49-2.78,.49Zm-6.43-3.08c.84,.34,1.55,.79,2.24,1.23,1.75,1.11,3.4,2.16,6.77,1.11-.05-1.11-.87-1.79-1.82-2.57-1.03-.85-2.19-1.81-2.7-3.56h-4.97l.47,3.79Z"/>
    </g>
    <path d="M183.88,152.58c-1.85,0-3.09-.73-4.29-1.44-.9-.53-1.74-1.03-2.84-1.25-.08-.02-.13-.1-.12-.18,.02-.08,.1-.13,.18-.12,1.15,.23,2.06,.77,2.94,1.29,1.57,.93,3.19,1.89,6.27,1.11,.08-.02,.16,.03,.18,.11,.02,.08-.03,.16-.11,.18-.83,.21-1.56,.3-2.21,.3Z"/>
    <path d="M182.22,150.92s-.08-.01-.11-.04c-.06-.06-.06-.15,0-.21,.04-.04,.87-.86,2.02-.82,.08,0,.15,.07,.14,.16,0,.08-.07,.15-.16,.14-1.02-.04-1.79,.72-1.8,.73-.03,.03-.07,.04-.11,.04Z"/>
    <path d="M181.53,150.14s-.07-.01-.1-.04c-.06-.06-.07-.15-.01-.21,.03-.03,.72-.79,1.75-.9,.08-.01,.16,.05,.17,.13,0,.08-.05,.16-.13,.17-.91,.11-1.55,.8-1.56,.81-.03,.03-.07,.05-.11,.05Z"/>
    <path d="M180.78,149.57s-.06,0-.09-.03c-.07-.05-.08-.14-.04-.21,.03-.04,.68-.93,1.9-1.04,.08,0,.16,.05,.16,.14,0,.08-.05,.16-.14,.16-1.08,.09-1.67,.9-1.68,.91-.03,.04-.08,.06-.12,.06Z"/>
  </g>
  <g>
    <g>
      <path d="M156.27,146.56c-.95,3.48-4.56,3.86-4.56,6.39,4.9,1.58,6.26-1.14,9.3-2.34l.51-4.05h-5.25Z" fill="#fff"/>
      <path d="M154.45,153.58c-.79,0-1.7-.14-2.78-.49-.06-.02-.1-.08-.1-.14,0-1.32,.94-2.09,1.93-2.92,1.01-.84,2.16-1.79,2.63-3.51,.02-.07,.08-.11,.15-.11h5.25s.08,.02,.11,.05c.03,.03,.04,.08,.04,.12l-.51,4.05c0,.05-.04,.1-.09,.12-.85,.33-1.57,.79-2.27,1.24-1.28,.81-2.51,1.6-4.36,1.6Zm-2.58-.74c3.38,1.06,5.03,0,6.77-1.11,.69-.44,1.4-.89,2.23-1.23l.47-3.79h-4.97c-.51,1.74-1.67,2.7-2.7,3.56-.95,.78-1.77,1.47-1.82,2.57Z"/>
    </g>
    <path d="M154.03,152.58c-.65,0-1.38-.09-2.21-.3-.08-.02-.13-.1-.11-.18,.02-.08,.1-.13,.18-.11,3.07,.78,4.7-.18,6.27-1.11,.88-.52,1.79-1.06,2.94-1.29,.08-.02,.16,.04,.18,.12,.02,.08-.04,.16-.12,.18-1.1,.22-1.94,.72-2.84,1.25-1.2,.71-2.43,1.44-4.29,1.44Z"/>
    <path d="M155.69,150.92s-.08-.01-.11-.04c0,0-.78-.77-1.8-.73-.08,0-.15-.06-.16-.14,0-.08,.06-.15,.14-.16,1.15-.05,1.99,.78,2.02,.82,.06,.06,.06,.15,0,.21-.03,.03-.07,.04-.11,.04Z"/>
    <path d="M156.38,150.14s-.08-.02-.11-.05c0,0-.65-.7-1.56-.81-.08,0-.14-.08-.13-.17,0-.08,.08-.14,.17-.13,1.02,.12,1.72,.87,1.75,.9,.06,.06,.05,.16-.01,.21-.03,.03-.07,.04-.1,.04Z"/>
    <path d="M157.13,149.57s-.09-.02-.12-.06c0-.01-.6-.82-1.68-.91-.08,0-.14-.08-.14-.16,0-.08,.08-.15,.16-.14,1.22,.11,1.87,1,1.9,1.04,.05,.07,.03,.16-.04,.21-.03,.02-.06,.03-.09,.03Z"/>
  </g>
  <path d="M172.38,77.96c-5.58,.84-10.66,7.21-21.92,.98,0,0-1.99,1.04-2.28,4.27,0,0,8.23,9.43,20.85,5.27,7.88-2.6,6.05-10.92,3.35-10.52Z" fill="#ed2a5b" stroke="#363636" stroke-miterlimit="10" stroke-width=".5"/>
  <path d="M149.08,84.26s-.09-.02-.12-.05c-.05-.06-.04-.16,.02-.21,.02-.02,2.07-1.75,2.55-4.44,.01-.08,.09-.14,.18-.12,.08,.01,.14,.09,.12,.18-.5,2.8-2.57,4.54-2.65,4.62-.03,.02-.06,.03-.1,.03Z"/>
  <path d="M183.6,93.27s-2.66,35.82,0,54.42c0,0-3.67,2.11-8.99,.4l-2.57-41.92-9.02,41.39s-4.86,2.28-9.42-.57c0,0,7.82-35.27,11.95-55.63,0,0,9.12-1.9,18.04,1.9Z" fill="#363636"/>
  <path d="M186.21,82.26l-2.61,11.01s-9.45,2.79-18.04-1.9c0,0,2.43-11.67,5.85-13.1,3.42-1.42,16.17-1.76,14.81,3.99Z" fill="#ed2a5b" stroke="#363636" stroke-miterlimit="10" stroke-width=".5"/>
  <path d="M186.09,82.76c2.87-3.12,7.95-9.33,7.76-11.61-.19-2.28-12.53-6.64-12.53-6.64,0,0-2.09,1.61-1.42,3.8l5.77,4.15s-2.96,3.27-4.41,5.22c-2.88,3.88,2.03,8.12,4.83,5.08Z" fill="#ed2a5b" stroke="#363636" stroke-miterlimit="10" stroke-width=".5"/>
  <path d="M176.3,94.27c-2.66,0-4.77-.37-6.3-.79-2.99-.81-4.47-1.95-4.54-2-.05-.04-.07-.1-.05-.16l1.94-7.63c.02-.08,.1-.13,.18-.11,.08,.02,.13,.1,.11,.18l-1.91,7.53c.74,.52,6.69,4.32,17.84,1.81,.08-.02,.16,.03,.18,.11,.02,.08-.03,.16-.11,.18-2.78,.62-5.23,.86-7.33,.86Z"/>
  <g>
    <path d="M180.71,77.59s-3.51,4.86-5.15,4.48c-1.64-.38-.95-4.51-.95-4.51l.95-.09,1.27-3.25,3.48-.38s-1.43,3.82,.4,3.75Z" fill="#fff"/>
    <path d="M175.75,82.24c-.08,0-.15,0-.22-.02-1.76-.41-1.09-4.5-1.06-4.68,.01-.07,.07-.12,.13-.13l.86-.08,1.24-3.17c.02-.05,.07-.09,.12-.1l3.48-.38c.05,0,.1,.02,.14,.06,.03,.04,.04,.1,.02,.15-.26,.69-.82,2.62-.33,3.3,.13,.18,.32,.26,.58,.25,.06,0,.11,.03,.14,.08,.03,.05,.02,.11-.01,.16,0,.01-.9,1.23-1.97,2.39-1.33,1.44-2.38,2.16-3.11,2.16Zm-1.01-4.54c-.18,1.18-.34,3.95,.85,4.22,1.2,.28,3.76-2.75,4.84-4.2-.23-.05-.41-.16-.55-.35-.57-.8-.01-2.69,.21-3.35l-3.15,.34-1.24,3.17c-.02,.05-.07,.09-.13,.1l-.83,.08Z"/>
  </g>
  <g>
    <ellipse cx="178.38" cy="70.68" rx="5.84" ry="3.32" transform="translate(32.57 195.39) rotate(-62.16)" fill="#fff"/>
    <path d="M176.62,76.22c-.37,0-.72-.08-1.04-.25-1.69-.89-1.82-4-.27-6.92,1.54-2.92,4.17-4.57,5.87-3.67,.83,.44,1.32,1.41,1.36,2.74,.04,1.29-.34,2.78-1.09,4.18-.74,1.4-1.75,2.56-2.84,3.25-.7,.44-1.38,.67-1.99,.67Zm3.52-10.79c-1.49,0-3.36,1.48-4.56,3.76-1.46,2.77-1.4,5.69,.15,6.51,.74,.39,1.7,.24,2.72-.41,1.05-.67,2.02-1.78,2.74-3.14h0c.72-1.36,1.09-2.79,1.05-4.03-.04-1.21-.46-2.09-1.2-2.48-.27-.15-.58-.21-.9-.21Z"/>
  </g>
  <path d="M181.48,71.91s-3.47,.19-.77-4.18c-1.71-2.47-4.17-.27-4.17-.27-4.19-3.34,6.12-6.25,6.07-.9,3.03,1.65-1.13,5.35-1.13,5.35Z"/>
  <g>
    <path d="M150.49,79.85s-.13,1.2-1.71,2.97c0,0-2.97-2.47-2.97-2.97s2.37-2.46,2.37-2.46c0,0-.54-3.11,.22-3.17,.76-.06,2.09,5.64,2.09,5.64Z" fill="#fff"/>
    <path d="M148.78,82.98s-.07-.01-.1-.03c-2.81-2.33-3.03-2.95-3.03-3.09,0-.52,1.73-2,2.36-2.52-.08-.5-.38-2.52,.06-3.09,.08-.11,.19-.17,.31-.18,.3-.02,.7,.3,1.48,2.9,.42,1.4,.76,2.84,.76,2.85,0,.02,0,.03,0,.05,0,.05-.15,1.27-1.75,3.06-.03,.03-.07,.05-.11,.05Zm-.37-8.61h0s-.06,.01-.1,.06c-.3,.38-.15,2,.01,2.94,0,.05-.01,.11-.05,.14-1.11,.92-2.32,2.08-2.32,2.35,.02,.28,1.45,1.63,2.81,2.76,1.32-1.52,1.54-2.59,1.57-2.76-.05-.21-.36-1.51-.75-2.8-.8-2.64-1.15-2.69-1.17-2.69Z"/>
  </g>
  <path d="M147.48,80.04s-.05,0-.07-.02c-.07-.04-.1-.13-.07-.2,.03-.06,.72-1.38,1.69-1.39h0c.57,0,1.1,.45,1.58,1.35,.04,.07,.01,.16-.06,.2-.07,.04-.16,.01-.2-.06-.42-.79-.86-1.19-1.31-1.19h0c-.79,0-1.42,1.21-1.42,1.22-.03,.05-.08,.08-.13,.08Z"/>
  <path d="M187.41,73.68s-.05,0-.08-.02l-1.74-1.07c-.07-.04-.09-.14-.05-.21,.04-.07,.14-.09,.21-.05l1.74,1.07c.07,.04,.09,.14,.05,.21-.03,.05-.08,.07-.13,.07Z"/>
  <g>
    <path d="M182.1,72.79c-.63,.75-1.61,.96-2.18,.47-.57-.49-.52-1.49,.11-2.23s1.61-.96,2.18-.47,.52,1.49-.11,2.23Z" fill="#fff"/>
    <path d="M180.66,73.68c-.32,0-.61-.1-.85-.3-.06-.05-.07-.15-.02-.21,.05-.06,.15-.07,.21-.02,.24,.2,.57,.27,.94,.19,.38-.08,.75-.31,1.03-.65,.28-.34,.45-.73,.47-1.12,.02-.37-.1-.69-.34-.9-.24-.2-.57-.27-.94-.19-.38,.08-.75,.31-1.03,.65-.05,.06-.15,.07-.21,.02-.06-.05-.07-.15-.02-.21,.33-.39,.75-.65,1.2-.75,.46-.1,.88,0,1.2,.26,.31,.27,.47,.67,.45,1.14-.02,.45-.22,.92-.54,1.3-.33,.39-.75,.65-1.2,.75-.12,.03-.24,.04-.35,.04Z"/>
  </g>
  <path d="M172.04,106.33c-.08,0-.14-.06-.15-.14l-.42-5.22c0-.08,.06-.16,.14-.16,.09,0,.16,.06,.16,.14l.42,5.22c0,.08-.06,.16-.14,.16h-.01Z" fill="#f0f0f0"/>
  <path d="M182.91,101.59c-.94,0-1.71-.31-2.29-.91-1.47-1.52-1.26-4.37-1.25-4.49,0-.08,.08-.14,.16-.14,.08,0,.14,.08,.14,.16,0,.03-.21,2.83,1.16,4.25,.57,.59,1.33,.86,2.28,.81,.08,0,.15,.06,.16,.14,0,.08-.06,.15-.14,.16-.07,0-.15,0-.22,0Z" fill="#f0f0f0"/>
  <path d="M112.84,154.72c12.24-1.57,15.8-12.96,15.8-12.96h52.77s-.63,13.17-7.17,13.17c-11.63,0-19.27-.21-61.41-.21Z" fill="#fff"/>
  <path d="M174.25,155.09c-4,0-7.61-.03-12.17-.06-8.61-.06-21.61-.15-49.24-.15-.08,0-.15-.06-.15-.14,0-.08,.05-.15,.13-.16,6.27-.8,10.2-4.25,12.39-7,2.38-2.99,3.28-5.82,3.29-5.85,.02-.06,.08-.11,.14-.11h52.77s.08,.02,.11,.05c.03,.03,.04,.07,.04,.11,0,.03-.17,3.35-1.14,6.62-1.3,4.38-3.43,6.69-6.18,6.69Zm-59.65-.51c26.43,0,39.06,.09,47.48,.15,4.56,.03,8.16,.06,12.16,.06,5.93,0,6.91-11.38,7.01-12.87h-52.51c-.19,.55-1.15,3.13-3.3,5.83-2.02,2.53-5.48,5.65-10.85,6.82Z" fill="#363636"/>
</svg>