<?xml version="1.0" encoding="UTF-8"?>
<svg id="Layer_1" data-name="Layer 1" xmlns="http://www.w3.org/2000/svg" viewBox="0 0 270 186">
  <ellipse cx="135" cy="160.69" rx="85.48" ry="6.5" fill="#ffe6f0" opacity=".8"/>
  <rect x="163.12" y="49.65" width="41.37" height="70.07" fill="#f0f0f0"/>
  <path d="M204.74,119.98h-41.88V49.39h41.88V119.98Zm-41.37-.51h40.86V49.9h-40.86V119.47Z" fill="#5b72b6"/>
  <rect x="162.51" y="67.81" width="42.22" height="2.16" fill="#909090"/>
  <rect x="162.33" y="84.5" width="42.39" height="2.17" fill="#909090"/>
  <rect x="162.28" y="102.05" width="42.39" height="2.17" fill="#909090"/>
  <rect x="162.12" y="48.93" width="1.88" height="72.33" fill="#909090"/>
  <rect x="203.37" y="48.93" width="1.88" height="72.45" fill="#909090"/>
  <rect x="162.12" y="48.62" width="43.19" height="2.16" fill="#909090"/>
  <rect x="162" y="119.12" width="43.31" height="2.17" fill="#f0f0f0"/>
  <rect x="170.25" y="29.92" width="5.38" height="19.67" rx=".4" ry=".4" fill="#363636"/>
  <rect x="171.22" y="31.51" width="3.43" height="1.78" fill="#f0f0f0"/>
  <rect x="176.21" y="29.82" width="5.38" height="19.67" rx="2.22" ry="2.22" fill="#909090"/>
  <rect x="177.09" y="45.55" width="3.9" height=".99" fill="#f0f0f0"/>
  <rect x="177.11" y="43.99" width="3.9" height=".99" fill="#f0f0f0"/>
  <path d="M183.8,30.96l-.19-3.68c0-.15,.15-.22,.24-.12l.6,.72c.06,.08,.17,.06,.22-.03l.39-.79c.07-.14,.25-.09,.26,.07l.18,3.86c0,.09-.06,.17-.14,.17l-1.42-.05c-.07,0-.13-.07-.13-.15Z" fill="#909090"/>
  <rect x="182.26" y="29.82" width="5.38" height="19.67" rx=".38" ry=".38" fill="#363636"/>
  <rect x="183.46" y="31.7" width="2.97" height=".92" fill="#f0f0f0"/>
  <rect x="183.46" y="33.18" width="2.97" height=".92" fill="#f0f0f0"/>
  <path d="M193.61,48.82l-3.2,.42c-.22,.03-.42-.13-.45-.35l-2.38-18.71c-.03-.22,.13-.42,.34-.45l3.2-.42c.22-.03,.42,.13,.45,.35l2.38,18.71c.03,.22-.13,.42-.34,.45Z" fill="#909090"/>
  <polygon points="191.21 32.71 188.67 33.04 188.44 31.27 190.99 30.94 191.21 32.71" fill="#f0f0f0"/>
  <path d="M198.86,48.17l-3.04,.7c-.26,.06-.52-.1-.58-.37l-3.58-15.91c-.06-.26,.1-.52,.36-.58l3.04-.7c.26-.06,.52,.1,.58,.37l3.58,15.91c.06,.26-.1,.52-.36,.58Z" fill="#909090"/>
  <polygon points="198.32 45.63 195.44 46.3 195.25 45.45 198.13 44.79 198.32 45.63" fill="#f0f0f0"/>
  <polygon points="198.03 44.29 195.15 44.96 194.96 44.11 197.84 43.44 198.03 44.29" fill="#f0f0f0"/>
  <path d="M129.85,108.87v3.69c0,5.29,4.16,9.59,9.3,9.59s9.3,4.29,9.3,9.59c0,.47-.38,.85-.85,.85h-24.61c-7.7,0-13.94-6.43-13.94-14.37v-9.83c0-3.16,2.48-5.72,5.54-5.72h9.25c3.32,0,6.01,2.77,6.01,6.2Z" fill="#909090"/>
  <rect x="129.88" y="131.76" width="2.59" height="28.09" fill="#909090"/>
  <polygon points="143.32 159.44 131.86 158.42 130.81 158.42 119.1 159.44 119.1 160.24 143.32 160.24 143.32 159.44" fill="#909090"/>
  <polygon points="125.49 133.09 121.98 135.45 123.76 137.56 127.8 135.57 125.49 133.09" fill="#fff"/>
  <path d="M123.76,137.81c-.07,0-.14-.03-.19-.09l-1.78-2.11c-.05-.06-.07-.13-.06-.2,.01-.07,.05-.14,.11-.18l3.51-2.36c.1-.07,.24-.05,.33,.04l2.31,2.49c.05,.06,.08,.14,.06,.22-.01,.08-.07,.15-.14,.18l-4.04,1.98s-.07,.03-.11,.03Zm-1.4-2.31l1.47,1.74,3.56-1.74-1.93-2.08-3.1,2.08Z" fill="#363636"/>
  <path d="M122.58,134.38c-.53,.33-1.5,.95-2.3,1.59-.5,.41-.61,1.13-.27,1.67,.97,1.54,3.38,4.87,5.83,7.36,.17,.17,.57,.39,1.1,.1,1.83-.99-.12-4.11-1.44-8.11l-.94-.11c-.5-.06-.92-.41-1.06-.89l-.42-1.42c-.07-.22-.32-.32-.52-.2Z" fill="#ffd7e5"/>
  <path d="M126.44,145.5c-.33,0-.6-.14-.77-.31-2.46-2.5-4.86-5.8-5.87-7.41-.41-.66-.27-1.52,.32-2,.81-.66,1.8-1.29,2.32-1.61,.16-.1,.36-.12,.53-.05,.18,.07,.31,.21,.36,.4l.42,1.42c.11,.39,.45,.67,.85,.71l1.1,.12,.05,.16c.33,.99,.7,1.96,1.03,2.8,1.04,2.66,1.85,4.75,.28,5.61-.23,.12-.44,.17-.64,.17Zm-3.73-10.9c-.51,.31-1.48,.93-2.27,1.57-.4,.32-.49,.9-.21,1.34,1,1.59,3.37,4.85,5.8,7.32,.05,.05,.34,.3,.8,.05,1.12-.61,.56-2.21-.52-4.97-.32-.81-.67-1.72-.99-2.67l-.78-.09c-.6-.07-1.1-.49-1.28-1.07l-.42-1.42s-.04-.06-.06-.06c-.02,0-.05-.01-.08,0Z" fill="#363636"/>
  <path d="M120.41,135.88s-.08,.06-.12,.1c-.5,.41-.61,1.13-.27,1.67,.97,1.54,3.38,4.87,5.83,7.36,.17,.17,.57,.39,1.1,.1,.16-.09,.4-.32,.4-.32l-.17-.18c-2.37-2.61-4.55-5.4-6.52-8.33l-.27-.4Z" fill="#fff"/>
  <path d="M126.44,145.5c-.33,0-.6-.14-.77-.31-2.46-2.5-4.86-5.8-5.87-7.41-.41-.66-.27-1.52,.32-2l.12-.1c.06-.04,.13-.06,.2-.05,.07,.01,.13,.05,.17,.11l.27,.4c1.95,2.91,4.14,5.71,6.5,8.3l.17,.18c.09,.1,.09,.26-.01,.36-.03,.03-.27,.25-.46,.36-.23,.12-.44,.17-.64,.17Zm-6.09-9.25c-.32,.33-.37,.85-.12,1.25,1,1.59,3.37,4.85,5.8,7.32,.05,.05,.34,.3,.8,.05,.04-.02,.1-.07,.16-.11-2.37-2.61-4.57-5.42-6.53-8.35l-.11-.16Z" fill="#363636"/>
  <g>
    <path d="M126.16,139.55h-.02l-1.79-.14c-.14-.01-.24-.13-.23-.27,.01-.14,.13-.24,.27-.23l1.79,.14c.14,.01,.24,.13,.23,.27-.01,.13-.12,.23-.25,.23Z" fill="#363636"/>
    <path d="M125.02,140.79c-.14,0-.25-.11-.25-.25,0-.14,.11-.25,.25-.25h1.74c.14,0,.25,.11,.25,.25,0,.14-.11,.25-.25,.25h-1.74Z" fill="#363636"/>
  </g>
  <path d="M147.27,153.49c.35,1.31,.44,2.68,.26,4.03l5.25-.88c-1.3-.49-2.29-1.56-2.68-2.9l-.3-1.02-2.52,.76Z" fill="#fff"/>
  <path d="M147.53,157.77c-.07,0-.13-.03-.18-.07-.06-.06-.09-.14-.08-.22,.17-1.32,.09-2.65-.25-3.93-.04-.13,.04-.27,.17-.31l2.52-.76c.06-.02,.13-.01,.19,.02,.06,.03,.1,.09,.12,.15l.3,1.02c.37,1.25,1.31,2.27,2.53,2.73,.11,.04,.17,.15,.16,.26-.01,.11-.1,.21-.21,.23l-5.25,.88s-.03,0-.04,0Zm.05-4.11c.28,1.17,.36,2.36,.24,3.55l4.13-.69c-1-.6-1.76-1.57-2.1-2.7l-.23-.77-2.05,.62Z" fill="#363636"/>
  <path d="M147.34,155.83c-.17,.66-.52,2.5-.66,3.61-.09,.69,.37,1.34,1.04,1.51,1.91,.47,6.46,.36,10.25,.45,.26,0,.74-.13,.93-.76,.68-2.16-3.4-2.72-7.43-4.86,0,0-.23,.2-.58,.38-.58,.31-1.53,.29-2.1-.04l-.92-.52c-.22-.12-.49,0-.56,.24Z" fill="#ffd7e5"/>
  <path d="M157.99,161.65h-.02c-.97-.02-2-.03-3-.04-3.01-.03-5.85-.05-7.31-.41-.81-.2-1.34-.97-1.23-1.79,.14-1.1,.48-2.95,.66-3.64,.05-.19,.18-.35,.37-.43,.18-.08,.39-.07,.56,.03l.92,.52c.51,.29,1.36,.31,1.85,.04,.32-.17,.53-.35,.53-.35l.13-.11,.15,.08c1.24,.66,2.49,1.17,3.6,1.62,2.51,1.02,4.49,1.83,3.95,3.54-.22,.69-.76,.94-1.16,.94Zm-10.41-5.75c-.17,.66-.52,2.52-.65,3.57-.07,.56,.3,1.09,.85,1.23,1.39,.34,4.34,.37,7.19,.4,1,0,2.04,.02,3.01,.04,.08,0,.51-.02,.69-.58,.38-1.21-1.06-1.86-3.65-2.92-1.08-.44-2.29-.93-3.5-1.56-.11,.08-.28,.19-.48,.31-.64,.35-1.69,.33-2.35-.04l-.92-.52s-.09-.02-.11,0c-.02,0-.06,.03-.07,.09Z" fill="#363636"/>
  <path d="M146.58,159.94v.04c-.09,.69,.58,1.11,1.21,1.39,1.93,.85,9.75,.15,9.75,.15,0,0,1.05,.01,1.33-.62,.04-.09,.06-.23,.07-.35,0-.12,0-.25-.03-.37l-.07-.28c-1.06,.43-5.86,.75-9.34,.32-1.46-.18-2.3-.81-2.79-1.05,0,0-.07,.38-.14,.78Z" fill="#fff"/>
  <path d="M151.81,162.05c-1.72,0-3.35-.11-4.12-.45-.41-.18-1.49-.66-1.37-1.65v-.05c.08-.4,.15-.78,.15-.78,.01-.08,.06-.15,.14-.18,.07-.04,.16-.04,.23,0,.1,.05,.21,.11,.33,.18,.5,.28,1.25,.71,2.38,.85,3.43,.43,8.17,.12,9.21-.3,.07-.03,.14-.02,.21,.01,.07,.03,.11,.09,.13,.17l.07,.28c.04,.15,.05,.3,.04,.45-.01,.18-.04,.32-.09,.43-.33,.74-1.41,.77-1.55,.77-.28,.02-3.12,.27-5.75,.27Zm-4.9-2.49c-.02,.13-.05,.28-.08,.43h0v.03c-.06,.42,.27,.77,1.07,1.12,1.85,.82,9.55,.14,9.63,.13h.03c.25,0,.91-.08,1.09-.47,.01-.02,.04-.09,.05-.26,0-.09,0-.19-.02-.29v-.02c-1.49,.4-5.86,.66-9.19,.24-1.23-.15-2.03-.61-2.57-.91h0Zm-.33,.38h0Z" fill="#363636"/>
  <g>
    <path d="M151.92,157.81c-.07,0-.15-.03-.2-.1-.09-.11-.07-.27,.04-.36l1.13-.89c.11-.09,.27-.07,.36,.04,.09,.11,.07,.27-.04,.36l-1.13,.89s-.1,.05-.16,.05Z" fill="#363636"/>
    <path d="M153.46,158.4c-.08,0-.15-.03-.2-.1-.09-.11-.07-.27,.04-.36l.99-.77c.11-.09,.27-.07,.36,.04,.09,.11,.07,.27-.04,.36l-.99,.77s-.1,.05-.16,.05Z" fill="#363636"/>
  </g>
  <path d="M150.55,117.58c1.44,0,6.33,.82,6.47,5.3,.05,1.53,1.27,4.34-7.87,6.13-10.9,2.13-19.01,6.28-20.84,7.26-.27,.14-.58,.18-.87,.09-.91-.28-2.84-1.07-3.09-2.72-.05-.37,.11-.74,.41-.96l2.25-1.64-2.13-1.14c-2.44-1.3-4.36-3.45-5.24-6.08-.78-2.35-1.17-6.38-1.17-6.38l32.07,.16Z" fill="#262626"/>
  <path d="M140.29,125.06s3.83,1.44,6.48,3.91c2.3,2.13,4.5,5.9,4.39,23.95,0,1.21-1.14,1.92-1.86,1.98-1.02,.09-1.81-.12-2.56-.78-1.28-1.12-4.66-15.5-7.43-18.85-2.77-3.35-16.13-5.91-18.2-9.96-2.06-4.05,4.3-3.13,4.3-3.13l14.87,2.89Z" fill="#363636"/>
  <path d="M136.44,132.85c-.1,0-.2-.06-.24-.16-.05-.13,0-.28,.14-.33,3.93-1.6,4.85-1.81,9.93-2.96l.1-.02c.14-.03,.27,.05,.3,.19,.03,.14-.05,.27-.19,.3l-.1,.02c-5.05,1.14-5.96,1.35-9.85,2.94-.03,.01-.06,.02-.1,.02Z" fill="#ffe6f0"/>
  <path d="M139.04,119.56h27.46v.26c0,.67-.55,1.22-1.22,1.22h-25.01c-.67,0-1.22-.55-1.22-1.22v-.26h0Z" fill="#9eb5de"/>
  <path d="M165.5,121.29h-25.46c-.69,0-1.25-.56-1.25-1.25v-.48c0-.14,.11-.25,.25-.25h27.46c.14,0,.25,.11,.25,.25v.48c0,.69-.56,1.25-1.25,1.25Zm-26.2-1.48v.23c0,.41,.33,.75,.75,.75h25.46c.41,0,.75-.33,.75-.75v-.23h-26.95Z" fill="#363636"/>
  <path d="M166.5,119.58h-15.71l4.65-13.72c.3-.46,.82-.74,1.38-.74h13.28c.6,0,.99,.59,.79,1.11-.08,.21-4.39,13.36-4.39,13.36Z" fill="#ffd7e5"/>
  <path d="M166.5,119.84h-15.71c-.08,0-.16-.04-.21-.11-.05-.07-.06-.15-.03-.23l4.65-13.72s.02-.04,.03-.06c.35-.54,.94-.86,1.59-.86h13.28c.37,0,.7,.17,.91,.47,.2,.29,.25,.65,.12,.98-.08,.21-2.9,8.82-4.39,13.35-.03,.1-.13,.18-.24,.18Zm-15.36-.51h15.17c.53-1.63,4.26-13,4.34-13.19,.06-.17,.04-.36-.07-.51-.11-.16-.29-.25-.49-.25h-13.28c-.47,0-.89,.22-1.15,.6l-4.52,13.36Z" fill="#363636"/>
  <polygon points="165.5 118.3 152.58 118.3 156.56 106.43 169.45 106.41 165.5 118.3" fill="#fff"/>
  <polygon points="156.04 116.81 154.53 116.81 155 115.43 156.51 115.42 156.04 116.81" fill="#ffe6f0"/>
  <polygon points="158.85 116.81 157.23 116.81 158.45 113.18 160.05 113.18 158.85 116.81" fill="#ffd7e5"/>
  <polygon points="161.98 116.81 160.24 116.81 162.65 109.63 164.37 109.62 161.98 116.81" fill="#ed2a5b"/>
  <path d="M142.44,120.92h6.42c0-1.09-.89-1.98-1.98-1.98h-2.45c-1.09,0-1.98,.89-1.98,1.98Z" fill="#ffe6f0"/>
  <path d="M148.85,121.18h-6.42c-.14,0-.25-.11-.25-.25,0-1.23,1-2.24,2.24-2.24h2.45c1.23,0,2.24,1,2.24,2.24,0,.14-.11,.26-.25,.26Zm-6.14-.51h5.87c-.12-.83-.84-1.47-1.71-1.47h-2.45c-.87,0-1.59,.64-1.71,1.47Z" fill="#363636"/>
  <path d="M112.78,101.12c.68-1.49,2.48-2.46,3.87-3.01,.97-.38,1.99-.59,3.03-.63l3.67-.14c1.39-.1,3.02-.04,4.8,.28,2.37,.42,4.49,1.72,6,3.6,.68,.85,1.28,1.59,1.33,1.6,1.98,2.8,2.25,3.29,3.69,4.33,2.39,1.74,6.58,.32,6.58,.32,1.4-.21,1.9,.84,2.16,1.42,.31,.7,0,1.55-.26,2.1-.17,.35-.47,.62-.83,.77-1.8,.74-7.91,3.03-10.71,1.43-2.34-1.33-3.9-4.1-5.15-5.47-.13-.14-.35-.04-.34,.15,.26,3.06,2.78,6.69,3.54,7.74,.14,.19,.34,.31,.57,.33l5.53,.63c.08,0,.16,.04,.24,.08,.36,.19,.6,.56,.65,.97,.09,.65,.03,1.88-.17,2.27l-.19,.37c-.15,.3-.46,.49-.8,.5-2.94,.05-16.18,.05-19.78,.03-3.29-.02-4.61-1.65-6.36-6.25-.7-1.83-2.89-9.46-1.09-13.45Z" fill="#ed2a5b"/>
  <path d="M126.94,121.08c-2.86,0-5.4,0-6.71-.01-3.56-.02-4.92-2-6.6-6.42-.7-1.84-2.94-9.54-1.08-13.64,.71-1.57,2.58-2.58,4.01-3.14,.98-.38,2.03-.6,3.11-.64l3.67-.14c1.51-.11,3.19-.01,4.85,.29,2.4,.43,4.59,1.74,6.15,3.69,.99,1.23,1.23,1.5,1.28,1.55,.02,.02,.04,.04,.06,.06,.2,.29,.39,.55,.56,.79,1.5,2.13,1.82,2.57,3.07,3.48,2.26,1.64,6.31,.3,6.35,.29,.01,0,.03,0,.04-.01,1.63-.24,2.21,1.07,2.43,1.57,.34,.78,.04,1.69-.26,2.31-.2,.4-.54,.72-.96,.89-1.37,.56-5.18,2-8.23,2-1.03,0-1.97-.16-2.7-.58-1.71-.97-3.01-2.69-4.06-4.07-.37-.48-.71-.94-1.03-1.3,.34,2.95,2.74,6.42,3.47,7.43,.09,.13,.24,.21,.4,.23l5.53,.63c.1,0,.21,.04,.33,.11,.42,.23,.72,.66,.78,1.16,.09,.65,.04,1.95-.19,2.42l-.19,.37c-.2,.39-.59,.63-1.02,.64-1.87,.03-7.98,.04-13.08,.04Zm-2.36-23.53c-.41,0-.81,.01-1.2,.04l-3.68,.14c-1.03,.04-2.02,.25-2.95,.61-1.35,.53-3.09,1.46-3.74,2.88-1.77,3.9,.45,11.56,1.09,13.25,1.82,4.76,3.13,6.07,6.13,6.09,3.63,.02,16.85,.02,19.77-.03,.24,0,.46-.14,.57-.36l.19-.37c.16-.31,.23-1.44,.14-2.13-.05-.34-.24-.63-.52-.78-.08-.04-.12-.05-.14-.05l-5.54-.63c-.3-.03-.57-.19-.75-.44-.77-1.06-3.32-4.74-3.59-7.87-.02-.2,.09-.37,.27-.45,.18-.08,.38-.04,.51,.11,.37,.4,.77,.92,1.19,1.48,1.02,1.34,2.29,3.02,3.91,3.94,2.7,1.54,8.71-.72,10.49-1.45,.3-.12,.55-.35,.7-.65,.21-.43,.53-1.25,.25-1.88-.33-.75-.78-1.42-1.86-1.27-.38,.12-4.39,1.39-6.79-.36-1.32-.96-1.68-1.47-3.18-3.6-.17-.24-.35-.49-.54-.77-.13-.12-.43-.48-1.34-1.61-1.49-1.85-3.57-3.1-5.85-3.51-1.19-.21-2.39-.32-3.54-.32Zm10.99,5.03h0Zm0,0h0Zm0,0h0Zm-22.78-1.46h0Z" fill="#363636"/>
  <path d="M134.75,116.2s-.02,0-.03,0c-.33-.04-.75-.09-1.24-.13-4.3-.43-13.26-1.32-15.74-8.92-.04-.13,.03-.28,.16-.32,.13-.04,.28,.03,.32,.16,2.38,7.29,11.11,8.15,15.31,8.57,.49,.05,.92,.09,1.26,.14,.14,.02,.24,.15,.22,.29-.02,.13-.13,.22-.25,.22Z" fill="#363636"/>
  <path d="M139.66,117.89c.11-.22,.3-.4,.54-.48,.17-.06,.33-.14,.49-.22l2.18-1.16c.41-.2,.99,.27,1.42,.41,1.28,.42,3.93,1.42,3.72,2.35-.24,1.01-2.52,.53-3.33,.33-.19-.05-1.86,.56-2.39,.6-.73,.06-.9-.13-1.26-.32-.16-.09-.34-.12-.54-.13-.3,0-.59-.13-.78-.37h0c-.21-.27-.24-.63-.09-.92l.04-.08Z" fill="#fff"/>
  <path d="M142.05,119.97c-.51,0-.74-.13-.98-.27-.05-.03-.1-.06-.15-.08-.12-.06-.26-.1-.43-.1-.39,0-.74-.17-.97-.46-.27-.34-.32-.81-.12-1.2l.04-.08h0c.15-.29,.39-.5,.68-.61,.13-.05,.28-.12,.46-.21l2.18-1.16c.41-.2,.85,.02,1.24,.22,.14,.07,.27,.14,.38,.17,2.77,.91,4.08,1.81,3.88,2.65-.06,.24-.2,.43-.43,.57-.75,.46-2.31,.17-3.19-.05-.12,.01-.57,.15-.9,.24-.56,.17-1.13,.34-1.43,.36-.09,0-.18,.01-.26,.01Zm-2.16-1.97l-.04,.08c-.11,.21-.08,.46,.06,.64,.14,.18,.35,.27,.58,.28,.24,0,.47,.05,.66,.16,.06,.03,.11,.06,.17,.09,.25,.14,.42,.24,.95,.2,.25-.02,.85-.2,1.33-.34,.79-.23,1-.29,1.14-.26,1.33,.34,2.39,.38,2.82,.11,.11-.07,.17-.15,.19-.25,.1-.41-.96-1.2-3.55-2.05-.14-.05-.29-.12-.45-.2-.28-.14-.6-.3-.78-.22l-2.18,1.16c-.2,.11-.37,.18-.52,.24-.17,.06-.31,.19-.4,.36Z" fill="#363636"/>
  <path d="M155.69,109.18c.12-.15,.07-.38-.11-.45l-3.87-1.7c-.55-.24-1.17-.26-1.73-.06-.57,.21-1.4,.48-2.34,.72-2.44,.62-2.62,3.84-.1,2.6,.8-.39,1.29-.69,1.29-.69,0,0,.92,1.24,2.39,.68,.67-.25,1.1-.56,1.36-.79,.21-.19,.51-.26,.79-.19,.67,.17,1.65,.69,2.32-.12Z" fill="#fff"/>
  <path d="M146.54,110.83c-.32,0-.53-.1-.68-.22-.32-.25-.45-.7-.35-1.2,.16-.76,.86-1.66,2.07-1.97,.96-.24,1.79-.52,2.32-.72,.62-.23,1.3-.2,1.91,.07l3.87,1.7c.16,.07,.27,.21,.31,.37,.04,.17,0,.34-.11,.47h0c-.67,.81-1.62,.51-2.24,.31-.12-.04-.23-.07-.34-.1-.2-.05-.41,0-.56,.13-.26,.23-.71,.56-1.44,.84-1.12,.42-1.96-.08-2.36-.42-.07-.06-.13-.12-.18-.17-.21,.12-.6,.34-1.12,.59-.46,.23-.83,.31-1.11,.31Zm4.23-3.75c-.24,0-.47,.04-.7,.12-.54,.2-1.39,.48-2.37,.73-1,.25-1.57,.97-1.69,1.58-.06,.31,0,.57,.16,.7,.24,.18,.7,.13,1.26-.15,.78-.38,1.26-.68,1.26-.68,.09-.06,.21-.05,.29,.02,.02,.02,.04,.04,.06,.06,.05,.07,.84,1.05,2.09,.58,.65-.25,1.05-.54,1.28-.74,.28-.25,.66-.34,1.03-.25,.11,.03,.24,.07,.36,.11,.73,.23,1.28,.36,1.7-.15,0,0,.01-.02,0-.03,0,0,0-.02-.02-.03l-3.87-1.7c-.27-.12-.56-.18-.84-.18Zm4.93,2.1h0Z" fill="#363636"/>
  <path d="M149.85,109.35c-.41,0-.76-.26-.94-.45-.09-.1-.09-.26,.02-.36,.1-.09,.27-.09,.36,.02,.02,.02,.43,.46,.83,.19,.32-.22,.8-.4,1.18-.26,.74,.29,1.03,.17,1.09,.09,.04-.09,.03-.13,.03-.14-.02-.07-.12-.15-.27-.22l-1.1-.45c-.13-.05-.19-.2-.14-.33,.05-.13,.2-.19,.33-.14l1.11,.46c.3,.14,.48,.31,.55,.52,.06,.17,.04,.36-.06,.54-.03,.06-.35,.68-1.72,.14-.13-.05-.42,0-.71,.2-.19,.13-.38,.18-.56,.18Zm2.54-.76s0,.01,0,.01h0Z" fill="#363636"/>
  <path d="M124.02,96.28c.06-.21,.25-.36,.46-.37l1.61-.05c.21,0,.38-.15,.43-.36l.43-1.84,.73-.33c.06-.03,.08-.09,.06-.15l-.57-1.37c-.17-.51-.16-1.59-.43-1.59,0,0-4.92-2.15-5.99,.31-.16,.37-.17,.79-.04,1.18l.26,.78c.26,.78,.26,1.65-.06,2.41-.07,.16-.32,.68-.73,1.3-.35,.52-1.07,1.07-1.59,1.41-.29,.2-.31,.62-.04,.85,.53,.43,1.34,1.04,1.92,1.27,1.37,.55,2.06,.7,2.76,.62,.68-.08,1.07-.77,.83-1.42-.49-1.34-.05-2.64-.05-2.64Z" fill="#fff"/>
  <path d="M122.89,100.61c-.65,0-1.34-.19-2.5-.66-.6-.24-1.41-.85-1.98-1.31-.19-.16-.3-.39-.29-.64,.01-.25,.14-.47,.34-.61,.73-.49,1.27-.97,1.52-1.34,.4-.6,.64-1.11,.7-1.25,.29-.68,.3-1.47,.05-2.23l-.26-.78c-.15-.45-.13-.94,.05-1.36,.23-.52,.62-.89,1.17-1.11,1.8-.71,4.74,.49,5.12,.65,.33,.06,.39,.51,.47,1.07,.04,.25,.07,.51,.13,.68l.57,1.37c.08,.19,0,.4-.19,.48l-.61,.28-.41,1.72c-.07,.31-.35,.54-.67,.55l-1.61,.05c-.1,0-.19,.08-.22,.18h0s-.4,1.25,.05,2.49c.14,.4,.1,.83-.11,1.17-.2,.33-.54,.54-.93,.58-.13,.01-.25,.02-.38,.02Zm.14-11.02c-.41,0-.81,.05-1.15,.19-.43,.17-.72,.44-.89,.84-.13,.31-.15,.66-.03,.99l.26,.78c.29,.87,.27,1.79-.06,2.59-.08,.19-.34,.72-.75,1.34-.37,.55-1.1,1.11-1.66,1.48-.07,.05-.12,.13-.12,.21,0,.09,.03,.17,.1,.22,.77,.62,1.43,1.06,1.85,1.23,1.3,.53,1.96,.68,2.64,.6,.23-.03,.43-.15,.55-.35,.13-.22,.16-.48,.07-.73-.5-1.38-.09-2.7-.06-2.81,.09-.31,.37-.53,.69-.54l1.61-.05c.09,0,.17-.07,.19-.16l.43-1.84c.02-.08,.07-.14,.14-.17l.6-.27-.52-1.25v-.02c-.08-.21-.12-.5-.16-.78-.03-.22-.08-.55-.13-.66h0s-1.97-.85-3.61-.85Zm.99,6.68h0Z" fill="#363636"/>
  <path d="M128.11,86.32c-1.15-.42-.04,1.24-4-1.34-1.58-1.03-1.31,1.27-1.72,1.01-1.52-.98-1.46-.95-2.34-.97-.58-.02-1.22,.87-1.34,1.65-.16,1.02,.76,3.48,1.47,5.37,.37,.97,1.71,1.47,2.31,.32,.16-.32-.54-1.31,0-1.72,1-.75,1.03,.81,1.8,.6,.75-.21,1.08-.39,1.93-.79,1.02-.48,2.02,1.06,2.98-.44,.5-.78,.48-3.11-1.11-3.68Z" fill="#363636"/>
  <polygon points="183.66 160.41 174.42 128.35 165.17 160.41 162.96 160.41 173.11 124.23 175.72 124.23 185.88 160.41 183.66 160.41" fill="#fff"/>
  <polygon points="118.74 160.15 109.49 128.08 100.25 160.15 98.36 158.98 108.19 123.97 110.79 123.96 120.95 160.15 118.74 160.15" fill="#fff"/>
  <path d="M100.4,160.54l-2.34-1.45,9.93-35.38h2.99l.05,.18,10.25,36.51h-2.74l-9.05-31.4-9.09,31.54Zm18.53-.65h1.69l-10.02-35.67h-2.22l-9.73,34.64,1.44,.89,9.4-32.59,9.44,32.73Z" fill="#363636"/>
  <g>
    <rect x="95.98" y="121.03" width="89.66" height="3.48" transform="translate(281.61 245.54) rotate(180)" fill="#fff"/>
    <path d="M185.89,124.76H95.72v-3.99h90.17v3.99Zm-89.66-.51h89.15v-2.98H96.23v2.98Z"/>
  </g>
  <path d="M120.7,123.95c-.14,0-.25-.11-.25-.25v-1.94c0-.14,.11-.25,.25-.25s.25,.11,.25,.25v1.94c0,.14-.11,.25-.25,.25Z" fill="#5b72b6"/>
  <path d="M170.28,152.08l.5,5.64-5.32,.56,1.65-2.26c.44-.6,.59-1.37,.41-2.1l-.45-1.82,3.21-.02Z" fill="#fff"/>
  <path d="M164.92,158.6l1.99-2.72c.4-.54,.53-1.23,.37-1.89l-.53-2.13,3.77-.03,.54,6.12-6.14,.65Zm2.48-6.24l.37,1.51c.2,.8,.03,1.64-.45,2.31l-1.31,1.8,4.5-.47-.45-5.16-2.65,.02Z" fill="#363636"/>
  <path d="M171.15,156.76l.44,2.32s.06,.85-.8,1c-1.12,.19-5.49,.79-8.58,.23-.71-.13-1.03-.57-1.09-.81-.16-.64,.25-1.56,1.54-2.04,2.31-.85,3.19-1.13,4.31-1.9,.25-.17,.63,.01,.8,.24,0,0,.41,.6,.4,1.22,0,.22,.23,.38,.44,.29l1.97-.85c.24-.1,.52,.04,.57,.3Z" fill="#ffd7e5"/>
  <path d="M165.27,160.79c-1.06,0-2.14-.06-3.11-.24-.86-.16-1.22-.72-1.29-.99-.19-.75,.26-1.81,1.7-2.34l.73-.27c1.76-.65,2.56-.94,3.53-1.6,.36-.25,.88-.05,1.14,.29,.03,.04,.46,.68,.45,1.38,0,.02,0,.03,.02,.05,.01,0,.03,.02,.06,0l1.97-.85c.19-.08,.39-.07,.57,.02,.18,.1,.3,.26,.34,.46l.45,2.35c.03,.37-.15,1.12-1.01,1.27-.15,.03-2.78,.47-5.56,.47Zm1.93-5.05s-.06,0-.09,.02c-1.02,.69-1.84,.99-3.64,1.65l-.73,.27c-1.15,.42-1.52,1.2-1.38,1.74,.03,.12,.26,.51,.89,.62,2.75,.5,6.76,.07,8.49-.23,.59-.1,.59-.62,.59-.71l-.44-2.3c-.01-.07-.06-.1-.08-.11-.02-.01-.07-.03-.13,0l-1.97,.85c-.18,.08-.38,.06-.54-.05-.16-.11-.25-.28-.25-.47,0-.45-.26-.93-.36-1.08-.08-.1-.24-.19-.36-.19Z" fill="#363636"/>
  <path d="M165.36,159.96c-.93,0-1.92-.05-2.91-.18-.14-.02-.24-.15-.22-.29,.02-.14,.15-.24,.29-.22,3.86,.52,7.81-.26,7.85-.27,.14-.03,.27,.06,.3,.2,.03,.14-.06,.27-.2,.3-.03,0-2.31,.46-5.11,.46Z" fill="#363636"/>
  <path d="M181.81,150.33c.11,1.42,.8,3.06,1.36,3.89l-2.49,1.89-1.89-1.87c.44-.6,.83-2.02,.24-3.88l2.78-.04Z" fill="#fff"/>
  <path d="M180.65,156.46l-2.2-2.18,.13-.18c.35-.48,.79-1.8,.2-3.65l-.1-.33,3.37-.05,.02,.24c.1,1.33,.76,2.94,1.32,3.77l.13,.2-2.86,2.17Zm-1.54-2.24l1.58,1.57,2.13-1.62c-.54-.88-1.1-2.3-1.25-3.58l-2.22,.03c.43,1.61,.16,2.89-.25,3.6Z" fill="#363636"/>
  <path d="M183.26,153.69l1.03,1.83s.37,.79-.4,1.25c-.73,.43-3.08,1.8-5.45,2.68-.9,.33-3.5,.51-4.11-.29-.41-.54-.25-1.24,.82-1.82,2.41-1.29,2.97-3.29,3.31-3.76,.53-.71,1.43,.53,1.68,1.49,.06,.23,.33,.32,.51,.17l2.03-1.65c.18-.15,.46-.1,.58,.11Z" fill="#ffd7e5"/>
  <path d="M176.42,159.98c-.95,0-1.91-.17-2.29-.67-.23-.3-.31-.63-.24-.96,.07-.32,.32-.8,1.14-1.24,1.85-.99,2.57-2.42,2.96-3.19,.11-.21,.19-.38,.27-.49,.18-.25,.43-.35,.7-.3,.67,.13,1.25,1.2,1.42,1.87,0,.03,.03,.04,.04,.05,.02,0,.04,0,.06-.01l2.03-1.65c.15-.12,.34-.17,.52-.13,.19,.03,.35,.15,.44,.31l1.04,1.85c.16,.34,.27,1.12-.5,1.57-.88,.52-3.17,1.84-5.49,2.7-.43,.16-1.27,.29-2.11,.29Zm2.41-6.36s-.09,.02-.16,.11c-.06,.08-.13,.23-.23,.41-.41,.82-1.18,2.35-3.17,3.42-.5,.27-.82,.59-.88,.89-.04,.18,0,.37,.14,.54,.5,.66,2.93,.54,3.82,.21,2.28-.85,4.54-2.14,5.41-2.66,.54-.32,.33-.84,.3-.91l-1.03-1.82s-.07-.06-.09-.06c-.02,0-.07,0-.11,.03l-2.03,1.65c-.15,.12-.36,.16-.54,.1-.19-.06-.33-.21-.38-.4-.17-.68-.69-1.44-1.03-1.5,0,0-.02,0-.04,0Z" fill="#363636"/>
  <path d="M176.25,158.96c-.3,0-.58-.02-.83-.07-.14-.03-.22-.16-.2-.3,.03-.14,.17-.22,.3-.2,.63,.13,1.63,.04,2.3-.13,3-.74,5.25-2.61,5.28-2.63,.11-.09,.27-.08,.36,.03,.09,.11,.08,.27-.03,.36-.09,.08-2.36,1.97-5.48,2.74-.47,.11-1.11,.2-1.7,.2Z" fill="#363636"/>
  <path d="M173.19,132.41c-.4,4.42,3.27,14.66,4.63,17.95,.15,.37,.49,.65,.92,.65h3.13c.53,0,.96-.4,.95-.89-.04-3.47-1.61-13.27,.72-16.91,1.35-2.11,5.35-1.22,7.01-2.22,3.96-2.41,2.47-10.26,2.47-10.26,0,0-19.27,5.53-19.83,11.68Z" fill="#fff"/>
  <path d="M181.87,151.26h-3.13c-.51,0-.95-.31-1.15-.81-1.34-3.24-5.06-13.53-4.65-18.07,.57-6.26,19.22-11.67,20.01-11.9l.27-.08,.05,.27c.06,.33,1.48,8.05-2.59,10.52-.7,.43-1.75,.53-2.85,.64-1.63,.16-3.32,.33-4.07,1.5-1.74,2.72-1.23,9.18-.89,13.46,.11,1.34,.2,2.5,.21,3.31,0,.29-.11,.57-.32,.78-.23,.23-.55,.36-.88,.36Zm10.94-30.21c-2.34,.7-18.87,5.86-19.37,11.38-.38,4.11,2.95,13.79,4.61,17.83,.1,.24,.33,.49,.68,.49h3.13c.2,0,.39-.08,.52-.21,.11-.12,.18-.26,.18-.42,0-.8-.1-1.95-.21-3.28-.37-4.6-.87-10.91,.96-13.77,.88-1.38,2.78-1.57,4.45-1.73,1.05-.1,2.04-.2,2.64-.57,3.36-2.04,2.61-8.32,2.4-9.71Zm-19.63,11.36h0Z" fill="#363636"/>
  <path d="M179.54,121.56s-13.07,.11-17.19,4.67c-3.7,4.1,1.79,22.7,2.94,26.32,.12,.37,.49,.63,.91,.63h4.91c.1,0,.19-.08,.19-.17l-.78-7.07c-.84-9.39,.18-11.37,.18-11.37,.83-2.65,7.9-2.54,11.75-2.51,12.21,.08,8.62-10.65,8.62-10.65l-11.53,.16Z" fill="#fff"/>
  <path d="M171.11,153.44h-4.91c-.54,0-1-.32-1.16-.81-.21-.67-2.12-6.74-3.3-13.01-1.35-7.2-1.21-11.76,.41-13.56,4.15-4.59,16.83-4.75,17.37-4.76l11.72-.16,.06,.18c.06,.19,1.53,4.69-.81,7.9-1.5,2.07-4.21,3.1-8.06,3.08h-.27c-3.66-.03-10.48-.08-11.23,2.34l-.02,.04s-.97,2.12-.16,11.23l.78,7.09c0,.24-.2,.43-.44,.43Zm19.77-31.77l-11.34,.15c-.13,0-13,.16-17,4.59-1.49,1.65-1.59,6.19-.29,13.12,1.17,6.24,3.07,12.28,3.28,12.94,.08,.27,.36,.45,.67,.45h4.83l-.77-6.96c-.8-8.94,.08-11.23,.2-11.49,.89-2.76,7.66-2.71,11.72-2.68h.27c3.68,.03,6.25-.94,7.65-2.86,1.93-2.67,1.03-6.42,.79-7.27Zm-11.34-.1h0Z" fill="#363636"/>
  <path d="M171.92,114.29c-.08-.02-1.94,.07-2.12,.01-.88-.3-2.73-.97-3.6-.98-.98,0-1.91-.17-2.48-.29-.34-.07-.58,.07-.65,.29-.06,.19,0,.64,.51,.76,.58,.13,1.16,.28,1.66,.4,.16,.04,.32,.04,.17,.09-.34,.12-.71,.31-.74,.59-.04,.52,1.24,1.71,2.66,1.8,1.22,.07,1.55-.52,2.02-.61,.08-.01,2.1,.04,2.19,.02,.92-.19,.87-1.95,.37-2.08Z" fill="#fff"/>
  <path d="M167.54,117.22c-.07,0-.14,0-.22,0-1.05-.06-2.03-.68-2.54-1.27-.18-.21-.39-.51-.36-.81,.02-.2,.13-.37,.33-.52l-.15-.04c-.34-.08-.71-.17-1.07-.26-.34-.08-.51-.27-.6-.42-.14-.24-.14-.5-.1-.66,.11-.37,.5-.56,.95-.46,.59,.13,1.49,.28,2.43,.28,.82,0,2.35,.53,3.37,.88l.31,.11c.12,.02,.93,0,1.36-.01,.64-.02,.68-.02,.74,0,.42,.11,.55,.69,.54,1.15-.01,.57-.27,1.28-.93,1.42-.06,.01-.18,.01-1.25,0-.39,0-.87-.01-.96-.01-.1,.02-.22,.09-.36,.17-.32,.19-.74,.45-1.49,.45Zm-3.99-3.95c-.12,0-.21,.04-.23,.12-.01,.04-.02,.15,.04,.26,.05,.09,.15,.15,.28,.18,.37,.08,.74,.17,1.08,.26,.2,.05,.4,.1,.58,.14,.03,0,.07,.01,.1,.02,.11,.02,.31,.06,.33,.27,0,.08-.02,.22-.23,.29-.44,.15-.56,.31-.57,.37,0,.05,.04,.2,.24,.43,.42,.49,1.28,1.04,2.19,1.09,.74,.04,1.1-.17,1.42-.37,.17-.11,.34-.2,.54-.24,.05,0,.14-.01,1.05,0,.44,0,1.04,.02,1.15,.01,.38-.09,.48-.61,.5-.77,.05-.43-.07-.75-.14-.81-.09,0-.36,0-.6,.01-1.11,.03-1.42,.03-1.54-.01l-.31-.11c-.92-.32-2.47-.85-3.21-.86-.98,0-1.91-.16-2.53-.29-.04,0-.09-.01-.12-.01Z" fill="#363636"/>
  <path d="M180.32,102.07c-2.58,2.02-2.9,8.67-4.55,9.99-1.43,1.14-6.06,1.47-6.06,1.47l-.04,3.28s3.49,.26,4.76,.16c2.68-.23,5.09-1.29,6.04-2.18,3.16-2.97,8.63-9.72,10.29-13.92l-4.62-.48s-2.96-.56-5.81,1.68Z" fill="#ed2a5b" stroke="#363636" stroke-miterlimit="10" stroke-width=".5"/>
  <path d="M180.87,112.31s-.26,1.2,.22,2.67c.6,1.83,.18,3.85-1.2,5.2-.58,.57-1.22,1.07-1.9,1.35,0,0,.32,2.01,3.37,2.29,1.24,.11,4.51,.39,6.95,.37,3.34-.03,5.82-.53,5.82-.53l.48-15.44s.49-6.48-3.98-7.37l-6.44-.4-3.31,11.86Z" fill="#ed2a5b" stroke="#363636" stroke-miterlimit="10" stroke-width=".5"/>
  <path d="M180.86,114.29c-.06,0-.12-.02-.17-.07-.1-.1-.11-.26-.01-.36,1.02-1.11,1.98-2.7,2.93-4.86,.06-.13,.21-.19,.34-.13,.13,.06,.19,.21,.13,.34-.98,2.22-1.96,3.86-3.02,5-.05,.05-.12,.08-.19,.08Z" fill="#363636"/>
  <path d="M180.51,93.13s-1.62,.05-1.4-2.83c.23-2.9,3.4-2.73,4.5-3.11,1.1-.38,2.91-2.72,3.6-3.35,.7-.62,2.85-3.22,7.28-.76,0,0,.78,.74,3.78-.07,2.6-.7,7.54-.02,6.61,3.8-.27,1.1-.93,2.03-1.84,2.64-.16,.11-.34,.22-.54,.33-.57,.31-.96,.91-.99,1.6-.12,2.25-1.28,6.75-8.99,3.86-.58-.22-1.21-.14-1.71,.2-.62,.42-1.15,1.69-4.45,1.8-2.12,.07-3.18-2.08-3.9-3.02-.85-1.1-1.94-1.09-1.94-1.09Z" fill="#262626"/>
  <path d="M180.99,93.13s0,.52-.01,.74c0,.22,.06,.91-.32,1.74-.04,.08,0,.17,.07,.22l.57,.36s.07,.06,.07,.11c.05,.28,.25,1.33,.31,1.51,.08,.22,.29,.39,.39,.42,.26,.09,1.25-.22,1.25-.22,0,0-.15-.19,.64,1.18,.56,.96-.63,2.54-.63,2.54,0,0,4.48,1.81,6.99-.36,.16-.13,.09-.41-.11-.46-2.37-.59-2.69-1.78-3.62-3.64-.04-.09-.15-.13-.25-.14-.4-.04-1.45,0-1.8-1.68,0-.04,0-.09,0-.13,.11-.35,.59-2.05-.94-1.33-1.01,.47-1.58-.2-1.79-.52-.07-.11-.18-.18-.3-.21l-.52-.13Z" fill="#fff"/>
  <path d="M187,102.69c-1.92,0-3.65-.69-3.77-.73-.07-.03-.13-.09-.15-.17-.02-.08,0-.16,.04-.22,.3-.4,1-1.59,.62-2.26-.26-.46-.45-.79-.56-.99h0c-.4,.11-.95,.23-1.19,.15-.16-.05-.44-.27-.55-.57-.07-.19-.23-1.01-.32-1.52l-.54-.34c-.18-.12-.25-.35-.16-.54,.31-.67,.3-1.25,.3-1.52,0-.05,0-.09,0-.12,0-.23,.01-.74,.01-.74,0-.08,.04-.15,.1-.2,.06-.05,.14-.06,.22-.05l.52,.13c.19,.05,.35,.16,.45,.32,.25,.39,.7,.78,1.47,.43,.54-.25,.94-.26,1.2-.03,.43,.37,.24,1.21,.09,1.68,.29,1.39,1.07,1.44,1.49,1.47h.09c.21,.03,.37,.13,.45,.28,.11,.21,.2,.41,.3,.61,.73,1.5,1.17,2.41,3.16,2.9,.19,.05,.33,.2,.38,.39,.05,.19-.01,.39-.16,.51-1,.86-2.28,1.13-3.48,1.13Zm-3.28-1.1c1.02,.35,4.43,1.3,6.43-.42,0,0,0-.02-.01-.03-2.22-.55-2.75-1.65-3.49-3.17-.09-.19-.19-.38-.29-.59,0,0-.03,0-.05-.01h-.08c-.47-.04-1.58-.12-1.95-1.88-.02-.09-.01-.18,.01-.26,.17-.53,.19-1.02,.06-1.14-.03-.03-.18-.11-.65,.11-1.23,.58-1.93-.33-2.11-.62-.03-.05-.08-.09-.14-.1l-.21-.05c0,.15,0,.32,0,.43,0,.03,0,.06,0,.1,0,.3,.01,.93-.32,1.68l.51,.32c.1,.06,.17,.16,.19,.28,.14,.77,.26,1.36,.3,1.47,.05,.14,.2,.25,.24,.27,.1,.02,.57-.07,1.01-.2,.11-.07,.27-.04,.35,.06,.03,.03,.04,.08,.05,.12,.05,.09,.19,.35,.61,1.09,.48,.84-.12,2-.46,2.54Zm-2.57-5.19h0Z" fill="#363636"/>
  <path d="M184.03,95.86c-.23,0-.45-.09-.54-.22-.08-.12-.04-.28,.08-.35,.1-.07,.23-.05,.32,.03,.04,.02,.16,.05,.26,0,.1-.04,.17-.14,.2-.3,.03-.14,.17-.22,.31-.18,.14,.03,.22,.17,.18,.31-.13,.53-.48,.66-.68,.69-.04,0-.09,.01-.14,.01Zm-.11-.49h0Z" fill="#363636"/>
  <path d="M180.52,95.75c-.24,0-.45-.08-.62-.23-.55-.49-.49-1.6-.48-1.72,0-.13,.12-.23,.25-.24l3.79-.08c.14,0,.26,.11,.26,.25,0,.14-.11,.26-.25,.26l-3.54,.07c0,.34,.08,.86,.32,1.08,.06,.06,.17,.13,.39,.09,.14-.02,.27,.07,.29,.21,.02,.14-.07,.27-.21,.29-.07,.01-.13,.02-.2,.02Z" fill="#363636"/>
  <path d="M183.84,96.29c-.02-.15,.1-.29,.25-.31,.15-.01,.29,.1,.3,.25,.02,.15-.1,.29-.25,.31-.15,.01-.29-.1-.3-.25Z" fill="#363636"/>
  <path d="M185.88,109.26v3.69c0,5.29-4.16,9.59-9.3,9.59s-9.3,4.29-9.3,9.59c0,.47,.38,.85,.85,.85h24.61c7.7,0,13.94-6.43,13.94-14.37v-9.83c0-3.16-2.48-5.72-5.54-5.72h-9.25c-3.32,0-6.01,2.77-6.01,6.2Z" fill="#262626"/>
  <path d="M172.9,129.47c-.05,0-.1-.01-.15-.05-.12-.08-.14-.24-.06-.35,1.31-1.87,3.41-2.94,6.22-3.19,1.65-.14,3.26-.58,4.4-1.21,2.86-1.57,6.66-4.35,6.66-10.36v-.7c0-6.14,2.12-6.45,5.59-6.45,.14,0,.25,.11,.25,.25s-.11,.25-.25,.25c-3.06,0-5.08,0-5.08,5.94v.7c0,6.27-3.95,9.17-6.92,10.8-1.2,.66-2.87,1.12-4.6,1.27-2.7,.23-4.61,1.21-5.85,2.97-.05,.07-.13,.11-.21,.11Z" fill="#ccdbf0"/>
  <rect x="187.05" y="132.22" width="2.59" height="28.09" fill="#262626"/>
  <polygon points="176.21 159.89 187.67 158.88 188.72 158.88 200.43 159.89 200.43 160.69 176.21 160.69 176.21 159.89" fill="#262626"/>
  <rect x="78.61" y="27.92" width="4.91" height="17.74" rx=".4" ry=".4" fill="#909090"/>
  <rect x="79.71" y="29.62" width="2.71" height=".83" transform="translate(162.14 60.07) rotate(180)" fill="#f0f0f0"/>
  <rect x="79.71" y="30.95" width="2.71" height=".83" fill="#f0f0f0"/>
  <rect x="84.19" y="27.71" width="4.91" height="17.74" rx=".41" ry=".41" fill="#363636"/>
  <rect x="85.09" y="29.14" width="3.13" height="1.61" fill="#f0f0f0"/>
  <path d="M86.78,36.94c.71-.65,1.58-1.03,2.47-1.02,.88,.02,1.77,.44,2.4,1.2,.2-.99,.89-1.8,1.7-2,1.16-.28,2.25,.82,2.99,1.79,.1,.13,.19,.35,.13,.49,.46-.63,1.13-1.02,1.81-1.08,.72-.06,1.45,.26,1.97,.86,.27-.71,.75-1.34,1.36-1.53s1.36,.15,1.6,.88c.42-1.22,1.5-3.15,2.67-3.31,1.04-.14,2.1,.75,2.08,2.11-.01,.83,.32,1.2,.68,.34,.49-1.16,1.72-1.76,2.73-1.34,.13,.06,.28,.16,.3,.33l.26,.06c.47,.84,.91,1.25,1,2.32v.05c.11-.08,.23-.16,.37-.22,1.5-.75,2.22,.6,2.22,.6,0,0,.18-2.15,2.29-2,2.12,.15,2.56,2.1,2.56,2.1,0,0,1.38-1.22,2.77-.27,1.38,.95,1.22,6.01-1.75,5.94-2.97-.08-3.14-3.67-3.14-3.67l-3.5,.98c-.08,.37-2.19-.58-2.32-.23-1.46,4.03-6.23,4.31-9.28,4.22-2.14-.06-4.28-.4-6.38-.92-1.25-.31-2.52-.5-3.73-.95-1.04-.39-2.22-1.13-2.86-2.16-.08-.12-.13-.27-.23-.37-.26-.25-.69-.17-.99-.31-.2-.09-.38-.34-.59-.36-.7-.07-1.07,.95-1.87,.36-.34-.25-.56-.72-.56-1.2,0-.69,.4-1.28,.85-1.7Z" fill="#d6d6d6"/>
  <polygon points="118.38 39.78 116.98 45.73 89.65 45.79 87.94 39.81 118.38 39.78" fill="#f0f0f0"/>
  <path d="M89.65,46.05c-.11,0-.21-.08-.24-.18l-1.71-5.99c-.02-.08,0-.16,.04-.22,.05-.06,.12-.1,.2-.1l30.44-.03h0c.08,0,.15,.04,.2,.1,.05,.06,.07,.14,.05,.22l-1.4,5.95c-.03,.11-.13,.2-.25,.2l-27.33,.07h0Zm-1.37-5.99l1.56,5.48,26.94-.07,1.28-5.44-29.78,.03Z" fill="#363636"/>
  <g>
    <rect x="74.8" y="45.66" width="44.58" height="2.28" transform="translate(194.18 93.59) rotate(180)" fill="#fff"/>
    <path d="M119.38,48.19h-44.58c-.14,0-.25-.11-.25-.25v-2.28c0-.14,.11-.25,.25-.25h44.58c.14,0,.25,.11,.25,.25v2.28c0,.14-.11,.25-.25,.25Zm-44.33-.51h44.07v-1.77h-44.07v1.77Z" fill="#5b72b6"/>
  </g>
  <path d="M81.89,130.04c2.36,0,4.28,1.91,4.28,4.28v22.24c0,3.24-2.11,5.74-5.35,5.74l-6.95,.12v-3.5h4.43c1.98,0,3.58-1.61,3.58-3.59-.01-5.5-.02-13.12-.02-19.68,0-2.07-1.32-3.91-3.28-4.57-1.73-.59-3.51-1.22-3.51-1.31,0-.95,6.8,.28,6.81,.27Z" fill="#909090"/>
  <path d="M87.42,112.56v4.63c0,4.53,3.67,8.19,8.19,8.19s8.19,3.67,8.19,8.19v.73h-22.43c-6.78,0-12.28-5.5-12.28-12.28v-9.87c0-2.7,2.19-4.89,4.88-4.89h8.15c2.92,0,5.3,2.37,5.3,5.3Z" fill="#fff"/>
  <path d="M97.13,134.56h-16.08c-6.91,0-12.53-5.62-12.53-12.54v-9.87c0-2.83,2.3-5.14,5.14-5.14h2c.14,0,.25,.11,.25,.25s-.11,.25-.25,.25h-2c-2.55,0-4.63,2.08-4.63,4.63v9.87c0,6.63,5.39,12.03,12.02,12.03h16.08c.14,0,.25,.11,.25,.25s-.11,.25-.25,.25Z" fill="#363636"/>
  <path d="M107.53,152.37l1.52,1.6c.58,.61,.91,1.42,.92,2.26v1.21l4.49-1.23c-.98-1.04-1.96-2.01-2.63-3.27l-1.39-2.65-2.92,2.08Z" fill="#fff"/>
  <path d="M109.98,157.7c-.05,0-.11-.02-.15-.05-.06-.05-.1-.12-.1-.2v-1.21c-.02-.78-.32-1.52-.86-2.09l-1.52-1.6c-.05-.05-.08-.13-.07-.2,0-.07,.05-.14,.11-.18l2.92-2.08c.06-.04,.14-.06,.21-.04,.07,.02,.13,.06,.17,.13l1.39,2.65c.57,1.08,1.37,1.94,2.23,2.84,.12,.12,.24,.25,.36,.38,.06,.06,.08,.16,.06,.24-.02,.09-.09,.15-.18,.18l-4.48,1.23s-.04,0-.07,0Zm-2.07-5.29l1.32,1.39c.63,.66,.98,1.52,.99,2.43v.88l3.76-1.03-.06-.07c-.88-.93-1.71-1.81-2.31-2.95l-1.25-2.39-2.44,1.74Z" fill="#363636"/>
  <path d="M109.17,155.93c-.09,.65-.09,1.83-.11,2.92,0,.68,.5,1.25,1.18,1.34,1.91,.24,6.67,.49,10.36,.15,.25-.02,.7-.21,.82-.84,.42-2.12-3.26-2.64-7.3-4.17-.16-.06-.34-.02-.46,.09l-.44,.42c-.44,.42-1.08,.54-1.64,.3l-1.91-.51c-.23-.1-.48,.05-.51,.29Z" fill="#ffd7e5"/>
  <path d="M116.47,160.76c-2.5,0-4.92-.14-6.26-.32-.81-.1-1.41-.79-1.4-1.6v-.35c.01-.98,.02-2,.11-2.6,.03-.19,.14-.36,.31-.46,.17-.09,.36-.11,.53-.04l1.93,.52c.46,.2,1,.1,1.36-.25l.44-.42c.19-.19,.48-.24,.73-.15,.94,.36,1.84,.65,2.72,.94,2.85,.94,5.1,1.68,4.74,3.52-.14,.71-.65,1.01-1.05,1.04-1.28,.12-2.73,.16-4.16,.16Zm-6.93-4.89s-.05,0-.06,.02c-.02,.01-.05,.04-.06,.09-.08,.56-.09,1.56-.1,2.53v.35c0,.55,.4,1.02,.95,1.09,1.73,.22,6.53,.49,10.3,.15,.08,0,.49-.07,.6-.63,.26-1.34-1.41-1.95-4.4-2.93-.88-.29-1.79-.59-2.74-.95-.07-.03-.14-.01-.19,.04l-.44,.42c-.51,.49-1.25,.63-1.9,.36l-1.92-.52s-.03,0-.05,0Zm-.37,.07h0Z" fill="#363636"/>
  <path d="M109.16,158.64s0,.11,0,.16c0,.68,.5,1.25,1.18,1.34,1.91,.24,6.57,.53,10.26,.2,.25-.02,.7-.21,.82-.84,.04-.19,.01-.54,.01-.54h-.26c-3.73,.2-7.46,.11-11.17-.25l-.84-.07Z" fill="#fff"/>
  <path d="M116.82,160.75c-2.77,0-5.36-.2-6.51-.35-.81-.1-1.41-.79-1.4-1.6v-.17c0-.07,.03-.14,.09-.18,.05-.05,.12-.07,.19-.06l.84,.07c3.69,.36,7.44,.45,11.14,.27h.26c.14-.02,.26,.09,.27,.22,0,.04,.02,.39-.02,.61-.14,.71-.65,1.01-1.05,1.04-1.22,.11-2.53,.15-3.8,.15Zm-7.4-1.83c.05,.5,.44,.91,.95,.98,1.67,.21,6.36,.54,10.2,.2,.08,0,.49-.07,.6-.63,.01-.06,.02-.14,.02-.23h0c-3.73,.18-7.5,.09-11.21-.27l-.56-.05Z" fill="#363636"/>
  <path d="M115.05,157.87c-.07,0-.13-.02-.18-.07-.1-.1-.1-.26,0-.36l1.42-1.42c.1-.1,.26-.1,.36,0,.1,.1,.1,.26,0,.36l-1.42,1.42s-.11,.07-.18,.07Z" fill="#363636"/>
  <path d="M116.44,158.02c-.06,0-.13-.02-.18-.07-.1-.1-.1-.26,0-.36l1.13-1.18c.1-.1,.26-.1,.36,0,.1,.1,.1,.26,0,.36l-1.13,1.18c-.05,.05-.12,.08-.18,.08Z" fill="#363636"/>
  <path d="M94.75,153.02c1.26-1.78,2.45-5.46,2.45-5.46l2.81,1.96-1.49,2.52c-.5,.65-.5,1.63-.3,2.42l.54,1.47-4.02-2.91Z" fill="#fff"/>
  <path d="M98.77,156.18c-.05,0-.1-.02-.15-.05l-4.02-2.91c-.11-.08-.14-.24-.06-.35,1.22-1.73,2.41-5.36,2.42-5.4,.02-.08,.08-.14,.16-.16,.08-.03,.16-.01,.23,.03l2.81,1.96c.11,.08,.14,.22,.07,.34l-1.49,2.52s-.01,.02-.02,.03c-.38,.5-.48,1.32-.26,2.19l.53,1.46c.04,.1,0,.22-.09,.29-.05,.03-.1,.05-.15,.05Zm-3.67-3.23l3.15,2.28-.25-.69v-.02c-.27-1.02-.15-2,.32-2.63l1.36-2.3-2.34-1.63c-.31,.91-1.23,3.47-2.24,5Z" fill="#363636"/>
  <path d="M94.81,152.02c-.41,.52-1.15,1.49-1.7,2.42-.35,.58-.2,1.34,.34,1.75,.73,.56,2.97,1.99,4.42,2.91,.86,.54,1.84,.86,2.86,.91l1.44,.08c.46,.03,.92-.02,1.37-.14,.44-.12,.89-.33,.91-.65,.05-.85-.79-1.4-1.52-1.71-.83-.36-1.56-.91-2.16-1.59-.62-.71-1.38-1.59-1.91-2.25-.11-.13-.28-.19-.44-.15l-.59,.14c-.59,.14-1.21-.08-1.57-.56l-.86-1.16c-.15-.2-.44-.2-.59,0Z" fill="#ffd7e5"/>
  <path d="M102.44,160.35c-.09,0-.18,0-.27,0l-1.44-.08c-1.06-.06-2.09-.39-2.98-.95-1.63-1.03-3.73-2.37-4.44-2.92-.65-.5-.82-1.39-.41-2.08,.57-.95,1.32-1.94,1.72-2.44,.12-.15,.3-.24,.5-.24,.2,0,.38,.09,.49,.25l.86,1.16c.3,.41,.81,.59,1.3,.47l.59-.14c.26-.06,.53,.03,.7,.24,.55,.68,1.34,1.59,1.91,2.24,.58,.66,1.3,1.19,2.07,1.52,1.14,.49,1.72,1.17,1.68,1.96-.02,.39-.39,.68-1.09,.88-.37,.1-.77,.16-1.18,.16Zm-7.33-8.22s-.06,0-.09,.04c-.39,.5-1.13,1.47-1.68,2.39-.28,.47-.16,1.08,.28,1.42,.73,.56,3.07,2.06,4.4,2.89,.82,.52,1.77,.82,2.74,.87l1.44,.08c.45,.03,.89-.02,1.29-.13,.52-.15,.72-.32,.72-.42,.04-.7-.72-1.18-1.37-1.46-.84-.36-1.62-.93-2.25-1.65-.57-.65-1.37-1.57-1.92-2.26-.04-.05-.11-.08-.18-.06l-.59,.14c-.69,.17-1.41-.09-1.83-.66l-.86-1.16s-.07-.05-.09-.05h0Zm-.29-.11h0Z" fill="#363636"/>
  <path d="M93.2,154.3s-.06,.09-.08,.14c-.35,.58-.2,1.34,.34,1.75,1.13,.87,3.37,2.45,5.85,3.79,1.41,.77,3.91,.43,4.44,.35,.37-.05,.68-.31,.69-.68l.02-.6s-3.26,.47-4.49-.32c-2.17-1.41-4.26-2.62-6.36-4.14l-.41-.3Z" fill="#fff"/>
  <path d="M101.86,160.73c-.92,0-1.93-.12-2.68-.52-2.33-1.27-4.57-2.8-5.89-3.82-.65-.5-.82-1.39-.41-2.08l.09-.14c.04-.06,.1-.1,.17-.12,.07-.01,.14,0,.2,.04l.41,.3c1.41,1.02,2.79,1.88,4.24,2.79,.69,.43,1.39,.87,2.11,1.34,.94,.61,3.43,.41,4.31,.29,.07-.01,.15,.01,.21,.06,.06,.05,.09,.12,.08,.2l-.02,.6c-.02,.47-.38,.84-.91,.92-.42,.06-1.14,.15-1.92,.15Zm-8.59-6.06c-.21,.45-.08,1,.33,1.32,1.3,1,3.51,2.52,5.82,3.77,1.28,.7,3.6,.42,4.28,.32,.21-.03,.46-.16,.47-.44v-.3c-.85,.1-3.27,.3-4.35-.4-.71-.46-1.42-.9-2.1-1.33-1.46-.92-2.85-1.78-4.27-2.81l-.18-.13Z" fill="#363636"/>
  <path d="M98.51,156.45c-.11,0-.22-.08-.25-.19-.04-.14,.05-.27,.18-.31l1.94-.51c.14-.04,.27,.05,.31,.18,.04,.14-.05,.27-.18,.31l-1.94,.51s-.04,0-.06,0Z" fill="#363636"/>
  <path d="M99.64,157.28c-.11,0-.21-.07-.24-.18-.04-.14,.04-.28,.18-.31l1.57-.45c.14-.04,.28,.04,.31,.18,.04,.14-.04,.28-.18,.31l-1.57,.45s-.05,0-.07,0Z" fill="#363636"/>
  <path d="M85.44,123.3s17.75-.59,24.06,3.17c6,3.57-10.27,25.44-10.27,25.44l-3.38-1.85,4.28-14.66c.3-1.07-.33-2.19-1.4-2.49l-15.32-4.35,2.03-5.24Z" fill="#262626"/>
  <path d="M76.33,133.39c2.71,.86,5.46,.75,12.24,.66,1.93-.03,4.65,1.69,5.53,3.41,2.01,3.94,7.51,12.32,14.59,16.92l3.38-1.82-9.79-20.72c-.79-1.77-2.26-3.15-4.09-3.82l-17.11-6.28s-4.47-1.4-7.07,3.34c-.46,.85-.78,1.61-.99,2.29-.7,2.34,.97,5.29,3.3,6.03Z" fill="#363636"/>
  <path d="M107,141.55c-.1,0-.19-.06-.23-.15l-4.18-9.23c-.71-1.61-2.55-3.22-4.47-3.92l-8.19-3.01c-.13-.05-.2-.19-.15-.33,.05-.13,.19-.2,.33-.15l8.19,3.01c2.04,.75,4,2.47,4.76,4.19l4.18,9.23c.06,.13,0,.28-.13,.34-.03,.02-.07,.02-.1,.02Z" fill="#ffe6f0"/>
  <path d="M101.8,148.96c-.07,0-.14-.03-.19-.08-.56-.6-1.23-1.42-1.99-2.43-.08-.11-.06-.27,.05-.36,.11-.08,.27-.06,.36,.05,.75,.99,1.41,1.8,1.95,2.39,.1,.1,.09,.26-.01,.36-.05,.05-.11,.07-.17,.07Z" fill="#ffe6f0"/>
  <path d="M108.52,91.78l1.65-1.99c.12-.15,.36-.06,.35,.13-.01,.31-.04,.71-.11,1.05-.04,.22,.13,.42,.35,.41,.08,0,.16,0,.23,0,.35,0,.68-.15,.91-.41,.28-.31,.62-.68,.75-.79,.23-.19,.53-.47,.87-.51h.01c.36-.04,.6,.35,.42,.65l-.49,.83c-.55,.93-1.39,1.65-2.39,2.07l-1.48,.62c-.25,.1-.41,.35-.4,.61l.05,5.77-1.9-1.96s.18-3.48,.55-5.22c.1-.47,.32-.9,.62-1.27Z" fill="#fff"/>
  <path d="M109.25,100.48c-.07,0-.13-.03-.18-.08l-1.9-1.96c-.05-.05-.08-.12-.07-.19,0-.14,.19-3.52,.56-5.26,.11-.5,.34-.97,.67-1.38l1.65-1.99c.13-.15,.33-.21,.51-.13,.18,.07,.3,.24,.29,.44-.02,.43-.05,.79-.11,1.09,0,.04,0,.06,.02,.08,.01,.01,.04,.03,.07,.03,.08,0,.16,0,.23,0,.28,0,.54-.12,.73-.33,.61-.68,.74-.78,.78-.82,.03-.03,.06-.05,.1-.08,.24-.2,.54-.45,.9-.49,.27-.03,.52,.09,.67,.31,.14,.22,.15,.5,.01,.72l-.49,.83c-.59,.98-1.45,1.73-2.51,2.18l-1.48,.62c-.15,.06-.25,.21-.25,.38l.05,5.77c0,.1-.06,.2-.16,.24-.03,.01-.06,.02-.1,.02Zm-1.64-2.31l1.38,1.42-.05-5.14c0-.37,.22-.71,.56-.85l1.48-.62c.95-.4,1.74-1.08,2.27-1.97l.49-.83c.05-.09,.02-.16,0-.19-.02-.03-.07-.09-.17-.08-.23,.03-.45,.21-.65,.38-.04,.03-.07,.06-.1,.09-.04,.04-.2,.18-.72,.76-.28,.31-.68,.49-1.1,.49-.07,0-.14,0-.22,0-.18,0-.36-.07-.48-.21-.12-.14-.17-.32-.13-.5,.04-.23,.08-.52,.09-.85l-1.54,1.86c-.28,.34-.48,.74-.57,1.16-.33,1.53-.51,4.47-.54,5.07Zm.91-6.39h0Z" fill="#363636"/>
  <path d="M76.73,96.06s2.39-.39,4.37-1.4c.82-.42,3.02-1.18,4.36,.46,.98,1.2,2.23,2.81,3.65,4.22,.59,.58,.78,1.47,.78,1.47,0,0-1.87-.35-5.29-1.47-3.41-1.12-7.88-3.27-7.88-3.27Z" fill="#363636"/>
  <path d="M92.02,101.99s2.02,1.61,7.59,.47c6.92-1.42,7.48-7.56,7.48-7.56h2.64s3.21,12.63-8.76,16.6c-11.97,3.97-13.88-2.36-13.88-2.36l4.93-7.14Z" fill="#ed2a5b" stroke="#363636" stroke-miterlimit="10" stroke-width=".5"/>
  <path d="M81.89,129.77s-5.32,2.7-8.61,.41c-.52-.36-.92-2.83-1.11-3.42-2.88-8.83-1.25-21.59,8.03-27.16,3.45-2.07,7.57-.05,9.87,1.19,.84,.45,2.03,1.25,2.16,1.33,2.14,1.26-4.52,9.82-4.37,15.35,.09,3.33,.92,4.63,1.56,5.13,.37,.29,.45,.81,.17,1.18-1.13,1.49-3.82,4.54-7.7,5.98Z" fill="#ed2a5b" stroke="#363636" stroke-miterlimit="10" stroke-width=".5"/>
  <path d="M88.01,103.92c.21,1.65,.71,3.74,1.91,5.89,3.81,6.85,11.45,8.52,12.95,8.81l-1.63,2.1s-16.17,1.42-20.81-12.59c0,0-1.79-5.54,2.19-6.9,.83-.28,1.91-.45,2.96-.05,1.8,.7,2.37,2.49,2.44,2.73Z" fill="#ed2a5b" stroke="#363636" stroke-miterlimit="10" stroke-width=".5"/>
  <path d="M77.34,101.69s-1.64-.05-2.39-1.07c-1.54-2.08-1.72-6.25,6.79-3.97,2.78,.74,5.49,3.23,5.49,3.23l2.33,2.57-12.22-.76Z" fill="#ed2a5b" stroke="#363636" stroke-miterlimit="10" stroke-width=".5"/>
  <path d="M78.31,100.65c-.05,0-.1-.02-.14-.06-.08-.08-.08-.21,0-.28,.09-.09,2.21-2.17,4.97-1.79,.11,.01,.19,.12,.17,.23-.01,.11-.12,.19-.23,.17-2.56-.35-4.61,1.66-4.63,1.68-.04,.04-.09,.06-.14,.06Z" fill="#363636"/>
  <path d="M85.94,123.75s-.08,0-.11-.03c-.28-.16-6.77-4.02-7.29-9.85-.01-.12,.08-.23,.2-.24,.12-.01,.23,.08,.24,.2,.5,5.61,7.01,9.47,7.08,9.51,.1,.06,.14,.2,.08,.3-.04,.07-.11,.11-.19,.11Z" fill="#363636"/>
  <g>
    <path d="M101.12,120.72c.12-.07,1.26-1.83,2.5-2.19,1.24-.37,3.95,2.37,3.95,2.37l-6.45-.17Z" fill="#fff"/>
    <path d="M107.57,121.15h0l-6.45-.17c-.11,0-.21-.08-.24-.19-.03-.1,.01-.2,.09-.26,.03-.03,.09-.11,.16-.19,.41-.52,1.36-1.73,2.43-2.05,1.35-.4,3.91,2.14,4.2,2.43,.07,.07,.09,.18,.05,.28-.04,.09-.13,.15-.23,.15Zm-5.92-.67l5.27,.14c-1.04-.96-2.54-2.05-3.23-1.85-.82,.24-1.62,1.18-2.04,1.71Zm-.66,.02h0Z"/>
  </g>
  <path d="M88.31,96.41c-.12,.19-.94,1.32-1.09,1.49l-1.6,1.67c-.27,.29-.2,.75,.14,.94,.79,.44,2.09,1.11,2.96,1.29,.55,.12,1.11-.18,1.32-.7l1.05-2.55-2.78-2.13Z" fill="#fff"/>
  <path d="M88.97,102.08c-.1,0-.2-.01-.29-.03-.87-.18-2.13-.82-3.03-1.32-.23-.13-.39-.36-.43-.62-.04-.27,.04-.53,.23-.72l1.6-1.67c.14-.15,.94-1.25,1.06-1.44,.04-.06,.1-.1,.17-.12,.07-.01,.14,0,.2,.05l2.78,2.13c.09,.07,.12,.19,.08,.3l-1.05,2.55c-.22,.54-.75,.89-1.31,.89Zm-.6-5.3c-.28,.4-.83,1.15-.97,1.29l-1.6,1.67c-.08,.08-.11,.19-.09,.29,.02,.11,.08,.2,.17,.25,.71,.4,2.04,1.08,2.89,1.27,.43,.09,.87-.14,1.03-.55l.98-2.38-2.42-1.85Z" fill="#363636"/>
  <path d="M92.4,90.89c2.42,1.09,1.88,2.67,1.88,2.67-.06,.44-.14,1.25-.08,1.55,.05,.25,.42,.73,.42,.87,0,.14-.22,.4-.66,.46,0,0-.32,2.14-.9,2.45-.59,.31-2.71-.52-2.71-.52l-.35-.17c-1.14-.55-1.79-1.59-2.05-2.82,0,0-1.09-6.98,4.45-4.48Z" fill="#fff"/>
  <path d="M92.68,99.2c-.83,0-2.12-.48-2.42-.6h-.02l-.35-.18c-1.14-.55-1.89-1.59-2.18-3-.03-.16-.54-3.59,1.13-4.87,.85-.65,2.08-.61,3.67,.1,2.41,1.09,2.09,2.71,2.02,2.95-.07,.52-.12,1.22-.08,1.45,.02,.09,.14,.3,.22,.43,.13,.23,.2,.35,.21,.47,.02,.25-.24,.56-.69,.69-.1,.6-.41,2.15-1.01,2.46-.13,.07-.3,.1-.5,.1Zm-2.22-1.07c.97,.38,2.19,.68,2.49,.53,.29-.16,.63-1.29,.77-2.26,.02-.11,.1-.2,.21-.21,.25-.04,.39-.15,.44-.21-.03-.06-.09-.16-.13-.23-.12-.2-.24-.42-.28-.59-.09-.45,.07-1.62,.07-1.63,0-.02,0-.03,.01-.05,.02-.05,.42-1.38-1.74-2.35-1.4-.63-2.46-.69-3.15-.16-1.44,1.09-.95,4.34-.94,4.37,.26,1.24,.92,2.15,1.91,2.63l.35,.17Zm3.92-2.12h0Z" fill="#363636"/>
  <path d="M91.67,89.66c.64,.21,1.25,.66,1.59,.72,.54,.1,.98-.57,1.65-.27,.59,.27,.89,.8,.94,1.39,0,.1,0,.2-.01,.31-.23,1.46-1.17,1.7-1.55,1.74,0,0-2.14-.35-2.57-.28-.4,.07-1.05,.64-1.3,1.49-.03,.11-.14,.19-.25,.19-.14,0-.25-.1-.26-.23-.04-.42-.18-1.27-.6-1.33-.49-.06-1.19,.87-.59,1.53,.19,.2-.17,.89-.43,.98-.22,.07-.28-.21-.55-.46,0,0-1.05-2.42-.31-4.26,.74-1.85,3.4-1.78,4.26-1.51Z" fill="#363636"/>
  <g>
    <path d="M94.72,96.07c-.07,0-.15-.03-.2-.09-.09-.11-.07-.27,.04-.36,.11-.09,.24-.34,.28-.69,.06-.45-.07-.74-.14-.77-.04,0-.19,.15-.27,.48-.04,.14-.17,.22-.31,.18-.14-.04-.22-.18-.18-.31,.15-.56,.47-.89,.83-.85,.13,.02,.38,.1,.51,.5,.08,.23,.1,.53,.07,.83-.06,.45-.23,.83-.47,1.02-.05,.04-.1,.06-.16,.06Z" fill="#363636"/>
    <path d="M93.04,96.09s-.05,0-.08,0c-.26-.03-.48-.21-.62-.5-.12-.25-.16-.57-.12-.89,.09-.72,.55-1.24,1.05-1.17,.26,.03,.48,.21,.61,.5,.12,.25,.16,.57,.12,.89-.08,.68-.5,1.18-.97,1.18Zm.15-2.07c-.18,0-.41,.3-.46,.73-.03,.23,0,.45,.08,.61,.06,.12,.14,.2,.22,.21,.18,.02,.43-.29,.48-.73,.03-.23,0-.45-.08-.61-.06-.12-.14-.2-.22-.21h-.02Zm-.72,.7h0Z" fill="#363636"/>
    <path d="M92.59,94.53s-.03,0-.04,0l-2.35-.38c-.14-.02-.23-.15-.21-.29,.02-.14,.15-.23,.29-.21l2.35,.38c.14,.02,.23,.15,.21,.29-.02,.12-.13,.21-.25,.21Z" fill="#363636"/>
  </g>
  <path d="M110.53,80.89c-.08-.11-.08-.26,0-.37,.11-.15,.16-.32,.16-.49,0-.8-1.25-1.46-2.78-1.46s-2.78,.65-2.78,1.46c0,.17,.06,.34,.16,.49,.08,.11,.08,.26,0,.37-.11,.15-.16,.32-.16,.49,0,.38,.28,.73,.74,.99-.01,.04-.02,.09-.02,.13,0,.6,.92,1.08,2.06,1.08s2.06-.48,2.06-1.08c0-.04,0-.09-.02-.13,.46-.26,.74-.61,.74-.99,0-.17-.06-.34-.16-.49Z" fill="#ffe6f0"/>
  <path d="M107.91,83.83c-1.3,0-2.31-.58-2.31-1.33-.47-.31-.72-.7-.72-1.12,0-.22,.07-.44,.21-.64,.02-.02,.02-.05,0-.08-.14-.2-.21-.42-.21-.64,0-.96,1.33-1.71,3.04-1.71s3.04,.75,3.04,1.71c0,.22-.07,.44-.21,.64-.02,.02-.02,.05,0,.08h0c.14,.2,.21,.42,.21,.64,0,.42-.26,.82-.72,1.12,0,.75-1.02,1.33-2.31,1.33Zm0-5.01c-1.49,0-2.53,.63-2.53,1.2,0,.12,.04,.23,.12,.35,.14,.2,.14,.46,0,.65-.08,.11-.12,.23-.12,.35,0,.27,.22,.54,.61,.77,.1,.06,.15,.17,.12,.28,0,.03,0,.05,0,.07,0,.39,.74,.82,1.8,.82s1.8-.43,1.8-.82c0-.02,0-.05,0-.07-.03-.11,.02-.22,.12-.28,.39-.22,.61-.5,.61-.77,0-.12-.04-.23-.12-.35-.14-.2-.14-.46,0-.66,.08-.11,.12-.23,.12-.35,0-.57-1.04-1.2-2.53-1.2Z" fill="#363636"/>
  <path d="M115.46,68.86c0-4.12-3.43-7.64-7.55-7.64-4.12,0-7.51,3.42-7.54,7.54-.01,2.1,1,4.05,2.38,5.41,.99,.98,1.72,2.21,2.07,3.56l.02,.07c.34,1.31,1.53,2.23,2.89,2.23h.56c1.36,0,2.54-.92,2.89-2.23v-.04c.36-1.34,1.06-2.58,2.05-3.55,1.39-1.36,2.25-3.25,2.25-5.35Z" fill="#fff"/>
  <path d="M108.27,80.28h-.56c-1.47,0-2.76-1-3.13-2.42l-.02-.07c-.33-1.29-1.03-2.48-2-3.45-1.57-1.55-2.46-3.59-2.45-5.59,.03-4.3,3.52-7.79,7.79-7.79,4.23,0,7.81,3.62,7.81,7.9,0,2.1-.83,4.06-2.33,5.53-.95,.92-1.63,2.11-1.97,3.43v.04c-.38,1.43-1.67,2.42-3.14,2.42Zm-.37-18.81c-3.99,0-7.26,3.27-7.28,7.29-.01,1.86,.83,3.77,2.3,5.23,1.04,1.03,1.78,2.3,2.14,3.68l.02,.07c.31,1.2,1.4,2.04,2.64,2.04h.56c1.24,0,2.33-.84,2.64-2.04v-.04c.38-1.41,1.11-2.68,2.12-3.67,1.4-1.37,2.18-3.2,2.18-5.16,0-4.01-3.34-7.39-7.3-7.39Z" fill="#363636"/>
  <path d="M108.33,79.21h0c-.14,0-.25-.11-.25-.26,.02-4.04,2.37-8.6,2.85-9.48,.27-.5,.37-.9,.32-1.22-.08-.48-.32-.79-.72-.92-.19-.06-.61-.11-1.01,.05,.5,.57,.82,1.42,.59,2.21-.1,.35-.38,.59-.74,.65-.42,.07-.85-.11-1.09-.46-.21-.29-.45-.96,.19-2.09,.07-.12,.15-.23,.24-.33-.29-.16-.74-.27-1.18-.11-.09,.03-.18,.08-.26,.14,.54,.48,.78,1.48,.66,2.06-.1,.48-.39,.84-.79,.96-.35,.1-.72,0-.98-.25-.35-.35-.43-.92-.23-1.58,.13-.43,.3-.76,.48-1.02-.7-.13-1.18,.21-1.31,.54-.17,.43-.11,.94,.17,1.34,.69,.99,2.32,3.89,2.4,9.33,0,.14-.11,.26-.25,.26-.14,0-.26-.11-.26-.25-.08-5.3-1.64-8.09-2.3-9.05-.38-.54-.46-1.23-.22-1.82,.26-.65,1.13-1.1,2.16-.78,.2-.18,.4-.28,.58-.35,.64-.24,1.29-.06,1.69,.19,.03,.02,.05,.04,.08,.05,.53-.31,1.16-.3,1.57-.17,.58,.19,.96,.65,1.07,1.32,.08,.45-.04,.94-.37,1.55-.46,.85-2.77,5.31-2.78,9.24,0,.14-.11,.25-.25,.25Zm-1.46-11.47c-.2,.25-.36,.58-.49,.99-.14,.47-.1,.86,.11,1.07,.13,.13,.31,.17,.48,.12,.22-.07,.38-.27,.44-.57,.09-.44-.14-1.3-.54-1.61Zm2.21-.06c-.07,.07-.13,.16-.19,.26-.37,.65-.45,1.22-.21,1.55,.13,.19,.37,.29,.59,.25,.1-.02,.28-.08,.34-.29,.17-.61-.11-1.32-.52-1.78Z" fill="#363636"/>
  <path d="M111.37,73.8c-.08,0-.17-.04-.22-.12-.07-.12-.04-.28,.08-.35,1.31-.82,2.25-2.16,2.59-3.67,.03-.14,.17-.22,.3-.19,.14,.03,.22,.17,.19,.3-.36,1.64-1.39,3.1-2.81,3.99-.04,.03-.09,.04-.14,.04Z" fill="#363636"/>
  <path d="M103.24,72.94c-.07,0-.14-.03-.19-.09-1.03-1.16-1.6-2.65-1.6-4.2,0-2.42,1.35-4.59,3.51-5.67,.13-.06,.28-.01,.34,.11,.06,.13,.01,.28-.11,.34-1.99,.99-3.23,2.99-3.23,5.21,0,1.43,.52,2.8,1.47,3.86,.09,.1,.08,.27-.02,.36-.05,.04-.11,.06-.17,.06Z" fill="#363636"/>
  <path d="M108.38,81.06c-.12,0-.23-.09-.25-.21-.02-.14,.07-.27,.21-.29,.25-.04,.49-.1,.72-.16,.13-.04,.28,.04,.31,.18,.04,.14-.04,.28-.18,.31-.25,.07-.51,.13-.77,.17-.01,0-.03,0-.04,0Z" fill="#363636"/>
  <path d="M107.21,82.49c-.14,0-.25-.11-.25-.25,0-.14,.11-.26,.25-.26,.56,0,1.38-.08,2.12-.42,.13-.06,.28,0,.34,.12,.06,.13,0,.28-.12,.34-.81,.38-1.72,.47-2.33,.47h0Z" fill="#363636"/>
  <g>
    <path d="M107.94,59.68h0c-.14,0-.25-.12-.25-.26l.07-3.3c0-.14,.11-.25,.26-.25,.14,0,.25,.12,.25,.26l-.07,3.3c0,.14-.12,.25-.25,.25Z" fill="#363636"/>
    <path d="M98.39,66.4h-2.11c-.14,0-.25-.12-.25-.26,0-.14,.11-.25,.25-.25h2.11c.14,0,.25,.12,.25,.26,0,.14-.11,.25-.25,.25Z" fill="#363636"/>
    <path d="M100.33,61.99s-.08,0-.12-.03l-2.37-1.29c-.12-.07-.17-.22-.1-.34,.07-.12,.22-.17,.34-.1l2.37,1.29c.12,.07,.17,.22,.1,.34-.05,.08-.13,.13-.22,.13Z" fill="#363636"/>
    <path d="M117.43,66.4c-.14,0-.25-.11-.25-.25,0-.14,.11-.25,.25-.25h2.11c.14,0,.25,.11,.25,.25,0,.14-.11,.25-.25,.25h-2.11Z" fill="#363636"/>
    <path d="M115.48,61.99c-.09,0-.18-.05-.22-.13-.07-.12-.02-.28,.1-.34l2.37-1.29c.12-.07,.28-.02,.34,.1,.07,.12,.02,.28-.1,.34l-2.37,1.29s-.08,.03-.12,.03Z" fill="#363636"/>
  </g>
  <path d="M158.15,58.27c-.09,0-.18-.05-.23-.14-.24-.5-.51-.99-.8-1.48-.07-.12-.03-.28,.09-.35,.12-.07,.28-.03,.35,.09,.29,.5,.57,1.01,.82,1.51,.06,.13,0,.28-.12,.34-.04,.02-.07,.03-.11,.03Zm-1.73-2.92c-.08,0-.16-.04-.21-.11-.32-.46-.66-.91-1.02-1.34-.09-.11-.07-.27,.03-.36,.11-.09,.27-.07,.36,.03,.36,.44,.72,.9,1.04,1.37,.08,.11,.05,.27-.06,.35-.04,.03-.1,.05-.15,.05Zm-14.97-1.16c-.59,0-1.14-.06-1.64-.18-.14-.03-.22-.17-.19-.31,.03-.14,.17-.22,.31-.19,.46,.11,.97,.16,1.52,.16h.11c.13,0,.26,.11,.26,.25,0,.14-.11,.26-.25,.26h-.11Zm1.8-.18c-.12,0-.23-.08-.25-.21-.03-.14,.06-.27,.2-.3,.55-.1,1.08-.25,1.6-.44,.13-.05,.28,.02,.33,.15,.05,.13-.02,.28-.15,.33-.54,.2-1.1,.36-1.68,.47-.02,0-.03,0-.05,0Zm-4.9-.72c-.06,0-.12-.02-.17-.06-.12-.11-.22-.22-.31-.34-.27-.36-.44-.81-.48-1.32-.01-.14,.09-.26,.23-.28,.14-.01,.26,.09,.28,.23,.04,.42,.17,.79,.39,1.07,.07,.09,.15,.18,.24,.26,.1,.09,.11,.25,.02,.36-.05,.06-.12,.09-.19,.09Zm8.07-.47c-.09,0-.17-.04-.22-.12-.07-.12-.03-.28,.09-.35,.49-.3,.93-.63,1.3-.99,.1-.1,.26-.1,.36,0,.1,.1,.1,.26,0,.36-.4,.39-.87,.75-1.39,1.07-.04,.02-.09,.04-.13,.04Zm7.83-.1c-.07,0-.13-.03-.18-.08-.39-.4-.8-.79-1.22-1.15-.11-.09-.12-.25-.02-.36,.09-.11,.25-.12,.36-.03,.43,.37,.85,.77,1.25,1.18,.1,.1,.1,.26,0,.36-.05,.05-.11,.07-.18,.07Zm-2.56-2.22c-.05,0-.1-.02-.15-.05-.46-.33-.93-.64-1.4-.91-.12-.07-.16-.23-.09-.35,.07-.12,.23-.16,.35-.09,.49,.28,.97,.6,1.45,.94,.11,.08,.14,.24,.06,.36-.05,.07-.13,.11-.21,.11Zm-2.91-.06s-.08,0-.12-.03c-.12-.07-.17-.22-.1-.34,.25-.46,.45-.97,.59-1.52,.03-.14,.17-.22,.31-.18,.14,.03,.22,.17,.18,.31-.15,.59-.36,1.14-.63,1.64-.05,.08-.13,.13-.22,.13Zm-10.89-.31s-.07,0-.1-.02c-.13-.05-.19-.2-.14-.33,.06-.14,.12-.27,.19-.4,.22-.39,.53-.74,.92-1.03,.11-.08,.27-.06,.36,.05,.08,.11,.06,.27-.05,.36-.33,.25-.59,.55-.78,.88-.06,.11-.12,.22-.17,.34-.04,.1-.14,.16-.24,.16Zm10.86-1.33s-.07,0-.1-.02c-.52-.23-1.04-.42-1.56-.58-.13-.04-.21-.18-.17-.32,.04-.13,.18-.21,.32-.17,.54,.16,1.09,.36,1.62,.6,.13,.06,.19,.21,.13,.34-.04,.1-.14,.15-.23,.15Zm-8.31-.74c-.11,0-.21-.07-.24-.18-.04-.13,.03-.28,.17-.32,.51-.16,1.09-.27,1.72-.33,.14-.01,.26,.09,.28,.23,.01,.14-.09,.26-.23,.28-.6,.06-1.14,.16-1.62,.31-.02,0-.05,.01-.07,.01Zm5.06-.23s-.03,0-.04,0c-.32-.05-.65-.09-.97-.11-.16-.01-.39-.03-.69-.03-.14,0-.25-.12-.25-.26,0-.14,.11-.25,.26-.25,.31,0,.56,.03,.71,.04,.33,.02,.68,.06,1.01,.11,.14,.02,.23,.15,.21,.29-.02,.13-.13,.22-.25,.22Zm4.14-.66h-.02c-.14,0-.25-.13-.24-.27,.01-.22,.02-.45,.02-.68,0-.32-.01-.65-.04-.98-.01-.14,.09-.26,.23-.27,.14-.01,.26,.09,.27,.23,.03,.35,.04,.69,.04,1.02,0,.24,0,.48-.02,.72,0,.13-.12,.24-.25,.24Zm-.24-3.38c-.12,0-.23-.09-.25-.21-.1-.53-.23-1.08-.38-1.63-.04-.14,.04-.28,.18-.31,.13-.04,.28,.04,.31,.18,.16,.57,.29,1.13,.39,1.68,.03,.14-.07,.27-.2,.3-.02,0-.03,0-.05,0Zm-.91-3.27c-.1,0-.2-.06-.24-.17-.19-.52-.41-1.05-.64-1.56-.06-.13,0-.28,.13-.34,.13-.06,.28,0,.34,.13,.24,.52,.45,1.06,.65,1.59,.05,.13-.02,.28-.15,.33-.03,.01-.06,.02-.09,.02Zm-1.4-3.1c-.09,0-.18-.05-.22-.13-.24-.45-.5-.88-.76-1.28-.03-.05-.07-.11-.1-.16-.08-.12-.05-.27,.07-.35,.12-.08,.27-.05,.35,.07,.04,.05,.07,.11,.11,.16,.27,.41,.53,.85,.78,1.31,.07,.12,.02,.28-.1,.34-.04,.02-.08,.03-.12,.03Zm-1.88-2.83c-.07,0-.15-.03-.2-.1-.35-.43-.72-.85-1.11-1.26-.1-.1-.09-.26,0-.36,.1-.1,.26-.09,.36,0,.4,.41,.78,.85,1.14,1.29,.09,.11,.07,.27-.04,.36-.05,.04-.1,.06-.16,.06Zm-2.35-2.45c-.06,0-.12-.02-.17-.06-.42-.36-.86-.72-1.31-1.05-.11-.08-.14-.24-.05-.36,.08-.11,.24-.14,.36-.05,.46,.34,.91,.7,1.34,1.08,.11,.09,.12,.25,.02,.36-.05,.06-.12,.09-.19,.09Zm-2.73-2.02s-.09-.01-.13-.04c-.47-.29-.96-.57-1.46-.84-.12-.07-.17-.22-.11-.34,.07-.12,.22-.17,.34-.11,.51,.27,1.01,.56,1.49,.86,.12,.07,.16,.23,.08,.35-.05,.08-.13,.12-.22,.12Zm-27.57-.46c-.09,0-.17-.05-.22-.13-.07-.12-.03-.28,.09-.35,.5-.29,1-.56,1.51-.81,.13-.06,.28-.01,.34,.11,.06,.13,.01,.28-.11,.34-.5,.25-1,.52-1.48,.8-.04,.02-.08,.03-.13,.03Zm24.56-1.13s-.07,0-.1-.02c-.51-.22-1.03-.43-1.56-.63-.13-.05-.2-.19-.15-.33,.05-.13,.19-.2,.33-.15,.54,.2,1.08,.41,1.59,.64,.13,.06,.19,.21,.13,.34-.04,.1-.14,.15-.23,.15Zm-21.52-.38c-.1,0-.19-.06-.23-.16-.05-.13,0-.28,.14-.33,.53-.22,1.07-.42,1.61-.61,.13-.05,.28,.03,.32,.16,.05,.13-.03,.28-.16,.32-.53,.18-1.06,.38-1.57,.6-.03,.01-.07,.02-.1,.02Zm18.33-.78s-.05,0-.07-.01c-.53-.16-1.08-.3-1.63-.43-.14-.03-.22-.17-.19-.3,.03-.14,.17-.22,.3-.19,.56,.13,1.12,.28,1.66,.44,.13,.04,.21,.18,.17,.32-.03,.11-.13,.18-.24,.18Zm-15.11-.31c-.11,0-.22-.08-.25-.19-.04-.14,.04-.27,.18-.31,.36-.1,.73-.19,1.1-.27,.19-.04,.38-.08,.57-.12,.14-.03,.27,.06,.3,.2,.03,.14-.06,.27-.2,.3-.19,.04-.37,.07-.56,.12-.36,.08-.72,.17-1.08,.26-.02,0-.04,0-.07,0Zm11.8-.45s-.03,0-.04,0c-.55-.09-1.11-.17-1.67-.23-.14-.02-.24-.14-.22-.28,.02-.14,.14-.24,.28-.22,.57,.06,1.14,.14,1.7,.24,.14,.02,.23,.15,.21,.29-.02,.12-.13,.21-.25,.21Zm-8.47-.2c-.13,0-.24-.09-.25-.22-.02-.14,.08-.27,.22-.28,.56-.07,1.13-.13,1.71-.16,.14,0,.26,.1,.27,.24,0,.14-.1,.26-.24,.27-.56,.04-1.13,.09-1.68,.16-.01,0-.02,0-.03,0Zm5.09-.18h-.01c-.51-.03-1.03-.04-1.54-.04h-.14c-.14,0-.25-.11-.25-.25,0-.14,.11-.25,.25-.26h.15c.52,0,1.05,.01,1.57,.04,.14,0,.25,.13,.24,.27,0,.14-.12,.24-.25,.24Z" fill="#363636"/>
  <path d="M124.94,77.91c-.22-2.87,0-6.96,2.46-10.37,6.81-9.44,26.68-8.05,30.54-.35,1.96,3.91-.16,9.53-3.33,12.63-4.68,4.58-12.58,4.53-17.4,1.78-4.59-2.62-6.02-7.48-8.93-7.03-1.62,.25-2.7,1.99-3.34,3.34Z" fill="#ffd7e5"/>
  <path d="M151.19,70.21h-16.73c-.14,0-.25-.11-.25-.25s.11-.25,.25-.25h16.73c.14,0,.25,.11,.25,.25s-.11,.25-.25,.25Z" fill="#363636"/>
  <path d="M146.74,73.15h-8.42c-.14,0-.25-.11-.25-.25s.11-.25,.25-.25h8.42c.14,0,.25,.11,.25,.25s-.11,.25-.25,.25Z" fill="#363636"/>
  <path d="M168.81,96.21c.43-.6,5.22-7.59,2.21-15.56-2.11-5.6-7.49-10.13-13.74-10.38-1.05-.04-7.7-.3-11.26,5.01-2.4,3.58-2.66,8.57-.33,12.2,2.77,4.32,8.07,4.93,8.86,5.01,5.5,.55,8.53-2.98,11.53-1.27,1.84,1.04,2.47,3.37,2.73,4.98Z" fill="#fff"/>
  <path d="M168.81,96.47s-.04,0-.06,0c-.1-.02-.18-.11-.19-.21-.39-2.43-1.26-4.04-2.6-4.8-1.45-.82-2.93-.34-4.8,.28-1.84,.61-3.92,1.29-6.63,1.02-1.44-.15-6.36-.94-9.04-5.13-2.32-3.61-2.18-8.74,.33-12.48,3.29-4.9,9.13-5.21,11.48-5.12,3.04,.12,6,1.24,8.56,3.23,2.41,1.88,4.33,4.48,5.4,7.31,3.03,8.03-1.69,15.03-2.24,15.8-.05,.07-.13,.11-.21,.11Zm-4.53-5.96c.65,0,1.29,.14,1.92,.5,1.36,.77,2.28,2.3,2.74,4.54,1.18-1.87,4.42-7.95,1.83-14.81-2.22-5.88-7.65-9.98-13.51-10.21-2.27-.09-7.9,.21-11.04,4.9-2.4,3.58-2.54,8.48-.33,11.93,2.63,4.1,7.68,4.8,8.67,4.9,2.61,.26,4.64-.41,6.42-1,1.17-.39,2.25-.74,3.29-.74Z" fill="#363636"/>
  <path d="M165.79,80.49h-15.73c-.14,0-.25-.11-.25-.25s.11-.25,.25-.25h15.73c.14,0,.25,.11,.25,.25s-.11,.25-.25,.25Z" fill="#363636"/>
  <path d="M160.62,82.54h-5.63c-.14,0-.25-.11-.25-.25s.11-.25,.25-.25h5.63c.14,0,.25,.11,.25,.25s-.11,.25-.25,.25Z" fill="#363636"/>
  <g>
    <path d="M83.97,82.82l-6.96-.03c-.54,0-.99,.48-1,1.08h0c0,.6,.42,1.09,.97,1.09l6.96,.03c.54,0,.99-.48,1-1.08h0c0-.6-.42-1.09-.97-1.09Z" fill="#ffe6f0"/>
    <path d="M91.75,82.85h-3.3c-.54-.01-.99,.47-1,1.07h0c0,.6,.42,1.09,.97,1.09h3.3c.54,.01,.99-.47,1-1.07h0c0-.6-.42-1.09-.97-1.09Z" fill="#ffe6f0"/>
    <path d="M91.67,78.07l-14.67-.06c-.54,0-.99,.48-1,1.08h0c0,.6,.42,1.09,.97,1.09l14.67,.06c.54,0,.99-.48,1-1.08h0c0-.6-.42-1.09-.97-1.09Z" fill="#ffe6f0"/>
    <path d="M88.57,73.13l-11.56-.05c-.54,0-.99,.48-1,1.08h0c0,.6,.42,1.09,.97,1.09l11.56,.05c.54,0,.99-.48,1-1.08h0c0-.6-.42-1.09-.97-1.09Z" fill="#ffe6f0"/>
    <path d="M89.54,68.49l-12.53-.05c-.54,0-.99,.48-1,1.08h0c0,.6,.42,1.09,.97,1.09l12.53,.05c.54,0,.99-.48,1-1.08h0c0-.6-.42-1.09-.97-1.09Z" fill="#ffe6f0"/>
  </g>
</svg>