<?xml version="1.0" encoding="UTF-8"?>
<svg id="Layer_1" data-name="Layer 1" xmlns="http://www.w3.org/2000/svg" viewBox="0 0 270 186">
  <ellipse cx="135" cy="161.25" rx="77.13" ry="6.23" fill="#ffe6f0" opacity=".8"/>
  <path d="M151.16,93.09c-.07,0-.14-.03-.19-.08-.47-.49-.95-.98-1.44-1.46-.1-.1-.1-.26,0-.36,.1-.1,.26-.1,.36,0,.49,.48,.98,.98,1.45,1.47,.1,.1,.09,.27,0,.36-.05,.05-.11,.07-.18,.07Zm-2.94-2.88c-.06,0-.12-.02-.17-.07-.5-.46-1.02-.91-1.54-1.35-.11-.09-.12-.25-.03-.36,.09-.11,.25-.12,.36-.03,.52,.44,1.05,.9,1.55,1.36,.11,.1,.11,.26,.02,.36-.05,.06-.12,.08-.19,.08Zm-3.14-2.66c-.06,0-.11-.02-.16-.06-.53-.42-1.08-.84-1.63-1.24-.11-.08-.14-.24-.06-.36,.08-.11,.24-.14,.36-.06,.56,.4,1.11,.82,1.65,1.25,.11,.09,.13,.25,.04,.36-.05,.06-.13,.1-.2,.1Zm-3.33-2.43s-.1-.01-.14-.04c-.56-.38-1.14-.76-1.72-1.12-.12-.08-.16-.23-.08-.35,.08-.12,.23-.16,.35-.08,.58,.36,1.16,.74,1.73,1.13,.12,.08,.15,.24,.07,.36-.05,.07-.13,.11-.21,.11Zm-3.49-2.18s-.09-.01-.13-.03c-.59-.34-1.19-.67-1.79-.99-.13-.07-.17-.22-.11-.35,.07-.13,.22-.17,.35-.11,.61,.32,1.22,.66,1.81,1,.12,.07,.17,.23,.09,.35-.05,.08-.13,.13-.22,.13Zm-3.64-1.92s-.08,0-.11-.03c-.61-.3-1.24-.58-1.86-.86-.13-.06-.19-.21-.13-.34,.06-.13,.21-.19,.34-.13,.63,.27,1.26,.57,1.88,.86,.13,.06,.18,.22,.12,.34-.04,.09-.14,.15-.23,.15Zm-3.77-1.65s-.06,0-.09-.02c-.63-.25-1.28-.49-1.92-.72-.13-.05-.2-.19-.16-.33,.05-.13,.19-.2,.33-.16,.65,.23,1.3,.47,1.94,.73,.13,.05,.2,.2,.14,.33-.04,.1-.14,.16-.24,.16Zm-3.88-1.37s-.05,0-.08-.01c-.65-.2-1.31-.4-1.97-.58-.14-.04-.22-.18-.18-.32,.04-.14,.18-.22,.32-.18,.66,.18,1.33,.38,1.98,.58,.14,.04,.21,.19,.17,.32-.03,.11-.14,.18-.25,.18Z" fill="#fff"/>
  <path d="M204.98,142.23l-1.2,1.11c-.92,.84-2.15,1.23-3.33,1.05l-127.6-19.23c-1.7-.26-2.52-2.02-2.54-3.76l-.85-87.95c-.01-1.04,.61-5.18,.61-5.18,0,0,3.1-2.23,4.96-3.1,.85-.39,1.77-.53,2.67-.4l126.36,18.69c1.29,.19,2.22,1.28,2.22,2.6l.29,92.6c0,1.33-.57,2.63-1.58,3.56Z" fill="#262626"/>
  <path d="M201.11,144.17l-127.86-18.91c-1.98-.29-3.41-1.96-3.42-3.99l-.28-91.4c0-1.07,.98-1.94,2.03-1.78l128.2,18.97c1.29,.19,2.22,1.28,2.22,2.6l.29,93.49c0,.62-.57,1.12-1.18,1.03Z" fill="#fff" stroke="#363636" stroke-miterlimit="10" stroke-width=".96"/>
  <path d="M69.71,79.28c-.14,0-.26-.11-.26-.26l-.15-49.16c0-.59,.26-1.16,.72-1.56,.45-.39,1.03-.56,1.6-.48l77.85,11.66c.14,.02,.24,.15,.22,.29-.02,.14-.15,.24-.29,.22l-77.85-11.66c-.42-.06-.85,.07-1.19,.36-.34,.3-.54,.72-.54,1.17l.15,49.16c0,.14-.11,.26-.26,.26h0Z" fill="#363636"/>
  <path d="M201.25,144.44c-.06,0-.12,0-.18-.01l-7.4-1.1c-.14-.02-.24-.15-.22-.29,.02-.14,.15-.24,.29-.22l7.4,1.1c.21,.03,.43-.04,.6-.18,.18-.15,.28-.37,.28-.6l-.29-93.49c0-.71-.31-1.38-.83-1.82-.11-.09-.12-.25-.03-.36,.09-.11,.25-.12,.36-.03,.64,.54,1.02,1.35,1.02,2.21l.29,93.49c0,.38-.16,.73-.45,.99-.24,.21-.54,.32-.84,.32Z" fill="#363636"/>
  <path d="M172.98,107.3l-58.45-9.19c-1.43-.22-2.45-1.43-2.45-2.9V41.89c0-1.98,1.82-3.56,3.75-3.26l58.45,9.19c1.43,.22,2.45,1.43,2.45,2.9v53.32c0,1.98-1.82,3.56-3.75,3.26Z" fill="#fff"/>
  <path d="M118.29,93.24l-1.66-.3c-.73-.13-1.31-.87-1.31-1.67l.02-8.7c0-.82,.61-1.38,1.36-1.25l1.65,.29c.73,.13,1.32,.87,1.32,1.67v8.71c0,.82-.62,1.38-1.37,1.25Z" fill="#caddff"/>
  <path d="M124.17,94.16l-1.66-.3c-.73-.13-1.31-.87-1.31-1.67l.02-14.19c0-.82,.61-1.38,1.36-1.25l1.64,.29c.73,.13,1.32,.87,1.32,1.67v14.21c0,.82-.62,1.38-1.37,1.25Z" fill="#ffd7e5"/>
  <path d="M130.05,95.09l-1.66-.3c-.73-.13-1.31-.87-1.31-1.67l.02-11.27c0-.82,.61-1.38,1.36-1.25l1.65,.29c.73,.13,1.32,.87,1.32,1.67v11.28c0,.82-.62,1.38-1.37,1.25Z" fill="#ffd7e5"/>
  <path d="M135.94,96.01l-1.66-.3c-.73-.13-1.31-.87-1.31-1.67l.02-22.16c0-.82,.61-1.38,1.36-1.25l1.64,.29c.73,.13,1.32,.87,1.32,1.67v22.18c0,.82-.62,1.38-1.37,1.25Z" fill="#ffd7e5"/>
  <path d="M141.82,96.94l-1.66-.3c-.73-.13-1.31-.87-1.31-1.67l.02-27.87c0-.82,.61-1.38,1.36-1.25l1.64,.29c.73,.13,1.32,.87,1.32,1.67v27.88c0,.82-.62,1.38-1.37,1.25Z" fill="#ffd7e5"/>
  <path d="M147.7,97.86l-1.66-.3c-.73-.13-1.31-.87-1.31-1.67l.02-32.12c0-.82,.61-1.38,1.36-1.25l1.64,.29c.73,.13,1.32,.87,1.32,1.67v32.13c0,.82-.62,1.38-1.37,1.25Z" fill="#ed2a5b"/>
  <path d="M153.59,98.79l-1.66-.3c-.73-.13-1.31-.87-1.31-1.67l.02-22.81c0-.82,.61-1.38,1.36-1.25l1.64,.29c.73,.13,1.32,.87,1.32,1.67v22.83c0,.82-.62,1.38-1.37,1.25Z" fill="#ffd7e5"/>
  <path d="M159.47,99.71l-1.66-.3c-.73-.13-1.31-.87-1.31-1.67l.02-30.27c0-.82,.61-1.38,1.36-1.25l1.64,.29c.73,.13,1.32,.87,1.32,1.67v30.29c0,.82-.62,1.38-1.37,1.25Z" fill="#ffd7e5"/>
  <path d="M165.35,100.64l-1.66-.3c-.73-.13-1.31-.87-1.31-1.67l.02-39.37c0-.82,.61-1.38,1.36-1.25l1.64,.29c.73,.13,1.32,.87,1.32,1.67v39.38c0,.82-.62,1.38-1.37,1.25Z" fill="#ffd7e5"/>
  <path d="M171.32,101.58l-1.66-.3c-.73-.13-1.31-.87-1.31-1.67l.02-45.47c0-.82,.61-1.38,1.36-1.25l1.64,.29c.73,.13,1.32,.87,1.32,1.67v45.49c0,.82-.62,1.38-1.37,1.25Z" fill="#ed2a5b"/>
  <path d="M154.5,133.65l-23.41-3.74c-.75-.12-1.35-.86-1.35-1.65v-23.29c0-.79,.6-1.33,1.35-1.21l23.41,3.74c.75,.12,1.35,.86,1.35,1.65v23.29c0,.79-.6,1.33-1.35,1.21Z" fill="#fff"/>
  <polygon points="135.95 128.7 133.61 128.33 133.61 111.51 135.95 111.89 135.95 128.7" fill="#ed2a5b"/>
  <polygon points="135.95 128.7 133.61 128.33 133.61 117.48 135.95 117.85 135.95 128.7" fill="#ffd7e5"/>
  <polygon points="140.34 129.4 138 129.03 138 114.7 140.34 115.07 140.34 129.4" fill="#ed2a5b"/>
  <polygon points="140.34 129.4 138 129.03 138 120.82 140.34 121.19 140.34 129.4" fill="#ffd7e5"/>
  <polygon points="144.44 130.14 142.1 129.76 142.1 116.74 144.44 117.12 144.44 130.14" fill="#ed2a5b"/>
  <polygon points="144.44 130.14 142.1 129.76 142.1 123.72 144.44 124.09 144.44 130.14" fill="#ffd7e5"/>
  <polygon points="148.64 130.96 146.3 130.59 146.3 113.78 148.64 114.15 148.64 130.96" fill="#ed2a5b"/>
  <polygon points="148.64 130.96 146.3 130.59 146.3 116.56 148.64 116.94 148.64 130.96" fill="#ffd7e5"/>
  <polygon points="152.88 131.56 150.54 131.19 150.54 115.54 152.88 115.91 152.88 131.56" fill="#ed2a5b"/>
  <polygon points="152.88 131.56 150.54 131.19 150.54 120.88 152.88 121.26 152.88 131.56" fill="#ffd7e5"/>
  <path d="M154.35,132.04s-.03,0-.04,0l-22.68-3.63c-.47-.07-.83-.52-.83-1l.09-19.87c0-.14,.12-.26,.26-.26h0c.14,0,.26,.12,.26,.26l-.09,19.87c0,.23,.18,.46,.39,.49l22.68,3.63c.14,.02,.24,.15,.21,.29-.02,.13-.13,.22-.25,.22Z" fill="#ed2a5b"/>
  <g>
    <polygon points="140.57 108.29 133.54 107.16 133.54 105.85 140.57 106.97 140.57 108.29" fill="#ffd7e5"/>
    <polygon points="140.6 110.31 133.57 109.18 133.57 107.86 140.6 108.99 140.6 110.31" fill="#ffd7e5"/>
  </g>
  <path d="M106.29,92.94l-32.08-5.62c-.77-.14-1.33-.8-1.33-1.59V34.41c0-1,.9-1.76,1.89-1.59l32.08,5.62c.77,.14,1.33,.8,1.33,1.59v51.31c0,1-.9,1.76-1.89,1.59Z" fill="#fff"/>
  <ellipse cx="90.36" cy="55.51" rx="13.33" ry="15.31" transform="translate(-13.4 77.39) rotate(-43.47)" fill="#ffe6f0"/>
  <path d="M90.62,55.56l9.12,11.98c3.48-2.57,5.41-6.98,4.73-12-.43-3.18-1.84-6.12-3.88-8.51l-9.97,8.54Z" fill="#ffbdd6"/>
  <path d="M91.49,41.45l-.87,14.11,9.97-8.53c-2.37-2.78-5.59-4.8-9.1-5.58Z" fill="#ed2a5b"/>
  <ellipse cx="90.36" cy="55.51" rx="4.06" ry="4.67" transform="translate(-13.4 77.39) rotate(-43.47)" fill="#fff"/>
  <polygon points="104.3 79.47 76.44 75.63 76.44 72.57 104.3 76.42 104.3 79.47" fill="#f0f0f0"/>
  <polygon points="104.36 85.14 76.5 81.3 76.5 78.25 104.36 82.09 104.36 85.14" fill="#f0f0f0"/>
  <path d="M108.18,56.02c-.14,0-.26-.12-.26-.26v-15.73c0-.66-.47-1.22-1.12-1.33l-32.08-5.62c-.4-.07-.8,.04-1.1,.3-.31,.26-.48,.64-.48,1.04v20.86c0,.14-.12,.26-.26,.26s-.26-.12-.26-.26v-20.86c0-.55,.24-1.07,.67-1.43,.42-.36,.98-.5,1.52-.41l32.08,5.62c.9,.16,1.55,.93,1.55,1.84v15.73c0,.14-.12,.26-.26,.26Z" fill="#363636"/>
  <g>
    <polygon points="196.66 120.24 160.57 114.45 160.57 110.72 196.66 116.51 196.66 120.24" fill="#ffe6f0"/>
    <polygon points="196.83 126.22 160.74 120.43 160.74 116.7 196.83 122.49 196.83 126.22" fill="#ffe6f0"/>
    <polygon points="196.89 132.43 160.8 126.64 160.8 122.91 196.89 128.7 196.89 132.43" fill="#ffe6f0"/>
    <polygon points="196.89 138.2 160.8 132.41 160.8 128.68 196.89 134.47 196.89 138.2" fill="#ffe6f0"/>
  </g>
  <g>
    <polygon points="196.48 56.31 183.04 54.4 183.04 50.92 196.48 52.82 196.48 56.31" fill="#ffbdd6"/>
    <polygon points="197.84 66.04 180.66 63.61 180.66 60.12 197.84 62.55 197.84 66.04" fill="#ffbdd6"/>
    <polygon points="197.9 71.7 180.72 69.27 180.72 65.78 197.9 68.22 197.9 71.7" fill="#ffbdd6"/>
    <polygon points="197.95 83.14 180.77 80.7 180.77 77.22 197.95 79.65 197.95 83.14" fill="#ffbdd6"/>
    <polygon points="197.9 88.85 180.72 86.41 180.72 82.92 197.9 85.36 197.9 88.85" fill="#ffbdd6"/>
    <polygon points="197.79 94.48 180.61 92.05 180.61 88.39 197.79 90.83 197.79 94.48" fill="#ffbdd6"/>
  </g>
  <path d="M140.43,135.47s-.03,0-.04,0l-17.24-2.57c-.14-.02-.24-.15-.22-.29,.02-.14,.15-.24,.29-.22l17.24,2.57c.14,.02,.24,.15,.22,.29-.02,.13-.13,.22-.25,.22Z" fill="#363636"/>
  <circle cx="178.04" cy="44.14" r="22.63" transform="translate(-4.06 22.08) rotate(-7.02)" fill="#363636"/>
  <circle cx="175.25" cy="44.14" r="22.63" fill="#ffd7e5"/>
  <path d="M175.25,67.03c-12.62,0-22.89-10.27-22.89-22.89s10.27-22.89,22.89-22.89,22.89,10.27,22.89,22.89-10.27,22.89-22.89,22.89Zm0-45.26c-12.34,0-22.37,10.04-22.37,22.37s10.04,22.37,22.37,22.37,22.37-10.04,22.37-22.37-10.04-22.37-22.37-22.37Z" fill="#363636"/>
  <circle cx="175.25" cy="44.14" r="15.09" fill="#fff"/>
  <circle cx="175.25" cy="44.14" r="7.54" transform="translate(-5.45 41.44) rotate(-13.28)" fill="#ed2a5b"/>
  <path d="M175.42,44.33l4.4-3.39,.44,.65-4.76,2.87c-.08,.05-.16-.07-.09-.13Z" fill="#fff"/>
  <path d="M175.46,44.72c-.11,0-.21-.05-.27-.15-.1-.15-.07-.34,.07-.45l4.4-3.39c.06-.04,.13-.06,.2-.05,.07,.01,.13,.05,.17,.11l.44,.65c.04,.06,.05,.13,.04,.2-.02,.07-.06,.13-.12,.17l-4.76,2.87c-.06,.03-.12,.05-.17,.05Zm.11-.19h0Zm-.16-.2h0Zm4.34-3.02l-1.66,1.28,1.79-1.08-.13-.2Z" fill="#363636"/>
  <path d="M179.71,41.48h0c-.17-.25-.11-.59,.14-.76l1.78-1.22,.62,.91-1.78,1.22c-.25,.17-.59,.11-.76-.14Z" fill="#fff"/>
  <path d="M180.17,41.98c-.26,0-.51-.12-.67-.35h0c-.25-.37-.16-.87,.21-1.12l1.78-1.22c.06-.04,.13-.05,.19-.04,.07,.01,.13,.05,.16,.11l.62,.91c.08,.12,.05,.28-.07,.36l-1.78,1.22c-.14,.09-.3,.14-.45,.14Zm-.24-.64c.09,.13,.27,.17,.41,.08l1.57-1.07-.33-.48-1.57,1.07c-.13,.09-.17,.27-.08,.4h0Z" fill="#363636"/>
  <rect x="178.65" y="32.04" width="27.01" height="1.88" rx=".81" ry=".81" transform="translate(14.88 114.14) rotate(-34.34)" fill="#fff"/>
  <path d="M181.75,41.32c-.34,0-.68-.16-.89-.47l-.14-.21c-.33-.49-.21-1.15,.28-1.49l20.96-14.32c.49-.33,1.15-.21,1.49,.28l.14,.21c.33,.49,.21,1.15-.28,1.49l-20.96,14.32c-.18,.13-.39,.19-.6,.19Zm20.82-16.16c-.11,0-.22,.03-.31,.1l-20.96,14.32c-.12,.08-.21,.21-.23,.36-.03,.15,0,.29,.09,.42l.14,.21h0c.17,.25,.52,.32,.77,.15l20.96-14.32c.25-.17,.32-.52,.15-.77l-.14-.21c-.11-.16-.28-.24-.46-.24Z" fill="#363636"/>
  <path d="M195.94,29.26l-.05-2.73c-.02-1.08,.51-2.09,1.39-2.7l3.98-2.72c.14-.1,.34,0,.34,.18l.07,4.04-5.74,3.92Z" fill="#ed2a5b"/>
  <path d="M195.94,29.52s-.08,0-.12-.03c-.08-.04-.14-.13-.14-.22l-.05-2.73c-.02-1.17,.54-2.26,1.51-2.91l3.98-2.72c.15-.1,.33-.11,.49-.03,.16,.08,.26,.24,.26,.42l.07,4.04c0,.09-.04,.17-.11,.22l-5.74,3.92s-.09,.04-.15,.04Zm5.42-8.15l-3.92,2.68c-.82,.56-1.3,1.49-1.28,2.48l.04,2.25,5.23-3.58-.06-3.84Z" fill="#363636"/>
  <path d="M197,30.81l2.53,1.04c1,.41,2.13,.29,3.02-.32l3.98-2.72c.14-.1,.12-.32-.04-.39l-3.74-1.53-5.74,3.92Z" fill="#ed2a5b"/>
  <path d="M200.74,32.34c-.44,0-.89-.09-1.31-.26l-2.53-1.04c-.09-.04-.15-.12-.16-.21,0-.09,.03-.19,.11-.24l5.74-3.92c.07-.05,.16-.06,.24-.03l3.74,1.53c.16,.07,.28,.22,.29,.39,.02,.17-.06,.35-.21,.44l-3.98,2.72c-.58,.4-1.26,.6-1.95,.6Zm-3.2-1.59l2.08,.85c.92,.38,1.96,.27,2.78-.29l3.92-2.68-3.55-1.46-5.23,3.58Z" fill="#363636"/>
  <g>
    <path d="M201.94,28.15l3.05,1.19-3.05-1.19Z" fill="#363636"/>
    <path d="M205,29.59s-.06,0-.09-.02l-3.05-1.19c-.13-.05-.2-.2-.15-.33,.05-.13,.2-.2,.33-.15l3.05,1.19c.13,.05,.2,.2,.15,.33-.04,.1-.14,.16-.24,.16Z" fill="#363636"/>
  </g>
  <g>
    <path d="M200.41,29.19l3.05,1.19-3.05-1.19Z" fill="#363636"/>
    <path d="M203.47,30.64s-.06,0-.09-.02l-3.05-1.19c-.13-.05-.2-.2-.15-.33,.05-.13,.2-.2,.33-.15l3.05,1.19c.13,.05,.2,.2,.15,.33-.04,.1-.14,.16-.24,.16Z" fill="#363636"/>
  </g>
  <g>
    <g>
      <path d="M195.21,30.33l.53,.78-.53-.78Z" fill="#363636"/>
      <path d="M195.74,31.36c-.08,0-.16-.04-.21-.11l-.53-.78c-.08-.12-.05-.28,.07-.36,.12-.08,.28-.05,.36,.07l.53,.78c.08,.12,.05,.28-.07,.36-.04,.03-.09,.04-.14,.04Z" fill="#363636"/>
    </g>
    <g>
      <path d="M196.11,29.71l.53,.78-.53-.78Z" fill="#363636"/>
      <path d="M196.64,30.75c-.08,0-.16-.04-.21-.11l-.53-.78c-.08-.12-.05-.28,.07-.36,.12-.08,.28-.05,.36,.07l.53,.78c.08,.12,.05,.28-.07,.36-.04,.03-.09,.04-.14,.04Z" fill="#363636"/>
    </g>
    <g>
      <path d="M197,29.1l.53,.78-.53-.78Z" fill="#363636"/>
      <path d="M197.53,30.13c-.08,0-.16-.04-.21-.11l-.53-.78c-.08-.12-.05-.28,.07-.36,.12-.08,.28-.05,.36,.07l.53,.78c.08,.12,.05,.28-.07,.36-.04,.03-.09,.04-.15,.04Z" fill="#363636"/>
    </g>
  </g>
  <path d="M157.65,148.71l.7-1.72-1.67-1.16c.09-.43,.14-.86,.16-1.28l1.9-.71-.26-1.84-2.02-.17c-.13-.41-.3-.81-.5-1.19l1.29-1.57-1.14-1.46-1.83,.86c-.32-.29-.66-.55-1.03-.78l.33-2-1.72-.7-1.16,1.67c-.43-.09-.86-.14-1.28-.16l-.71-1.9-1.84,.26-.17,2.02c-.41,.13-.81,.3-1.19,.5l-1.57-1.29-1.46,1.14,.86,1.83c-.29,.32-.55,.66-.78,1.03l-2-.33-.7,1.72,1.67,1.16c-.09,.43-.14,.86-.16,1.28l-1.9,.71,.26,1.84,2.02,.17c.13,.41,.3,.81,.5,1.19l-1.29,1.57,1.14,1.46,1.83-.86c.32,.29,.66,.55,1.03,.78l-.33,2,1.72,.7,1.16-1.67c.43,.09,.86,.14,1.28,.16l.71,1.9,1.84-.26,.17-2.02c.41-.13,.81-.3,1.19-.5l1.57,1.29,1.46-1.14-.86-1.83c.29-.32,.55-.66,.78-1.03l2,.33Zm-10.35-.04c-2.45-.99-3.63-3.78-2.64-6.23,.99-2.45,3.78-3.63,6.23-2.64,2.45,.99,3.63,3.78,2.64,6.23s-3.78,3.63-6.23,2.64Z" fill="#ed2a5b"/>
  <path d="M149.15,153.3c-.11,0-.2-.07-.24-.17l-.66-1.74c-.33-.02-.66-.06-.99-.12l-1.06,1.53c-.07,.1-.2,.14-.31,.09l-1.72-.7c-.11-.05-.18-.16-.16-.28l.3-1.83c-.28-.18-.55-.39-.8-.6l-1.68,.79c-.11,.05-.24,.02-.31-.07l-1.14-1.46c-.07-.09-.07-.23,0-.32l1.18-1.44c-.15-.3-.28-.6-.39-.91l-1.85-.15c-.12-.01-.22-.1-.23-.22l-.26-1.84c-.02-.12,.05-.23,.16-.28l1.74-.66c.02-.33,.06-.66,.12-.99l-1.53-1.06c-.1-.07-.14-.2-.09-.31l.7-1.72c.05-.11,.16-.18,.28-.16l1.83,.3c.18-.28,.38-.55,.6-.8l-.79-1.68c-.05-.11-.02-.24,.07-.31l1.46-1.14c.09-.07,.23-.07,.32,0l1.44,1.18c.3-.15,.6-.28,.91-.39l.15-1.85c.01-.12,.1-.22,.22-.23l1.84-.26c.12-.02,.23,.05,.28,.16l.66,1.74c.33,.02,.66,.06,.99,.12l1.06-1.53c.07-.1,.2-.14,.31-.09l1.72,.7c.11,.05,.18,.16,.16,.28l-.3,1.83c.28,.18,.55,.38,.8,.6l1.68-.79c.11-.05,.24-.02,.31,.07l1.14,1.46c.07,.09,.07,.23,0,.32l-1.18,1.44c.15,.3,.28,.6,.39,.91l1.85,.15c.12,.01,.22,.1,.23,.22l.26,1.84c.02,.12-.05,.23-.16,.28l-1.74,.66c-.02,.33-.06,.66-.12,.99l1.53,1.06c.1,.07,.14,.2,.09,.31l-.7,1.72c-.05,.11-.16,.18-.28,.16l-1.83-.3c-.18,.28-.38,.55-.6,.8l.79,1.68c.05,.11,.02,.24-.07,.31l-1.46,1.14c-.09,.07-.23,.07-.32,0l-1.44-1.18c-.3,.15-.6,.28-.91,.39l-.15,1.85c-.01,.12-.1,.22-.22,.23l-1.84,.26s-.02,0-.04,0Zm-2-2.57s.04,0,.05,0c.41,.09,.83,.14,1.24,.16,.1,0,.19,.07,.23,.17l.64,1.7,1.43-.2,.15-1.82c0-.1,.08-.19,.18-.22,.4-.13,.78-.29,1.15-.49,.09-.05,.2-.04,.28,.03l1.41,1.16,1.14-.89-.78-1.65c-.04-.09-.03-.2,.04-.28,.27-.31,.53-.64,.75-1,.06-.09,.16-.13,.26-.12l1.8,.3,.54-1.34-1.5-1.04c-.09-.06-.13-.16-.11-.26,.09-.41,.14-.83,.16-1.24,0-.1,.07-.19,.17-.23l1.7-.64-.2-1.43-1.82-.15c-.1,0-.19-.08-.22-.18-.13-.4-.29-.78-.49-1.15-.05-.09-.04-.2,.03-.28l1.16-1.41-.89-1.14-1.65,.78c-.09,.04-.2,.03-.28-.04-.31-.27-.64-.53-1-.75-.09-.06-.13-.16-.12-.26l.3-1.8-1.34-.54-1.04,1.5c-.06,.08-.16,.13-.26,.11-.41-.09-.83-.14-1.24-.16-.1,0-.19-.07-.23-.17l-.64-1.7-1.43,.2-.15,1.82c0,.1-.08,.19-.18,.22-.4,.13-.78,.29-1.15,.49-.09,.05-.2,.04-.28-.03l-1.41-1.16-1.14,.89,.78,1.65c.04,.09,.03,.2-.04,.28-.27,.31-.53,.64-.75,1-.06,.09-.16,.13-.26,.12l-1.8-.3-.54,1.34,1.5,1.04c.08,.06,.13,.16,.11,.26-.09,.41-.14,.83-.16,1.24,0,.1-.07,.19-.17,.23l-1.7,.64,.2,1.43,1.82,.15c.1,0,.19,.08,.22,.18,.13,.4,.29,.78,.49,1.15,.05,.09,.04,.2-.03,.28l-1.16,1.41,.89,1.14,1.65-.78c.09-.04,.2-.03,.28,.04,.3,.27,.64,.53,1,.75,.09,.06,.13,.16,.12,.26l-.3,1.8,1.34,.54,1.04-1.5c.05-.07,.13-.11,.21-.11Zm1.59-2.29c-.64,0-1.28-.12-1.89-.37h0c-2.57-1.04-3.82-3.99-2.78-6.56,1.04-2.57,3.99-3.82,6.56-2.78,1.25,.51,2.22,1.47,2.75,2.71,.52,1.24,.54,2.61,.03,3.86-.51,1.25-1.47,2.22-2.71,2.75-.63,.27-1.3,.4-1.96,.4Zm0-9.56c-1.79,0-3.49,1.07-4.2,2.82-.94,2.31,.18,4.95,2.49,5.89h0c1.12,.45,2.35,.44,3.46-.03,1.11-.47,1.98-1.35,2.43-2.47,.45-1.12,.44-2.35-.03-3.46-.47-1.11-1.35-1.98-2.47-2.43-.55-.22-1.13-.33-1.69-.33Z" fill="#363636"/>
  <path d="M192.77,152.59l1.19-2.95-2.85-1.98c.15-.73,.25-1.47,.28-2.2l3.24-1.22-.44-3.15-3.46-.29c-.23-.7-.52-1.38-.86-2.04l2.2-2.68-1.95-2.51-3.14,1.48c-.54-.49-1.14-.93-1.77-1.33l.56-3.42-2.95-1.19-1.98,2.85c-.73-.15-1.47-.25-2.2-.28l-1.22-3.24-3.15,.44-.29,3.46c-.7,.23-1.38,.52-2.04,.86l-2.68-2.2-2.51,1.95,1.48,3.14c-.49,.54-.93,1.14-1.33,1.77l-3.42-.56-1.19,2.95,2.85,1.98c-.15,.73-.25,1.47-.28,2.2l-3.24,1.22,.44,3.15,3.46,.29c.23,.7,.52,1.38,.86,2.04l-2.2,2.68,1.95,2.51,3.14-1.48c.54,.49,1.14,.93,1.77,1.33l-.56,3.42,2.95,1.19,1.98-2.85c.73,.15,1.47,.25,2.2,.28l1.22,3.24,3.15-.44,.29-3.46c.7-.23,1.38-.52,2.04-.86l2.68,2.2,2.51-1.95-1.48-3.14c.49-.54,.93-1.14,1.33-1.77l3.42,.56Zm-17.71-.06c-4.19-1.7-6.21-6.47-4.51-10.65s6.47-6.21,10.65-4.51c4.19,1.7,6.21,6.47,4.51,10.65-1.7,4.19-6.47,6.21-10.65,4.51Z" fill="#ed2a5b"/>
  <path d="M178.22,160.27c-.11,0-.2-.07-.24-.17l-1.16-3.09c-.63-.03-1.27-.11-1.9-.24l-1.88,2.71c-.07,.1-.2,.14-.31,.09l-2.95-1.19c-.11-.05-.18-.16-.16-.28l.54-3.26c-.54-.35-1.06-.74-1.53-1.15l-2.98,1.41c-.11,.05-.24,.02-.31-.07l-1.95-2.51c-.07-.09-.07-.23,0-.32l2.09-2.55c-.29-.57-.54-1.16-.75-1.76l-3.29-.27c-.12-.01-.22-.1-.23-.22l-.44-3.15c-.02-.12,.05-.23,.16-.28l3.09-1.16c.03-.63,.11-1.27,.24-1.9l-2.71-1.88c-.1-.07-.14-.2-.09-.31l1.19-2.95c.05-.11,.16-.18,.28-.16l3.26,.54c.35-.54,.74-1.06,1.15-1.53l-1.41-2.98c-.05-.11-.02-.24,.07-.31l2.51-1.95c.09-.07,.23-.07,.32,0l2.55,2.09c.57-.29,1.16-.54,1.76-.75l.27-3.29c.01-.12,.1-.22,.22-.23l3.15-.44c.12-.02,.23,.05,.28,.16l1.16,3.09c.63,.03,1.27,.11,1.9,.24l1.88-2.71c.07-.1,.2-.14,.31-.09l2.95,1.19c.11,.05,.18,.16,.16,.28l-.54,3.26c.54,.35,1.06,.74,1.53,1.15l2.98-1.41c.11-.05,.24-.02,.31,.07l1.95,2.51c.07,.09,.07,.23,0,.32l-2.09,2.55c.29,.57,.54,1.16,.75,1.76l3.29,.27c.12,.01,.22,.1,.23,.22l.44,3.15c.02,.12-.05,.23-.16,.28l-3.09,1.16c-.03,.63-.11,1.27-.24,1.9l2.71,1.88c.1,.07,.14,.2,.09,.31l-1.19,2.95c-.05,.11-.16,.18-.28,.16l-3.26-.54c-.35,.54-.74,1.06-1.15,1.53l1.41,2.98c.05,.11,.02,.24-.07,.31l-2.51,1.95c-.09,.07-.23,.07-.32,0l-2.55-2.09c-.57,.29-1.16,.54-1.76,.75l-.27,3.29c-.01,.12-.1,.22-.22,.23l-3.15,.44s-.02,0-.04,0Zm-3.42-4.03s.04,0,.05,0c.72,.15,1.44,.24,2.15,.27,.1,0,.19,.07,.23,.17l1.15,3.05,2.74-.38,.27-3.25c0-.1,.08-.19,.18-.22,.69-.23,1.36-.51,2-.85,.09-.05,.2-.04,.28,.03l2.53,2.07,2.18-1.7-1.39-2.95c-.04-.09-.03-.2,.04-.28,.47-.53,.91-1.11,1.31-1.73,.06-.09,.16-.13,.26-.12l3.22,.53,1.04-2.56-2.68-1.86c-.08-.06-.13-.16-.11-.26,.15-.72,.24-1.44,.27-2.15,0-.1,.07-.19,.17-.23l3.05-1.15-.38-2.74-3.25-.27c-.1,0-.19-.08-.22-.18-.23-.69-.51-1.36-.85-2-.05-.09-.04-.2,.03-.28l2.07-2.53-1.7-2.18-2.95,1.39c-.09,.04-.2,.03-.28-.04-.53-.48-1.11-.91-1.73-1.31-.09-.06-.13-.16-.12-.26l.53-3.22-2.56-1.04-1.86,2.68c-.06,.08-.16,.13-.26,.11-.72-.15-1.44-.24-2.15-.27-.1,0-.19-.07-.23-.17l-1.15-3.05-2.74,.38-.27,3.25c0,.1-.08,.19-.18,.22-.69,.23-1.36,.51-2,.85-.09,.05-.2,.04-.28-.03l-2.53-2.07-2.18,1.7,1.39,2.95c.04,.09,.03,.2-.04,.28-.47,.53-.91,1.11-1.31,1.73-.06,.09-.16,.13-.26,.12l-3.22-.53-1.04,2.56,2.68,1.86c.08,.06,.13,.16,.11,.26-.15,.72-.24,1.44-.27,2.15,0,.1-.07,.19-.17,.23l-3.05,1.15,.38,2.74,3.25,.27c.1,0,.19,.08,.22,.18,.23,.69,.51,1.36,.85,2,.05,.09,.04,.2-.03,.28l-2.07,2.53,1.7,2.18,2.95-1.39c.09-.04,.2-.03,.28,.04,.53,.48,1.11,.91,1.73,1.31,.09,.06,.13,.16,.12,.26l-.53,3.22,2.56,1.04,1.86-2.68c.05-.07,.13-.11,.21-.11Zm2.71-4.29c-1.05,0-2.12-.2-3.16-.62h0c-2.09-.85-3.72-2.46-4.6-4.53-.88-2.08-.9-4.37-.05-6.46,.85-2.09,2.46-3.72,4.53-4.6,2.08-.88,4.37-.9,6.46-.05,2.09,.85,3.72,2.46,4.6,4.53,.88,2.08,.9,4.37,.05,6.46-1.33,3.28-4.49,5.27-7.83,5.27Zm-2.96-1.09c1.96,.79,4.11,.78,6.06-.05,1.95-.82,3.46-2.36,4.25-4.32,1.64-4.05-.32-8.68-4.37-10.32-1.96-.8-4.11-.78-6.06,.05-1.95,.83-3.46,2.36-4.25,4.32-.79,1.96-.78,4.11,.05,6.06s2.36,3.46,4.32,4.25h0Z" fill="#363636"/>
  <ellipse cx="125.67" cy="59.71" rx="7.24" ry="7.2" transform="translate(-11.79 81.22) rotate(-34.31)" fill="#fff"/>
  <path d="M125.63,67.19c-.43,0-.87-.04-1.31-.11-1.97-.35-3.68-1.44-4.82-3.08-1.14-1.64-1.57-3.62-1.21-5.58h0c.74-4.06,4.65-6.77,8.71-6.06,1.97,.35,3.68,1.44,4.82,3.08,1.14,1.64,1.57,3.62,1.21,5.58-.66,3.62-3.84,6.17-7.4,6.17Zm-6.83-8.68c-.33,1.83,.07,3.68,1.13,5.2,1.06,1.52,2.65,2.54,4.48,2.86,3.78,.67,7.42-1.86,8.11-5.64,.33-1.83-.07-3.68-1.13-5.2-1.06-1.52-2.65-2.54-4.48-2.86-3.78-.67-7.42,1.86-8.11,5.64h0Z" fill="#363636"/>
  <path d="M130.07,56.93l-2.51,.92c-.13,.05-.16,.22-.06,.31l.3,.28c.07,.07,.08,.19,0,.26l-1.35,1.45c-.07,.08-.19,.08-.26,0l-1.73-1.61c-.08-.07-.19-.07-.26,0l-3.01,3.22c-.07,.08-.07,.19,0,.26l.63,.59c.08,.07,.19,.07,.26,0l2.17-2.31c.07-.08,.19-.08,.26,0l1.73,1.61c.08,.07,.19,.07,.26,0l2.19-2.35c.07-.08,.19-.08,.26,0l.32,.3c.1,.1,.27,.05,.31-.09l.72-2.59c.04-.15-.1-.28-.24-.22Z" fill="#ed2a5b"/>
  <polygon points="103.3 152.22 103.7 156.05 106.29 156.36 106.29 151.81 103.3 152.22" fill="#fff"/>
  <path d="M106.3,156.61h-.03l-2.59-.31c-.12-.01-.21-.11-.23-.23l-.4-3.84c-.01-.14,.08-.26,.22-.28l3-.41c.07,0,.15,.01,.2,.06,.06,.05,.09,.12,.09,.19v4.55c0,.07-.03,.14-.09,.19-.05,.04-.11,.06-.17,.06Zm-2.36-.79l2.1,.25v-3.96l-2.46,.33,.35,3.38Z" fill="#363636"/>
  <path d="M106.7,163.03c-1.08,.15-2.85,.29-4.93,0-.68-.09-1.13-.76-.97-1.42,.46-1.86,1.25-5.39,2.6-7.03l.34,.89,.46-.84c.06-.11,.18-.19,.31-.21l1.02-.13c.21-.03,.41,.11,.45,.32l.16,.77,.35-1.01,1.18,7.36c.08,.63-.35,1.21-.98,1.3Z" fill="#ffd7e5"/>
  <path d="M104.25,163.46c-.76,0-1.61-.05-2.52-.17-.4-.06-.76-.28-.98-.61-.22-.33-.3-.74-.2-1.13l.1-.4c.47-1.93,1.26-5.16,2.56-6.73,.06-.07,.15-.1,.24-.09,.09,.01,.17,.08,.2,.16l.14,.37,.2-.35c.1-.19,.29-.31,.5-.34l1.02-.13c.3-.04,.59,.14,.7,.41l.06-.16c.04-.11,.15-.18,.27-.17,.12,.01,.21,.1,.23,.22l1.18,7.36c.1,.77-.44,1.49-1.2,1.59h0c-.64,.09-1.49,.17-2.49,.17Zm-.92-8.35c-1.07,1.59-1.76,4.41-2.18,6.16l-.1,.4c-.06,.25-.02,.51,.13,.72,.14,.21,.37,.35,.63,.39,2.03,.28,3.77,.16,4.86,0h0c.49-.07,.83-.52,.76-1.01l-1.02-6.35-.02,.05c-.04,.11-.15,.18-.26,.17-.12,0-.21-.09-.24-.2l-.16-.77c-.02-.08-.09-.13-.17-.12l-1.02,.13s-.09,.04-.12,.08l-.46,.84c-.05,.09-.14,.14-.24,.13-.1,0-.19-.07-.22-.17l-.17-.45Z" fill="#363636"/>
  <path d="M103.7,162.22c-.7,0-1.45-.06-2.21-.23-.14-.03-.23-.17-.19-.31,.03-.14,.17-.22,.31-.19,2.52,.57,5.15-.16,5.17-.17,.14-.04,.28,.04,.32,.18,.04,.14-.04,.28-.18,.32-.08,.02-1.47,.41-3.22,.41Z" fill="#363636"/>
  <path d="M103.08,159.37c-.14,0-.25-.11-.26-.25,0-.14,.11-.26,.25-.27l2.43-.08c.14,0,.26,.11,.27,.25,0,.14-.11,.26-.25,.27l-2.43,.08h0Z" fill="#363636"/>
  <polygon points="115.45 150.17 115.83 155.77 118.95 155.77 119.1 150.17 115.45 150.17" fill="#fff"/>
  <path d="M118.95,156.03h-3.12c-.14,0-.25-.1-.26-.24l-.39-5.6c0-.07,.02-.14,.07-.19,.05-.05,.12-.08,.19-.08h3.65c.07,0,.14,.03,.18,.08s.07,.12,.07,.19l-.15,5.6c0,.14-.12,.25-.26,.25Zm-2.88-.51h2.63l.13-5.08h-3.11l.35,5.08Z" fill="#363636"/>
  <path d="M115.02,158.93c0,.53,.35,.99,.87,1.11,1.79,.42,5.83,1.35,6.99,1.52,1.5,.22,3.33-.24,4.13-1.11,.79-.88-1.77-2.96-2.99-3.72-1.81-1.13-3.54-3.36-4.27-3.46-.73-.1-2.08,2.01-2.08,2.01l-2.22-.93s-.39,1.9-.43,4.59Z" fill="#ffd7e5"/>
  <path d="M123.65,161.88c-.28,0-.55-.02-.82-.06-1.12-.17-4.87-1.03-7.01-1.52-.63-.15-1.08-.72-1.07-1.37,.04-2.68,.43-4.61,.43-4.63,.02-.08,.06-.14,.13-.18,.07-.04,.15-.04,.22,0l2.02,.85c.44-.66,1.47-2.04,2.22-1.94,.43,.06,.96,.55,1.88,1.42,.76,.72,1.61,1.53,2.49,2.08,.79,.49,3.07,2.17,3.24,3.4,.04,.28-.03,.52-.2,.71-.69,.76-2.14,1.25-3.54,1.25Zm-8.01-7.17c-.11,.64-.34,2.22-.37,4.23h0c0,.41,.28,.77,.67,.86,1.71,.4,5.82,1.34,6.97,1.51,1.44,.21,3.19-.25,3.9-1.03,.04-.05,.1-.13,.08-.3-.12-.82-1.82-2.29-3.01-3.04-.92-.58-1.8-1.41-2.57-2.14-.64-.61-1.31-1.24-1.59-1.28-.34-.05-1.22,.94-1.83,1.89-.07,.11-.2,.15-.32,.1l-1.92-.81Zm-.62,4.23h0Z" fill="#363636"/>
  <path d="M123.63,160.85c-3.28,0-7.64-1.76-7.89-1.86-.13-.05-.19-.2-.14-.34,.05-.13,.2-.2,.34-.14,.08,.03,7.92,3.2,10.19,1.15,.11-.1,.27-.09,.36,.02,.1,.11,.09,.27-.02,.36-.66,.59-1.68,.81-2.84,.81Z" fill="#363636"/>
  <path d="M120.17,157.46c-.07,0-.14-.03-.19-.08-.1-.11-.09-.27,.02-.36l1.59-1.43c.11-.1,.27-.09,.36,.02,.1,.11,.09,.27-.02,.36l-1.59,1.43s-.11,.07-.17,.07Z" fill="#363636"/>
  <path d="M102.41,113.69s-.97,17.5-1.47,23.54c-.51,6.04,1.18,15.75,1.18,15.75l4.82-.25s.33-11.8,.69-15.08c0,0,2.03-4.44,2.64-8.41,.6-3.96,2.66-10.22,2.66-10.22,0,0,1.67,31.25,1.83,33.7,0,0,3.78,.17,5.13-.68,0,0,2.4-11.39,2.05-17.59-.34-6.2,.03-21.6,.03-21.6l-19.56,.86Z" fill="#363636"/>
  <path d="M106.74,137.89h-1.47c-.14,0-.26-.12-.26-.26s.12-.26,.26-.26h1.47c.14,0,.26,.12,.26,.26s-.12,.26-.26,.26Z" fill="#ffd7e5"/>
  <path d="M117.23,146.98h0c-.14,0-.26-.12-.25-.26,.05-2.92,3.24-8.12,3.37-8.34,.07-.12,.23-.16,.35-.08,.12,.07,.16,.23,.08,.35-.03,.05-3.25,5.3-3.3,8.08,0,.14-.12,.25-.26,.25Z" fill="#ffd7e5"/>
  <path d="M123.5,85.71c.35-.03,2.07,3.5,7.46,3.35,5.39-.15,9.71-6.17,9.71-6.17,0,0,1.86-3.14,3.27-4.27,1.41-1.13,1.63-1.28,1.63-1.28,0,0,.44,.59,0,1.28-.44,.69-1.66,1.99-1.66,1.99,0,0,1.35,.74,.74,2.28-.7,1.77-2.67,1.63-2.67,1.63,0,0-3.99,17.68-20.5,9.28l2.02-8.08Z" fill="#fff"/>
  <path d="M129.66,96.31c-2.52,0-5.3-.77-8.3-2.29-.11-.05-.16-.18-.13-.29l2.02-8.08c.03-.11,.12-.19,.23-.19,.2-.02,.33,.13,.63,.46,.81,.9,2.69,2.99,6.85,2.89,5.1-.14,9.31-5.81,9.5-6.06,.14-.23,1.92-3.2,3.33-4.33,1.4-1.13,1.64-1.29,1.65-1.3,.11-.08,.27-.05,.35,.06,.02,.03,.54,.74,.01,1.58-.34,.54-1.12,1.41-1.49,1.81,.5,.41,1.05,1.25,.59,2.42-.61,1.56-2.14,1.77-2.7,1.79-.33,1.25-2.34,7.95-7.81,10.52-1.45,.68-3.02,1.02-4.7,1.02Zm-7.88-2.66c4.78,2.39,8.94,2.78,12.37,1.17,5.78-2.71,7.56-10.3,7.58-10.37,.03-.12,.14-.21,.27-.2,.07,0,1.79,.1,2.41-1.47,.52-1.31-.58-1.93-.62-1.96-.07-.04-.12-.11-.13-.19-.01-.08,.01-.16,.07-.22,.01-.01,1.21-1.29,1.63-1.95,.19-.3,.17-.57,.12-.75-.22,.17-.63,.49-1.38,1.09-1.36,1.09-3.19,4.17-3.21,4.2v.02c-.19,.25-4.47,6.13-9.92,6.28-.11,0-.23,0-.34,0-4.16,0-6.07-2.14-6.9-3.06l-.07-.08-1.87,7.48Z" fill="#363636"/>
  <path d="M96.8,93.79s1.62-10.43,7.33-13c5.71-2.57,13.44-2.21,15.57-.93,2.13,1.28,7.68,7.08,7.68,7.08l-4.91,6.85s1.12,18.44,.23,23.31c0,0-5.46,.64-7.77-.28-2.32-.91-9.93-2.19-13.57-.52l.66-23.34-5.23,.83Z" fill="#ed2a5b"/>
  <path d="M118.86,117.57c-1.46,0-3.02-.11-4.02-.51-2.39-.94-9.91-2.11-13.36-.52-.08,.04-.18,.03-.25-.02-.07-.05-.12-.13-.12-.22l.65-23.03-4.92,.78c-.08,.01-.16-.01-.22-.07-.06-.06-.09-.14-.07-.22,.07-.43,1.7-10.6,7.48-13.19,5.66-2.54,13.49-2.31,15.8-.91,2.14,1.28,7.51,6.88,7.74,7.12,.09,.09,.1,.23,.02,.33l-4.85,6.78c.09,1.57,1.09,18.56,.23,23.28-.02,.11-.11,.2-.22,.21-.13,.01-1.92,.22-3.88,.22Zm-12.55-2.34c3.47,0,7.21,.76,8.72,1.35,1.99,.78,6.48,.38,7.46,.28,.81-5.05-.26-22.87-.27-23.06,0-.06,.01-.12,.05-.17l4.78-6.68c-.9-.93-5.6-5.75-7.48-6.88-1.99-1.2-9.65-1.61-15.33,.94-4.94,2.22-6.77,10.63-7.12,12.45l4.87-.77c.08-.01,.15,.01,.21,.06,.06,.05,.09,.12,.09,.2l-.65,22.95c1.28-.49,2.95-.68,4.68-.68Z" fill="#363636"/>
  <path d="M106.38,111.75c-.12,0-.23-.09-.25-.21-.02-.14,.07-.27,.21-.3,8.61-1.52,11.13-7.48,11.15-7.54,.05-.13,.2-.19,.34-.14,.13,.05,.2,.2,.14,.33-.03,.06-2.64,6.28-11.54,7.85-.02,0-.03,0-.05,0Z"/>
  <polygon points="122.06 101.08 110.95 101.08 114.43 88.67 125.54 88.67 122.06 101.08" fill="#363636"/>
  <path d="M96.53,93.69l5.62-2.51s-.79,9.53,10.59,5.13c0,0-.42-1.22-.36-2.65,.06-1.43,.91-.05,1.03,1.12,.12,1.16,2.79,.69,4.4,.23,1.61-.46,3.71-.16,0,1.89-3.71,2.05-4.53,1.13-4.53,1.13,0,0-4.74,6.63-10.64,5.22-7.26-1.73-6.11-9.56-6.11-9.56Z" fill="#fff"/>
  <path d="M104.34,103.7c-.57,0-1.15-.06-1.75-.21-7.4-1.77-6.32-9.76-6.31-9.84,.01-.09,.07-.16,.15-.2l5.62-2.51c.08-.04,.18-.03,.25,.02,.07,.05,.12,.14,.11,.23,0,.03-.25,3.44,1.96,5.09,1.71,1.27,4.41,1.23,8.05-.14-.12-.43-.35-1.41-.3-2.51,0-.21,.04-.84,.48-.86h.01c.56,0,.99,1.27,1.06,1.96,.01,.12,.07,.22,.18,.29,.59,.4,2.38,.15,3.89-.28,.7-.2,2.09-.41,2.36,.24,.22,.53-.45,1.18-2.16,2.13-2.85,1.57-4.1,1.45-4.58,1.25-.76,.99-4.35,5.34-9.02,5.34Zm-7.56-9.84c-.05,.48-.16,2.13,.35,3.9,.8,2.78,2.68,4.54,5.59,5.23,5.67,1.35,10.32-5.06,10.37-5.12,.05-.06,.12-.1,.2-.11,.08,0,.15,.03,.21,.09h0s.83,.67,4.21-1.19c1.96-1.08,1.93-1.48,1.93-1.48-.08-.12-.82-.2-1.74,.07-.76,.22-3.34,.88-4.32,.21-.24-.16-.38-.39-.41-.67-.06-.6-.32-1.18-.49-1.41-.01,.06-.02,.15-.03,.28-.06,1.37,.34,2.55,.35,2.56,.04,.13-.02,.27-.15,.32-3.93,1.52-6.88,1.57-8.77,.15-1.98-1.48-2.18-4.1-2.18-5.12l-5.11,2.29Z" fill="#363636"/>
  <path d="M112.79,76.03c-.49,.44-1.44,.99-2.18,.61-.55-.28-.86-1-.84-1.83-.26,.02-.59,0-.83-.21-.37-.33-.3-.93-.29-1.32,.07-1.82-.99-2.1-.73-3.33,.2-.97,.97-1.55,1.11-1.66,.72-.55,1.21-.37,2.42-.69,2.04-.53,2.1-1.41,3.44-1.42,.08,0,1.9,.02,2.52,1.28,.5,1.03-.08,2.27-.69,2.93-.79,.85-1.35,.43-2.15,1.14-1.39,1.25-.34,3.17-1.78,4.49Z" fill="#363636"/>
  <path d="M116.86,72.79l-.08-.07c-.4-.35-.82-.75-.93-1.27-.45-2.22-2.48-3.02-2.58-.99-.02,.51-1.9,.49-1.68,1.03,.58,1.41,.59,1.03-.23,1.54-.09,0-.18,.02-.27,.06-.42,.2-.57,.77-.33,1.27,.14,.31,.4,.52,.67,.6v2.22c0,.83-.5,1.58-1.27,1.9l-.75,.31s3.5,2.28,7.04-.22l-.47-.21c-.83-.37-1.38-1.19-1.41-2.1v-.43c.23,.02,.47,0,.68-.06,.99-.29,1.32-1.43,1.15-2.85l.4-.22c.19-.1,.22-.36,.05-.5Z" fill="#fff"/>
  <path d="M112.87,80.59c-2.05,0-3.58-.97-3.6-.98-.08-.05-.12-.14-.12-.24,0-.1,.07-.18,.16-.21l.75-.31c.68-.28,1.11-.93,1.11-1.66v-2.04c-.27-.13-.5-.37-.64-.67-.3-.64-.09-1.36,.46-1.61,.09-.04,.19-.07,.3-.08,.13-.08,.23-.14,.32-.18,.05-.03,.1-.06,.14-.08-.02-.08-.09-.25-.17-.42-.06-.14-.13-.31-.22-.51-.05-.13-.05-.26,0-.38,.13-.28,.52-.38,.96-.51,.22-.06,.61-.17,.69-.26,.06-1.23,.77-1.38,.99-1.4,.02,0,.05,0,.07,0,.75,0,1.72,.88,2.02,2.36,.09,.45,.48,.82,.85,1.13l.08,.07h0c.14,.12,.21,.3,.19,.49-.02,.18-.13,.35-.29,.43l-.25,.14c.15,1.59-.34,2.66-1.36,2.96-.16,.05-.32,.07-.5,.08v.17c.03,.8,.52,1.54,1.26,1.87l.47,.21c.08,.04,.14,.12,.15,.21,0,.09-.03,.18-.11,.24-1.3,.92-2.6,1.21-3.73,1.21Zm-2.86-1.17c.98,.48,3.38,1.33,5.91-.22l-.05-.02c-.92-.41-1.53-1.33-1.56-2.33v-.44c0-.07,.03-.14,.08-.19,.05-.05,.13-.07,.2-.07,.22,.02,.41,0,.59-.05,1.11-.32,1.05-1.91,.97-2.58-.01-.11,.04-.21,.13-.26l.4-.22s.02-.02,.02-.04c0-.01,0-.03-.02-.04l-.08-.07c-.42-.37-.89-.81-1.01-1.41-.27-1.31-1.09-1.99-1.55-1.95-.43,.03-.5,.66-.52,.92-.02,.43-.55,.58-1.06,.72-.2,.06-.52,.15-.62,.22,.08,.19,.15,.34,.2,.47,.28,.64,.37,.86-.2,1.16-.09,.05-.21,.11-.34,.2-.04,.02-.08,.04-.13,.04-.06,0-.12,.02-.17,.04-.29,.14-.38,.55-.21,.93,.11,.23,.29,.4,.5,.46,.11,.03,.19,.13,.19,.25v2.22c0,.94-.56,1.78-1.43,2.13l-.25,.1Z" fill="#363636"/>
  <path d="M114.56,76.67s-.03,0-.04,0c-1.48-.23-2.15-1.36-2.18-1.41-.07-.12-.03-.28,.09-.35,.12-.07,.28-.03,.35,.09,.02,.04,.58,.97,1.81,1.16,.14,.02,.24,.15,.22,.29-.02,.13-.13,.22-.25,.22Z" fill="#363636"/>
  <g>
    <path d="M89.22,72.4c-1.65-1.78-4.09-2.16-5.93-1.65-2.33,.64-3.5,2.65-4.33,4.07-1.46,2.51-.76,3.42-1.91,4.88-2.04,2.58-6.97,.87-9.38,2.86-5.78,4.76-2.63,12.64,2.49,16.36,3.42,2.48,8.06,1.05,9.33,.66,3.84-1.18,10.19-3.5,10.81-9.04,.41-3.72-3.39-6.71-1.35-9.81,.52-.79,.95-1.01,1.34-1.99,.63-1.61,.77-4.31-1.08-6.31Z" fill="#363636"/>
    <path d="M83.22,72.84c.87-.71,.32-2.8-.24-3.93-.21-.42-1.15-2.31-2.38-2.24-1.27,.08-2.48,2.2-2.03,3.89,.57,2.11,3.62,3.11,4.65,2.28Z" fill="#363636"/>
  </g>
  <path d="M77.32,85.68c2.64-.86,6.65-1.48,11.46,.05,1.75,.56,3.01,2.1,3.22,3.92l3.91,22.53c.19,1.64-1.99,3.23-3.54,3.81-1.61,.61-4.05,1.19-7.49,1.19-3.7,0-8.16-.02-9.66-.68-.04-.02-.09-.04-.14-.06-1.93-.9-3.06-2.93-2.88-5.05l.8-3.31c.88-3.65,1.29-7.4,1.21-11.15l-.13-6.56c-.1-2.11,1.22-4.03,3.23-4.69Z" fill="#ed2a5b" stroke="#363636" stroke-miterlimit="10" stroke-width=".58"/>
  <path d="M95.79,95.36s-3.12-8.65-6.62-9.48l1.78,12.26,4.84-2.77Z" fill="#ed2a5b"/>
  <path d="M69.56,100.4c-1.34-1.06-1.9-2.82-1.42-4.46,.43-1.47,.97-3.25,1.44-4.53,1.61-4.39,4.95-5.37,6.25-5.68,.2-.05,2.52-.36,2.52-.36l-1.39,13.44-5.95,2.44-1.45-.84Z" fill="#ed2a5b" stroke="#363636" stroke-miterlimit="10" stroke-width=".58"/>
  <path d="M73.78,111.12s-.08,0-.12-.03c-.13-.07-.17-.22-.11-.35,1.25-2.37,3.76-4,7.27-4.71,2.91-.59,5.86-.42,7.51-.09,2.31,.46,4.62,1.94,4.72,2.01,.12,.08,.15,.24,.08,.36-.08,.12-.24,.15-.36,.08-.02-.01-2.32-1.5-4.54-1.93-3.5-.69-11.57-.49-14.22,4.54-.05,.09-.14,.14-.23,.14Z" fill="#363636"/>
  <path d="M83.42,102.42l15.34-.02c.39,0,.73-.27,.82-.64l2.6-10.82c.13-.53-.27-1.05-.82-1.05l-15.34,.02c-.39,0-.73,.27-.82,.64l-2.6,10.82c-.13,.53,.27,1.05,.82,1.05Z" fill="#ffd7e5"/>
  <path d="M83.42,102.68c-.34,0-.66-.15-.87-.42-.21-.27-.28-.61-.2-.94l2.6-10.82c.12-.49,.56-.84,1.07-.84l15.34-.02h0c.34,0,.66,.15,.87,.42,.21,.27,.28,.61,.2,.94l-2.6,10.82c-.12,.49-.56,.84-1.07,.84l-15.34,.02h0Zm17.94-12.54h0l-15.34,.02c-.27,0-.51,.18-.57,.45l-2.6,10.82c-.04,.18,0,.36,.11,.51,.11,.14,.28,.23,.46,.23h0l15.34-.02c.27,0,.51-.18,.57-.45l2.6-10.82c.04-.18,0-.36-.11-.51-.11-.14-.28-.23-.46-.23Z" fill="#363636"/>
  <path d="M93.74,96.36c-.15,.65-.77,1.07-1.38,.93s-.98-.79-.82-1.44,.77-1.07,1.38-.93c.61,.14,.98,.79,.82,1.44Z" fill="#ed2a5b"/>
  <path d="M101.28,95.05l-.2,.78c-.08,.33-.44,.5-.75,.35l-2.59-1.23c-.34-.16-.76,0-.88,.37-.24,.74-.04,2.05,3.26,3.39,2.02,.82,2.09-1.4,1.76-2.75-.15-.6-.61-.91-.61-.91Z" fill="#fff"/>
  <path d="M100.91,99.15c-.26,0-.56-.07-.88-.2-3.38-1.37-3.72-2.77-3.41-3.71,.08-.24,.26-.44,.49-.54,.24-.1,.51-.1,.74,.01l2.59,1.23c.08,.04,.16,.04,.24,0,.08-.04,.13-.1,.15-.18l.2-.78c.02-.08,.08-.15,.16-.18,.08-.03,.17-.02,.24,.03,.02,.02,.55,.38,.72,1.07,.24,.99,.28,2.36-.42,2.96-.22,.19-.49,.29-.81,.29Zm-3.44-4c-.05,0-.1,.01-.15,.03-.1,.04-.17,.12-.21,.22-.34,1.03,.77,2.12,3.12,3.07,.52,.21,.91,.21,1.16,0,.46-.4,.48-1.53,.25-2.44-.05-.19-.13-.35-.22-.47l-.08,.34c-.06,.23-.22,.42-.43,.52-.22,.1-.46,.1-.68,0l-2.59-1.23c-.05-.02-.11-.04-.16-.04Z" fill="#363636"/>
  <path d="M78.89,91.74s-6.89,3.88-8.31,5.1c-1.42,1.22-2.96,2.14-.95,4.8,1.71,2.26,4.71,.24,10.01-7.36,.25-.36,.65-.58,1.08-.67,.53-.12,1.3-.54,1.66-1.93,0,0,2.51,.36,2.73-.87l-3.77-.6c-.51-.09-1.02,.08-1.38,.44l-1.07,1.1Z" fill="#fff"/>
  <path d="M71.2,102.76c-.69,0-1.29-.33-1.77-.97-2-2.64-.65-3.78,.66-4.87,.11-.09,.22-.18,.33-.28,1.39-1.19,7.74-4.78,8.32-5.11l1.04-1.07c.42-.43,1.02-.62,1.61-.52l3.77,.6c.07,.01,.13,.05,.17,.11s.06,.13,.04,.19c-.22,1.22-2.13,1.16-2.8,1.1-.43,1.4-1.3,1.79-1.79,1.91-.4,.09-.73,.29-.92,.57-3.94,5.65-6.68,8.31-8.61,8.34h-.04Zm9.87-12.33c-.35,0-.68,.14-.93,.39l-1.07,1.1s-.04,.03-.06,.04c-.07,.04-6.88,3.88-8.27,5.07-.11,.09-.22,.19-.33,.28-1.33,1.11-2.29,1.91-.58,4.16,.39,.52,.84,.77,1.36,.77h.03c1.73-.03,4.41-2.69,8.2-8.12,.27-.38,.7-.66,1.23-.78,.49-.11,1.15-.5,1.47-1.75,.03-.13,.16-.21,.29-.19,.02,0,1.85,.24,2.34-.41l-3.45-.55c-.08-.01-.15-.02-.23-.02Zm-2.18,1.31h0Z" fill="#363636"/>
  <path d="M85.96,81.53c.37,.19,.82,.11,1.11-.19,.33-.33,.6-.69,.81-1.04h.42c.13,.01,.25-.09,.25-.23l.07-1.64c.32-.53,.45-.98,.48-1.34,.05-.61-.49-1.71-1.04-1.98-.75-.36-2.09-.56-2.8,.5-.3,.45-.79,.78-1.09,.73-.28-.05-.39-.29-.53-.54-.26-.46-.9-.9-1.51-.17-.62,.74-.19,1.42,.2,1.99,.16,.23-.01,.86-.08,1.13l-.91,3.88c-.23,1-.95,1.81-1.9,2.18l-.97,.37s1.08,3.26,5.38,3.17c3.29-.07,3.04-2.77,3.04-2.77l-.43-.19c-1.13-.5-1.75-1.73-1.48-2.93l.29-1.28,.68,.34Z" fill="#fff"/>
  <path d="M83.68,88.62c-4.3,0-5.44-3.32-5.45-3.35-.04-.13,.02-.27,.15-.32l.97-.37c.88-.34,1.53-1.08,1.74-2l.93-3.94c.14-.61,.13-.81,.1-.87-.35-.52-.94-1.39-.18-2.3,.37-.44,.74-.5,.99-.48,.44,.04,.78,.38,.95,.68l.03,.05c.13,.24,.2,.34,.33,.36,.15,.03,.56-.21,.83-.62,.73-1.09,2.13-1.07,3.12-.59,.67,.33,1.24,1.55,1.19,2.23-.04,.44-.2,.91-.49,1.39l-.07,1.58c-.01,.27-.24,.48-.5,.48h-.29c-.22,.34-.48,.67-.77,.96-.37,.38-.94,.47-1.41,.23l-.39-.19-.22,.96c-.25,1.08,.31,2.19,1.33,2.64l.43,.19c.09,.04,.14,.12,.15,.21,0,.05,.1,1.17-.68,2.05-.57,.64-1.45,.98-2.6,1-.06,0-.12,0-.18,0Zm-4.87-3.28c.33,.72,1.59,2.84,5.04,2.77,1.01-.02,1.76-.3,2.23-.83,.49-.55,.56-1.22,.56-1.51l-.28-.12c-1.24-.55-1.92-1.9-1.62-3.23l.29-1.28c.02-.08,.07-.14,.14-.18,.07-.03,.15-.03,.23,0l.68,.34c.27,.14,.6,.08,.81-.14,.29-.3,.56-.63,.78-.99,.05-.08,.13-.12,.22-.12h.42l.06-1.63s.01-.09,.04-.12c.27-.43,.42-.84,.45-1.22,.04-.53-.47-1.51-.9-1.72-.57-.28-1.83-.56-2.47,.41-.31,.47-.89,.92-1.35,.84-.38-.07-.55-.37-.69-.62l-.03-.05c-.1-.18-.3-.4-.54-.42-.18-.02-.36,.08-.54,.3-.48,.57-.21,1.05,.21,1.68,.19,.28,.09,.78-.02,1.27v.06l-.93,3.88c-.25,1.08-1.02,1.96-2.06,2.36l-.73,.28Z" fill="#363636"/>
  <path d="M85.73,149.11l-2.28,6.81s2.49-.21,2.73-.17c.24,.05,3.15-6.21,3.15-6.21l-3.59-.43Z" fill="#fff"/>
  <path d="M83.45,156.18c-.08,0-.15-.04-.2-.1-.05-.07-.07-.16-.04-.24l2.28-6.81c.04-.12,.15-.19,.27-.17l3.59,.43c.08,0,.15,.06,.19,.13,.04,.07,.04,.16,0,.23,0,.02-.74,1.59-1.49,3.13-1.6,3.3-1.69,3.28-1.94,3.23-.16-.02-1.48,.07-2.65,.17h-.02Zm2.46-6.79l-2.09,6.24c.74-.06,1.84-.15,2.26-.14,.34-.47,1.67-3.19,2.86-5.74l-3.03-.37Zm.3,6.11h0Z" fill="#363636"/>
  <path d="M83.97,154.42s3.43-1.41,4.07,.36c.81,2.25,2.07,5.68,2.07,5.68,.21,.6-.2,1.23-.83,1.28-1.26,.1-3.13,.18-4-.12-1.38-.48-3.66-4.84-3.66-4.84l.7-3.71s1.25-.18,1.65,1.35Z" fill="#ffd7e5"/>
  <path d="M87.26,162.09c-.82,0-1.58-.06-2.07-.23-1.43-.5-3.57-4.51-3.8-4.96-.03-.05-.04-.11-.02-.17l.7-3.71c.02-.11,.11-.19,.22-.21,.47-.07,1.42,.13,1.85,1.27,.64-.23,2.29-.72,3.33-.26,.4,.18,.67,.47,.81,.87,.8,2.22,2.06,5.64,2.07,5.68,.13,.36,.09,.75-.12,1.07-.21,.32-.55,.52-.93,.55-.63,.05-1.35,.09-2.04,.09Zm-5.37-5.35c.66,1.24,2.45,4.28,3.48,4.64,.63,.22,2.02,.26,3.89,.11,.22-.02,.42-.13,.54-.32,.12-.19,.15-.41,.07-.62-.01-.03-1.27-3.45-2.07-5.68-.1-.27-.27-.45-.54-.57-.91-.4-2.61,.13-3.19,.36-.07,.03-.15,.03-.21,0-.07-.03-.12-.09-.13-.17-.25-.97-.87-1.14-1.18-1.17l-.65,3.42Z" fill="#363636"/>
  <path d="M89.23,160.52h-3.53c-.14,0-.26-.12-.26-.26s.12-.26,.26-.26h3.53c.14,0,.26,.12,.26,.26s-.12,.26-.26,.26Z" fill="#363636"/>
  <polygon points="79.26 150.78 80.03 157.64 83.15 156.78 82.91 150.6 79.26 150.78" fill="#fff"/>
  <path d="M80.03,157.89c-.05,0-.1-.02-.14-.04-.06-.04-.1-.11-.11-.18l-.78-6.85c0-.07,.01-.14,.06-.2,.05-.05,.11-.09,.18-.09l3.66-.18c.07,0,.14,.02,.19,.07,.05,.05,.08,.11,.08,.18l.24,6.18c0,.12-.07,.23-.19,.26l-3.12,.86s-.05,0-.07,0Zm-.49-6.87l.71,6.28,2.63-.72-.22-5.71-3.12,.15Z" fill="#363636"/>
  <path d="M79.74,162.69h4.94c.67,0,1.18-.59,1.08-1.25-.17-1.12-.7-2.97-2.31-5.51-.18-.28-.48-.45-.81-.45h-1.5c-.26,0-.48,.2-.5,.45l-.11,1.08-.45-.47c-.18-.18-.49-.11-.57,.13-.29,.88-.81,2.75-.85,4.9-.01,.61,.48,1.12,1.1,1.12Z" fill="#ffd7e5"/>
  <path d="M84.68,162.94h-4.94c-.37,0-.71-.14-.97-.41-.26-.26-.39-.61-.39-.97,.04-2.16,.56-4.04,.86-4.97,.07-.2,.23-.35,.43-.4,.21-.05,.42,.01,.56,.17l.07,.07,.06-.54c.04-.39,.37-.68,.76-.68h1.5c.42,0,.8,.21,1.03,.57,1.64,2.59,2.18,4.48,2.35,5.61,.06,.39-.06,.78-.31,1.08-.26,.3-.63,.47-1.02,.47Zm-4.86-6.25h-.02s-.05,.02-.06,.06c-.3,.9-.8,2.73-.84,4.82,0,.23,.08,.44,.24,.6,.16,.16,.37,.25,.6,.25h4.94c.24,0,.48-.11,.64-.29,.16-.18,.23-.43,.19-.67-.16-1.08-.68-2.9-2.28-5.41-.13-.2-.36-.33-.59-.33h-1.5c-.13,0-.23,.1-.25,.22l-.11,1.08c-.01,.1-.08,.18-.17,.22-.09,.03-.2,0-.27-.06l-.45-.47s-.04-.03-.06-.03Z" fill="#363636"/>
  <path d="M84.68,161.76h-5c-.14,0-.26-.12-.26-.26s.12-.26,.26-.26h5c.14,0,.26,.12,.26,.26s-.12,.26-.26,.26Z" fill="#363636"/>
  <path d="M90.98,109.62c-.13-.32-.39-.56-.72-.66-1.81-.57-8.1-2.06-14.59,2.1-.31,.2-.5,.52-.53,.89-.23,3.29-1.11,20.51,4.34,40.9l3.67-.26,.75-34.86s5.44,12.78,1.02,33.12l3.82,.7s5.59-7.34,6.59-18.57c.88-9.93-3.35-20.95-4.34-23.36Z" fill="#363636"/>
  <path d="M80.42,136.75h-.01c-3.49-.15-3.88-4.87-3.89-4.92-.01-.14,.1-.26,.24-.28,.14-.01,.26,.1,.28,.24,0,.04,.36,4.31,3.4,4.45,.14,0,.25,.13,.25,.27,0,.14-.12,.25-.26,.25Z" fill="#ffe6f0"/>
  <path d="M83.7,121.17c-.14,0-.25-.11-.26-.25l-.1-3.31c-.02-.74,.33-1.44,.94-1.87l1.43-1c.12-.08,.28-.05,.36,.06,.08,.12,.05,.28-.06,.36l-1.43,1c-.47,.33-.73,.86-.72,1.43l.1,3.31c0,.14-.11,.26-.25,.26h0Z" fill="#ffe6f0"/>
</svg>