<?xml version="1.0" encoding="UTF-8"?>
<svg id="Layer_1" data-name="Layer 1" xmlns="http://www.w3.org/2000/svg" xmlns:xlink="http://www.w3.org/1999/xlink" viewBox="0 0 270 186">
  <defs>
    <linearGradient id="linear-gradient" x1="-1266.47" y1="-79.73" x2="-1272.82" y2="-66.18" gradientTransform="translate(1490.67)" gradientUnits="userSpaceOnUse">
      <stop offset="0" stop-color="#09005d"/>
      <stop offset="1" stop-color="#1a0f91"/>
    </linearGradient>
    <linearGradient id="linear-gradient-2" x1="-1266.22" y1="-79.61" x2="-1272.57" y2="-66.06" xlink:href="#linear-gradient"/>
    <linearGradient id="linear-gradient-3" x1="-1265.92" y1="-79.47" x2="-1272.27" y2="-65.92" xlink:href="#linear-gradient"/>
    <linearGradient id="linear-gradient-4" x1="-1265.41" y1="-79.23" x2="-1271.76" y2="-65.68" xlink:href="#linear-gradient"/>
    <linearGradient id="linear-gradient-5" x1="-1265.07" y1="-79.08" x2="-1271.42" y2="-65.52" xlink:href="#linear-gradient"/>
    <linearGradient id="linear-gradient-6" x1="-1264.86" y1="-78.98" x2="-1271.21" y2="-65.42" xlink:href="#linear-gradient"/>
    <linearGradient id="linear-gradient-7" x1="-1266.83" y1="-79.9" x2="-1273.19" y2="-66.35" xlink:href="#linear-gradient"/>
    <linearGradient id="linear-gradient-8" x1="-1281.44" y1="-86.75" x2="-1287.8" y2="-73.2" xlink:href="#linear-gradient"/>
    <linearGradient id="linear-gradient-9" x1="-1281.24" y1="-86.66" x2="-1287.6" y2="-73.11" xlink:href="#linear-gradient"/>
    <linearGradient id="linear-gradient-10" x1="-1281.01" y1="-86.55" x2="-1287.36" y2="-73" xlink:href="#linear-gradient"/>
    <linearGradient id="linear-gradient-11" x1="-1280.61" y1="-86.36" x2="-1286.96" y2="-72.81" xlink:href="#linear-gradient"/>
    <linearGradient id="linear-gradient-12" x1="-1280.34" y1="-86.23" x2="-1286.69" y2="-72.68" xlink:href="#linear-gradient"/>
    <linearGradient id="linear-gradient-13" x1="-1280.17" y1="-86.16" x2="-1286.52" y2="-72.6" xlink:href="#linear-gradient"/>
    <linearGradient id="linear-gradient-14" x1="-1281.73" y1="-86.89" x2="-1288.08" y2="-73.33" xlink:href="#linear-gradient"/>
    <linearGradient id="linear-gradient-15" x1="-1364.47" y1="51.53" x2="-1336.19" y2="71.25" gradientTransform="translate(1490.67)" gradientUnits="userSpaceOnUse">
      <stop offset="0" stop-color="#ff928e"/>
      <stop offset="1" stop-color="#fe7062"/>
    </linearGradient>
    <linearGradient id="linear-gradient-16" x1="-1288.47" y1="-90.04" x2="-1294.82" y2="-76.49" xlink:href="#linear-gradient"/>
    <linearGradient id="linear-gradient-17" x1="-1288.28" y1="-89.95" x2="-1294.63" y2="-76.4" xlink:href="#linear-gradient"/>
    <linearGradient id="linear-gradient-18" x1="-1288.05" y1="-89.85" x2="-1294.4" y2="-76.3" xlink:href="#linear-gradient"/>
    <linearGradient id="linear-gradient-19" x1="-1287.66" y1="-89.67" x2="-1294.01" y2="-76.11" xlink:href="#linear-gradient"/>
    <linearGradient id="linear-gradient-20" x1="-1287.4" y1="-89.54" x2="-1293.76" y2="-75.99" xlink:href="#linear-gradient"/>
    <linearGradient id="linear-gradient-21" x1="-1287.24" y1="-89.47" x2="-1293.59" y2="-75.92" xlink:href="#linear-gradient"/>
    <linearGradient id="linear-gradient-22" x1="-1288.75" y1="-90.17" x2="-1295.1" y2="-76.62" xlink:href="#linear-gradient"/>
    <linearGradient id="linear-gradient-23" x1="-1277.16" y1="-84.74" x2="-1283.51" y2="-71.19" xlink:href="#linear-gradient"/>
    <linearGradient id="linear-gradient-24" x1="-1276.97" y1="-84.65" x2="-1283.32" y2="-71.1" xlink:href="#linear-gradient"/>
    <linearGradient id="linear-gradient-25" x1="-1276.74" y1="-84.55" x2="-1283.09" y2="-70.99" xlink:href="#linear-gradient"/>
    <linearGradient id="linear-gradient-26" x1="-1276.35" y1="-84.36" x2="-1282.7" y2="-70.81" xlink:href="#linear-gradient"/>
    <linearGradient id="linear-gradient-27" x1="-1276.09" y1="-84.24" x2="-1282.44" y2="-70.69" xlink:href="#linear-gradient"/>
    <linearGradient id="linear-gradient-28" x1="-1275.93" y1="-84.17" x2="-1282.28" y2="-70.61" xlink:href="#linear-gradient"/>
    <linearGradient id="linear-gradient-29" x1="-1277.43" y1="-84.87" x2="-1283.79" y2="-71.32" xlink:href="#linear-gradient"/>
    <linearGradient id="linear-gradient-30" x1="-1265.57" y1="-79.31" x2="-1271.92" y2="-65.76" xlink:href="#linear-gradient"/>
    <linearGradient id="linear-gradient-31" x1="-1265.38" y1="-79.22" x2="-1271.73" y2="-65.67" xlink:href="#linear-gradient"/>
    <linearGradient id="linear-gradient-32" x1="-1265.15" y1="-79.11" x2="-1271.5" y2="-65.56" xlink:href="#linear-gradient"/>
    <linearGradient id="linear-gradient-33" x1="-1264.76" y1="-78.93" x2="-1271.11" y2="-65.38" xlink:href="#linear-gradient"/>
    <linearGradient id="linear-gradient-34" x1="-1264.5" y1="-78.81" x2="-1270.86" y2="-65.26" xlink:href="#linear-gradient"/>
    <linearGradient id="linear-gradient-35" x1="-1264.34" y1="-78.73" x2="-1270.69" y2="-65.18" xlink:href="#linear-gradient"/>
    <linearGradient id="linear-gradient-36" x1="-1265.85" y1="-79.44" x2="-1272.2" y2="-65.89" xlink:href="#linear-gradient"/>
    <linearGradient id="linear-gradient-37" x1="-1258.48" y1="-75.99" x2="-1264.84" y2="-62.44" xlink:href="#linear-gradient"/>
    <linearGradient id="linear-gradient-38" x1="-1258.27" y1="-75.89" x2="-1264.62" y2="-62.34" xlink:href="#linear-gradient"/>
    <linearGradient id="linear-gradient-39" x1="-1258.01" y1="-75.77" x2="-1264.37" y2="-62.22" xlink:href="#linear-gradient"/>
    <linearGradient id="linear-gradient-40" x1="-1257.58" y1="-75.56" x2="-1263.93" y2="-62.01" xlink:href="#linear-gradient"/>
    <linearGradient id="linear-gradient-41" x1="-1257.29" y1="-75.43" x2="-1263.64" y2="-61.88" xlink:href="#linear-gradient"/>
    <linearGradient id="linear-gradient-42" x1="-1257.11" y1="-75.34" x2="-1263.46" y2="-61.79" xlink:href="#linear-gradient"/>
    <linearGradient id="linear-gradient-43" x1="-1258.8" y1="-76.14" x2="-1265.15" y2="-62.58" xlink:href="#linear-gradient"/>
    <linearGradient id="linear-gradient-44" x1="-1275.09" y1="-83.77" x2="-1281.44" y2="-70.22" xlink:href="#linear-gradient"/>
    <linearGradient id="linear-gradient-45" x1="-1274.88" y1="-83.67" x2="-1281.23" y2="-70.12" xlink:href="#linear-gradient"/>
    <linearGradient id="linear-gradient-46" x1="-1274.62" y1="-83.55" x2="-1280.98" y2="-70" xlink:href="#linear-gradient"/>
    <linearGradient id="linear-gradient-47" x1="-1274.19" y1="-83.35" x2="-1280.54" y2="-69.8" xlink:href="#linear-gradient"/>
    <linearGradient id="linear-gradient-48" x1="-1273.9" y1="-83.21" x2="-1280.25" y2="-69.66" xlink:href="#linear-gradient"/>
    <linearGradient id="linear-gradient-49" x1="-1273.72" y1="-83.13" x2="-1280.07" y2="-69.58" xlink:href="#linear-gradient"/>
    <linearGradient id="linear-gradient-50" x1="-1275.4" y1="-83.92" x2="-1281.76" y2="-70.37" xlink:href="#linear-gradient"/>
    <linearGradient id="linear-gradient-51" x1="-1296.54" y1="-93.83" x2="-1302.89" y2="-80.27" xlink:href="#linear-gradient"/>
    <linearGradient id="linear-gradient-52" x1="-1296.24" y1="-93.69" x2="-1302.59" y2="-80.14" xlink:href="#linear-gradient"/>
    <linearGradient id="linear-gradient-53" x1="-1295.89" y1="-93.52" x2="-1302.24" y2="-79.97" xlink:href="#linear-gradient"/>
    <linearGradient id="linear-gradient-54" x1="-1295.29" y1="-93.24" x2="-1301.64" y2="-79.69" xlink:href="#linear-gradient"/>
    <linearGradient id="linear-gradient-55" x1="-1294.88" y1="-93.05" x2="-1301.24" y2="-79.5" xlink:href="#linear-gradient"/>
    <linearGradient id="linear-gradient-56" x1="-1294.63" y1="-92.93" x2="-1300.99" y2="-79.38" xlink:href="#linear-gradient"/>
    <linearGradient id="linear-gradient-57" x1="-1296.97" y1="-94.03" x2="-1303.32" y2="-80.48" xlink:href="#linear-gradient"/>
    <linearGradient id="linear-gradient-58" x1="-1314.25" y1="-102.13" x2="-1320.6" y2="-88.58" xlink:href="#linear-gradient"/>
    <linearGradient id="linear-gradient-59" x1="-1314.02" y1="-102.02" x2="-1320.37" y2="-88.47" xlink:href="#linear-gradient"/>
    <linearGradient id="linear-gradient-60" x1="-1313.74" y1="-101.89" x2="-1320.09" y2="-88.34" xlink:href="#linear-gradient"/>
    <linearGradient id="linear-gradient-61" x1="-1313.26" y1="-101.67" x2="-1319.62" y2="-88.11" xlink:href="#linear-gradient"/>
    <linearGradient id="linear-gradient-62" x1="-1312.95" y1="-101.52" x2="-1319.3" y2="-87.97" xlink:href="#linear-gradient"/>
    <linearGradient id="linear-gradient-63" x1="-1312.75" y1="-101.43" x2="-1319.1" y2="-87.87" xlink:href="#linear-gradient"/>
    <linearGradient id="linear-gradient-64" x1="-1314.59" y1="-102.29" x2="-1320.94" y2="-88.74" xlink:href="#linear-gradient"/>
    <linearGradient id="linear-gradient-65" x1="-1322.56" y1="-106.03" x2="-1328.91" y2="-92.47" xlink:href="#linear-gradient"/>
    <linearGradient id="linear-gradient-66" x1="-1322.33" y1="-105.92" x2="-1328.69" y2="-92.37" xlink:href="#linear-gradient"/>
    <linearGradient id="linear-gradient-67" x1="-1322.07" y1="-105.79" x2="-1328.42" y2="-92.24" xlink:href="#linear-gradient"/>
    <linearGradient id="linear-gradient-68" x1="-1321.61" y1="-105.58" x2="-1327.96" y2="-92.03" xlink:href="#linear-gradient"/>
    <linearGradient id="linear-gradient-69" x1="-1321.3" y1="-105.43" x2="-1327.65" y2="-91.88" xlink:href="#linear-gradient"/>
    <linearGradient id="linear-gradient-70" x1="-1321.11" y1="-105.35" x2="-1327.46" y2="-91.79" xlink:href="#linear-gradient"/>
    <linearGradient id="linear-gradient-71" x1="-1322.89" y1="-106.18" x2="-1329.24" y2="-92.63" xlink:href="#linear-gradient"/>
    <linearGradient id="linear-gradient-72" x1="-1309.18" y1="-99.75" x2="-1315.53" y2="-86.2" xlink:href="#linear-gradient"/>
    <linearGradient id="linear-gradient-73" x1="-1308.95" y1="-99.65" x2="-1315.31" y2="-86.09" xlink:href="#linear-gradient"/>
    <linearGradient id="linear-gradient-74" x1="-1308.69" y1="-99.52" x2="-1315.04" y2="-85.97" xlink:href="#linear-gradient"/>
    <linearGradient id="linear-gradient-75" x1="-1308.23" y1="-99.31" x2="-1314.58" y2="-85.75" xlink:href="#linear-gradient"/>
    <linearGradient id="linear-gradient-76" x1="-1307.92" y1="-99.16" x2="-1314.27" y2="-85.61" xlink:href="#linear-gradient"/>
    <linearGradient id="linear-gradient-77" x1="-1307.73" y1="-99.07" x2="-1314.08" y2="-85.52" xlink:href="#linear-gradient"/>
    <linearGradient id="linear-gradient-78" x1="-1309.51" y1="-99.91" x2="-1315.86" y2="-86.36" xlink:href="#linear-gradient"/>
    <linearGradient id="linear-gradient-79" x1="-1295.47" y1="-93.33" x2="-1301.83" y2="-79.78" xlink:href="#linear-gradient"/>
    <linearGradient id="linear-gradient-80" x1="-1295.25" y1="-93.22" x2="-1301.6" y2="-79.67" xlink:href="#linear-gradient"/>
    <linearGradient id="linear-gradient-81" x1="-1294.98" y1="-93.1" x2="-1301.33" y2="-79.54" xlink:href="#linear-gradient"/>
    <linearGradient id="linear-gradient-82" x1="-1294.52" y1="-92.88" x2="-1300.87" y2="-79.33" xlink:href="#linear-gradient"/>
    <linearGradient id="linear-gradient-83" x1="-1294.21" y1="-92.74" x2="-1300.57" y2="-79.18" xlink:href="#linear-gradient"/>
    <linearGradient id="linear-gradient-84" x1="-1294.02" y1="-92.65" x2="-1300.38" y2="-79.1" xlink:href="#linear-gradient"/>
    <linearGradient id="linear-gradient-85" x1="-1295.8" y1="-93.48" x2="-1302.15" y2="-79.93" xlink:href="#linear-gradient"/>
    <linearGradient id="linear-gradient-86" x1="-1287.09" y1="-89.4" x2="-1293.45" y2="-75.85" xlink:href="#linear-gradient"/>
    <linearGradient id="linear-gradient-87" x1="-1286.84" y1="-89.28" x2="-1293.19" y2="-75.73" xlink:href="#linear-gradient"/>
    <linearGradient id="linear-gradient-88" x1="-1286.54" y1="-89.14" x2="-1292.89" y2="-75.59" xlink:href="#linear-gradient"/>
    <linearGradient id="linear-gradient-89" x1="-1286.02" y1="-88.9" x2="-1292.37" y2="-75.35" xlink:href="#linear-gradient"/>
    <linearGradient id="linear-gradient-90" x1="-1285.68" y1="-88.74" x2="-1292.03" y2="-75.18" xlink:href="#linear-gradient"/>
    <linearGradient id="linear-gradient-91" x1="-1285.46" y1="-88.64" x2="-1291.82" y2="-75.08" xlink:href="#linear-gradient"/>
    <linearGradient id="linear-gradient-92" x1="-1287.46" y1="-89.57" x2="-1293.82" y2="-76.02" xlink:href="#linear-gradient"/>
    <linearGradient id="linear-gradient-93" x1="-1306.74" y1="-98.61" x2="-1313.09" y2="-85.06" xlink:href="#linear-gradient"/>
    <linearGradient id="linear-gradient-94" x1="-1306.48" y1="-98.49" x2="-1312.84" y2="-84.94" xlink:href="#linear-gradient"/>
    <linearGradient id="linear-gradient-95" x1="-1306.18" y1="-98.35" x2="-1312.54" y2="-84.8" xlink:href="#linear-gradient"/>
    <linearGradient id="linear-gradient-96" x1="-1305.67" y1="-98.11" x2="-1312.02" y2="-84.55" xlink:href="#linear-gradient"/>
    <linearGradient id="linear-gradient-97" x1="-1305.32" y1="-97.95" x2="-1311.68" y2="-84.39" xlink:href="#linear-gradient"/>
    <linearGradient id="linear-gradient-98" x1="-1305.11" y1="-97.85" x2="-1311.46" y2="-84.29" xlink:href="#linear-gradient"/>
    <linearGradient id="linear-gradient-99" x1="-1307.11" y1="-98.78" x2="-1313.46" y2="-85.23" xlink:href="#linear-gradient"/>
    <linearGradient id="linear-gradient-100" x1="-2115.78" y1="-188.26" x2="-2122.13" y2="-174.7" gradientTransform="translate(-2149.27) rotate(-180) scale(1 -1)" xlink:href="#linear-gradient"/>
    <linearGradient id="linear-gradient-101" x1="-2115.37" y1="-188.06" x2="-2121.72" y2="-174.51" gradientTransform="translate(-2149.27) rotate(-180) scale(1 -1)" xlink:href="#linear-gradient"/>
    <linearGradient id="linear-gradient-102" x1="-2114.88" y1="-187.84" x2="-2121.24" y2="-174.28" gradientTransform="translate(-2149.27) rotate(-180) scale(1 -1)" xlink:href="#linear-gradient"/>
    <linearGradient id="linear-gradient-103" x1="-2114.06" y1="-187.45" x2="-2120.41" y2="-173.9" gradientTransform="translate(-2149.27) rotate(-180) scale(1 -1)" xlink:href="#linear-gradient"/>
    <linearGradient id="linear-gradient-104" x1="-2113.5" y1="-187.19" x2="-2119.86" y2="-173.64" gradientTransform="translate(-2149.27) rotate(-180) scale(1 -1)" xlink:href="#linear-gradient"/>
    <linearGradient id="linear-gradient-105" x1="-2113.16" y1="-187.03" x2="-2119.51" y2="-173.48" gradientTransform="translate(-2149.27) rotate(-180) scale(1 -1)" xlink:href="#linear-gradient"/>
    <linearGradient id="linear-gradient-106" x1="-2116.38" y1="-188.54" x2="-2122.73" y2="-174.98" gradientTransform="translate(-2149.27) rotate(-180) scale(1 -1)" xlink:href="#linear-gradient"/>
    <linearGradient id="linear-gradient-107" x1="-1307.91" y1="61.85" x2="-1406.31" y2="187.73" gradientTransform="translate(-1212.3) rotate(-180) scale(1 -1)" gradientUnits="userSpaceOnUse">
      <stop offset="0" stop-color="#a22b25"/>
      <stop offset="1" stop-color="#c0423c"/>
    </linearGradient>
    <linearGradient id="linear-gradient-108" x1="-1296.61" y1="94.75" x2="-1352.02" y2="165.65" xlink:href="#linear-gradient-107"/>
    <linearGradient id="linear-gradient-109" x1="177.41" y1="90.39" x2="193.92" y2="76.2" gradientTransform="matrix(1, 0, 0, 1, 0, 0)" xlink:href="#linear-gradient-107"/>
    <linearGradient id="linear-gradient-110" x1="167.07" y1="141.89" x2="193.19" y2="130.6" gradientTransform="matrix(1, 0, 0, 1, 0, 0)" xlink:href="#linear-gradient-107"/>
    <linearGradient id="linear-gradient-111" x1="167.16" y1="135.41" x2="161.72" y2="127.51" gradientTransform="matrix(1, 0, 0, 1, 0, 0)" xlink:href="#linear-gradient-107"/>
    <linearGradient id="linear-gradient-112" x1="5631.83" y1="727.73" x2="5616.99" y2="739.08" gradientTransform="translate(5677.47 -1257.38) rotate(173.67) scale(1 -1)" xlink:href="#linear-gradient-107"/>
    <linearGradient id="linear-gradient-113" x1="5629.99" y1="725.32" x2="5615.15" y2="736.68" gradientTransform="translate(5677.47 -1257.38) rotate(173.67) scale(1 -1)" xlink:href="#linear-gradient-107"/>
  </defs>
  <ellipse cx="135" cy="152.95" rx="65.3" ry="5.93" fill="#ffe6f0" opacity=".8"/>
  <path d="M101.32,105.44c.77,.78,2.08,.51,2.51-.5,2.33-5.56,7.51-21.89-2.31-40.27-8.3-15.52-11.32-24.73-12.4-29-.23-.9-1.48-.99-1.83-.13-3.88,9.52-13.94,41.8,14.04,69.9Z" fill="#d6d6d6"/>
  <path d="M102.57,104.83c-.16-.06-.28-.22-.29-.4-.01-.27-1.27-26.79-11.76-48.73-.11-.22-.01-.49,.21-.6,.22-.11,.49-.01,.6,.21,10.56,22.11,11.83,48.81,11.84,49.08,.01,.25-.18,.46-.43,.47-.06,0-.12,0-.18-.03Z" fill="#fff" opacity=".24"/>
  <rect x="130.11" y="53.84" width="45.39" height="48.47" fill="#f0f0f0"/>
  <g>
    <rect x="128.94" y="101.25" width="44.63" height="2.12" transform="translate(302.51 204.62) rotate(180)" fill="#262626"/>
    <rect x="128.94" y="79.99" width="45.97" height="2.03" transform="translate(303.85 162.02) rotate(180)" fill="#262626"/>
    <rect x="128.94" y="63.8" width="45.21" height="1.86" transform="translate(303.1 129.46) rotate(180)" fill="#262626"/>
    <path d="M128.29,49.04h2.4v61.53h0c-1.32,0-2.4-1.07-2.4-2.4V49.04h0Z" transform="translate(258.99 159.6) rotate(180)" fill="#262626"/>
    <rect x="172.87" y="49.3" width="2.65" height="61.71" transform="translate(348.38 160.3) rotate(180)" fill="#262626"/>
  </g>
  <path d="M151.98,79.95c-1.23,.02-2.24-.86-2.24-1.96v-8.73c0-1.15,1.03-2.08,2.32-2.09,3.86-.04,11.81-.04,18.32,.45,.89,.07,1.58,.72,1.61,1.51l.61,8.44c.05,1.12-.94,2.05-2.19,2.07l-18.42,.31Z" fill="#ffa9c2" stroke="#363636" stroke-miterlimit="10" stroke-width=".3"/>
  <path d="M151.98,70.19c-.02,.74,0,1.92,.03,2.68,.01,.4,.4,.7,.84,.65l3.17-.33c.42-.04,.72-.39,.66-.77l-.39-2.32c-.06-.33-.37-.57-.75-.57h-2.81c-.41,0-.75,.29-.75,.66Z" fill="#fff" opacity=".87"/>
  <path d="M160.27,74.59l2.65,.26c.37,.04,.69-.24,.66-.57l-.58-7.03c-1.11-.03-2.2-.05-3.26-.07v6.89c0,.27,.23,.5,.53,.53Z" fill="#fff" opacity=".37"/>
  <path d="M161.35,73.37c0,.13,.13,.22,.27,.22h.02c.15,0,.26-.12,.25-.25l-.4-6.14c-.18,0-.36,0-.53-.01l.4,6.18Z" fill="#fff"/>
  <g>
    <path d="M153.44,72.41s-.09-.03-.09-.07l-.14-1.93s.03-.08,.08-.08c.05,0,.09,.03,.09,.07l.14,1.93s-.03,.08-.08,.08h0Z" fill="url(#linear-gradient)"/>
    <path d="M153.73,72.41s-.09-.03-.09-.08l-.07-1.97s.04-.08,.09-.08c.06,0,.09,.03,.09,.08l.07,1.97s-.04,.08-.09,.08h0Z" fill="url(#linear-gradient-2)"/>
    <path d="M154.11,72.41s-.09-.03-.09-.08c-.02-.32-.1-1.94-.1-1.97,0-.04,.04-.08,.09-.08s.09,.04,.09,.08c0,.04,.07,1.31,.1,1.97,0,.04-.04,.08-.08,.08h0Zm-.01-2.05h0Z" fill="url(#linear-gradient-3)"/>
    <path d="M154.7,72.49c-.1,0-.17-.07-.18-.15-.08-1.91-.06-1.95-.05-1.98,.03-.08,.12-.13,.22-.11,.09,.02,.14,.1,.13,.17,0,.11,.03,1.23,.06,1.91,0,.09-.07,.16-.17,.16h0Z" fill="url(#linear-gradient-4)"/>
    <path d="M155.08,72.41s-.09-.04-.09-.08v-1.93s.04-.08,.09-.08,.09,.04,.09,.08v1.93s-.04,.08-.09,.08Z" fill="url(#linear-gradient-5)"/>
    <path d="M155.39,72.41s-.09-.03-.09-.08c-.02-.67-.06-1.77-.09-1.9-.02-.02-.02-.06,0-.08,.03-.04,.08-.05,.12-.02,.05,.03,.09,.06,.14,2,0,.04-.04,.08-.09,.08h0Z" fill="url(#linear-gradient-6)"/>
    <path d="M152.97,72.58c-.09,0-.17-.07-.18-.15l-.12-2.03c0-.09,.07-.16,.17-.17,.09,0,.18,.06,.19,.15l.12,2.03c0,.09-.07,.16-.17,.17h0Z" fill="url(#linear-gradient-7)"/>
  </g>
  <path d="M133.03,80.23c-.97,.02-1.77-.68-1.77-1.55v-6.89c0-.91,.81-1.64,1.83-1.65,3.04-.03,9.32-.03,14.45,.36,.7,.05,1.25,.57,1.27,1.19l.48,6.66c.04,.88-.74,1.62-1.73,1.63l-14.53,.25Z" fill="#ffa9c2" stroke="#363636" stroke-miterlimit="10" stroke-width=".3"/>
  <path d="M133.02,72.54c-.01,.59,0,1.52,.02,2.12,0,.31,.32,.55,.66,.51l2.5-.26c.33-.03,.57-.31,.52-.61l-.31-1.83c-.04-.26-.29-.45-.59-.45h-2.22c-.32,0-.59,.23-.59,.52Z" fill="#fff"/>
  <path d="M139.57,76.01l2.09,.2c.29,.03,.54-.19,.52-.45l-.46-5.55c-.88-.02-1.74-.04-2.57-.06v5.43c0,.21,.18,.4,.42,.42Z" fill="#fff" opacity=".37"/>
  <path d="M140.42,75.05c0,.1,.1,.18,.21,.18h.01c.12,0,.2-.1,.2-.2l-.31-4.84c-.14,0-.28,0-.42,0l.32,4.87Z" fill="#fff"/>
  <g>
    <path d="M134.18,74.29s-.07-.03-.07-.06l-.11-1.53s.03-.06,.07-.07c.04,0,.07,.02,.07,.06l.11,1.53s-.03,.06-.07,.07h0Z" fill="url(#linear-gradient-8)"/>
    <path d="M134.4,74.29s-.07-.03-.07-.06l-.06-1.55s.03-.06,.07-.06c.04,0,.07,.03,.07,.06l.06,1.55s-.03,.06-.07,.06h0Z" fill="url(#linear-gradient-9)"/>
    <path d="M134.7,74.29s-.07-.03-.07-.06c-.01-.26-.08-1.53-.08-1.56,0-.03,.03-.06,.07-.06s.07,.03,.07,.06c0,.03,.05,1.03,.08,1.55,0,.03-.03,.06-.07,.07h0Zm-.01-1.62h0Z" fill="url(#linear-gradient-10)"/>
    <path d="M135.17,74.35c-.08,0-.14-.05-.14-.12-.06-1.51-.05-1.54-.04-1.56,.02-.07,.1-.11,.17-.09,.07,.02,.11,.08,.1,.14,0,.09,.03,.97,.05,1.5,0,.07-.06,.13-.14,.13h0Z" fill="url(#linear-gradient-11)"/>
    <path d="M135.47,74.29s-.07-.03-.07-.06v-1.53s.03-.06,.07-.06,.07,.03,.07,.06v1.53s-.03,.06-.07,.06Z" fill="url(#linear-gradient-12)"/>
    <path d="M135.72,74.29s-.07-.03-.07-.06c-.01-.53-.04-1.4-.07-1.5-.01-.02-.01-.04,0-.06,.02-.03,.06-.04,.1-.02,.04,.02,.07,.04,.11,1.58,0,.03-.03,.06-.07,.06h0Z" fill="url(#linear-gradient-13)"/>
    <path d="M133.8,74.43c-.07,0-.14-.05-.14-.12l-.09-1.6c0-.07,.06-.13,.13-.13,.07,0,.14,.05,.15,.12l.09,1.6c0,.07-.06,.13-.13,.13h0Z" fill="url(#linear-gradient-14)"/>
  </g>
  <g>
    <path d="M132.26,64.21c-.73,.02-1.33-.66-1.33-1.49v-6.65c0-.87,.61-1.58,1.38-1.59,2.29-.03,7.03-.03,10.9,.34,.53,.05,.94,.55,.96,1.15l.36,6.43c.03,.85-.56,1.56-1.31,1.58l-10.96,.24Z" fill="url(#linear-gradient-15)"/>
    <path d="M131.89,56.78c-.01,.57,0,1.46,.02,2.04,0,.3,.3,.53,.64,.5l2.42-.25c.32-.03,.55-.3,.5-.58l-.3-1.77c-.04-.25-.28-.44-.57-.44h-2.14c-.31,0-.57,.22-.57,.5Z" fill="#fff"/>
    <path d="M138.21,60.13l2.02,.19c.28,.03,.52-.18,.5-.43l-.44-5.35c-.84-.02-1.68-.04-2.48-.05v5.24c0,.21,.17,.38,.41,.4Z" fill="#fff" opacity=".37"/>
    <path d="M139.03,59.2c0,.1,.1,.17,.2,.17h.01c.11,0,.2-.09,.19-.19l-.3-4.67c-.14,0-.27,0-.41,0l.31,4.7Z" fill="#fff"/>
    <g>
      <path d="M133.01,58.47s-.07-.02-.07-.06l-.1-1.47s.03-.06,.06-.06c.04,0,.07,.02,.07,.06l.1,1.47s-.03,.06-.06,.06h0Z" fill="url(#linear-gradient-16)"/>
      <path d="M133.23,58.47s-.07-.03-.07-.06l-.05-1.5s.03-.06,.07-.06c.04,0,.07,.03,.07,.06l.05,1.5s-.03,.06-.07,.06h0Z" fill="url(#linear-gradient-17)"/>
      <path d="M133.52,58.47s-.07-.03-.07-.06c-.01-.25-.08-1.48-.08-1.5,0-.03,.03-.06,.07-.06s.07,.03,.07,.06c0,.03,.05,.99,.08,1.5,0,.03-.03,.06-.06,.06h0Zm-.01-1.56h0Z" fill="url(#linear-gradient-18)"/>
      <path d="M133.97,58.53c-.07,0-.13-.05-.13-.12-.06-1.45-.05-1.49-.04-1.51,.02-.06,.09-.1,.17-.08,.07,.02,.11,.07,.1,.13,0,.09,.03,.93,.05,1.45,0,.07-.06,.12-.13,.12h0Z" fill="url(#linear-gradient-19)"/>
      <path d="M134.26,58.47s-.07-.03-.07-.06v-1.47s.03-.06,.07-.06,.07,.03,.07,.06v1.47s-.03,.06-.07,.06Z" fill="url(#linear-gradient-20)"/>
      <path d="M134.49,58.47s-.07-.03-.07-.06c-.01-.51-.04-1.35-.07-1.45-.01-.02-.01-.04,0-.06,.02-.03,.06-.04,.09-.02,.04,.02,.07,.04,.11,1.52,0,.03-.03,.06-.07,.06h0Z" fill="url(#linear-gradient-21)"/>
      <path d="M132.65,58.6c-.07,0-.13-.05-.13-.11l-.09-1.55c0-.07,.05-.12,.13-.13,.07,0,.14,.05,.14,.11l.09,1.55c0,.07-.05,.12-.13,.13h0Z" fill="url(#linear-gradient-22)"/>
    </g>
  </g>
  <path d="M146.19,63.91c-.73,.02-1.33-.66-1.33-1.49v-6.65c0-.87,.61-1.58,1.38-1.59,2.29-.03,7.03-.03,10.9,.34,.53,.05,.94,.55,.96,1.15l.36,6.43c.03,.85-.56,1.56-1.31,1.58l-10.96,.24Z" fill="#ffa9c2" stroke="#363636" stroke-miterlimit="10" stroke-width=".3"/>
  <path d="M145.83,56.49c-.01,.57,0,1.46,.02,2.04,0,.3,.3,.53,.64,.5l2.42-.25c.32-.03,.55-.3,.5-.58l-.3-1.77c-.04-.25-.28-.44-.57-.44h-2.14c-.31,0-.57,.22-.57,.5Z" fill="#fff" opacity=".87"/>
  <path d="M152.14,59.83l2.02,.19c.28,.03,.52-.18,.5-.43l-.44-5.35c-.84-.02-1.68-.04-2.48-.05v5.24c0,.21,.17,.38,.41,.4Z" fill="#fff" opacity=".37"/>
  <path d="M152.97,58.91c0,.1,.1,.17,.2,.17h.01c.11,0,.2-.09,.19-.19l-.3-4.67c-.14,0-.27,0-.41,0l.31,4.7Z" fill="#fff"/>
  <g>
    <path d="M146.95,58.17s-.07-.02-.07-.06l-.1-1.47s.03-.06,.06-.06c.04,0,.07,.02,.07,.06l.1,1.47s-.03,.06-.06,.06h0Z" fill="url(#linear-gradient-23)"/>
    <path d="M147.16,58.17s-.07-.03-.07-.06l-.05-1.5s.03-.06,.07-.06c.04,0,.07,.03,.07,.06l.05,1.5s-.03,.06-.07,.06h0Z" fill="url(#linear-gradient-24)"/>
    <path d="M147.45,58.17s-.07-.03-.07-.06c-.01-.25-.08-1.48-.08-1.5,0-.03,.03-.06,.07-.06s.07,.03,.07,.06c0,.03,.05,.99,.08,1.5,0,.03-.03,.06-.06,.06h0Zm-.01-1.56h0Z" fill="url(#linear-gradient-25)"/>
    <path d="M147.9,58.23c-.07,0-.13-.05-.13-.12-.06-1.45-.05-1.49-.04-1.51,.02-.06,.09-.1,.17-.08,.07,.02,.11,.07,.1,.13,0,.09,.03,.93,.05,1.45,0,.07-.06,.12-.13,.12h0Z" fill="url(#linear-gradient-26)"/>
    <path d="M148.19,58.17s-.07-.03-.07-.06v-1.47s.03-.06,.07-.06,.07,.03,.07,.06v1.47s-.03,.06-.07,.06Z" fill="url(#linear-gradient-27)"/>
    <path d="M148.43,58.17s-.07-.03-.07-.06c-.01-.51-.04-1.35-.07-1.45-.01-.02-.01-.04,0-.06,.02-.03,.06-.04,.09-.02,.04,.02,.07,.04,.11,1.52,0,.03-.03,.06-.07,.06h0Z" fill="url(#linear-gradient-28)"/>
    <path d="M146.58,58.31c-.07,0-.13-.05-.13-.11l-.09-1.55c0-.07,.05-.12,.13-.13,.07,0,.14,.05,.14,.11l.09,1.55c0,.07-.05,.12-.13,.13h0Z" fill="url(#linear-gradient-29)"/>
  </g>
  <path d="M160.33,63.91c-.73,.02-1.33-.66-1.33-1.49v-6.65c0-.87,.61-1.58,1.38-1.59,2.29-.03,7.03-.03,10.9,.34,.53,.05,.94,.55,.96,1.15l.36,6.43c.03,.85-.56,1.56-1.31,1.58l-10.96,.24Z" fill="#ffa9c2" stroke="#363636" stroke-miterlimit="10" stroke-width=".3"/>
  <path d="M159.96,56.49c-.01,.57,0,1.46,.02,2.04,0,.3,.3,.53,.64,.5l2.42-.25c.32-.03,.55-.3,.5-.58l-.3-1.77c-.04-.25-.28-.44-.57-.44h-2.14c-.31,0-.57,.22-.57,.5Z" fill="#fff" opacity=".87"/>
  <path d="M166.28,59.83l2.02,.19c.28,.03,.52-.18,.5-.43l-.44-5.35c-.84-.02-1.68-.04-2.48-.05v5.24c0,.21,.17,.38,.41,.4Z" fill="#fff" opacity=".37"/>
  <path d="M167.1,58.91c0,.1,.1,.17,.2,.17h.01c.11,0,.2-.09,.19-.19l-.3-4.67c-.14,0-.27,0-.41,0l.31,4.7Z" fill="#fff"/>
  <g>
    <path d="M161.08,58.17s-.07-.02-.07-.06l-.1-1.47s.03-.06,.06-.06c.04,0,.07,.02,.07,.06l.1,1.47s-.03,.06-.06,.06h0Z" fill="url(#linear-gradient-30)"/>
    <path d="M161.3,58.17s-.07-.03-.07-.06l-.05-1.5s.03-.06,.07-.06c.04,0,.07,.03,.07,.06l.05,1.5s-.03,.06-.07,.06h0Z" fill="url(#linear-gradient-31)"/>
    <path d="M161.59,58.17s-.07-.03-.07-.06c-.01-.25-.08-1.48-.08-1.5,0-.03,.03-.06,.07-.06s.07,.03,.07,.06c0,.03,.05,.99,.08,1.5,0,.03-.03,.06-.06,.06h0Zm-.01-1.56h0Z" fill="url(#linear-gradient-32)"/>
    <path d="M162.04,58.23c-.07,0-.13-.05-.13-.12-.06-1.45-.05-1.49-.04-1.51,.02-.06,.09-.1,.17-.08,.07,.02,.11,.07,.1,.13,0,.09,.03,.93,.05,1.45,0,.07-.06,.12-.13,.12h0Z" fill="url(#linear-gradient-33)"/>
    <path d="M162.33,58.17s-.07-.03-.07-.06v-1.47s.03-.06,.07-.06,.07,.03,.07,.06v1.47s-.03,.06-.07,.06Z" fill="url(#linear-gradient-34)"/>
    <path d="M162.57,58.17s-.07-.03-.07-.06c-.01-.51-.04-1.35-.07-1.45-.01-.02-.01-.04,0-.06,.02-.03,.06-.04,.09-.02,.04,.02,.07,.04,.11,1.52,0,.03-.03,.06-.07,.06h0Z" fill="url(#linear-gradient-35)"/>
    <path d="M160.72,58.31c-.07,0-.13-.05-.13-.11l-.09-1.55c0-.07,.05-.12,.13-.13,.07,0,.14,.05,.14,.11l.09,1.55c0,.07-.05,.12-.13,.13h0Z" fill="url(#linear-gradient-36)"/>
  </g>
  <path d="M154.36,101.19c-1.05,.03-1.92-1.17-1.92-2.65v-11.8c0-1.55,.88-2.81,1.98-2.83,3.3-.05,10.1-.05,15.66,.61,.76,.09,1.35,.97,1.38,2.04l.52,11.41c.04,1.51-.81,2.77-1.88,2.8l-15.75,.42Z" fill="#ffa9c2" stroke="#363636" stroke-miterlimit="10" stroke-width=".3"/>
  <path d="M154.35,86.5c-.01,.64,0,1.64,.02,2.3,0,.34,.34,.6,.72,.56l2.71-.28c.36-.04,.62-.34,.56-.66l-.33-1.98c-.05-.28-.32-.49-.64-.49h-2.4c-.35,0-.64,.25-.64,.56Z" fill="#fff"/>
  <path d="M161.44,90.26l2.26,.22c.32,.03,.59-.2,.56-.49l-.49-6.01c-.95-.03-1.88-.05-2.79-.06v5.89c0,.23,.2,.43,.46,.45Z" fill="#fff" opacity=".37"/>
  <path d="M162.37,89.22c0,.11,.11,.19,.23,.19h.01c.13,0,.22-.1,.21-.22l-.34-5.25c-.15,0-.3,0-.46,0l.34,5.28Z" fill="#fff"/>
  <g>
    <path d="M155.61,88.4s-.07-.03-.08-.06l-.12-1.65s.03-.07,.07-.07c.04,0,.08,.03,.08,.06l.12,1.65s-.03,.07-.07,.07h0Z" fill="url(#linear-gradient-37)"/>
    <path d="M155.85,88.4s-.07-.03-.08-.07l-.06-1.68s.03-.07,.07-.07c.05,0,.08,.03,.08,.07l.06,1.68s-.03,.07-.07,.07h0Z" fill="url(#linear-gradient-38)"/>
    <path d="M156.17,88.4s-.07-.03-.08-.06c-.01-.28-.09-1.66-.09-1.69,0-.04,.03-.07,.08-.07s.08,.03,.08,.07c0,.04,.06,1.12,.09,1.68,0,.04-.03,.07-.07,.07h0Zm-.01-1.75h0Z" fill="url(#linear-gradient-39)"/>
    <path d="M156.68,88.47c-.08,0-.15-.06-.15-.13-.06-1.63-.05-1.67-.05-1.69,.02-.07,.11-.11,.19-.1,.07,.02,.12,.08,.11,.15,0,.1,.03,1.05,.05,1.63,0,.07-.06,.14-.15,.14h0Z" fill="url(#linear-gradient-40)"/>
    <path d="M157.01,88.4s-.08-.03-.08-.07v-1.65s.03-.07,.08-.07,.08,.03,.08,.07v1.65s-.03,.07-.08,.07Z" fill="url(#linear-gradient-41)"/>
    <path d="M157.27,88.4s-.08-.03-.08-.07c-.01-.57-.05-1.51-.08-1.63-.01-.02-.01-.05,0-.07,.02-.03,.07-.04,.11-.02,.04,.02,.08,.05,.12,1.71,0,.04-.03,.07-.07,.07h0Z" fill="url(#linear-gradient-42)"/>
    <path d="M155.2,88.55c-.08,0-.15-.06-.15-.13l-.1-1.74c0-.07,.06-.14,.14-.14,.08,0,.16,.05,.16,.13l.1,1.74c0,.07-.06,.14-.14,.14h0Z" fill="url(#linear-gradient-43)"/>
  </g>
  <path d="M133.95,101.6c-1.05,.03-1.92-1.17-1.92-2.67v-11.86c0-1.56,.88-2.83,1.98-2.84,3.3-.05,10.1-.05,15.66,.61,.76,.09,1.35,.97,1.38,2.05l.52,11.47c.04,1.52-.81,2.78-1.88,2.81l-15.75,.42Z" fill="#ffa9c2" stroke="#363636" stroke-miterlimit="10" stroke-width=".3"/>
  <path d="M133.95,86.82c-.01,.64,0,1.64,.02,2.3,0,.34,.34,.6,.72,.56l2.71-.28c.36-.04,.62-.34,.56-.66l-.33-1.98c-.05-.28-.32-.49-.64-.49h-2.4c-.35,0-.64,.25-.64,.56Z" fill="#fff"/>
  <path d="M141.04,90.58l2.26,.22c.32,.03,.59-.2,.56-.49l-.49-6.01c-.95-.03-1.88-.05-2.79-.06v5.89c0,.23,.2,.43,.46,.45Z" fill="#fff" opacity=".37"/>
  <path d="M141.97,89.54c0,.11,.11,.19,.23,.19h.01c.13,0,.22-.1,.21-.22l-.34-5.25c-.15,0-.3,0-.46,0l.34,5.28Z" fill="#fff"/>
  <g>
    <path d="M135.2,88.71s-.07-.03-.08-.06l-.12-1.65s.03-.07,.07-.07c.04,0,.08,.03,.08,.06l.12,1.65s-.03,.07-.07,.07h0Z" fill="url(#linear-gradient-44)"/>
    <path d="M135.44,88.71s-.07-.03-.08-.07l-.06-1.68s.03-.07,.07-.07c.05,0,.08,.03,.08,.07l.06,1.68s-.03,.07-.07,.07h0Z" fill="url(#linear-gradient-45)"/>
    <path d="M135.77,88.71s-.07-.03-.08-.06c-.01-.28-.09-1.66-.09-1.69,0-.04,.03-.07,.08-.07s.08,.03,.08,.07c0,.04,.06,1.12,.09,1.68,0,.04-.03,.07-.07,.07h0Zm-.01-1.75h0Z" fill="url(#linear-gradient-46)"/>
    <path d="M136.27,88.78c-.08,0-.15-.06-.15-.13-.06-1.63-.05-1.67-.05-1.69,.02-.07,.11-.11,.19-.1,.07,.02,.12,.08,.11,.15,0,.1,.03,1.05,.05,1.63,0,.07-.06,.14-.15,.14h0Z" fill="url(#linear-gradient-47)"/>
    <path d="M136.6,88.71s-.08-.03-.08-.07v-1.65s.03-.07,.08-.07,.08,.03,.08,.07v1.65s-.03,.07-.08,.07Z" fill="url(#linear-gradient-48)"/>
    <path d="M136.87,88.71s-.08-.03-.08-.07c-.01-.57-.05-1.51-.08-1.63-.01-.02-.01-.05,0-.07,.02-.03,.07-.04,.11-.02,.04,.02,.08,.05,.12,1.71,0,.04-.03,.07-.07,.07h0Z" fill="url(#linear-gradient-49)"/>
    <path d="M134.79,88.86c-.08,0-.15-.06-.15-.13l-.1-1.74c0-.07,.06-.14,.14-.14,.08,0,.16,.05,.16,.13l.1,1.74c0,.07-.06,.14-.14,.14h0Z" fill="url(#linear-gradient-50)"/>
  </g>
  <path d="M163.47,118.65c2.85-8.75,14.8-43.31,31.54-61.84,1.19-1.32,3.67-.85,3.83,.91,.93,10.24,4.92,42.36-34.04,62.08-.75,.38-1.58-.36-1.32-1.16Z" fill="#d6d6d6"/>
  <path d="M164.96,119.02c.09-.03,.18-.08,.25-.16,12.71-14.4,19.75-27.33,23.42-35.64,3.99-9.03,4.95-14.56,4.99-14.79,.05-.29-.15-.57-.44-.62-.29-.05-.57,.15-.62,.44-.04,.22-4.05,22.58-28.16,49.91-.2,.22-.17,.56,.05,.75,.14,.13,.33,.16,.5,.11Z" fill="#363636" opacity=".24"/>
  <path d="M152.75,118.08s-2.81-49.3,21.05-81.91c.31-.43,.96-.39,1.22,.07,4.09,7.25,27.93,54.1-22.27,81.84Z" fill="#f0f0f0"/>
  <path d="M174,50.49c-.1,2.87-.32,5.74-.64,8.6-.31,2.86-.7,5.71-1.17,8.54-.48,2.83-1.02,5.65-1.67,8.45-.63,2.8-1.34,5.58-2.17,8.33-.81,2.75-1.7,5.48-2.72,8.16-.12,.34-.24,.67-.37,1.01l-.4,1c-.27,.66-.52,1.34-.81,1.99l-.85,1.97-.21,.49-.23,.49-.45,.97c-.58,1.31-1.26,2.58-1.9,3.86-.33,.64-.68,1.26-1.02,1.89l-.51,.95c-.17,.31-.36,.62-.54,.93l-1.09,1.86-1.15,1.82-.58,.91-.61,.89-1.22,1.78h0c-.06,.1-.04,.22,.05,.29,.09,.06,.21,.04,.27-.04,3.58-4.54,6.71-9.46,9.24-14.68l.48-.98,.24-.49,.23-.49,.89-1.98c.3-.66,.56-1.34,.84-2l.42-1c.13-.34,.26-.68,.39-1.01,1.06-2.7,1.96-5.46,2.8-8.23,1.65-5.56,2.87-11.24,3.7-16.96,.42-2.86,.73-5.74,.94-8.63,.1-1.44,.17-2.89,.22-4.33,.05-1.45,.06-2.89,.01-4.34,0-.11-.1-.2-.21-.2-.11,0-.19,.09-.2,.19h0Z" fill="#363636" opacity=".56"/>
  <rect x="90.96" y="46.85" width="53.69" height="57.33" fill="#f0f0f0"/>
  <g>
    <rect x="89.57" y="102.93" width="52.79" height="2.51" transform="translate(231.93 208.37) rotate(180)" fill="#262626"/>
    <rect x="89.57" y="77.79" width="54.37" height="2.4" transform="translate(233.52 157.97) rotate(180)" fill="#262626"/>
    <rect x="89.57" y="58.63" width="53.48" height="2.21" transform="translate(232.62 119.46) rotate(180)" fill="#262626"/>
    <path d="M88.81,113.95h2.84V44.01c0-1.57-1.27-2.84-2.84-2.84h0V113.95Z" fill="#262626"/>
    <rect x="141.53" y="41.47" width="3.13" height="72.99" transform="translate(286.19 155.94) rotate(180)" fill="#262626"/>
  </g>
  <path d="M116.83,77.73c-1.45,.02-2.65-1.02-2.65-2.32v-10.33c0-1.36,1.22-2.46,2.74-2.48,4.56-.04,13.97-.05,21.67,.53,1.05,.08,1.87,.85,1.91,1.79l.72,9.99c.05,1.32-1.12,2.43-2.6,2.45l-21.79,.37Z" fill="#ffa9c2" stroke="#262626" stroke-miterlimit="10" stroke-width=".4"/>
  <path d="M116.82,66.19c-.02,.88,0,2.27,.03,3.18,.01,.47,.47,.83,.99,.77l3.75-.39c.5-.05,.85-.46,.78-.91l-.46-2.75c-.07-.39-.44-.68-.88-.68h-3.33c-.48,0-.88,.35-.89,.78Z" fill="#fff" opacity=".87"/>
  <path d="M126.63,71.4l3.13,.3c.44,.04,.81-.28,.78-.67l-.68-8.32c-1.31-.04-2.61-.06-3.86-.08v8.15c0,.32,.27,.59,.63,.63Z" fill="#fff" opacity=".37"/>
  <path d="M127.91,69.95c0,.15,.15,.27,.31,.27h.02c.17,0,.31-.14,.3-.3l-.47-7.26c-.21,0-.42,0-.63-.01l.48,7.31Z" fill="#fff"/>
  <g>
    <path d="M118.55,68.81c-.05,0-.1-.04-.1-.09l-.16-2.29c0-.05,.04-.1,.1-.1,.06,0,.11,.04,.11,.09l.16,2.29c0,.05-.04,.1-.1,.1h0Z" fill="url(#linear-gradient-51)"/>
    <path d="M118.89,68.81c-.06,0-.1-.04-.11-.09l-.09-2.33c0-.05,.04-.1,.1-.1,.07,0,.11,.04,.11,.09l.09,2.33c0,.05-.04,.1-.1,.1h0Z" fill="url(#linear-gradient-52)"/>
    <path d="M119.34,68.81c-.06,0-.1-.04-.1-.09-.02-.38-.12-2.3-.12-2.34,0-.05,.05-.09,.1-.09s.1,.04,.11,.09c0,.05,.08,1.54,.12,2.33,0,.05-.04,.1-.1,.1h0Zm-.02-2.42h0Z" fill="url(#linear-gradient-53)"/>
    <path d="M120.04,68.91c-.11,0-.21-.08-.21-.18-.09-2.26-.07-2.31-.06-2.34,.03-.1,.15-.16,.26-.13,.1,.03,.17,.11,.15,.21,0,.14,.04,1.45,.07,2.26,0,.1-.09,.19-.2,.19h0Z" fill="url(#linear-gradient-54)"/>
    <path d="M120.49,68.81c-.06,0-.11-.04-.11-.09v-2.29c0-.05,.05-.09,.11-.09s.1,.04,.1,.09v2.29c0,.05-.05,.09-.1,.09Z" fill="url(#linear-gradient-55)"/>
    <path d="M120.86,68.81c-.06,0-.1-.04-.1-.09-.02-.79-.07-2.09-.11-2.25-.02-.03-.02-.07,0-.1,.03-.04,.1-.06,.15-.03,.06,.03,.11,.07,.17,2.37,0,.05-.04,.09-.1,.1h0Z" fill="url(#linear-gradient-56)"/>
    <path d="M117.99,69.02c-.11,0-.2-.08-.21-.18l-.14-2.4c0-.1,.08-.19,.2-.2,.11,0,.21,.07,.22,.18l.14,2.4c0,.1-.08,.19-.2,.2h-.01Z" fill="url(#linear-gradient-57)"/>
  </g>
  <path d="M94.4,78.07c-1.15,.02-2.09-.81-2.09-1.83v-8.15c0-1.07,.96-1.94,2.16-1.95,3.6-.03,11.02-.04,17.09,.42,.83,.06,1.47,.67,1.5,1.41l.57,7.88c.04,1.04-.88,1.91-2.05,1.93l-17.19,.29Z" fill="#ffa9c2" stroke="#262626" stroke-miterlimit="10" stroke-width=".4"/>
  <path d="M94.4,68.97c-.02,.69,0,1.79,.03,2.51,0,.37,.37,.65,.78,.61l2.96-.31c.39-.04,.67-.37,.61-.72l-.36-2.17c-.05-.31-.35-.53-.7-.53h-2.62c-.38,0-.7,.27-.7,.61Z" fill="#fff" opacity=".87"/>
  <path d="M102.14,73.07l2.47,.24c.35,.03,.64-.22,.62-.53l-.54-6.56c-1.04-.03-2.06-.05-3.04-.07v6.43c0,.25,.21,.47,.5,.49Z" fill="#fff" opacity=".37"/>
  <path d="M103.15,71.94c0,.12,.12,.21,.25,.21h.01c.14,0,.24-.11,.23-.23l-.37-5.73c-.17,0-.33,0-.5-.01l.37,5.76Z" fill="#fff"/>
  <g>
    <path d="M95.77,71.04s-.08-.03-.08-.07l-.13-1.8s.03-.08,.08-.08c.05,0,.08,.03,.09,.07l.13,1.8s-.03,.08-.08,.08h0Z" fill="url(#linear-gradient-58)"/>
    <path d="M96.03,71.04s-.08-.03-.08-.07l-.07-1.84s.03-.08,.08-.08c.05,0,.08,.03,.09,.07l.07,1.84s-.03,.08-.08,.08h0Z" fill="url(#linear-gradient-59)"/>
    <path d="M96.39,71.04s-.08-.03-.08-.07c-.02-.3-.1-1.81-.1-1.84,0-.04,.04-.07,.08-.07s.08,.03,.08,.07c0,.04,.06,1.22,.1,1.84,0,.04-.03,.08-.08,.08h0Zm-.01-1.91h0Z" fill="url(#linear-gradient-60)"/>
    <path d="M96.94,71.11c-.09,0-.16-.06-.17-.14-.07-1.78-.06-1.82-.05-1.85,.02-.08,.12-.13,.2-.1,.08,.02,.13,.09,.12,.16,0,.11,.03,1.14,.06,1.78,0,.08-.07,.15-.16,.15h0Z" fill="url(#linear-gradient-61)"/>
    <path d="M97.3,71.04s-.08-.03-.08-.07v-1.8s.04-.07,.08-.07,.08,.03,.08,.07v1.8s-.04,.07-.08,.07Z" fill="url(#linear-gradient-62)"/>
    <path d="M97.59,71.04s-.08-.03-.08-.07c-.02-.63-.05-1.65-.09-1.77-.01-.02-.01-.05,0-.08,.03-.03,.08-.04,.11-.02,.05,.03,.09,.05,.13,1.87,0,.04-.04,.07-.08,.08h0Z" fill="url(#linear-gradient-63)"/>
    <path d="M95.32,71.2c-.09,0-.16-.06-.17-.14l-.11-1.89c0-.08,.07-.15,.16-.16,.09,0,.17,.06,.17,.14l.11,1.89c0,.08-.07,.15-.16,.16h0Z" fill="url(#linear-gradient-64)"/>
  </g>
  <path d="M93.49,59.11c-.87,.02-1.58-.78-1.58-1.77v-7.86c0-1.03,.73-1.87,1.63-1.89,2.71-.03,8.31-.04,12.89,.41,.63,.06,1.11,.65,1.13,1.36l.43,7.6c.03,1.01-.66,1.85-1.54,1.87l-12.97,.28Z" fill="#ffa9c2" stroke="#262626" stroke-miterlimit="10" stroke-width=".4"/>
  <path d="M93.06,50.33c-.01,.67,0,1.73,.03,2.42,0,.36,.36,.63,.76,.59l2.86-.3c.38-.04,.65-.35,.59-.69l-.35-2.09c-.05-.3-.34-.52-.67-.52h-2.53c-.37,0-.67,.26-.68,.59Z" fill="#fff" opacity=".87"/>
  <path d="M100.53,54.29l2.38,.23c.33,.03,.62-.21,.59-.51l-.52-6.33c-1-.03-1.98-.05-2.94-.06v6.2c0,.25,.21,.45,.48,.48Z" fill="#fff" opacity=".37"/>
  <path d="M101.51,53.19c0,.11,.11,.2,.24,.2h.01c.13,0,.23-.11,.23-.23l-.36-5.53c-.16,0-.32,0-.48,0l.36,5.56Z" fill="#fff"/>
  <g>
    <path d="M94.39,52.33s-.08-.03-.08-.07l-.12-1.74s.03-.07,.07-.08c.05,0,.08,.03,.08,.07l.12,1.74s-.03,.07-.07,.08h0Z" fill="url(#linear-gradient-65)"/>
    <path d="M94.64,52.33s-.08-.03-.08-.07l-.06-1.77s.03-.07,.08-.07c.05,0,.08,.03,.08,.07l.06,1.77s-.03,.07-.08,.07h0Z" fill="url(#linear-gradient-66)"/>
    <path d="M94.98,52.33s-.08-.03-.08-.07c-.02-.29-.09-1.75-.09-1.78,0-.04,.04-.07,.08-.07s.08,.03,.08,.07c0,.04,.06,1.18,.09,1.77,0,.04-.03,.07-.08,.07h0Zm-.01-1.85h0Z" fill="url(#linear-gradient-67)"/>
    <path d="M95.51,52.4c-.09,0-.16-.06-.16-.14-.07-1.72-.06-1.76-.05-1.78,.02-.08,.11-.12,.2-.1,.08,.02,.13,.09,.12,.16,0,.1,.03,1.1,.05,1.72,0,.08-.07,.14-.15,.15h0Z" fill="url(#linear-gradient-68)"/>
    <path d="M95.86,52.33s-.08-.03-.08-.07v-1.74s.04-.07,.08-.07,.08,.03,.08,.07v1.74s-.04,.07-.08,.07Z" fill="url(#linear-gradient-69)"/>
    <path d="M96.14,52.33s-.08-.03-.08-.07c-.02-.6-.05-1.59-.08-1.71-.01-.02-.01-.05,0-.07,.02-.03,.07-.04,.11-.02,.04,.03,.08,.05,.13,1.8,0,.04-.03,.07-.08,.07h0Z" fill="url(#linear-gradient-70)"/>
    <path d="M93.96,52.48c-.08,0-.16-.06-.16-.14l-.11-1.83c0-.08,.06-.15,.15-.15,.08,0,.16,.06,.17,.14l.11,1.83c0,.08-.06,.15-.15,.15h0Z" fill="url(#linear-gradient-71)"/>
  </g>
  <path d="M109.98,58.76c-.87,.02-1.58-.78-1.58-1.77v-7.86c0-1.03,.73-1.87,1.63-1.89,2.71-.03,8.31-.04,12.89,.41,.63,.06,1.11,.65,1.13,1.36l.43,7.6c.03,1.01-.66,1.85-1.54,1.87l-12.97,.28Z" fill="#ffa9c2" stroke="#363636" stroke-miterlimit="10" stroke-width=".4"/>
  <path d="M109.55,49.98c-.01,.67,0,1.73,.03,2.42,0,.36,.36,.63,.76,.59l2.86-.3c.38-.04,.65-.35,.59-.69l-.35-2.09c-.05-.3-.34-.52-.67-.52h-2.53c-.37,0-.67,.26-.68,.59Z" fill="#fff" opacity=".87"/>
  <path d="M117.02,53.94l2.38,.23c.33,.03,.62-.21,.59-.51l-.52-6.33c-1-.03-1.98-.05-2.94-.06v6.2c0,.25,.21,.45,.48,.48Z" fill="#fff" opacity=".37"/>
  <path d="M117.99,52.84c0,.11,.11,.2,.24,.2h.01c.13,0,.23-.11,.23-.23l-.36-5.53c-.16,0-.32,0-.48,0l.36,5.56Z" fill="#fff"/>
  <g>
    <path d="M110.87,51.97s-.08-.03-.08-.07l-.12-1.74s.03-.07,.07-.08c.05,0,.08,.03,.08,.07l.12,1.74s-.03,.07-.07,.08h0Z" fill="url(#linear-gradient-72)"/>
    <path d="M111.12,51.97s-.08-.03-.08-.07l-.06-1.77s.03-.07,.08-.07c.05,0,.08,.03,.08,.07l.06,1.77s-.03,.07-.08,.07h0Z" fill="url(#linear-gradient-73)"/>
    <path d="M111.46,51.97s-.08-.03-.08-.07c-.02-.29-.09-1.75-.09-1.78,0-.04,.04-.07,.08-.07s.08,.03,.08,.07c0,.04,.06,1.18,.09,1.77,0,.04-.03,.07-.08,.07h0Zm-.01-1.85h0Z" fill="url(#linear-gradient-74)"/>
    <path d="M112,52.05c-.09,0-.16-.06-.16-.14-.07-1.72-.06-1.76-.05-1.78,.02-.08,.11-.12,.2-.1,.08,.02,.13,.09,.12,.16,0,.1,.03,1.1,.05,1.72,0,.08-.07,.14-.15,.15h0Z" fill="url(#linear-gradient-75)"/>
    <path d="M112.34,51.97s-.08-.03-.08-.07v-1.74s.04-.07,.08-.07,.08,.03,.08,.07v1.74s-.04,.07-.08,.07Z" fill="url(#linear-gradient-76)"/>
    <path d="M112.62,51.97s-.08-.03-.08-.07c-.02-.6-.05-1.59-.08-1.71-.01-.02-.01-.05,0-.07,.02-.03,.07-.04,.11-.02,.04,.03,.08,.05,.13,1.8,0,.04-.03,.07-.08,.07h0Z" fill="url(#linear-gradient-77)"/>
    <path d="M110.44,52.13c-.08,0-.16-.06-.16-.14l-.11-1.83c0-.08,.06-.15,.15-.15,.08,0,.16,.06,.17,.14l.11,1.83c0,.08-.06,.15-.15,.15h0Z" fill="url(#linear-gradient-78)"/>
  </g>
  <path d="M126.7,58.76c-.87,.02-1.58-.78-1.58-1.77v-7.86c0-1.03,.73-1.87,1.63-1.89,2.71-.03,8.31-.04,12.89,.41,.63,.06,1.11,.65,1.13,1.36l.43,7.6c.03,1.01-.66,1.85-1.54,1.87l-12.97,.28Z" fill="#ffa9c2" stroke="#363636" stroke-miterlimit="10" stroke-width=".4"/>
  <path d="M126.27,49.98c-.01,.67,0,1.73,.03,2.42,0,.36,.36,.63,.76,.59l2.86-.3c.38-.04,.65-.35,.59-.69l-.35-2.09c-.05-.3-.34-.52-.67-.52h-2.53c-.37,0-.67,.26-.68,.59Z" fill="#fff" opacity=".87"/>
  <path d="M133.74,53.94l2.38,.23c.33,.03,.62-.21,.59-.51l-.52-6.33c-1-.03-1.98-.05-2.94-.06v6.2c0,.25,.21,.45,.48,.48Z" fill="#fff" opacity=".37"/>
  <path d="M134.71,52.84c0,.11,.11,.2,.24,.2h.01c.13,0,.23-.11,.23-.23l-.36-5.53c-.16,0-.32,0-.48,0l.36,5.56Z" fill="#fff"/>
  <g>
    <path d="M127.59,51.97s-.08-.03-.08-.07l-.12-1.74s.03-.07,.07-.08c.05,0,.08,.03,.08,.07l.12,1.74s-.03,.07-.07,.08h0Z" fill="url(#linear-gradient-79)"/>
    <path d="M127.84,51.97s-.08-.03-.08-.07l-.06-1.77s.03-.07,.08-.07c.05,0,.08,.03,.08,.07l.06,1.77s-.03,.07-.08,.07h0Z" fill="url(#linear-gradient-80)"/>
    <path d="M128.18,51.97s-.08-.03-.08-.07c-.02-.29-.09-1.75-.09-1.78,0-.04,.04-.07,.08-.07s.08,.03,.08,.07c0,.04,.06,1.18,.09,1.77,0,.04-.03,.07-.08,.07h0Zm-.01-1.85h0Z" fill="url(#linear-gradient-81)"/>
    <path d="M128.72,52.05c-.09,0-.16-.06-.16-.14-.07-1.72-.06-1.76-.05-1.78,.02-.08,.11-.12,.2-.1,.08,.02,.13,.09,.12,.16,0,.1,.03,1.1,.05,1.72,0,.08-.07,.14-.15,.15h0Z" fill="url(#linear-gradient-82)"/>
    <path d="M129.06,51.97s-.08-.03-.08-.07v-1.74s.04-.07,.08-.07,.08,.03,.08,.07v1.74s-.04,.07-.08,.07Z" fill="url(#linear-gradient-83)"/>
    <path d="M129.34,51.97s-.08-.03-.08-.07c-.02-.6-.05-1.59-.08-1.71-.01-.02-.01-.05,0-.07,.02-.03,.07-.04,.11-.02,.04,.03,.08,.05,.13,1.8,0,.04-.03,.07-.08,.07h0Z" fill="url(#linear-gradient-84)"/>
    <path d="M127.16,52.13c-.08,0-.16-.06-.16-.14l-.11-1.83c0-.08,.06-.15,.15-.15,.08,0,.16,.06,.17,.14l.11,1.83c0,.08-.06,.15-.15,.15h0Z" fill="url(#linear-gradient-85)"/>
  </g>
  <path d="M119.64,102.86c-1.24,.03-2.27-1.38-2.27-3.14v-13.96c0-1.83,1.04-3.33,2.34-3.35,3.9-.06,11.94-.06,18.53,.72,.9,.11,1.6,1.15,1.63,2.42l.62,13.49c.05,1.78-.95,3.28-2.22,3.31l-18.63,.5Z" fill="#ffa9c2" stroke="#363636" stroke-miterlimit="10" stroke-width=".4"/>
  <path d="M119.63,85.48c-.02,.75,0,1.94,.03,2.72,.01,.4,.4,.71,.85,.66l3.21-.34c.43-.04,.73-.4,.67-.78l-.39-2.35c-.06-.33-.38-.58-.75-.58h-2.84c-.41,0-.75,.3-.76,.67Z" fill="#fff" opacity=".87"/>
  <path d="M128.02,89.93l2.68,.26c.37,.04,.69-.24,.67-.58l-.59-7.11c-1.12-.03-2.23-.05-3.3-.07v6.97c0,.28,.23,.51,.54,.54Z" fill="#fff" opacity=".37"/>
  <path d="M129.11,88.7c0,.13,.13,.23,.27,.23h.02c.15,0,.26-.12,.25-.25l-.4-6.21c-.18,0-.36,0-.54-.01l.41,6.25Z" fill="#fff"/>
  <g>
    <path d="M121.11,87.73s-.09-.03-.09-.08l-.14-1.96s.03-.08,.08-.09c.05,0,.09,.03,.1,.08l.14,1.96s-.03,.08-.08,.09h0Z" fill="url(#linear-gradient-86)"/>
    <path d="M121.4,87.73s-.09-.03-.09-.08l-.07-1.99s.04-.08,.09-.08c.06,0,.09,.03,.09,.08l.07,1.99s-.04,.08-.09,.08h0Z" fill="url(#linear-gradient-87)"/>
    <path d="M121.78,87.73s-.09-.03-.09-.08c-.02-.33-.1-1.96-.1-2,0-.04,.04-.08,.09-.08s.09,.04,.09,.08c0,.04,.07,1.32,.1,1.99,0,.04-.04,.08-.09,.08h0Zm-.01-2.07h0Z" fill="url(#linear-gradient-88)"/>
    <path d="M122.38,87.81c-.1,0-.18-.07-.18-.15-.08-1.93-.06-1.97-.05-2,.03-.09,.13-.14,.22-.11,.09,.02,.14,.1,.13,.18,0,.12,.03,1.24,.06,1.93,0,.09-.07,.16-.17,.17h0Z" fill="url(#linear-gradient-89)"/>
    <path d="M122.77,87.73s-.09-.04-.09-.08v-1.96s.04-.08,.09-.08,.09,.04,.09,.08v1.96s-.04,.08-.09,.08Z" fill="url(#linear-gradient-90)"/>
    <path d="M123.08,87.73s-.09-.03-.09-.08c-.02-.68-.06-1.79-.09-1.92-.02-.03-.02-.06,0-.08,.03-.04,.08-.05,.12-.02,.05,.03,.1,.06,.15,2.03,0,.04-.04,.08-.09,.08h0Z" fill="url(#linear-gradient-91)"/>
    <path d="M120.63,87.9c-.09,0-.17-.07-.18-.15l-.12-2.05c0-.09,.07-.16,.17-.17,.09,0,.18,.06,.19,.15l.12,2.05c0,.09-.07,.16-.17,.17h0Z" fill="url(#linear-gradient-92)"/>
  </g>
  <path d="M95.5,103.34c-1.24,.03-2.27-1.39-2.27-3.15v-14.03c0-1.84,1.04-3.34,2.34-3.36,3.9-.06,11.94-.06,18.53,.72,.9,.11,1.6,1.15,1.63,2.43l.62,13.57c.05,1.79-.95,3.29-2.22,3.33l-18.63,.5Z" fill="#ffa9c2" stroke="#363636" stroke-miterlimit="10" stroke-width=".4"/>
  <path d="M95.49,85.86c-.02,.75,0,1.94,.03,2.72,.01,.4,.4,.71,.85,.66l3.21-.34c.43-.04,.73-.4,.67-.78l-.39-2.35c-.06-.33-.38-.58-.75-.58h-2.84c-.41,0-.75,.3-.76,.67Z" fill="#fff" opacity=".87"/>
  <path d="M103.88,90.3l2.68,.26c.37,.04,.69-.24,.67-.58l-.59-7.11c-1.12-.03-2.23-.05-3.3-.07v6.97c0,.28,.23,.51,.54,.54Z" fill="#fff" opacity=".37"/>
  <path d="M104.98,89.07c0,.13,.13,.23,.27,.23h.02c.15,0,.26-.12,.25-.25l-.4-6.21c-.18,0-.36,0-.54-.01l.41,6.25Z" fill="#fff"/>
  <g>
    <path d="M96.98,88.1s-.09-.03-.09-.08l-.14-1.96s.03-.08,.08-.09c.05,0,.09,.03,.1,.08l.14,1.96s-.03,.08-.08,.09h0Z" fill="url(#linear-gradient-93)"/>
    <path d="M97.26,88.1s-.09-.03-.09-.08l-.07-1.99s.04-.08,.09-.08c.06,0,.09,.03,.09,.08l.07,1.99s-.04,.08-.09,.08h0Z" fill="url(#linear-gradient-94)"/>
    <path d="M97.65,88.1s-.09-.03-.09-.08c-.02-.33-.1-1.96-.1-2,0-.04,.04-.08,.09-.08s.09,.04,.09,.08c0,.04,.07,1.32,.1,1.99,0,.04-.04,.08-.09,.08h0Zm-.01-2.07h0Z" fill="url(#linear-gradient-95)"/>
    <path d="M98.25,88.18c-.1,0-.18-.07-.18-.15-.08-1.93-.06-1.97-.05-2,.03-.09,.13-.14,.22-.11,.09,.02,.14,.1,.13,.18,0,.12,.03,1.24,.06,1.93,0,.09-.07,.16-.17,.17h0Z" fill="url(#linear-gradient-96)"/>
    <path d="M98.63,88.1s-.09-.04-.09-.08v-1.96s.04-.08,.09-.08,.09,.04,.09,.08v1.96s-.04,.08-.09,.08Z" fill="url(#linear-gradient-97)"/>
    <path d="M98.95,88.1s-.09-.03-.09-.08c-.02-.68-.06-1.79-.09-1.92-.02-.03-.02-.06,0-.08,.03-.04,.08-.05,.12-.02,.05,.03,.1,.06,.15,2.03,0,.04-.04,.08-.09,.08h0Z" fill="url(#linear-gradient-98)"/>
    <path d="M96.49,88.27c-.09,0-.17-.07-.18-.15l-.12-2.05c0-.09,.07-.16,.17-.17,.09,0,.18,.06,.19,.15l.12,2.05c0,.09-.07,.16-.17,.17h0Z" fill="url(#linear-gradient-99)"/>
  </g>
  <path d="M121.88,149.64v-22.11c0-1.66-1.68-3-3.77-3.02-6.27-.05-19.21-.06-29.79,.65-1.44,.1-2.57,1.03-2.62,2.18l-.99,21.69c-.07,1.61,1.53,2.96,3.57,2.99l29.96,.45c2,.03,3.64-1.25,3.64-2.83Z" fill="#ffa9c2" stroke="#363636" stroke-miterlimit="10" stroke-width=".5"/>
  <path d="M118.24,128.9c.03,1.07-.01,2.77-.05,3.87-.02,.57-.65,1.01-1.37,.94l-5.16-.48c-.69-.06-1.17-.57-1.07-1.11l.63-3.35c.09-.48,.61-.83,1.21-.83h4.57c.67,0,1.21,.42,1.23,.95Z" fill="#fff" opacity=".87"/>
  <path d="M104.76,135.24l-4.31,.37c-.6,.05-1.12-.34-1.07-.82l.94-10.15c1.81-.05,3.59-.08,5.3-.1v9.94c0,.39-.37,.72-.87,.76Z" fill="#fff" opacity=".37"/>
  <path d="M102.99,133.48c-.01,.18-.2,.32-.43,.32h-.03c-.24-.01-.42-.17-.41-.36l.65-8.86c.29,0,.58-.01,.87-.02l-.65,8.91Z" fill="#fff"/>
  <g>
    <path d="M115.86,132.09c.08,0,.14-.05,.14-.11l.22-2.79c0-.06-.06-.12-.14-.12-.08,0-.15,.04-.15,.11l-.22,2.79c0,.06,.06,.12,.14,.12h0Z" fill="url(#linear-gradient-100)"/>
    <path d="M115.4,132.09c.08,0,.14-.05,.14-.11l.12-2.84c0-.06-.06-.12-.14-.12-.09,0-.15,.05-.15,.11l-.12,2.84c0,.06,.06,.12,.14,.12h0Z" fill="url(#linear-gradient-101)"/>
    <path d="M114.77,132.09c-.08,0-.14-.06-.14-.12,.06-.95,.17-2.78,.17-2.84,0-.06,.07-.11,.14-.11s.14,.05,.14,.11c0,.05-.14,2.38-.17,2.85,0,.06-.07,.11-.14,.11h0Zm.03-2.96h0Z" fill="url(#linear-gradient-102)"/>
    <path d="M113.82,132.21c.15,0,.28-.1,.29-.22,.12-2.75,.1-2.82,.09-2.86-.04-.12-.2-.19-.35-.16-.14,.03-.23,.14-.21,.25,0,.17-.06,1.77-.1,2.75,0,.13,.12,.23,.28,.24h.01Z" fill="url(#linear-gradient-103)"/>
    <path d="M113.19,132.09c.08,0,.14-.05,.14-.11v-2.79c0-.06-.06-.11-.14-.11s-.14,.05-.14,.11v2.79c0,.06,.06,.11,.14,.11Z" fill="url(#linear-gradient-104)"/>
    <path d="M112.69,132.09c.08,0,.14-.05,.14-.11,.03-.97,.09-2.55,.15-2.74,.03-.04,.03-.08,0-.12-.04-.05-.13-.07-.2-.03-.08,.04-.15,.08-.23,2.89,0,.06,.06,.12,.14,.12h0Z" fill="url(#linear-gradient-105)"/>
    <path d="M116.63,132.35c.15,0,.28-.09,.29-.22l.19-2.93c0-.13-.11-.23-.27-.24-.15,0-.29,.09-.3,.22l-.19,2.93c0,.13,.11,.23,.27,.24h.02Z" fill="url(#linear-gradient-106)"/>
  </g>
  <g>
    <path d="M103.99,110.39l4,2.15c4.8,2.92,9.09,4.47,12.96,5.05,12.07,1.81,19.93-5.8,25.79-10.42,7.74-6.1,13.76-3.13,13.76-3.13l-8.25,15.75c-12.32,11.62-24.96,9.04-32.92,5.27-5.07-2.4-8.25-5.27-8.25-5.27-9.07-5.41-7.09-9.39-7.09-9.39Z" fill="url(#linear-gradient-107)"/>
    <path d="M92.2,116.03c.26-.86,.89-1.55,1.73-1.89l8.12-3.27s.12-1.04-1.72-1.75c-1.84-.71-1.41-2.77-1.41-2.77,0,0,2.51,1.15,6.19,2.96,2.1,1.04,3.28,2.87,3.91,4.26l-2.09,2.75c-5.01,1.5-10.07,1.79-15.18,1.19l.45-1.49Z" fill="url(#linear-gradient-108)"/>
  </g>
  <path d="M157.9,102.33c12.32-.2,25.91,3.23,25.91,3.23,3.03,17.66,1.81,37.23,1.18,43.68-.13,1.32,.58,2.72-.73,2.93-6.45,1.04-16.58-.02-19.72-.93-1.15-.33-.95-1.56-1.2-2.73-2.11-10.14-8.16-32.49-8.16-32.49-2.93,3.77-7.06,9.04-13.17,10.45,3.11-3.61-2.86-11.18-2.22-13.9,5.52-6.21,14.32-10.17,18.12-10.23Z" fill="#ed2a5b" stroke="#363636" stroke-miterlimit="10" stroke-width=".6"/>
  <path d="M170.38,92.33l3.92,11.33c.06,.19-.01,.4-.19,.49-1.07,.59-4.92,2.3-9.56-.64-.48-.31-.81-.81-.89-1.37l-1.27-9.81h7.98Z" fill="url(#linear-gradient-109)"/>
  <path d="M182.41,123.54c-6.89-7.74-6.2-13.7,1.59-17.99,0,0,12.9,8.76,15.02,19.88-2.44,.18-6.87,.81-11.21,3.01-.95-5.25-5.39-4.89-5.39-4.89Z" fill="#ed2a5b" stroke="#363636" stroke-miterlimit="10" stroke-width=".6"/>
  <path d="M167.43,131.51s14.48,8.18,19.37,1.2c1.01-1.45,1.26-2.89,1.01-4.27,4.34-2.19,8.78-2.83,11.21-3.01,.64,3.35,.3,6.91-1.67,10.51-8.56,15.66-31.84-.87-31.84-.87l1.92-3.57Z" fill="url(#linear-gradient-110)"/>
  <path d="M169.17,141.86l-7.9-27.6c-.09-.31-.36-.54-.68-.58-1.43-.17-5.58-.64-10.37-1.04-5.77-.49-12.47-.88-16.48-.55-.57,.05-.91,.65-.66,1.16,2.28,4.61,11.64,23.35,16.33,29.49,.16,.2,.4,.32,.65,.32l18.34-.17c.53,0,.92-.52,.77-1.03Z" fill="#262626"/>
  <path d="M149.4,110.25l-5.73-.95c-.31-.05-.56,.24-.46,.53l.57,1.72c.05,.15,.18,.26,.34,.28l5.51,.74c.29,.04,.52-.22,.45-.5l-.35-1.5c-.04-.16-.17-.28-.33-.31Z" fill="#d6d6d6"/>
  <path d="M153.69,115.1l-.47-2.46c-.05-.25-.25-.43-.5-.46l-11.57-1.17c-.39-.04-.7,.32-.61,.7l.74,3.06c.06,.25,.27,.42,.52,.43l11.31,.57c.37,.02,.66-.31,.59-.67Z" fill="#909090"/>
  <path d="M167.26,135.19s1.1-4.53,.66-6.13c-.44-1.61-1.3-3.67-4.17-3.21-2.87,.46-6.25,1.67-6.25,1.67,0,0,.17,2.09,2.35,1.42l-1.35,1.05s.19,1.68,2.03,.78l-1.26,1.39s.79,1.38,2.15,.49c1.35-.88,2,3.1,5.85,2.55Z" fill="url(#linear-gradient-111)"/>
  <path d="M160.22,81.82s-1.92,6.21-1.75,9.34c.17,3.13-.27,5.22,3.39,5.45,3.67,.23,6.5-1.9,7.79-5.18,0,0,2.04-5.06,1.25-6.95-.79-1.89-10.68-2.66-10.68-2.66Z" fill="url(#linear-gradient-112)"/>
  <path d="M168.18,89.34l-.45,.05s1.45-4.05-.27-4.54c-1.72-.49-8.39-1.1-10.05-3.26-1.6-2.08-.71-5.09,1.01-6.1,.11-.06,.25-.02,.32,.08l.18,.27c.12,.18,.41,.12,.45-.1h0c.04-.21,.3-.28,.43-.12,.51,.64,1.8,1.64,4.99,1.87,4.53,.33,7.66,1.8,8.07,4.85,.03,.19,.25,.28,.4,.16,.31-.24,.82-.39,1.59,.12,1.33,.89,1.13,3.6-1.3,6.08-.12,.12-.09,.32,.06,.39,.52,.26,1.32,.93-.44,2.14-1.8,1.24-2.94,1.25-3.38,1.19-.12-.02-.21-.11-.21-.23l-.13-2.74c0-.14-.13-.25-.27-.23l-.97,.11Z" fill="#363636"/>
  <path d="M168.13,89.92s.56-3.89,2.38-3.02c1.81,.87-.41,4.34-1.76,4.63l-.62-1.61Z" fill="url(#linear-gradient-113)"/>
  <path d="M162.88,93.34c3.84,.87,6.69-2.82,6.72-2.86l-.24-.18s-2.76,3.57-6.42,2.74l-.07,.29Z" fill="#f0f0f0"/>
  <path d="M161.32,92.95c-.03,.23,.13,.44,.36,.48l1.11,.16c.23,.03,.44-.13,.48-.36h0c.03-.23-.13-.44-.36-.48l-1.11-.16c-.23-.03-.44,.13-.48,.36h0Z" fill="#f0f0f0"/>
  <g>
    <path d="M169.99,85.99s-.34-7.36-4.35-8.64c0,0,1.25-.41,2.37,.4,1.12,.81,3.67,4.75,2.98,8.57-.88,.18-1-.33-1-.33Z" fill="#d6d6d6"/>
    <path d="M170.75,85.75c2.07,.75,1.41,3.41,1.41,3.41-.14,1.98-.85,2.87-1.65,3.23-.55,.24-1.18,.18-1.67-.17-.49-.34-.76-.92-.72-1.52,.04-.54,.07-1.05,.06-1.24-.03-.45,.5-4.46,2.58-3.71Z" fill="#d6d6d6"/>
  </g>
  <path d="M170.45,86.41c.45-.01,.86,.29,.97,.73,.84,3.15-1.01,4.84-1.79,4.76-.82-.08-.23-3.98,.09-4.95,.13-.41,.42-.53,.72-.54Z" fill="#909090"/>
</svg>