<?xml version="1.0" encoding="UTF-8"?>
<svg id="Layer_1" data-name="Layer 1" xmlns="http://www.w3.org/2000/svg" viewBox="0 0 270 186">
  <ellipse cx="137.64" cy="161.01" rx="51.88" ry="6.69" fill="#ffe6f0" opacity=".8"/>
  <path d="M112.54,136.08s-.05,0-.07-.01c-.14-.04-.21-.18-.17-.32,2.07-6.94,4.47-13.88,7.15-20.61l1.23-3.08c.05-.13,.2-.2,.33-.14,.13,.05,.2,.2,.14,.33l-1.23,3.08c-2.68,6.72-5.08,13.64-7.14,20.57-.03,.11-.14,.18-.25,.18Z" fill="#ccdbf0"/>
  <path d="M180.5,65.96l-3.88-2c-.63-.32-1.02-.97-.99-1.67,.03-.74,.03-1.47,0-2.2-.03-.7,.35-1.35,.98-1.67l3.86-2.03c.76-.4,1.14-1.27,.91-2.09l-.92-3.35c-.23-.82-1-1.38-1.86-1.34l-4.38,.19c-.71,.03-1.37-.34-1.7-.96-.34-.64-.71-1.27-1.11-1.88-.38-.59-.38-1.35,0-1.94l2.32-3.68c.46-.72,.35-1.66-.26-2.26l-2.49-2.44c-.61-.6-1.56-.7-2.29-.24l-3.69,2.33c-.6,.38-1.36,.38-1.96,.01-.62-.38-1.26-.74-1.91-1.08-.63-.32-1.02-.98-.99-1.68l.15-4.34c.03-.85-.54-1.61-1.37-1.83l-3.39-.88c-.83-.22-1.71,.17-2.1,.92l-2.02,3.85c-.33,.62-.98,1.01-1.69,.98-.75-.03-1.49-.03-2.23,0-.7,.03-1.36-.35-1.69-.97l-2.05-3.83c-.4-.75-1.28-1.13-2.11-.9l-3.38,.91c-.83,.22-1.39,.99-1.35,1.84l.19,4.34c.03,.7-.34,1.36-.96,1.68-.65,.34-1.29,.71-1.92,1.11-.59,.38-1.36,.37-1.95,0l-3.71-2.3c-.73-.45-1.68-.34-2.28,.26l-2.47,2.47c-.61,.61-.71,1.55-.24,2.27l2.35,3.65c.38,.59,.39,1.35,.01,1.94-.39,.61-.75,1.25-1.09,1.9-.33,.63-.99,1.01-1.7,.98l-4.37-.15c-.86-.03-1.63,.53-1.85,1.36l-.89,3.36c-.22,.82,.17,1.69,.93,2.08l3.88,2c.63,.32,1.02,.97,.99,1.67-.03,.74-.03,1.47,0,2.2,.03,.7-.35,1.35-.98,1.67l-3.86,2.03c-.76,.4-1.14,1.27-.91,2.09l.92,3.35c.23,.82,1,1.38,1.86,1.34l4.38-.19c.7-.03,1.37,.34,1.7,.95,.35,.65,.72,1.28,1.12,1.9,.38,.59,.37,1.34,0,1.94l-2.32,3.68c-.46,.72-.35,1.66,.26,2.26l2.49,2.44c.61,.6,1.56,.7,2.29,.24l3.69-2.33c.6-.38,1.36-.38,1.96-.01,.62,.38,1.26,.74,1.91,1.08,.63,.32,1.02,.98,.99,1.68l-.15,4.34c-.03,.85,.54,1.61,1.37,1.83l3.39,.88c.83,.22,1.71-.17,2.1-.92l2.02-3.85c.33-.62,.98-1.01,1.69-.98,.75,.03,1.49,.03,2.22,0,.7-.03,1.36,.35,1.69,.97l2.05,3.83c.4,.75,1.28,1.13,2.11,.9l3.38-.91c.83-.22,1.39-.99,1.35-1.84l-.19-4.34c-.03-.7,.35-1.36,.97-1.69,.65-.34,1.28-.71,1.9-1.1,.6-.38,1.36-.38,1.96,0l3.72,2.3c.73,.45,1.68,.34,2.28-.26l2.47-2.47c.61-.61,.71-1.55,.24-2.27l-2.35-3.65c-.38-.59-.39-1.35-.01-1.94,.39-.61,.75-1.25,1.09-1.9,.33-.63,.99-1.01,1.7-.98l4.37,.15c.86,.03,1.63-.53,1.85-1.36l.89-3.36c.22-.82-.17-1.69-.93-2.08Zm-31.77,10.26c-8.31,0-15.04-6.67-15.04-14.91s6.74-14.91,15.04-14.91,15.04,6.67,15.04,14.91-6.74,14.91-15.04,14.91Z" fill="#ffe6f0"/>
  <path d="M138.39,61.22c0-5.83,4.72-10.55,10.54-10.55s10.54,4.72,10.54,10.55-4.72,10.55-10.54,10.55-10.54-4.72-10.54-10.55h0Z" fill="#fff"/>
  <path d="M141.51,68.89c1.9,1.79,4.46,2.89,7.27,2.89s5.38-1.1,7.27-2.89c-2.2-.68-4.66-1.06-7.27-1.06s-5.08,.38-7.27,1.06h0Z" fill="#FF2059" stroke="#363636" stroke-miterlimit="10" stroke-width=".51"/>
  <path d="M152.19,55.06c-.48-.31-1.03-.47-1.6-.47h-3.35c-.75,0-1.47,.28-2.01,.79l-.18,.17c-.87,.81-1.17,2.06-.77,3.17l1.1,3.05,7.05-.04,1-3.34c.38-1.26-.13-2.62-1.23-3.33Z" fill="#363636"/>
  <path d="M150.5,56.42h0l-5.16,3.3v1.92c0,1.13,.53,2.14,1.36,2.8v3.02c0,1.19,.97,2.16,2.16,2.16s2.16-.97,2.16-2.16v-2.94c.89-.65,1.46-1.7,1.46-2.88v-2.1c0-1.38-.81-2.57-1.98-3.12Z" fill="#fff"/>
  <path d="M148.85,69.88c-1.33,0-2.42-1.09-2.42-2.42v-2.96h.51v2.96c0,1.05,.85,1.91,1.91,1.91s1.91-.85,1.91-1.91v-2.87h.51v2.87c0,1.33-1.09,2.42-2.42,2.42Z" fill="#363636"/>
  <path d="M148.9,65.47c-.14,0-.26-.12-.26-.26s.12-.26,.26-.26c1.83,0,3.31-1.49,3.31-3.31v-2.1c0-1.76-1.43-3.19-3.19-3.19h-3.43v5.3c0,1.3,.76,2.48,1.94,3.02,.13,.06,.19,.21,.13,.34-.06,.13-.21,.19-.34,.13-1.36-.62-2.24-1.99-2.24-3.49v-5.55c0-.14,.12-.26,.26-.26h3.69c2.04,0,3.71,1.66,3.71,3.71v2.1c0,2.11-1.72,3.83-3.83,3.83Z" fill="#363636"/>
  <path d="M148.77,72.03c-2.86,0-5.72-1.12-7.85-3.34-3.95-4.12-4.02-10.64-.17-14.84,.1-.1,.26-.11,.36-.02,.1,.1,.11,.26,.02,.36-3.67,4-3.59,10.21,.17,14.14,3.95,4.12,10.51,4.26,14.63,.31,2-1.91,3.13-4.49,3.19-7.25,.06-2.76-.96-5.38-2.87-7.38-2.07-2.16-4.97-3.31-7.96-3.18-.15,0-.26-.1-.27-.24,0-.14,.1-.26,.24-.27,3.14-.15,6.18,1.07,8.36,3.34,2.01,2.09,3.08,4.85,3.02,7.75-.06,2.9-1.25,5.6-3.34,7.61-2.1,2.01-4.81,3.01-7.51,3.01Z" fill="#363636"/>
  <path d="M115.95,86.07c0-4.82,3.91-8.73,8.72-8.73s8.72,3.91,8.72,8.73-3.91,8.73-8.72,8.73-8.72-3.91-8.72-8.73h0Z" fill="#fff"/>
  <path d="M124.68,95.06c-4.95,0-8.98-4.03-8.98-8.99,0-1.06,.18-2.1,.54-3.08,.05-.13,.2-.2,.33-.15,.13,.05,.2,.2,.15,.33-.34,.93-.51,1.91-.51,2.91,0,4.67,3.8,8.47,8.47,8.47s8.47-3.8,8.47-8.47-3.8-8.47-8.47-8.47c-2.54,0-4.93,1.13-6.54,3.09-.09,.11-.25,.13-.36,.04-.11-.09-.13-.25-.04-.36,1.71-2.09,4.24-3.28,6.94-3.28,4.95,0,8.98,4.03,8.98,8.99s-4.03,8.99-8.98,8.99Z" fill="#363636"/>
  <path d="M118.69,92.42c1.56,1.48,3.67,2.38,5.98,2.38s4.42-.91,5.98-2.38c-1.81-.56-3.84-.88-5.98-.88s-4.18,.32-5.98,.88h0Z" fill="#9eb5de"/>
  <path d="M124.73,93.02h0c-.76,0-1.38-.62-1.38-1.38v-7.03h2.75v7.03c0,.76-.62,1.38-1.38,1.38h0Z" fill="#fff"/>
  <path d="M130.06,87.18c-.17-2.18,.79-3.54-1.37-6.01-2.23-2.55-4.15-.84-4.15-.84,0,0-1.6-1.33-3.69,1.45-1.85,2.45,.52,4.64-.28,6.17-.8,1.52-3.5,2.36-3.5,2.36,0,0,.87,1.73,1.94,2.49h11.39s2.35-2.56,2.35-3.29c0,0-2.53-.14-2.7-2.32Z" fill="#363636"/>
  <path d="M118.69,92.42c1.56,1.48,3.67,2.38,5.98,2.38s4.42-.91,5.98-2.38c-1.81-.56-3.84-.88-5.98-.88s-4.18,.32-5.98,.88Z" fill="#FF2059"/>
  <path d="M124.68,95.06c-2.3,0-4.49-.87-6.16-2.45l-.32-.3,.42-.13c1.9-.59,3.94-.89,6.06-.89s4.16,.3,6.06,.89l.42,.13-.32,.3c-1.67,1.58-3.86,2.45-6.16,2.45Zm-5.47-2.52c1.53,1.3,3.45,2.01,5.47,2.01s3.94-.71,5.47-2.01c-1.72-.49-3.56-.73-5.47-.73s-3.75,.25-5.47,.73Z" fill="#363636"/>
  <path d="M124.86,82.33h-.1l-2.8,2.82v1.55c0,1.03,.56,1.93,1.39,2.42v2.53c0,.76,.62,1.38,1.38,1.38s1.38-.62,1.38-1.38v-2.48c.87-.48,1.47-1.4,1.47-2.47v-1.65c0-1.5-1.21-2.71-2.71-2.71Z" fill="#fff"/>
  <path d="M124.73,93.28c-.9,0-1.63-.73-1.63-1.64v-2.45c0-.14,.12-.26,.26-.26s.26,.12,.26,.26v2.45c0,.62,.5,1.12,1.12,1.12s1.12-.5,1.12-1.12v-2.41c0-.14,.12-.26,.26-.26s.26,.12,.26,.26v2.41c0,.9-.73,1.64-1.63,1.64Z" fill="#363636"/>
  <path d="M124.77,89.76c-.14,0-.26-.12-.26-.26s.12-.26,.26-.26c1.4,0,2.55-1.14,2.55-2.55v-1.65c0-1.32-1.03-2.4-2.34-2.45h0l-2.74,2.71v1.39c0,1,.59,1.91,1.49,2.32,.13,.06,.19,.21,.13,.34-.06,.13-.21,.19-.34,.13-1.09-.5-1.79-1.59-1.79-2.79v-1.5c0-.07,.03-.13,.08-.18l2.9-2.87s.11-.07,.18-.07c.04,0,.09,0,.13,0,1.59,.07,2.84,1.37,2.84,2.97v1.65c0,1.69-1.37,3.06-3.06,3.06Z" fill="#363636"/>
  <path d="M128.42,32.48c0-4.83,3.91-8.75,8.74-8.75s8.74,3.92,8.74,8.75-3.91,8.75-8.74,8.75-8.74-3.92-8.74-8.75h0Z" fill="#fff"/>
  <path d="M131.01,38.84c1.57,1.49,3.7,2.4,6.03,2.4s4.46-.91,6.03-2.4c-1.82-.56-3.87-.88-6.03-.88s-4.21,.32-6.03,.88h0Z" fill="#FF2059" stroke="#363636" stroke-miterlimit="10" stroke-width=".41"/>
  <path d="M139.86,27.37c-.4-.26-.86-.39-1.33-.39h-2.77c-.62,0-1.22,.23-1.67,.66l-.15,.14c-.72,.67-.97,1.7-.64,2.63l.91,2.53,5.85-.04,.83-2.77c.31-1.05-.1-2.17-1.02-2.77Z" fill="#363636"/>
  <path d="M138.41,28.47l-.04-.02-4.2,2.73v1.64c0,.94,.44,1.78,1.12,2.32v2.51c0,.99,.8,1.79,1.79,1.79s1.79-.8,1.79-1.79v-2.44c.73-.54,1.21-1.41,1.21-2.39v-1.74c0-1.16-.69-2.16-1.69-2.61Z" fill="#fff"/>
  <path d="M137.14,36.05c-.14,0-.26-.12-.26-.26s.12-.26,.26-.26c1.49,0,2.7-1.21,2.7-2.7v-1.74c0-1.44-1.17-2.61-2.61-2.61h-2.8v4.35c0,1.06,.62,2.02,1.58,2.46,.13,.06,.19,.21,.13,.34-.06,.13-.21,.19-.34,.13-1.15-.52-1.89-1.67-1.89-2.93v-4.61c0-.14,.12-.26,.26-.26h3.06c1.72,0,3.12,1.4,3.12,3.12v1.74c0,1.77-1.44,3.22-3.22,3.22Z" fill="#363636"/>
  <path d="M137.04,41.49c-2.34,0-4.68-.9-6.44-2.69-1.7-1.72-2.62-4-2.61-6.42,.02-2.42,.97-4.68,2.69-6.38,3.38-3.34,8.82-3.48,12.36-.33,.11,.09,.12,.26,.02,.36-.09,.11-.26,.12-.36,.02-3.35-2.98-8.47-2.84-11.66,.31-1.62,1.6-2.53,3.74-2.54,6.02-.02,2.28,.86,4.43,2.46,6.05,3.31,3.35,8.72,3.39,12.07,.08,1.76-1.73,2.68-4.14,2.53-6.61,0-.14,.1-.26,.24-.27,.15-.01,.26,.1,.27,.24,.16,2.61-.81,5.17-2.68,7-1.76,1.74-4.06,2.6-6.36,2.6Z" fill="#363636"/>
  <path d="M137.09,39.7c-1.13,0-2.05-.92-2.05-2.05v-2.51c0-.14,.12-.26,.26-.26s.26,.12,.26,.26v2.51c0,.85,.69,1.54,1.54,1.54s1.54-.69,1.54-1.54v-2.38c0-.14,.12-.26,.26-.26s.26,.12,.26,.26v2.38c0,1.13-.92,2.05-2.05,2.05Z" fill="#363636"/>
  <path d="M162.08,47.79c1.54,1.46,3.62,2.35,5.91,2.35s4.37-.89,5.91-2.35c-1.79-.55-3.79-.86-5.91-.86s-4.13,.31-5.91,.86h0Z" fill="#FF2059"/>
  <path d="M168,50.4c-2.27,0-4.44-.86-6.09-2.42-.07-.06-.09-.16-.07-.25,.02-.09,.09-.16,.17-.19,1.88-.58,3.89-.88,5.99-.88s4.11,.29,5.99,.88c.09,.03,.15,.1,.17,.19,.02,.09,0,.18-.07,.25-1.65,1.56-3.82,2.42-6.09,2.42Zm-5.4-2.49c1.51,1.28,3.41,1.98,5.4,1.98s3.89-.7,5.4-1.98c-1.7-.48-3.52-.72-5.4-.72s-3.7,.24-5.4,.72Z" fill="#363636"/>
  <path d="M170.76,36.54c-.39-.25-.84-.38-1.3-.38h-2.72c-.61,0-1.19,.23-1.64,.64l-.15,.14c-.71,.66-.95,1.67-.63,2.58l.89,2.48,5.74-.04,.81-2.71c.31-1.03-.1-2.13-1-2.71Z" fill="#363636"/>
  <path d="M169.34,37.62l-.04-.02-4.12,2.67v1.61c0,.92,.43,1.74,1.1,2.28v2.46c0,.97,.79,1.76,1.76,1.76s1.76-.79,1.76-1.76v-2.39c.72-.53,1.19-1.38,1.19-2.34v-1.71c0-1.14-.68-2.12-1.65-2.56Z" fill="#fff"/>
  <path d="M168.09,45.05c-.14,0-.26-.12-.26-.26s.12-.26,.26-.26c1.46,0,2.65-1.19,2.65-2.65v-1.71c0-1.41-1.14-2.55-2.55-2.55h-2.74v4.26c0,1.04,.61,1.98,1.55,2.41,.13,.06,.19,.21,.13,.34-.06,.13-.21,.19-.34,.13-1.13-.51-1.85-1.64-1.85-2.88v-4.52c0-.14,.12-.26,.26-.26h3c1.69,0,3.06,1.37,3.06,3.06v1.71c0,1.74-1.42,3.16-3.16,3.16Z" fill="#363636"/>
  <path d="M168,50.39h-.06c-2.37-.02-4.59-.96-6.26-2.64-3.44-3.49-3.4-9.12,.09-12.56,3.32-3.28,8.65-3.42,12.13-.32,.11,.09,.12,.26,.02,.36-.09,.11-.26,.12-.36,.02-3.28-2.92-8.3-2.78-11.43,.3-3.28,3.24-3.32,8.55-.08,11.83,1.57,1.59,3.66,2.48,5.9,2.49h.06c2.21,0,4.3-.85,5.87-2.41,1.72-1.7,2.62-4.06,2.47-6.47,0-.14,.1-.26,.24-.27,.14,0,.26,.1,.27,.24,.16,2.56-.8,5.07-2.63,6.87-1.67,1.65-3.89,2.56-6.23,2.56Z" fill="#363636"/>
  <path d="M168.05,48.64c-1.11,0-2.02-.9-2.02-2.02v-2.46c0-.14,.12-.26,.26-.26s.26,.12,.26,.26v2.46c0,.83,.67,1.5,1.5,1.5s1.5-.67,1.5-1.5v-2.33c0-.14,.12-.26,.26-.26s.26,.12,.26,.26v2.33c0,1.11-.9,2.02-2.02,2.02Z" fill="#363636"/>
  <path d="M111.41,68.68c2.3,2.19,5.41,3.55,8.84,3.57s6.55-1.31,8.88-3.48c-2.67-.84-5.68-1.32-8.85-1.34-3.18-.02-6.19,.43-8.87,1.25h0Z" fill="#FF2059"/>
  <path d="M120.33,72.51h-.07c-3.37-.02-6.57-1.31-9.02-3.64-.07-.06-.09-.16-.07-.25,.02-.09,.09-.16,.18-.19,2.8-.85,5.81-1.28,8.94-1.26,3.13,.02,6.14,.47,8.93,1.35,.09,.03,.15,.1,.17,.19,.02,.09,0,.18-.08,.24-2.45,2.29-5.64,3.55-8.99,3.55Zm-8.4-3.71c2.3,2.05,5.25,3.18,8.34,3.19h.07c3.07,0,5.99-1.1,8.3-3.11-2.62-.78-5.43-1.18-8.35-1.2-2.92-.02-5.73,.36-8.36,1.11Z" fill="#363636"/>
  <path d="M127.82,59.94c-1.12-4.05-3.44-9.35-7.78-8.7-4.17,.63-6.13,5.2-7.03,8.74-.55,2.16,1.1,4.25,3.32,4.26l8.16,.04c2.27,.01,3.94-2.15,3.33-4.34Z" fill="#363636"/>
  <path d="M124.22,55.24v-.03l-7.41-.06v.02c-.1,.37-.16,.76-.16,1.16v2.17c-.02,1.45,.66,2.73,1.7,3.48l-.03,5.66c0,1.13,.9,2.04,2.03,2.05,1.13,0,2.04-.9,2.05-2.03l.03-5.58c1.11-.72,1.86-2.04,1.86-3.54v-2.45c.01-.29-.01-.58-.07-.86Z" fill="#fff"/>
  <path d="M120.36,69.94h-.01c-1.27,0-2.29-1.04-2.28-2.31l.03-5.49c0-.14,.12-.26,.26-.26h0c.14,0,.26,.12,.26,.26l-.03,5.49c0,.98,.79,1.79,1.77,1.79h0c.47,0,.92-.18,1.25-.52,.34-.33,.53-.78,.53-1.26l.03-5.51c0-.14,.12-.26,.26-.26h0c.14,0,.26,.12,.26,.26l-.03,5.51c0,.61-.25,1.19-.68,1.62-.43,.43-1.01,.66-1.61,.66Z" fill="#363636"/>
  <path d="M120.47,60.26h0c-.48,0-.94-.2-1.26-.55-.1-.1-.09-.27,.01-.36,.1-.1,.27-.09,.36,.01,.23,.25,.55,.39,.89,.39,.34,0,.66-.13,.9-.38,.1-.1,.26-.11,.36,0,.1,.1,.11,.26,0,.36-.33,.35-.78,.54-1.26,.54Z" fill="#363636"/>
  <path d="M120.46,62.93h-.02c-.14,0-.26-.12-.26-.26,0-.14,.11-.26,.26-.26h.02c1.96,0,3.56-1.73,3.57-3.88v-2.45c.02-1.01-.34-1.96-.99-2.67-.65-.71-1.5-1.1-2.42-1.11h-.02c-2.03,0-3.69,1.8-3.7,4.01v2.17c-.02,1.53,.8,2.92,2.07,3.56,.13,.06,.18,.22,.11,.34-.06,.13-.22,.18-.34,.11-1.44-.72-2.37-2.3-2.36-4.02v-2.17c.02-2.51,1.92-4.54,4.24-4.53,1.06,0,2.05,.46,2.8,1.27,.74,.81,1.14,1.88,1.13,3.02v2.45c-.03,2.42-1.86,4.39-4.1,4.39Z" fill="#363636"/>
  <path d="M120.47,72c-6.28,0-11.38-5.09-11.38-11.38s5.1-11.38,11.38-11.38,11.38,5.09,11.38,11.38-5.09,11.38-11.38,11.38Z" fill="none"/>
  <path d="M120.41,72.51c-1.94,0-3.86-.42-5.64-1.26-3.02-1.42-5.28-3.86-6.35-6.87-1.07-3.01-.83-6.23,.69-9.07,1.51-2.84,4.11-4.96,7.31-5.96,3.21-1,6.64-.78,9.66,.64,3.02,1.42,5.28,3.86,6.35,6.87,.73,2.07,.85,4.28,.34,6.4-.03,.14-.18,.23-.34,.2-.15-.03-.25-.17-.21-.31,.49-2.02,.38-4.14-.32-6.11-2.11-5.94-8.97-9.16-15.29-7.18-3.06,.96-5.55,2.98-6.99,5.7-1.44,2.71-1.68,5.79-.65,8.67,1.02,2.88,3.18,5.21,6.06,6.57,2.89,1.36,6.17,1.57,9.23,.62,2.73-.86,5.06-2.6,6.54-4.92,.08-.12,.25-.16,.38-.09,.13,.07,.18,.24,.1,.36-1.55,2.43-3.98,4.25-6.84,5.15-1.31,.41-2.67,.62-4.01,.62Z" fill="#363636"/>
  <path d="M105.53,132.36c-6.06,6.06-15.92,6.06-21.98,0s-6.06-15.92,0-21.98l12.79-12.79-.35-17.62-22.38,20.48c-3.3,3.3-5.65,7.19-7.06,11.33l-1.36-2.91-.63,9.22c-.25,8.59,2.55,17.71,9.05,24.21,11.54,11.54,30.31,11.54,41.85,0l14.88-14.88,.58-20.45-25.4,25.4Z" fill="#FF2059"/>
  <path d="M94.54,151.21h0c-7.98,0-15.48-3.1-21.11-8.73-6.07-6.07-9.4-14.96-9.12-24.4l.63-9.23c0-.12,.09-.21,.21-.24,.12-.02,.23,.04,.28,.14l1.09,2.34c1.49-4.09,3.81-7.73,6.91-10.83l22.39-20.49c.07-.07,.18-.09,.27-.05,.09,.04,.15,.13,.16,.23l.35,17.62c0,.07-.03,.14-.08,.19l-12.79,12.79c-2.88,2.88-4.47,6.72-4.47,10.81,0,4.09,1.59,7.93,4.47,10.81,2.88,2.88,6.72,4.47,10.81,4.47,4.09,0,7.93-1.59,10.81-4.47l25.4-25.4c.07-.07,.19-.1,.28-.05,.1,.04,.16,.14,.16,.24l-.58,20.45c0,.07-.03,.13-.08,.17l-14.88,14.88c-5.63,5.63-13.13,8.73-21.11,8.73Zm-29.16-41.33l-.56,8.23c-.27,9.28,3,18.04,8.97,24.01,11.44,11.44,30.05,11.44,41.49,0l14.81-14.81,.56-19.7-24.94,24.94c-2.98,2.98-6.95,4.62-11.17,4.62h0c-4.23,0-8.19-1.64-11.17-4.62-2.98-2.98-4.62-6.95-4.62-11.17,0-4.23,1.64-8.19,4.62-11.17l12.72-12.72-.34-16.94-21.96,20.09c-3.18,3.18-5.54,6.96-6.99,11.22-.03,.1-.12,.17-.23,.17-.1,0-.2-.05-.25-.15l-.94-2.01Zm40.15,22.49h0Z" fill="#363636"/>
  <polygon points="109.22 75.93 99.29 66 86.4 78.88 88.63 85.7 96.34 88.81 109.22 75.93" fill="#ffd7e5"/>
  <path d="M96.34,89.07s-.06,0-.1-.02l-7.7-3.11c-.07-.03-.12-.09-.15-.16l-2.23-6.83c-.03-.09,0-.19,.06-.26l12.88-12.88c.1-.1,.26-.1,.36,0l9.93,9.93s.08,.11,.08,.18-.03,.13-.08,.18l-12.88,12.88s-.11,.08-.18,.08Zm-7.5-3.56l7.43,3,12.58-12.58-9.57-9.57-12.59,12.59,2.15,6.56Z" fill="#363636"/>
  <polygon points="141.14 107.85 131.2 97.91 118.32 110.8 121.26 117.79 128.26 120.73 141.14 107.85" fill="#ffd7e5"/>
  <path d="M128.26,120.99s-.07,0-.1-.02l-7-2.94c-.06-.03-.11-.08-.14-.14l-2.94-7c-.04-.1-.02-.21,.06-.28l12.88-12.88c.1-.1,.26-.1,.36,0l9.93,9.93c.1,.1,.1,.26,0,.36l-12.88,12.88s-.11,.08-.18,.08Zm-6.8-3.39l6.74,2.83,12.58-12.58-9.57-9.57-12.58,12.58,2.83,6.74Z"/>
  <path d="M83.54,123.59c-6.06-6.06-6.06-15.92,0-21.98l12.79-12.79-9.93-9.93-12.79,12.79c-11.54,11.54-11.54,30.31,0,41.85,11.54,11.54,30.31,11.54,41.85,0l12.79-12.79-9.93-9.93-12.79,12.79c-6.06,6.06-15.92,6.06-21.98,0Z" fill="#fff"/>
  <path d="M94.54,142.44c-7.65,0-15.29-2.91-21.11-8.73-11.64-11.64-11.64-30.58,0-42.22l12.79-12.79c.1-.1,.26-.1,.36,0l9.93,9.93s.08,.11,.08,.18-.03,.13-.08,.18l-12.79,12.79c-2.88,2.88-4.47,6.72-4.47,10.81,0,4.09,1.59,7.93,4.47,10.81,5.96,5.96,15.66,5.96,21.62,0l12.79-12.79c.1-.1,.27-.1,.36,0l9.93,9.93c.1,.1,.1,.26,0,.36l-12.79,12.79c-5.82,5.82-13.46,8.73-21.11,8.73Zm-8.13-63.19l-12.61,12.61c-11.44,11.44-11.44,30.05,0,41.49,11.44,11.44,30.05,11.44,41.49,0l12.61-12.61-9.57-9.57-12.61,12.61c-6.16,6.16-16.19,6.16-22.35,0h0c-2.98-2.98-4.62-6.95-4.62-11.17,0-4.23,1.64-8.19,4.62-11.17l12.61-12.61-9.57-9.57Z" fill="#363636"/>
  <polygon points="109.22 75.93 109.22 84.7 96.34 97.58 96.34 88.81 109.22 75.93" fill="#FF2059"/>
  <path d="M96.34,97.84s-.07,0-.1-.02c-.1-.04-.16-.13-.16-.24v-8.77c0-.07,.03-.13,.08-.18l12.88-12.88c.07-.07,.18-.1,.28-.06,.1,.04,.16,.13,.16,.24v8.77c0,.07-.03,.13-.08,.18l-12.88,12.88s-.11,.08-.18,.08Zm.26-8.92v8.04l12.37-12.37v-8.04l-12.37,12.37Z"/>
  <polygon points="141.14 107.85 141.14 116.62 128.26 129.5 128.26 120.73 141.14 107.85" fill="#FF2059"/>
  <path d="M128.26,129.76s-.07,0-.1-.02c-.1-.04-.16-.13-.16-.24v-8.77c0-.07,.03-.13,.08-.18l12.88-12.88c.07-.07,.18-.1,.28-.06,.1,.04,.16,.13,.16,.24v8.77c0,.07-.03,.13-.08,.18l-12.88,12.88s-.11,.08-.18,.08Zm.26-8.92v8.04l12.37-12.37v-8.04l-12.37,12.37Z"/>
  <g>
    <polygon points="160.67 151.87 159.98 156.72 158.21 156.73 158.13 151.95 160.67 151.87" fill="#fff"/>
    <path d="M158.21,156.99c-.14,0-.25-.11-.26-.25l-.08-4.77c0-.14,.11-.26,.25-.26l2.54-.09c.08,0,.15,.03,.2,.09,.05,.06,.07,.13,.06,.21l-.69,4.85c-.02,.13-.13,.22-.25,.22h-1.77Zm.18-4.78l.07,4.27h1.29l.62-4.34-1.98,.07Z" fill="#363636"/>
    <path d="M160.04,161.36c-.69,.07-1.73,.1-3.11-.02-.49-.04-.84-.5-.76-.99,.21-1.32,.81-3.64,1.76-4.71l.47,.66,.28-.69c.04-.07,1.22-.12,1.24,.02l.07,.67,.67-.75-.04,2.45c0,.27,.02,.54,.08,.81l.17,.85c.11,.51-.02,1.05-.38,1.43-.14,.15-.29,.25-.44,.27Z" fill="#fff"/>
    <path d="M158.7,161.68c-.5,0-1.09-.02-1.79-.08-.31-.03-.58-.18-.77-.42-.19-.24-.27-.56-.22-.87,.06-.35,.59-3.45,1.82-4.84,.05-.06,.13-.09,.21-.09,.08,0,.15,.04,.2,.11l.19,.28,.1-.25s.01-.02,.02-.04c.18-.3,1.37-.17,1.38-.17,.2,.04,.31,.13,.34,.27v.11l.29-.31c.07-.08,.18-.11,.29-.07,.1,.04,.17,.14,.16,.24l-.04,2.45c0,.25,.02,.5,.07,.75l.17,.85c.13,.61-.04,1.23-.44,1.66-.19,.21-.4,.33-.6,.35-.33,.04-.78,.07-1.37,.07Zm-.78-5.61c-.8,1.13-1.31,3.2-1.49,4.32-.03,.17,.01,.33,.12,.47,.1,.13,.25,.21,.41,.23,1.47,.13,2.47,.08,3.06,.02h0c.06,0,.16-.06,.28-.19,.29-.31,.41-.76,.32-1.2l-.17-.85c-.06-.28-.09-.57-.08-.86l.03-1.76-.21,.23c-.07,.08-.17,.1-.27,.07-.1-.03-.17-.12-.18-.22l-.06-.52c-.2-.02-.62-.01-.81,.01l-.23,.57c-.04,.09-.12,.15-.21,.16-.09,.01-.19-.03-.24-.11l-.27-.38Z" fill="#363636"/>
    <path d="M158.77,160.82c-.49,0-1.1-.04-1.79-.16-.14-.02-.23-.16-.21-.3,.02-.14,.16-.23,.3-.21,1.68,.3,2.89,.06,2.9,.06,.14-.03,.27,.06,.3,.2,.03,.14-.06,.27-.2,.3-.03,0-.52,.1-1.3,.1Z" fill="#363636"/>
    <path d="M159.34,158.96h-1.6c-.14,0-.26-.12-.26-.26s.12-.26,.26-.26h1.6c.14,0,.26,.12,.26,.26s-.12,.26-.26,.26Z" fill="#363636"/>
    <polygon points="173.37 152.3 173.99 157.96 176.37 158.46 176.23 151.82 173.37 152.3" fill="#fff"/>
    <path d="M176.37,158.71s-.04,0-.05,0l-2.38-.5c-.11-.02-.19-.11-.2-.22l-.62-5.66c-.01-.14,.08-.26,.21-.28l2.86-.48c.07-.01,.15,0,.21,.06,.06,.05,.09,.12,.09,.19l.14,6.63c0,.08-.03,.15-.09,.2-.05,.04-.1,.06-.16,.06Zm-2.14-.97l1.88,.39-.13-6.01-2.32,.39,.58,5.23Z" fill="#363636"/>
    <path d="M172.99,160.66c-.05-.99-.05-2.82,.55-3.7l1.9,.68v-.41c0-.13,.09-.24,.21-.25l1.06-.06c.4-.02,.79,.06,1.15,.24,1.07,.52,4.31,1.87,4.76,3.38,.13,.45-.22,.89-.68,.91-1.07,.03-3.64,.06-8.25-.09-.38-.01-.69-.32-.71-.7Z" fill="#fff"/>
    <path d="M179.82,161.73c-1.42,0-3.42-.03-6.13-.12-.52-.02-.94-.42-.96-.94h0c-.05-1.04-.05-2.92,.59-3.86,.07-.1,.19-.14,.3-.1l1.56,.56v-.04c0-.27,.2-.49,.46-.5l1.06-.06c.44-.03,.88,.07,1.28,.26,.13,.06,.28,.14,.46,.22,1.4,.66,4,1.88,4.43,3.32,.08,.28,.03,.58-.14,.82-.18,.25-.47,.4-.78,.41-.46,.01-1.16,.03-2.14,.03Zm-6.58-1.09c.01,.25,.21,.45,.47,.46,4.56,.16,7.12,.13,8.23,.09,.15,0,.29-.08,.38-.2,.05-.07,.12-.2,.07-.38-.36-1.22-2.93-2.42-4.16-3-.18-.09-.34-.16-.47-.23-.32-.16-.68-.23-1.03-.21l-1.03,.06v.4c0,.08-.04,.16-.11,.21-.07,.05-.16,.06-.23,.03l-1.71-.61c-.34,.65-.49,1.86-.41,3.37h0Z" fill="#363636"/>
    <path d="M179.08,160.79c-1.35,0-3.18-.06-5.18-.29-.14-.02-.24-.14-.23-.28s.14-.24,.28-.23c4.05,.47,7.39,.23,7.42,.22,.14,0,.26,.1,.28,.24,.01,.14-.1,.26-.24,.28-.02,0-.91,.07-2.34,.07Z" fill="#363636"/>
    <path d="M178.49,159.17c-.05,0-.1-.02-.15-.05l-1.83-1.32c-.12-.08-.14-.24-.06-.36,.08-.12,.24-.14,.36-.06l1.83,1.32c.12,.08,.14,.24,.06,.36-.05,.07-.13,.11-.21,.11Z" fill="#363636"/>
    <path d="M173.7,113.22s3.83,25.78,3.1,41.4l-1.06,.11c-.57,.06-1.15,.07-1.72,.04l-1.01-.05c-4.54-26.45-5.69-27.7-6.57-30.61,0,0-5.06,24.05-5.27,29.76,0,0-2.46,.25-3.43-.11-.53-5.52-.68-11.23-.7-14.81-.08-10.26,.91-14.92,1.44-17.13,.49-2.03,1.02-3.68,1.41-4.8l1.29-3.68,12.53-.11Z" fill="#363636"/>
    <path d="M166.44,125.18s-.03,0-.05,0c-.14-.03-.23-.16-.2-.3l.56-2.89v-.02c.18-.65,.71-1.14,1.37-1.28l.53-.11c.14-.03,.27,.06,.3,.2,.03,.14-.06,.27-.2,.3l-.53,.11c-.47,.1-.84,.44-.97,.9l-.56,2.88c-.02,.12-.13,.21-.25,.21Z" fill="#f9f9f9"/>
    <path d="M159.7,120.51c-.12,0-.23-.09-.25-.21-.02-.14,.07-.27,.21-.3,2.29-.38,3.12-1.86,3.38-2.48,.05-.13,.2-.19,.34-.14,.13,.05,.19,.2,.14,.34-.29,.7-1.23,2.37-3.77,2.79-.01,0-.03,0-.04,0Z" fill="#f9f9f9"/>
    <path d="M173.66,118.97s-.07,0-.1-.02c-1.89-.82-2.11-2.5-2.12-2.57-.02-.14,.08-.27,.22-.29,.14-.02,.27,.08,.29,.22,0,.06,.2,1.46,1.81,2.16,.13,.06,.19,.21,.13,.34-.04,.1-.14,.15-.24,.15Z" fill="#f9f9f9"/>
    <path d="M157.3,94.94c.66-.75,2.01-1.55,2.99-1.78,1.86-.43,4.24-.68,6.36-.82l1.21-.13c.62-.04,1.2-.05,1.75-.02,.38-.01,.73-.02,1.03-.03,.94-.02,2.44,.28,3.24,.77,.78,.48,1.51,1.06,2.18,1.71,2.62,2.1,3.94,4.81,5.57,4.97,.66,.07,2-3.96,2.51-5.59,.33-1.06,1.58-1.53,2.52-.95,.05,.03,.09,.06,.13,.09,1.21,.86,.84,2.81,.84,2.81,0,0-.66,10.84-3.69,11.28-3.39,.49-8.52-3.63-9.58-3.91l.79,4.65,1.32,6.51c.19,1.26-1.44,1.66-2.35,1.65-.03,0-.32-2.28-.35-2.28-2.94-.6-6.72,1.14-9.68,2.71-3.8,2.01-7.24,.66-7.5-.37-.27-1.03,.45-7.32,.45-7.32l-3.99-.33c-.75-.06-1.33-.69-1.33-1.44,0-5.16,3.62-9.95,5.58-12.17Z" fill="#FF2059" stroke="#363636" stroke-miterlimit="10" stroke-width=".51"/>
    <path d="M160.91,100.36c-.34,.47-.75,.88-1.21,1.23-1.55,1.19-5.25,4.05-6.14,5.05-1.13,1.26-1.68,1.75-.27,4.41,2.29,4.34,8.47-8.44,8.47-8.44,0,0,2.34,.1,2.58-1.97,0,0,1.22,.06,1.69-.22,.36-.22,.25-.86-.26-.86l-3.37-.16c-.46-.02-.91,.19-1.18,.57l-.3,.41Z" fill="#fff"/>
    <path d="M154.5,112.2c-.59,0-1.08-.35-1.44-1.03-1.39-2.63-.94-3.31,.21-4.59l.1-.11c.9-1.01,4.62-3.89,6.17-5.08,.44-.34,.83-.73,1.16-1.18h0l.3-.41c.33-.44,.85-.69,1.4-.67l3.37,.16c.33,0,.6,.21,.69,.52,.09,.32-.04,.65-.31,.82-.4,.24-1.2,.27-1.6,.26-.31,1.53-1.76,1.95-2.64,1.97-.72,1.47-4.68,9.29-7.39,9.34h-.03Zm6.62-11.69c-.36,.48-.78,.92-1.26,1.28-1.55,1.18-5.23,4.04-6.1,5.01l-.1,.11c-1.03,1.15-1.42,1.59-.14,4.01,.27,.51,.59,.76,.99,.76h.02c2.12-.04,5.78-6.65,7.01-9.19,.04-.09,.14-.15,.24-.14,.08,0,2.11,.06,2.31-1.74,.02-.13,.14-.23,.27-.23,.44,.02,1.25,0,1.54-.18,.08-.05,.1-.16,.08-.24-.02-.07-.07-.15-.21-.15l-3.38-.16c-.38-.01-.74,.16-.96,.46l-.3,.41Z" fill="#363636"/>
    <path d="M174.12,116.14c2.85-.19,3.33-1.65-.35-2.28l.35,2.28Z" fill="#ffd7e5" stroke="#363636" stroke-miterlimit="10" stroke-width=".51"/>
    <g>
      <path d="M183.7,86.35l2.11,10.14c.15,.74,.65,1.26,1.11,1.15l.76-.17c.46-.11,.71-.79,.55-1.54l-2.11-10.14-2.42,.56Z" fill="#5b72b6"/>
      <path d="M186.8,97.91c-.17,0-.34-.05-.5-.16-.35-.23-.63-.68-.74-1.22l-2.11-10.14c-.03-.14,.06-.27,.19-.3l2.42-.56c.07-.02,.14,0,.2,.03,.06,.04,.1,.1,.11,.16l2.11,10.14c.19,.89-.14,1.7-.75,1.84l-.76,.17c-.06,.01-.12,.02-.18,.02Zm-2.79-11.37l2.06,9.89c.08,.4,.28,.74,.52,.89,.1,.06,.2,.09,.28,.07l.76-.17c.28-.06,.49-.59,.36-1.23l-2.05-9.88-1.92,.44Z"/>
    </g>
    <path d="M184.39,96.53c-.38-.16-.57-.58-.44-.96,.38-1.16,.65-2.26,.21-2.89-.38-.55-.73-1.09-.65-1.74l.13-.97c.02-.15-.02-.71,.39-.61,.32,.07,.45,.35,.63,1.57,.09,.61,.33,.9,.75,1.15-.02-.09-.02-.19-.02-.31,.02-.52,.31-1,.75-1.29,.54-.36,1.46-.85,2-.24,.38,.42,.52,1.38-.14,2.31-.15,.22-1.02,1.16-1.02,1.16-.17,.22-.53,2.5-.53,2.5-.22,1.19-1.12,.72-2.07,.33Z" fill="#fff"/>
    <path d="M185.74,97.22c-.38,0-.82-.18-1.27-.37l-.18-.08c-.5-.21-.75-.77-.59-1.28,.35-1.06,.62-2.12,.24-2.66-.35-.51-.79-1.15-.69-1.92l.13-.97s0-.05,0-.08c.01-.19,.03-.51,.25-.68,.08-.06,.23-.13,.45-.08,.5,.12,.64,.55,.83,1.78,.04,.29,.12,.49,.24,.64,.09-.51,.39-.98,.84-1.27,1.3-.87,1.99-.59,2.33-.2,.47,.53,.59,1.63-.12,2.63-.15,.22-.89,1.02-1.02,1.17-.09,.17-.32,1.37-.48,2.38-.08,.44-.25,.73-.52,.87-.14,.07-.29,.11-.45,.11Zm-1.26-.92l.18,.08c.5,.21,1.02,.43,1.28,.29,.12-.07,.21-.24,.26-.51,.14-.87,.4-2.36,.58-2.6l.02-.02c.34-.37,.89-.99,1-1.14,.62-.88,.42-1.68,.15-1.99-.31-.34-.87-.25-1.67,.28-.38,.25-.61,.66-.63,1.09,0,.09,0,.18,.01,.25,.02,.1-.02,.2-.11,.26-.08,.06-.19,.06-.28,0-.44-.27-.76-.6-.87-1.33-.18-1.21-.3-1.33-.44-1.36-.01,0-.02,0-.03,0-.03,.06-.04,.23-.05,.28,0,.05,0,.09,0,.12l-.13,.97c-.07,.53,.2,.98,.6,1.56,.53,.76,.18,2.01-.18,3.12-.08,.26,.05,.54,.3,.64Z" fill="#363636"/>
    <path d="M186.31,86.69l1.92,9.24c.15,.74-.09,1.43-.55,1.54l-.76,.17c-.46,.11-.96-.41-1.11-1.15l-1.98-9.5,2.47-.3Z" fill="#FF2059"/>
    <path d="M186.8,97.91c-.17,0-.34-.05-.5-.16-.35-.23-.63-.68-.74-1.22l-1.98-9.5c-.01-.07,0-.14,.04-.2,.04-.06,.11-.1,.18-.11l2.47-.3c.13-.02,.26,.07,.28,.2l1.92,9.24c.19,.89-.14,1.7-.75,1.84l-.76,.17c-.06,.01-.12,.02-.18,.02Zm-2.66-10.7l1.92,9.22c.08,.4,.28,.74,.52,.89,.1,.06,.2,.09,.28,.07l.76-.17c.28-.06,.49-.59,.36-1.23l-1.87-9.01-1.96,.24Z" fill="#363636"/>
    <path d="M186.24,92.73c.38,.04,.97-.05,1.61-.48,.67-.46,.66-1.59,.29-2.02-.54-.61-1.45-.13-1.99,.23-.44,.29-.86,.87-.85,1.28,.02,.62,.24,.91,.94,.98Z" fill="#fff"/>
    <path d="M187.63,93.26c-.06,0-.12-.02-.16-.06-.11-.09-.12-.25-.03-.36,.03-.04,.06-.08,.09-.11-.44,.2-.92,.3-1.31,.26-.8-.08-1.16-.45-1.18-1.23-.01-.53,.48-1.18,.96-1.5,.95-.63,1.68-.74,2.19-.32,0,0,.1,.09,.13,.13,.47,.53,.59,1.63-.12,2.63-.02,.02-.09,.12-.39,.48-.05,.06-.12,.09-.2,.09Zm-.15-3.06c-.37,0-.83,.24-1.19,.48-.39,.26-.74,.77-.73,1.06,.01,.47,.11,.67,.71,.73,.12,.01,.55,.03,1.12-.25,.13-.06,.28-.01,.34,.11,.02,.03,.02,.06,.03,.1,.02-.03,.03-.04,.03-.04,.62-.88,.42-1.68,.15-1.99-.02-.03-.08-.08-.08-.08-.11-.09-.24-.12-.38-.12Z" fill="#363636"/>
    <path d="M187.38,76.16l-8.96,3.29-3.75,2.23-1.7,1.71h-.01c-.32,.3-.42,1.15-.21,2.09,.2,.93,.63,1.65,1.04,1.8h-.01l2.14,.84,4.3,.47,9.61-.73,10.36,4.85,.08,.02c-2.6-1.25-5.29-5.92-6.54-11.82-1.26-5.9-.71-11.23,1.15-13.42h0l-7.38,8.55-.09,.11Z" fill="#ffd7e5"/>
    <path d="M200.24,93s-.05,0-.08-.01l-.08-.02s-.02,0-.03-.01l-10.3-4.82-9.54,.72s-.03,0-.05,0l-4.3-.47s-.04,0-.07-.02l-2.14-.84s-.05-.02-.07-.04c-.47-.24-.91-1-1.12-1.95-.22-1.04-.11-1.94,.28-2.31h0v-.02l1.71-1.71s.03-.03,.05-.04l3.75-2.23s.03-.01,.04-.02l8.92-3.27s.02-.04,.04-.05l7.38-8.55c.09-.11,.25-.12,.36-.03,.05,.04,.09,.11,.09,.18,0,.07-.01,.14-.06,.19-1.87,2.2-2.31,7.51-1.1,13.2,1.22,5.7,3.79,10.38,6.4,11.64,.12,.06,.18,.2,.13,.33-.04,.1-.14,.16-.24,.16Zm-10.44-5.39s.07,0,.11,.02l8.36,3.91c-2.04-2.15-3.86-6.06-4.83-10.57-.96-4.49-.89-8.76,.08-11.55l-5.86,6.79s-.04,.03-.06,.05c-.03,.06-.08,.11-.15,.13l-8.94,3.28-3.7,2.2-1.68,1.69s-.01,.02-.02,.02c-.22,.19-.33,.93-.14,1.83,.19,.91,.6,1.51,.87,1.61,.02,0,.04,.02,.06,.03l2.04,.8,4.24,.47,9.58-.73h.02Z"/>
    <ellipse cx="199.23" cy="79.76" rx="5.67" ry="13.51" transform="translate(-12.28 43.46) rotate(-12.08)" fill="#fff"/>
    <path d="M201.54,93.29c-3.12,0-6.59-5.19-8.11-12.31-1.15-5.4-.82-10.55,.84-13.1,.57-.88,1.28-1.41,2.09-1.58,3.25-.68,7.06,4.7,8.67,12.25,1.15,5.4,.82,10.55-.84,13.1-.57,.88-1.28,1.41-2.09,1.58-.19,.04-.37,.06-.56,.06Zm-4.61-26.54c-.16,0-.31,.02-.47,.05-.67,.14-1.27,.6-1.76,1.36-1.59,2.44-1.89,7.43-.77,12.71,1.52,7.15,5.14,12.47,8.06,11.86,.67-.14,1.27-.6,1.76-1.36,1.59-2.44,1.89-7.43,.77-12.71-1.44-6.77-4.77-11.9-7.59-11.9Z" fill="#363636"/>
    <path d="M201.19,91.1c-2.62,0-5.54-4.35-6.81-10.32-.97-4.53-.69-8.84,.71-10.98,.48-.74,1.08-1.2,1.77-1.34,1.83-.38,3.9,1.47,5.54,4.97,.06,.13,0,.28-.12,.34-.13,.06-.28,0-.34-.12-1.51-3.21-3.42-5.01-4.97-4.68-.55,.12-1.04,.49-1.44,1.12-1.32,2.03-1.57,6.19-.63,10.59,1.18,5.55,4,9.91,6.32,9.91,.12,0,.24-.01,.36-.04,2.15-.45,3.18-4.96,2.35-10.27-.02-.14,.07-.27,.21-.29,.14-.02,.27,.07,.29,.21,.9,5.76-.25,10.33-2.75,10.85-.16,.03-.32,.05-.48,.05Z" fill="#363636"/>
    <path d="M198.9,79.84c.34,1.6,.07,3.01-.6,3.15-.67,.14-1.49-1.04-1.83-2.64-.34-1.6-.07-3.01,.6-3.15s1.49,1.04,1.83,2.64Z" fill="#FF2059"/>
    <path d="M198.19,83.26c-.79,0-1.62-1.18-1.97-2.85-.27-1.25-.19-2.41,.21-3.02,.15-.24,.36-.39,.58-.43,.83-.18,1.75,1.04,2.13,2.84,.27,1.25,.19,2.41-.21,3.02-.15,.24-.36,.39-.58,.43-.05,.01-.11,.02-.16,.02Zm-1.01-5.81s-.04,0-.06,0c-.09,.02-.18,.09-.26,.21-.26,.4-.41,1.37-.14,2.63,.35,1.64,1.12,2.52,1.53,2.44,.09-.02,.18-.09,.26-.21,.26-.4,.41-1.37,.14-2.63h0c-.31-1.45-1.01-2.45-1.47-2.45Z" fill="#363636"/>
    <path d="M200.24,93s-.05,0-.08-.01l-.08-.02s-.02,0-.03-.01l-10.3-4.82-9.54,.72s-.03,0-.05,0l-4.3-.47s-.04,0-.07-.02l-2.14-.84s-.05-.02-.07-.04c-.47-.24-.91-1-1.12-1.95-.22-1.04-.11-1.94,.28-2.31h0v-.02l1.71-1.71s.03-.03,.05-.04l3.75-2.23s.03-.01,.04-.02l8.9-3.27,7.43-8.61c.09-.11,.25-.12,.36-.03,.05,.04,.09,.11,.09,.18,0,.07-.01,.14-.06,.19-1.87,2.2-2.31,7.51-1.1,13.2,1.22,5.7,3.79,10.38,6.4,11.64,.12,.06,.18,.2,.13,.33-.04,.1-.14,.16-.24,.16Zm-10.44-5.39s.07,0,.11,.02l8.36,3.91c-2.04-2.15-3.86-6.06-4.83-10.57-.96-4.49-.89-8.76,.08-11.55l-5.96,6.9s-.07,.06-.11,.07l-8.94,3.28-3.7,2.2-1.68,1.69s-.01,.02-.02,.02c-.22,.19-.33,.93-.14,1.83,.19,.91,.6,1.51,.87,1.61,.02,0,.04,.02,.06,.03l2.04,.8,4.24,.47,9.58-.73h.02Z" fill="#363636"/>
    <path d="M187.4,76.13l7.45-8.64h0c-1.86,2.2-2.41,7.53-1.15,13.43,1.26,5.9,3.94,10.57,6.54,11.82l-.08-.02-10.34-4.84-.24-.11c-1.2-.57-2.44-2.67-3-5.35-.58-2.74-.14-5.2,.72-6.18l.09-.1Z" fill="#FF2059"/>
    <path d="M200.24,93s-.05,0-.08-.01l-.08-.02s-.02,0-.03-.01l-10.58-4.95c-1.31-.62-2.58-2.84-3.14-5.53-.55-2.61-.23-5.25,.78-6.4l.09-.11,7.45-8.63c.09-.11,.25-.12,.36-.03,.05,.04,.09,.11,.09,.18,0,.07-.01,.14-.06,.19-1.87,2.2-2.31,7.51-1.1,13.2,1.22,5.7,3.79,10.38,6.4,11.64,.12,.06,.18,.2,.13,.33-.04,.1-.14,.16-.24,.16Zm-6.71-23.58l-5.94,6.88h0l-.09,.11c-.77,.88-1.24,3.21-.66,5.96,.53,2.49,1.7,4.62,2.86,5.17l.24,.11,8.34,3.9c-2.04-2.15-3.86-6.06-4.83-10.57-.96-4.49-.89-8.76,.08-11.55Zm-6.13,6.71h0Z" fill="#363636"/>
    <path d="M175.78,88.33s-.06,0-.09-.02l-2.02-.8s-.05-.02-.07-.04c-.47-.24-.91-1-1.12-1.95-.22-1.04-.11-1.94,.28-2.31h0v-.02l1.71-1.71c.1-.1,.26-.1,.36,0,.1,.1,.1,.26,0,.36l-1.7,1.71s-.01,.02-.02,.02c-.22,.19-.33,.93-.14,1.83,.19,.91,.6,1.51,.87,1.61,.02,0,.04,.02,.06,.03l1.95,.77c.13,.05,.2,.2,.14,.33-.04,.1-.14,.16-.24,.16Z"/>
    <path d="M175.92,88.12c-.66-.23-1.35-1.45-1.67-2.97-.34-1.61-.11-3.11,.47-3.5l-1.76,1.75h-.01c-.32,.3-.42,1.15-.21,2.09,.2,.93,.63,1.65,1.04,1.8h-.01l2.16,.84Z" fill="#FF2059"/>
    <path d="M175.92,88.37s-.06,0-.09-.01c-.02,0-.04-.01-.05-.02l-2.11-.82s-.05-.02-.07-.04c-.47-.24-.91-1-1.12-1.95-.22-1.04-.11-1.94,.28-2.31h0v-.02l1.55-1.52c.08-.1,.16-.19,.26-.25,.11-.07,.26-.05,.34,.05,.08,.1,.08,.25-.02,.35l-.2,.2c-.34,.49-.5,1.71-.21,3.07,.33,1.56,.98,2.56,1.47,2.77l.04,.02c.13,.05,.2,.2,.15,.33-.04,.1-.14,.17-.24,.17Zm-2-1.3l.92,.36c-.36-.57-.66-1.34-.85-2.23-.18-.86-.21-1.7-.11-2.37l-.75,.74s-.01,.02-.02,.02c-.22,.19-.33,.93-.14,1.83,.19,.91,.6,1.51,.87,1.61,.02,0,.04,.02,.06,.03Z" fill="#363636"/>
    <path d="M180.04,88.58h.18c-1-.05-2.11-1.89-2.6-4.22-.51-2.37-.14-4.51,.79-4.91l-.13,.07-3.56,2.11c-.59,.38-.83,1.89-.48,3.51,.33,1.56,1.06,2.8,1.75,2.98l4.05,.45Z" fill="#ffeef5"/>
    <path d="M180.23,88.85h-.21l-4.05-.46s-.03,0-.04,0c-.78-.21-1.58-1.52-1.93-3.18-.37-1.73-.12-3.32,.6-3.78l3.49-2.07c.07-.06,.15-.1,.23-.14,.12-.05,.27,0,.33,.12,.06,.12,.02,.27-.1,.34l-.18,.11c-.63,.5-.96,2.32-.49,4.53,.52,2.45,1.61,3.97,2.36,4.03h.01c.14,.01,.25,.13,.24,.27,0,.14-.12,.24-.26,.24Zm-4.18-.97l3.03,.33c-.71-.75-1.34-2.12-1.7-3.8-.34-1.6-.3-3.09,.06-4.08l-2.56,1.52c-.44,.29-.7,1.66-.36,3.23,.34,1.61,1.05,2.63,1.54,2.79Z" fill="#363636"/>
    <g>
      <path d="M197.07,77.2c-.67,.14-.97,1.56-.6,3.15,.62,2.67,1.69,2.67,1.82,2.66h0l-2.64,1.15c-.39-1.06-.72-2.22-.98-3.44-.25-1.17-.41-2.31-.49-3.4l2.89-.12h0Z" fill="#363636"/>
      <path d="M195.51,84.5l-.09-.26c-.4-1.1-.73-2.27-.99-3.47-.25-1.16-.41-2.31-.5-3.43l-.02-.27,3.15-.13,.06,.51c-.1,.02-.19,.1-.27,.23-.27,.42-.41,1.39-.13,2.61,.58,2.51,1.54,2.47,1.55,2.46l.21-.02,.11,.43-.22,.09-2.88,1.25Zm-1.05-6.94c.09,1.01,.25,2.06,.47,3.1,.23,1.09,.53,2.15,.88,3.15l1.79-.78c-.45-.31-1-1.02-1.38-2.63-.27-1.15-.21-2.28,.14-2.92l-1.91,.08Z" fill="#363636"/>
    </g>
    <path d="M163.78,92.5l-.59-4.7,4.09,1.26,.41,2.75c.1,.74-.45,1.26-.45,1.26-.67,.7-1.76,.79-2.64,.38l-.2-.1c-.34-.16-.57-.48-.62-.86Z" fill="#fff"/>
    <path d="M165.7,93.96c-.4,0-.82-.09-1.21-.28l-.2-.1c-.42-.2-.71-.59-.77-1.06h0l-.59-4.7c-.01-.09,.02-.17,.09-.23,.07-.06,.16-.07,.24-.05l4.09,1.26c.09,.03,.16,.11,.18,.21l.41,2.75c.12,.86-.5,1.46-.53,1.48-.44,.46-1.06,.7-1.71,.7Zm-1.67-1.49c.04,.29,.21,.53,.48,.66l.2,.1c.83,.39,1.8,.26,2.35-.32,.01-.01,.46-.45,.38-1.05l-.39-2.59-3.56-1.1,.54,4.31h0Z" fill="#363636"/>
    <path d="M166.87,80.82c-1,.22,.52,.88-3.4,.85-1.56-.01-.36,1.47-.76,1.46-1.5,0-1.45-.01-2.07,.36-.41,.24-.47,1.15-.22,1.75,.34,.78,1.07,.8,2.15,2.36,.76,1.09,.86,1.85,1.39,1.89,.54,.04,.72-.72,1.31-.72,.77,0,.97,1.27,1.81,1.59,.53,.2,1.58,.06,2.99-1.19,.23-.2,.28-.54,.12-.8-.2-.34-.46-.76-.74-1.14-1.33-1.83-2.19-2.08-2.07-2.69,.18-.92,1.84-.89,1.9-1.63,.07-.77-1.03-2.38-2.4-2.08Z" fill="#363636"/>
    <path d="M164.44,85.31l.43,.45c.2,.21,.39,.43,.56,.67,.32,.44,.88,1.2,1.22,1.6,.5,.59,2.43-.85,2.43-.85v-.45l.23-.17s.08-.08,.1-.13c.05-.13,.01-.26-.08-.35-.53-.45-1.66-1.47-2.25-2.51,0,0-1.71,.04-2.63,1.74Z" fill="#fff"/>
    <path d="M167.01,88.42c-.22,0-.42-.07-.56-.23-.33-.39-.85-1.09-1.23-1.61-.16-.23-.34-.44-.54-.64l-.43-.45c-.08-.08-.09-.2-.04-.3,.98-1.81,2.78-1.87,2.85-1.88,.1,0,.18,.05,.23,.13,.58,1.02,1.73,2.04,2.19,2.44,.18,.16,.25,.41,.16,.64-.04,.09-.1,.17-.18,.23l-.13,.1v.33c-.01,.08-.05,.15-.11,.2-.38,.29-1.46,1.04-2.22,1.04Zm-2.25-3.15l.29,.31c.21,.22,.4,.45,.58,.7,.3,.42,.87,1.19,1.21,1.58,.19,.22,1.18-.24,1.98-.81v-.33c.01-.08,.05-.15,.11-.2l.22-.17s.02-.02,.02-.02c0-.02,0-.04-.01-.05-.58-.49-1.61-1.43-2.22-2.43-.39,.05-1.47,.29-2.17,1.43Z" fill="#363636"/>
    <path d="M165.35,87.03s-1.03-1.07-1.41-.5c-.38,.57,.77,1.72,1.41,.5h0Z" fill="#fff"/>
  </g>
  <path d="M113.03,38.31c-.21,0-.42-.04-.62-.12-.4-.17-.71-.48-.88-.87-.16-.4-.16-.83,0-1.22,.34-.82,1.29-1.2,2.11-.86,.4,.17,.71,.48,.88,.87,.16,.4,.16,.83,0,1.22h0c-.26,.61-.86,.99-1.49,.99Zm0-2.69c-.43,0-.84,.25-1.02,.67-.11,.27-.11,.56,0,.83,.11,.27,.32,.48,.6,.59,.56,.23,1.21-.03,1.44-.59,.11-.27,.11-.56,0-.83-.11-.27-.32-.48-.6-.59-.14-.06-.28-.08-.42-.08Zm1.25,1.61h0Z" fill="#fff"/>
  <path d="M103.35,58.78c-.07,0-.13-.03-.18-.08-.1-.1-.1-.26,0-.36l14.74-14.74c.1-.1,.26-.1,.36,0,.1,.1,.1,.26,0,.36l-14.74,14.74c-.05,.05-.12,.08-.18,.08Z" fill="#363636"/>
  <path d="M162.94,76.04c-.07,0-.13-.03-.18-.08-.1-.1-.1-.26,0-.36l14.25-14.24c.1-.1,.26-.1,.36,0,.1,.1,.1,.26,0,.36l-14.25,14.24c-.05,.05-.12,.08-.18,.08Z" fill="#363636"/>
  <path d="M139.59,101.1c-.07,0-.13-.03-.18-.08-.1-.1-.1-.26,0-.36l15.56-15.56c.1-.1,.26-.1,.36,0,.1,.1,.1,.26,0,.36l-15.56,15.56c-.05,.05-.12,.08-.18,.08Z" fill="#363636"/>
  <path d="M146.2,87.05c-.07,0-.13-.03-.18-.08-.1-.1-.1-.26,0-.36l8.09-8.09c.1-.1,.26-.1,.36,0,.1,.1,.1,.26,0,.36l-8.09,8.09c-.05,.05-.12,.08-.18,.08Z" fill="#363636"/>
  <path d="M111.67,81.19c-.07,0-.13-.03-.18-.08-.1-.1-.1-.26,0-.36l4.76-4.76c.1-.1,.26-.1,.36,0,.1,.1,.1,.26,0,.36l-4.76,4.76c-.05,.05-.12,.08-.18,.08Z" fill="#363636"/>
  <path d="M113.06,75.96c-.07,0-.13-.03-.18-.08-.1-.1-.1-.26,0-.36l2.47-2.47c.1-.1,.26-.1,.36,0s.1,.26,0,.36l-2.47,2.47c-.05,.05-.12,.08-.18,.08Z" fill="#363636"/>
  <path d="M131.12,50.83c-.07,0-.14-.03-.19-.08-.1-.1-.09-.27,.01-.36l6.66-6.18c.1-.1,.27-.09,.36,.01,.1,.1,.09,.27-.01,.36l-6.66,6.18s-.11,.07-.17,.07Z" fill="#363636"/>
  <g>
    <path d="M74.38,71.88s-.06,0-.08-.01c-.13-.05-.21-.19-.16-.33,3.81-11.27,10.29-19.03,15.06-23.55,5.17-4.9,9.5-7.17,9.54-7.2,.13-.07,.28-.02,.35,.11,.07,.13,.02,.28-.11,.35-.04,.02-4.32,2.27-9.44,7.13-4.72,4.48-11.14,12.17-14.91,23.33-.04,.11-.14,.17-.24,.17Z" fill="#363636"/>
    <path d="M83.09,49.08s-.1-.01-.14-.04c-.12-.08-.15-.24-.07-.36,.08-.12,8.19-11.81,21.31-15.47,.14-.04,.28,.04,.32,.18,.04,.14-.04,.28-.18,.32-12.94,3.62-20.94,15.15-21.02,15.27-.05,.07-.13,.11-.21,.11Z" fill="#363636"/>
  </g>
</svg>