<?xml version="1.0" encoding="UTF-8"?>
<svg id="Layer_1" data-name="Layer 1" xmlns="http://www.w3.org/2000/svg" viewBox="0 0 270 186">
  <ellipse cx="135.28" cy="153.52" rx="68.16" ry="5.63" fill="#ffe6f0" opacity=".8"/>
  <path d="M89.9,118.36c2.56,6.53,8.6,9.6,12.46,11.56,15.21,7.73,38.36,6.73,55.07-7.54,3.91-3.34,23.19-20.83,18.8-44.41-3.88-20.84-23.74-32.86-40.49-34.41-13.88-1.28-32.03,4.05-38.48,16.8-4.06,8.02,.77,10.54-2.58,28.68-2.91,15.7-7.92,21.34-4.78,29.32Z" fill="#f0f0f0"/>
  <ellipse cx="124.5" cy="72.85" rx="37.44" ry="37.69" fill="#fff"/>
  <path d="M117.3,38.53c-.15,.23,.3,.99,1.21,.99s1.36-.15,1.74,.84-.15,4.35,.38,5.57c.53,1.22,1.44,1.98,2.12,1.3,.68-.69,.61-2.52,1.44-2.98,.83-.46,3.86-2.29,4.02-3.81,.15-1.53-.91-2.67-3.56-2.98-2.65-.31-6.21-.61-7.35,1.07Z" fill="#ffe6f0"/>
  <path d="M105.15,72.37c-.4,.2-.63,.58-.61,.99,.06,1.28-.48,4.47-1.61,5.49-1.44,1.3-.91,3.63-.93,4.58-.05,1.92,.16,2.77,2.45,3.68,2.29,.92,3.18,.97,3.35,2.8,.17,1.83,.43,8.9,1.11,10.74,.68,1.83,2.12,4.81,2.88,5.49,.76,.69,2.54,1.07,1.44-1.53-1.1-2.59-1.78-3.81-.51-5.26,1.27-1.45,3.39-4.81,3.56-6.1,.17-1.3,.93-2.06,1.61-2.21s2.12-.61,2.54-1.07c.42-.46-.42-1.75-.68-2.9-.25-1.14-.25-1.83,1.86-2.75,2.12-.92,1.1-3.51-1.78-4.2-2.88-.69-4.66-2.14-4.32-3.59,.34-1.45-1.95-1.3-3.3-1.98-1.36-.69-1.31-1.77-2.82-2.28-2.04-.69-3.47-.28-4.24,.1Z" fill="#ffbdd6"/>
  <path d="M151.76,70.77c-.64-.96-.56-2.49,1.04-4.58,1.25-1.64-.55-3.28-1.38-3.91-.15-.12-.08-.36,.11-.38,1.03-.12,3.41,.23,4.46,5.57,1.36,6.91,1.92,4.5,2.63,3.7,.72-.8-.63-2.3,.72-3.86,.85-.98,1.28-2.41,1.5-3.57-2.7-10.96-10.16-20.03-20.05-24.85,.01,1.2-.27,5.4-5.15,3.67,0,0-3.03-1.45-2.31,4.42,.72,5.87,3.19-.4,3.67-.64,.48-.24,1.76-.56,1.2,3.38,0,0-.08,1.37-2.55,1.13-2.47-.24-2.95,.96-2.95,1.61s.24,2.33-1.12,3.54c-1.36,1.21-.96,4.34,.88,3.29,1.84-1.04,3.11-4.34,4.79-4.66,1.68-.32,3.19,1.85,4.79,1.29,1.6-.56,.88-3.29,1.68-3.29s2.47,1.61,2.24,2.81c-.24,1.21-2.71,1.77-2.08,3.21,.64,1.45,2,.96,2.39,1.93,.4,.96-2,2.09-3.91,.88-1.92-1.21-2.24,.56-3.19-.24-.96-.8-1.04-2.49-2.39-1.93-1.36,.56-2.16,1.69-3.91,2.49s-3.19,1.85-3.19,2.97,.64,2.33,.32,4.1c-.32,1.77-.88,6.59,4.87,5.63,5.75-.96,5.03,2.01,5.03,2.33s-.08,4.5,.48,5.22c.56,.72,1.84,2.81,0,5.54-1.84,2.73-1.12,8.84,.56,8.04,1.68-.8,3.35-3.94,5.43-5.54,2.08-1.61,4.95-8.6,3.75-10.77-1.2-2.17,1.68-3.94,2.08-5.38,.4-1.45,.24-2.17-.4-3.13Z" fill="#ffe6f0"/>
  <path d="M97.69,46.44c.03,1.34-.09,3.13-.95,4.49-2.59,4.12-2.51,6.18-2.76,10.3-.25,4.12,5.46,11.38,6.88,12.15,1.42,.76,1.64-1.05,1.64-2.5s-.61-3.19-1.44-4.87c-.84-1.68-.84-2.75-.59-3.43s1.25-.92,1.92-.23c.67,.69,2.28,1.3,3.05,.87,.95-.53,.58-2.59,.91-3.28s2.18-1.14,2.93-2.59c.75-1.45,2.01-2.06,3.51-2.75,1.51-.69,2.84-.99,3.1-1.45,.25-.46-.08-1.53,.33-2.75,.42-1.22,1.42-2.67,1-3.28-.42-.61-1.67-1.6-4.02-.08-2.34,1.53-2.93,1.53-3.6,.38s.75-4.12,3.68-4.12,3.51-.92,3.6-1.6-.84-1.45-1.84-1.6c-1-.15-1.17,.38-5.35,1.91-2.79,1.02-5.39,.45-6.71,.18-1.9,1.28-3.68,2.71-5.31,4.26Z" fill="#ffd7e5"/>
  <path d="M160.17,79.64c-.57-.13-.44,1.27-1.19,1.52-.75,.25-1.07,.63-.88,2.02,.19,1.39-.13,3.23-.88,3.92-.75,.7-1.82,1.2-1.89,2.91-.06,1.71-1.63,3.35-2.58,3.92-.94,.57-2.39,1.46-2.39,2.91,0,.94-.02,2.13,.19,3.06,4.99-4.87,8.63-11.13,10.32-18.15-.15-.93-.39-2.04-.71-2.11Z" fill="#99b9ff"/>
  <g>
    <path d="M112.45,111.95s-.04,0-.06,0c-3.24-.99-6.36-2.38-9.27-4.12-.1-.06-.13-.19-.07-.29,.06-.1,.19-.13,.29-.07,2.88,1.73,5.97,3.1,9.17,4.08,.11,.03,.18,.15,.14,.27-.03,.09-.11,.15-.2,.15Z" fill="#363636"/>
    <path d="M124.74,113.78c-1.88,0-3.78-.13-5.64-.37-.12-.02-.2-.12-.18-.24,.02-.12,.12-.2,.24-.18,1.84,.25,3.71,.37,5.58,.37,5.64,0,11.1-1.1,16.25-3.28,.11-.05,.23,0,.28,.11,.05,.11,0,.23-.11,.28-5.2,2.2-10.72,3.31-16.42,3.31Z" fill="#363636"/>
    <path d="M124.5,110.75c-7.85,0-15.37-2.41-21.75-6.96-.1-.07-.12-.2-.05-.3,.07-.1,.2-.12,.3-.05,6.31,4.5,13.74,6.88,21.5,6.88,6.22,0,12.38-1.58,17.81-4.56,.1-.06,.23-.02,.29,.08,.06,.1,.02,.23-.08,.29-5.49,3.02-11.72,4.61-18.02,4.61Z" fill="#363636"/>
    <path d="M87.19,76.25c-.11,0-.2-.08-.21-.2-.09-1.06-.13-2.14-.13-3.21,0-10.12,3.92-19.64,11.03-26.8,7.11-7.16,16.57-11.1,26.62-11.1,8.9,0,17.53,3.18,24.31,8.96,6.7,5.71,11.23,13.62,12.76,22.27,.02,.12-.06,.23-.17,.25-.11,.02-.23-.06-.25-.17-3.16-17.89-18.57-30.88-36.65-30.88-20.52,0-37.22,16.81-37.22,37.48,0,1.06,.04,2.13,.13,3.18,0,.12-.08,.22-.2,.23h-.02Z" fill="#363636"/>
  </g>
  <path d="M189.04,153.33h-38.73c-1.65,0-2.98-1.36-2.98-3.03l3.78-79.67c0-1.67,1.34-3.03,2.98-3.03h38.73c1.65,0,2.98,1.36,2.98,3.03l-3.78,79.67c0,1.67-1.34,3.03-2.98,3.03Z" fill="#ed2a5b"/>
  <path d="M186.75,153.14h-38.73c-1.65,0-2.98-1.35-2.98-3.01l3.78-79.32c0-1.66,1.34-3.01,2.98-3.01h38.73c1.65,0,2.98,1.35,2.98,3.01l-3.78,79.32c0,1.66-1.34,3.01-2.98,3.01Z" fill="#ffbdd6"/>
  <path d="M186.75,153.35h-38.73c-1.76,0-3.2-1.45-3.2-3.23l1.05-22.06c0-.12,.1-.21,.22-.2,.12,0,.21,.11,.2,.22l-1.05,22.04c0,1.53,1.24,2.79,2.77,2.79h38.73c1.53,0,2.77-1.26,2.77-2.8l3.78-79.33c0-1.53-1.24-2.79-2.77-2.79h-38.73c-1.53,0-2.77,1.26-2.77,2.8l-.33,7.49c0,.12-.11,.21-.22,.2-.12,0-.21-.11-.2-.22l.33-7.48c0-1.77,1.43-3.22,3.2-3.22h38.73c1.76,0,3.2,1.45,3.2,3.23l-3.78,79.33c0,1.77-1.43,3.22-3.2,3.22Z" fill="#363636"/>
  <path d="M185.01,150.58h-34.98c-1.49,0-2.69-1.22-2.69-2.72l3.6-74.78c0-1.5,1.21-2.72,2.69-2.72h34.98c1.49,0,2.69,1.22,2.69,2.72l-3.6,74.78c0,1.5-1.21,2.72-2.69,2.72Z" fill="#fff"/>
  <path d="M162.95,67.62l.93,1.39c.57,.84,1.52,1.35,2.54,1.35h9.43c1,0,1.93-.49,2.5-1.3l1.01-1.44h-16.41Z" fill="#262626"/>
  <rect x="144.66" y="77.11" width="16.87" height="28.25" rx=".48" ry=".48" transform="translate(16.85 206.12) rotate(-70.93)" fill="#fff"/>
  <path d="M163.39,103.9c-.08,0-.15-.01-.23-.04l-25.78-8.91c-.36-.13-.56-.52-.43-.89l5.2-15.03c.13-.36,.52-.56,.89-.43l25.78,8.91c.36,.13,.56,.52,.43,.89l-5.2,15.03c-.06,.18-.19,.32-.35,.4-.1,.05-.2,.07-.3,.07Zm-20.59-24.91s-.08,0-.12,.03c-.06,.03-.11,.09-.14,.15l-5.2,15.03c-.05,.14,.03,.29,.17,.34l25.78,8.91c.07,.02,.14,.02,.21-.01,.06-.03,.11-.09,.14-.15l5.2-15.03c.05-.14-.03-.29-.17-.34l-25.78-8.91s-.06-.02-.09-.02Z" fill="#363636"/>
  <rect x="146.01" y="78.5" width="14.38" height="25.47" rx="3.39" ry="3.39" transform="translate(289.48 -23.75) rotate(109.07)" fill="#ed2a5b"/>
  <rect x="147.4" y="79.99" width="11.6" height="22.54" rx="3.39" ry="3.39" transform="translate(289.51 -23.71) rotate(109.07)" fill="#fff"/>
  <circle cx="153.2" cy="91.26" r="3" fill="#ed2a5b"/>
  <path d="M184.22,98.46h-37.43c-1.26,0-2.3,.99-2.36,2.25l-1.1,23.09c-.06,1.35,1.01,2.48,2.36,2.48h37.43c1.26,0,2.3-.99,2.36-2.25l1.1-23.09c.06-1.35-1.01-2.48-2.36-2.48Z" fill="#ed2a5b"/>
  <path d="M183.12,126.49h-37.43c-.71,0-1.37-.28-1.86-.8-.49-.51-.74-1.19-.71-1.9l1.1-23.09c.07-1.38,1.2-2.45,2.57-2.45h37.43c.71,0,1.37,.28,1.86,.8,.49,.51,.74,1.19,.71,1.9l-1.1,23.09c-.07,1.38-1.2,2.45-2.57,2.45Zm-36.33-27.81c-1.15,0-2.09,.9-2.15,2.05l-1.1,23.09c-.03,.59,.18,1.16,.59,1.59,.41,.43,.96,.67,1.56,.67h37.43c1.15,0,2.09-.9,2.15-2.05l1.1-23.09c.03-.59-.18-1.16-.59-1.59-.41-.43-.96-.67-1.56-.67h-37.43Z" fill="#363636"/>
  <g>
    <path d="M146.75,120.23l-.04,.75c-.02,.44,.33,.8,.76,.8h9.56c.41,0,.74-.32,.76-.73l.04-.75c.02-.44-.33-.8-.76-.8h-9.56c-.41,0-.74,.32-.76,.73Z" fill="#ffd7e5"/>
    <path d="M160.34,120.23l-.04,.75c-.02,.44,.33,.8,.76,.8h5.28c.41,0,.74-.32,.76-.73l.04-.75c.02-.44-.33-.8-.76-.8h-5.28c-.41,0-.74,.32-.76,.73Z" fill="#ffd7e5"/>
  </g>
  <g>
    <path d="M146.94,112.93l-.06,1.19c-.03,.62,.47,1.15,1.09,1.15h5.03c.58,0,1.06-.46,1.09-1.04l.06-1.19c.03-.62-.47-1.15-1.09-1.15h-5.03c-.58,0-1.06,.46-1.09,1.04Z" fill="#ffe6f0"/>
    <path d="M156.45,112.93l-.06,1.19c-.03,.62,.47,1.15,1.09,1.15h5.03c.58,0,1.06-.46,1.09-1.04l.06-1.19c.03-.62-.47-1.15-1.09-1.15h-5.03c-.58,0-1.06,.46-1.09,1.04Z" fill="#ffe6f0"/>
    <path d="M165.96,112.93l-.06,1.19c-.03,.62,.47,1.15,1.09,1.15h5.03c.58,0,1.06-.46,1.09-1.04l.06-1.19c.03-.62-.47-1.15-1.09-1.15h-5.03c-.58,0-1.06,.46-1.09,1.04Z" fill="#ffe6f0"/>
    <path d="M175.47,112.93l-.06,1.19c-.03,.62,.47,1.15,1.09,1.15h5.03c.58,0,1.06-.46,1.09-1.04l.06-1.19c.03-.62-.47-1.15-1.09-1.15h-5.03c-.58,0-1.06,.46-1.09,1.04Z" fill="#ffe6f0"/>
  </g>
  <path d="M147.34,104.68l-.14,2.91c-.04,.86,.64,1.57,1.5,1.57h4.19c.8,0,1.46-.63,1.5-1.43l.14-2.91c.04-.86-.64-1.57-1.5-1.57h-4.19c-.8,0-1.46,.63-1.5,1.43Z" fill="#ffbdd6"/>
  <rect x="106.27" y="60.08" width="9.94" height="16.65" rx="2" ry="2" transform="translate(101.98 -61.85) rotate(54.34)" fill="#fff"/>
  <path d="M107.44,77.4c-.16,0-.31-.07-.41-.21l-5.46-7.62c-.08-.11-.11-.24-.09-.37,.02-.13,.09-.25,.2-.32l13.07-9.37c.22-.16,.54-.11,.7,.11l5.46,7.62c.16,.22,.11,.54-.11,.7l-13.07,9.37c-.09,.06-.19,.09-.29,.09Zm7.6-17.56s-.03,0-.04,.01l-13.07,9.37s-.03,.04-.03,.05c0,.01,0,.03,.01,.05l5.46,7.62s.07,.04,.1,.02l13.07-9.37s.04-.07,.02-.1l-5.46-7.62s-.04-.03-.06-.03Z" fill="#363636"/>
  <rect x="107.05" y="60.86" width="8.48" height="15.01" rx="2" ry="2" transform="translate(101.97 -61.91) rotate(54.34)" fill="#ed2a5b"/>
  <rect x="107.87" y="61.72" width="6.84" height="13.29" rx="2" ry="2" transform="translate(101.97 -61.91) rotate(54.34)" fill="#fff"/>
  <circle cx="111.29" cy="68.37" r="1.77" fill="#ed2a5b"/>
  <rect x="126.42" y="64.23" width="12.17" height="20.37" rx="2.45" ry="2.45" transform="translate(148.55 -76.7) rotate(66.75)" fill="#fff"/>
  <path d="M125.73,84.13c-.22,0-.43-.13-.52-.34l-4.53-10.54c-.06-.14-.06-.29,0-.43,.06-.14,.16-.25,.3-.31l18.08-7.77c.28-.12,.62,.01,.74,.29l4.53,10.54c.06,.14,.06,.29,0,.43-.06,.14-.16,.25-.3,.31l-18.08,7.77c-.07,.03-.15,.05-.22,.05Zm13.55-19s-.04,0-.05,.01l-18.08,7.77s-.06,.04-.07,.07c-.01,.03-.01,.07,0,.1l4.53,10.54c.03,.07,.11,.1,.18,.07l18.08-7.77s.06-.04,.07-.07c.01-.03,.01-.07,0-.1l-4.53-10.54c-.02-.05-.07-.08-.12-.08Z" fill="#363636"/>
  <rect x="127.38" y="65.2" width="10.37" height="18.37" rx="2.45" ry="2.45" transform="translate(148.56 -76.78) rotate(66.75)" fill="#ed2a5b"/>
  <rect x="128.38" y="66.25" width="8.37" height="16.25" rx="2.45" ry="2.45" transform="translate(148.56 -76.78) rotate(66.75)" fill="#fff"/>
  <circle cx="132.57" cy="74.38" r="2.16" transform="translate(-19.37 79.04) rotate(-31.05)" fill="#ed2a5b"/>
  <polygon points="84.8 143.04 84.07 148.22 82.18 148.23 82.09 143.13 84.8 143.04" fill="#fff"/>
  <path d="M82.18,148.44c-.12,0-.21-.09-.21-.21l-.09-5.09c0-.12,.09-.21,.21-.22l2.71-.09c.06,0,.12,.02,.17,.07,.04,.05,.06,.11,.05,.17l-.74,5.18c-.01,.1-.1,.18-.21,.18h-1.89Zm.13-5.09l.08,4.67h1.49l.68-4.75-2.25,.08Z" fill="#363636"/>
  <path d="M84.13,153.17c-.74,.08-1.84,.11-3.32-.02-.53-.05-.9-.53-.81-1.06,.23-1.41,.87-3.89,1.87-5.02l.5,.71,.3-.73c.05-.08,1.3-.13,1.32,.02l.08,.72,.71-.8-.04,2.61c0,.29,.02,.58,.08,.86l.19,.9c.11,.54-.03,1.12-.41,1.52-.15,.16-.31,.27-.47,.29Z" fill="#fff"/>
  <path d="M82.7,153.45c-.53,0-1.16-.02-1.9-.09-.31-.03-.59-.18-.78-.43-.19-.25-.27-.57-.22-.88,.06-.37,.63-3.66,1.93-5.13,.04-.05,.11-.07,.17-.07,.07,0,.13,.04,.16,.09l.27,.39,.15-.37s0-.02,.02-.03c.16-.26,1.33-.16,1.41-.15,.07,.01,.28,.05,.31,.24h0l.03,.25,.39-.44c.06-.07,.15-.09,.24-.06,.08,.03,.14,.11,.14,.2l-.04,2.61c0,.27,.02,.55,.08,.81l.19,.9c.13,.63-.04,1.27-.46,1.71-.2,.21-.4,.33-.6,.35h0c-.35,.04-.83,.07-1.46,.07Zm1.43-.28h0Zm-2.27-5.74c-.89,1.2-1.45,3.48-1.65,4.7-.03,.19,.02,.39,.14,.55,.12,.15,.29,.25,.48,.26,1.57,.14,2.65,.09,3.28,.02,.09-.01,.21-.09,.34-.22,.32-.34,.45-.84,.35-1.34l-.19-.9c-.06-.3-.09-.6-.09-.91l.03-2.04-.33,.37c-.06,.06-.14,.09-.22,.06-.08-.03-.14-.1-.15-.18l-.06-.6c-.22-.03-.75-.02-.96,.01l-.26,.64c-.03,.07-.1,.12-.17,.13-.08,0-.15-.03-.2-.09l-.33-.48Z" fill="#363636"/>
  <path d="M82.78,152.53c-.52,0-1.17-.04-1.9-.17-.12-.02-.19-.13-.17-.25,.02-.12,.13-.19,.25-.17,1.81,.32,3.1,.07,3.11,.06,.12-.02,.23,.05,.25,.17,.02,.12-.05,.23-.17,.25-.03,0-.55,.11-1.37,.11Z" fill="#363636"/>
  <path d="M83.38,150.54h-1.71c-.12,0-.21-.1-.21-.21s.1-.21,.21-.21h1.71c.12,0,.21,.1,.21,.21s-.1,.21-.21,.21Z" fill="#363636"/>
  <polygon points="97.79 143.55 98.46 149.58 101 150.11 100.84 143.04 97.79 143.55" fill="#fff"/>
  <path d="M101,150.33s-.03,0-.04,0l-2.54-.53c-.09-.02-.16-.09-.17-.19l-.66-6.04c-.01-.11,.07-.22,.18-.23l3.05-.51c.06-.01,.12,0,.17,.05,.05,.04,.08,.1,.08,.16l.15,7.08c0,.07-.03,.13-.08,.17-.04,.03-.09,.05-.14,.05Zm-2.34-.92l2.12,.44-.14-6.56-2.61,.44,.63,5.68Z" fill="#363636"/>
  <path d="M97.38,152.46c-.06-1.06-.06-3.01,.59-3.95l2.03,.72v-.43c0-.14,.1-.26,.23-.26l1.13-.07c.42-.02,.84,.06,1.23,.25,1.14,.56,4.6,2,5.08,3.61,.14,.48-.23,.95-.73,.97-1.14,.03-3.88,.07-8.8-.1-.41-.01-.74-.34-.76-.75Z" fill="#fff"/>
  <path d="M104.68,153.55c-1.51,0-3.65-.03-6.54-.13-.52-.02-.94-.43-.97-.95-.06-1.1-.05-3.09,.62-4.08,.05-.08,.16-.11,.25-.08l1.75,.62v-.13c0-.25,.19-.46,.43-.48l1.13-.06c.46-.03,.92,.07,1.34,.27,.14,.07,.3,.15,.5,.24,1.48,.7,4.25,1.99,4.7,3.51,.08,.28,.03,.58-.14,.83-.18,.25-.47,.41-.78,.41-.49,.01-1.24,.03-2.28,.03Zm-6.61-4.78c-.38,.69-.55,2.02-.46,3.67h0c.02,.3,.26,.54,.56,.55,4.87,.17,7.6,.13,8.79,.1,.18,0,.34-.09,.45-.24,.1-.13,.13-.3,.08-.46-.4-1.33-3.15-2.62-4.47-3.24-.2-.09-.37-.17-.5-.24-.35-.17-.74-.25-1.12-.23l-1.13,.06s-.03,.02-.03,.05v.43c0,.07-.03,.13-.09,.17-.06,.04-.13,.05-.19,.03l-1.87-.67Z" fill="#363636"/>
  <path d="M103.89,152.55c-1.44,0-3.39-.06-5.52-.31-.12-.01-.2-.12-.19-.24,.01-.12,.12-.2,.24-.19,4.32,.5,7.89,.24,7.93,.24,.12,0,.22,.08,.23,.2s-.08,.22-.2,.23c-.02,0-.97,.07-2.49,.07Z" fill="#363636"/>
  <path d="M103.26,150.82s-.09-.01-.12-.04l-1.96-1.41c-.1-.07-.12-.2-.05-.3,.07-.1,.2-.12,.3-.05l1.96,1.41c.1,.07,.12,.2,.05,.3-.04,.06-.11,.09-.17,.09Z" fill="#363636"/>
  <path d="M98.7,99.79s3.58,29.13,2.81,45.8l-1.14,.11c-.61,.06-1.23,.08-1.84,.05l-1.08-.05s-4.28-29.48-6.45-33.68c0,0-5.5,27.12-5.73,33.22,0,0-2.92,.26-3.96-.11-.56-5.89-.82-16.59-.84-20.41-.08-10.95,.97-15.92,1.54-18.28,.53-2.17,1.09-3.93,1.5-5.12l1.38-3.93,13.81,2.41Z" fill="#262626"/>
  <path d="M99.15,145.97c-.21,0-.42,0-.62-.02l-1.08-.05c-.1,0-.19-.08-.2-.18-.04-.28-3.97-27.2-6.17-33-.85,4.21-5.39,27.04-5.59,32.52,0,.11-.09,.2-.19,.2-.12,.01-2.98,.26-4.05-.12-.08-.03-.13-.1-.14-.18-.56-5.91-.82-16.5-.84-20.43-.08-10.42,.85-15.45,1.55-18.33,.42-1.73,.93-3.46,1.51-5.14l1.38-3.93c.03-.1,.14-.16,.24-.14l13.81,2.41c.09,.02,.16,.09,.18,.18,.04,.29,3.58,29.34,2.81,45.83,0,.11-.09,.19-.19,.2l-1.14,.11c-.41,.04-.83,.06-1.25,.06Zm-1.51-.49l.9,.05c.6,.03,1.21,.02,1.81-.04l.95-.1c.7-15.86-2.52-43.09-2.8-45.42l-13.47-2.35-1.32,3.76c-.58,1.66-1.08,3.38-1.5,5.1-.69,2.86-1.61,7.86-1.53,18.23,.03,3.89,.28,14.33,.83,20.25,.92,.25,2.94,.12,3.56,.08,.33-6.4,5.67-32.8,5.73-33.07,.02-.09,.09-.16,.18-.17,.09-.01,.18,.03,.22,.11,2.1,4.07,6.06,30.91,6.45,33.58Z" fill="#363636"/>
  <path d="M90.95,112.5s-.03,0-.05,0c-.11-.03-.19-.14-.16-.26l.46-1.91c.19-.68,.73-1.19,1.41-1.33l.57-.12c.12-.02,.23,.05,.25,.17,.02,.12-.05,.23-.17,.25l-.57,.12c-.53,.11-.94,.5-1.08,1.02l-.45,1.9c-.02,.1-.11,.16-.21,.16Z" fill="#909090"/>
  <path d="M82.8,108.85c-.1,0-.19-.07-.21-.18-.02-.12,.06-.23,.18-.25,3.11-.52,3.73-2.88,3.76-2.98,.03-.11,.14-.18,.26-.16,.11,.03,.18,.14,.16,.26,0,.03-.7,2.74-4.1,3.3-.01,0-.02,0-.04,0Z" fill="#909090"/>
  <path d="M98.87,107.2s-.06,0-.08-.02c-2-.87-1.96-2.78-1.96-2.8,0-.12,.1-.21,.22-.21,.12,0,.21,.1,.21,.22,0,.07-.03,1.64,1.7,2.39,.11,.05,.16,.17,.11,.28-.03,.08-.11,.13-.2,.13Z" fill="#909090"/>
  <path d="M101.29,86.85c-.06,0-.13-.03-.17-.08-.07-.09-.05-.23,.04-.3l.38-.29c.36-.27,.78-.83,.79-.83,.07-.09,.21-.11,.3-.04,.09,.07,.11,.21,.04,.3-.02,.02-.47,.6-.87,.91l-.38,.29s-.08,.04-.13,.04Z"/>
  <path d="M100.64,86.11c-.08,0-.15-.04-.19-.12-.05-.1-.01-.23,.09-.29l.43-.22c.4-.21,.92-.68,.92-.68,.09-.08,.22-.07,.3,.01,.08,.09,.07,.22-.01,.3-.02,.02-.56,.51-1.01,.75l-.43,.22s-.07,.02-.1,.02Z"/>
  <path d="M85.87,78.17c-1.17,.21-7.59,1.45-8.13,8.67-.01,.17,.07,.32,.22,.41l3.71,2.13c.14,.08,.22,.23,.22,.39-.04,1.32-.25,7.32-.81,9.84-.44,1.97-.74,3.57-.89,4.37-.05,.28,.18,.54,.47,.51,.91-.08,2.71-.28,3.89-.65,1.49-.46,2.15-1.33,5.75,.16,.76,.31,1.61,.27,2.34-.11,1.97-1.04,6.08-2.9,8.91-1.96,.32,.11,.63-.18,.56-.51-.41-1.85-1.28-5.43-1.37-7.32-.12-2.36,1.08-10.12,.61-11.04-.53-1.03-1.21-2.56-4.95-4.22-3.35-1.48-6.9-1.35-10.51-.68Z" fill="#ed2a5b" stroke="#363636" stroke-miterlimit="10" stroke-width=".5"/>
  <path d="M79.53,95.76c1.1,1.65,2.38,2.17,5.16,1.45,2.78-.72,8.67-4.94,11.59-8.95,0,0,.2-.37,.77-.3,.57,.07,2.91,.97,4.65-.57,1.74-1.54,1.33-2.64,1.24-2.85-.15-.35-2.75,.1-3.45-.21-.7-.31-.69-.8-.17-1.52,.63-.86-.77-1.05-1.84,.47-.65,.93-1.74,2.14-2.73,2.64-1.02,.52-11.4,4.25-11.94,4.09s-3.91-2.2-3.91-2.2c0,0-.58,6.17,.63,7.96Z" fill="#fff"/>
  <path d="M82.61,97.74c-1.43,0-2.4-.59-3.25-1.86h0c-1.23-1.84-.68-7.85-.66-8.1l.03-.34,.29,.18c1.33,.81,3.44,2.04,3.85,2.18h0c.8,0,10.54-3.44,11.78-4.07,.97-.49,2.03-1.69,2.65-2.58,.63-.9,1.41-1.26,1.89-1.22,.22,.02,.39,.13,.46,.29,.06,.14,.09,.37-.16,.7-.27,.36-.38,.64-.33,.83,.04,.14,.17,.26,.41,.37,.3,.13,1.14,.1,1.81,.07,1.12-.04,1.63-.05,1.75,.25,.18,.43,.41,1.59-1.29,3.1-1.55,1.37-3.52,.92-4.46,.7-.15-.04-.28-.07-.36-.08-.42-.05-.56,.19-.56,.19v.02c-2.9,3.99-8.87,8.3-11.72,9.04-.82,.21-1.52,.32-2.13,.32Zm-2.9-2.1c.95,1.42,2.07,2.1,4.93,1.37,2.79-.72,8.62-4.95,11.46-8.87,.05-.09,.33-.47,.97-.39,.1,.01,.24,.04,.41,.08,.87,.2,2.69,.63,4.08-.6,1.45-1.28,1.33-2.21,1.2-2.58-.18-.07-.88-.04-1.35-.02-.79,.03-1.61,.06-2-.11-.36-.16-.58-.37-.65-.65-.09-.33,.04-.71,.39-1.19,.12-.16,.12-.26,.11-.28,0-.02-.04-.04-.11-.04-.29-.03-.93,.23-1.5,1.04-.65,.92-1.77,2.19-2.81,2.71-.52,.26-3.29,1.3-6.18,2.31-5.49,1.92-5.8,1.83-5.92,1.79-.47-.15-2.79-1.53-3.66-2.05-.1,1.31-.37,6.01,.62,7.48h0Z" fill="#363636"/>
  <path d="M101.15,87.78l-.04,.37-.23,2.13c-.24,1.88-.05,3.41-.05,3.41,0,.59,.46,1.38,.9,1.77,.51,.45,.78,.54,1.19,.69,1.56,.57,1.84,.3,2.41-1.32,.57-1.61,.37-2.62-.97-7.62,0,0-.07-1.01,.97-1.69,.92-.6,.47-2.05-.38-3.15-1.35-1.75-3.24,2.22-3.8,5.41h0Z" fill="#fff"/>
  <path d="M104.05,96.64c-.33,0-.73-.11-1.2-.29h-.02c-.41-.16-.71-.26-1.24-.73-.48-.42-.97-1.25-.97-1.92-.02-.16-.18-1.64,.05-3.45l.27-2.51c.39-2.2,1.62-5.63,3.05-5.98,.29-.07,.72-.05,1.13,.48,.69,.89,1.03,1.85,.91,2.56-.06,.38-.27,.7-.58,.9-.85,.56-.87,1.35-.87,1.48,1.34,5.04,1.54,6.07,.96,7.72-.33,.94-.56,1.42-1,1.63-.15,.07-.3,.1-.48,.1Zm-2.69-8.83l-.27,2.5c-.23,1.83-.05,3.34-.05,3.36h0v.03c0,.52,.43,1.25,.83,1.61,.47,.42,.71,.5,1.1,.65h.02c.72,.27,1.1,.33,1.35,.21,.3-.14,.5-.6,.78-1.39,.54-1.55,.37-2.47-.97-7.5v-.04s-.07-1.14,1.05-1.88c.22-.14,.35-.35,.39-.62,.1-.59-.22-1.44-.83-2.22-.32-.42-.6-.35-.69-.33-1.04,.26-2.3,3.18-2.73,5.63Z" fill="#363636"/>
  <path d="M102.08,84.5s-2.3,.25-3.01-.32c-.53-.42,.46-1.66,.53-1.76,.62-.82,2.08-2.73,2.29-3.01,.2-.25,.57-.79,1.06-.79,.57,0,2.86-.03,3.06,.05,.41,.18,.24,.76-.06,1.07-.3,.32-3.87,4.74-3.87,4.74h0Z" fill="#909090"/>
  <path d="M100.97,84.77c-.73,0-1.61-.08-2.04-.42-.59-.46,.05-1.48,.48-2.04h0c.62-.82,2.08-2.75,2.3-3.02l.06-.07c.23-.3,.62-.8,1.17-.8,.09,0,.23,0,.4,0,1.92-.01,2.59,0,2.75,.08,.19,.08,.32,.24,.36,.44,.07,.35-.13,.74-.35,.97-.23,.25-2.62,3.2-3.86,4.73-.04,.04-.09,.07-.14,.08-.11,.01-.57,.06-1.13,.06Zm1.1-.27h0Zm2.26-5.66c-.39,0-.75,0-.98,0-.17,0-.3,0-.4,0-.34,0-.65,.4-.83,.63l-.06,.08c-.22,.27-1.67,2.19-2.29,3h-.01c-.53,.71-.76,1.3-.56,1.46,.5,.4,2.09,.34,2.76,.28,.47-.59,3.54-4.38,3.82-4.68,.17-.18,.27-.44,.24-.6-.01-.06-.05-.1-.11-.13-.13-.03-.89-.04-1.59-.04Z" fill="#262626"/>
  <path d="M93.08,73.74l.26,3.69c.06,.48,.4,.87,.87,1l.48,.12c.33,.09,.42,.52,.15,.72l-.17,.13c-1.86,1.42-4.44,1.42-6.31,0l-.62-.47c-.28-.21-.18-.65,.16-.73l.74-.17c.46-.1,.82-.47,.9-.94l.71-4.88,2.82,1.52Z" fill="#fff"/>
  <path d="M91.51,80.67c-1.16,0-2.31-.37-3.28-1.1l-.62-.47c-.2-.15-.29-.39-.23-.63,.05-.24,.23-.42,.47-.48l.74-.17c.38-.08,.67-.39,.74-.77l.71-4.87c.01-.07,.05-.13,.12-.16,.06-.03,.14-.03,.2,0l2.82,1.52c.06,.03,.11,.1,.11,.17l.26,3.69c.05,.38,.33,.7,.71,.8l.48,.12c.23,.06,.41,.25,.46,.48,.05,.24-.04,.47-.23,.62l-.17,.13c-.97,.74-2.13,1.1-3.29,1.1Zm-1.09-8.12l-.67,4.57c-.1,.56-.52,.99-1.07,1.12l-.74,.17c-.11,.03-.14,.12-.15,.15,0,.03-.02,.13,.07,.2l.62,.47c1.78,1.35,4.27,1.35,6.05,0l.17-.13c.09-.07,.08-.17,.07-.2,0-.03-.03-.12-.14-.15l-.48-.12c-.56-.14-.96-.61-1.03-1.18l-.26-3.58-2.45-1.32Z" fill="#363636"/>
  <path d="M97.27,68.61c-.89-.47-.17,.99-3.09-1.53-1.16-1-1.2,.87-1.5,.61-1.11-.96-1.08-.93-1.78-1.05-.47-.08-1.09,.56-1.27,1.17-.24,.8,.29,1.28,.11,3.13-.13,1.3-.54,1.94-.16,2.3,.38,.37,.99-.08,1.44,.29,.57,.49-.08,1.57,.34,2.34,.27,.48,1.15,1.05,2.99,1.01,.3,0,.55-.23,.6-.52,.06-.38,.14-.86,.17-1.33,.17-2.22-.31-2.95,.16-3.33,.72-.58,1.94,.5,2.46,0,.54-.53,.74-2.44-.47-3.08Z" fill="#363636"/>
  <path d="M92.86,69.85l.04,.61c.02,.29,.01,.57,0,.86-.04,.53-.11,1.45-.1,1.97,0,.76,2.36,.91,2.36,.91l.3-.33h.28c.05,.01,.11,0,.16-.02,.12-.06,.18-.19,.16-.31-.11-.67-.31-2.15-.09-3.31,0,0-1.31-1.06-3.08-.37Z" fill="#fff"/>
  <path d="M95.14,74.41h-.01c-.43-.03-2.55-.21-2.56-1.12,0-.53,.06-1.47,.1-1.99,.02-.27,.02-.55,0-.83l-.04-.61c0-.09,.05-.18,.14-.21,1.87-.73,3.23,.36,3.29,.4,.06,.05,.09,.13,.08,.21-.21,1.14,0,2.64,.09,3.23,.04,.22-.07,.43-.27,.54-.08,.04-.17,.06-.26,.06h-.18l-.23,.25s-.1,.07-.16,.07Zm-2.06-4.41l.03,.45c.02,.29,.02,.59,0,.89-.04,.51-.11,1.44-.1,1.95,0,.32,1.04,.61,2.05,.69l.23-.25s.1-.07,.17-.07h.28s.04,0,.05,0c.04-.02,.05-.06,.05-.09-.12-.74-.29-2.11-.11-3.25-.31-.21-1.31-.76-2.62-.32Z" fill="#363636"/>
  <path d="M92.45,71.72s-.09-1.46-.74-1.27c-.65,.18-.52,1.78,.74,1.27h0Z" fill="#fff"/>
</svg>